<svg version="1.1" viewBox="0.0 0.0 960.0 540.0" fill="none" stroke="none" stroke-linecap="square" stroke-miterlimit="10" xmlns:xlink="http://www.w3.org/1999/xlink" xmlns="http://www.w3.org/2000/svg"><clipPath id="ge1138948b8_0_0.0"><path d="m0 0l960.0 0l0 540.0l-960.0 0l0 -540.0z" clip-rule="nonzero"/></clipPath><g clip-path="url(#ge1138948b8_0_0.0)"><path fill="#ffffff" d="m0 0l960.0 0l0 540.0l-960.0 0z" fill-rule="evenodd"/><path fill="#000000" fill-opacity="0.0" d="m61.559055 122.40945l836.88184 0l0 295.1811l-836.88184 0z" fill-rule="evenodd"/><path fill="#ffffff" d="m122.96796 131.40945l714.0641 0l0 51.199997l-714.0641 0l0 -51.199997z" fill-rule="nonzero"/><path fill="#000000" fill-opacity="0.0" d="m122.96796 131.07826l714.06415 0l0 51.997894l-714.06415 0l0 -51.997894z" fill-rule="nonzero"/><path fill="#000000" d="m146.63983 163.9632l-17.3125 0l-3.796875 8.40625l-2.34375 0l13.734375 -29.859375l2.171875 0l13.734375 29.859375l-2.34375 0l-3.84375 -8.40625zm-0.8125 -1.828125l-7.84375 -17.234375l-7.8125 17.234375l15.65625 0zm22.562408 8.828125q-0.796875 0.765625 -2.015625 1.171875q-1.21875 0.40625 -2.546875 0.40625q-2.890625 0 -4.46875 -1.59375q-1.578125 -1.609375 -1.578125 -4.46875l0 -14.546875l-4.09375 0l0 -1.828125l4.09375 0l0 -4.859375l2.125 0l0 4.859375l7.078125 0l0 1.828125l-7.078125 0l0 14.34375q0 2.171875 1.046875 3.3125q1.046875 1.125 3.09375 1.125q2.09375 0 3.453125 -1.25l0.890625 1.5zm38.189804 -0.5625l0 1.96875l-20.609375 0l0 -29.859375l19.96875 0l0 1.96875l-17.796875 0l0 11.765625l15.921875 0l0 1.921875l-15.921875 0l0 12.234375l18.4375 0zm15.559235 2.140625q-3.15625 0 -5.703125 -1.453125q-2.53125 -1.453125 -3.984375 -4.03125q-1.4375 -2.578125 -1.4375 -5.828125q0 -3.234375 1.4375 -5.8125q1.453125 -2.578125 3.984375 -4.03125q2.546875 -1.453125 5.703125 -1.453125q3.15625 0 5.6875 1.453125q2.546875 1.453125 4.0 4.03125q1.453125 2.578125 1.453125 5.8125q0 3.25 -1.453125 5.828125q-1.453125 2.578125 -4.0 4.03125q-2.53125 1.453125 -5.6875 1.453125zm0 -1.921875q2.5625 0 4.578125 -1.1875q2.03125 -1.203125 3.203125 -3.328125q1.1875 -2.140625 1.1875 -4.875q0 -2.71875 -1.1875 -4.84375q-1.171875 -2.140625 -3.203125 -3.328125q-2.015625 -1.203125 -4.578125 -1.203125q-2.5625 0 -4.59375 1.203125q-2.015625 1.1875 -3.1875 3.328125q-1.171875 2.125 -1.171875 4.84375q0 2.734375 1.171875 4.875q1.171875 2.125 3.1875 3.328125q2.03125 1.1875 4.59375 1.1875zm28.634338 -20.6875q4.171875 0 6.5937653 2.4375q2.4375 2.421875 2.4375 6.984375l0 13.015625l-2.125 0l0 -12.84375q0 -3.75 -1.9062653 -5.703125q-1.890625 -1.96875 -5.3125 -1.96875q-3.921875 0 -6.1875 2.34375q-2.25 2.34375 -2.25 6.3125l0 11.859375l-2.140625 0l0 -22.265625l2.046875 0l0 4.8125q1.15625 -2.34375 3.4375 -3.65625q2.28125 -1.328125 5.40625 -1.328125zm20.676376 -5.453125l0 12.75l15.921875 0l0 1.953125l-15.921875 0l0 13.1875l-2.171875 0l0 -29.859375l19.96875 0l0 1.96875l-17.796875 0zm24.056671 -3.765625l2.140625 0l0 31.65625l-2.140625 0l0 -31.65625zm30.63327 9.390625l0 22.265625l-2.046875 0l0 -4.78125q-1.109375 2.34375 -3.28125 3.65625q-2.171875 1.296875 -5.125 1.296875q-4.34375 0 -6.828125 -2.421875q-2.46875 -2.4375 -2.46875 -7.0l0 -13.015625l2.125 0l0 12.84375q0 3.75 1.921875 5.71875q1.921875 1.953125 5.421875 1.953125q3.75 0 5.9375 -2.34375q2.203125 -2.34375 2.203125 -6.3125l0 -11.859375l2.140625 0zm23.208862 22.265625l-7.640625 -9.9375l-7.640625 9.9375l-2.421875 0l8.828125 -11.46875l-8.359375 -10.796875l2.421875 0l7.171875 9.25l7.171875 -9.25l2.390625 0l-8.359375 10.796875l8.953125 11.46875l-2.515625 0zm27.632446 0.171875q-3.15625 0 -5.703125 -1.453125q-2.53125 -1.453125 -3.984375 -4.03125q-1.4375 -2.578125 -1.4375 -5.828125q0 -3.234375 1.4375 -5.8125q1.453125 -2.578125 3.984375 -4.03125q2.546875 -1.453125 5.703125 -1.453125q3.15625 0 5.6875 1.453125q2.546875 1.453125 4.0 4.03125q1.453125 2.578125 1.453125 5.8125q0 3.25 -1.453125 5.828125q-1.453125 2.578125 -4.0 4.03125q-2.53125 1.453125 -5.6875 1.453125zm0 -1.921875q2.5625 0 4.578125 -1.1875q2.03125 -1.203125 3.203125 -3.328125q1.1875 -2.140625 1.1875 -4.875q0 -2.71875 -1.1875 -4.84375q-1.171875 -2.140625 -3.203125 -3.328125q-2.015625 -1.203125 -4.578125 -1.203125q-2.5625 0 -4.59375 1.203125q-2.015625 1.1875 -3.1875 3.328125q-1.171875 2.125 -1.171875 4.84375q0 2.734375 1.171875 4.875q1.171875 2.125 3.1875 3.328125q2.03125 1.1875 4.59375 1.1875zm37.243713 -20.515625l0 22.265625l-2.046875 0l0 -4.78125q-1.109375 2.34375 -3.28125 3.65625q-2.171875 1.296875 -5.125 1.296875q-4.34375 0 -6.828125 -2.421875q-2.46875 -2.4375 -2.46875 -7.0l0 -13.015625l2.125 0l0 12.84375q0 3.75 1.921875 5.71875q1.921875 1.953125 5.421875 1.953125q3.75 0 5.9375 -2.34375q2.203125 -2.34375 2.203125 -6.3125l0 -11.859375l2.140625 0zm11.083862 4.859375q1.03125 -2.421875 3.203125 -3.71875q2.171875 -1.3125 5.296875 -1.3125l0 2.09375l-0.515625 -0.046875q-3.71875 0 -5.8125 2.328125q-2.078125 2.328125 -2.078125 6.453125l0 11.609375l-2.140625 0l0 -22.265625l2.046875 0l0 4.859375zm53.456696 -5.03125q4.140625 0 6.5 2.4375q2.375 2.421875 2.375 6.984375l0 13.015625l-2.140625 0l0 -12.84375q0 -3.75 -1.84375 -5.703125q-1.828125 -1.96875 -5.109375 -1.96875q-3.75 0 -5.953125 2.34375q-2.1875 2.34375 -2.1875 6.3125l0 11.859375l-2.140625 0l0 -12.84375q0 -3.75 -1.828125 -5.703125q-1.828125 -1.96875 -5.125 -1.96875q-3.75 0 -5.953125 2.34375q-2.1875 2.34375 -2.1875 6.3125l0 11.859375l-2.140625 0l0 -22.265625l2.046875 0l0 4.78125q1.109375 -2.34375 3.3125 -3.640625q2.203125 -1.3125 5.21875 -1.3125q3.03125 0 5.140625 1.375q2.125 1.359375 3.015625 4.0q1.109375 -2.46875 3.46875 -3.921875q2.375 -1.453125 5.53125 -1.453125zm17.651794 0.171875l2.140625 0l0 22.265625l-2.140625 0l0 -22.265625zm1.078125 -5.421875q-0.71875 0 -1.234375 -0.484375q-0.515625 -0.5 -0.515625 -1.21875q0 -0.71875 0.515625 -1.234375q0.515625 -0.515625 1.234375 -0.515625q0.71875 0 1.234375 0.5q0.515625 0.484375 0.515625 1.203125q0 0.734375 -0.515625 1.25q-0.515625 0.5 -1.234375 0.5zm15.695801 27.859375q-2.6875305 0 -5.1250305 -0.8125q-2.421875 -0.8125 -3.796875 -2.046875l0.984375 -1.703125q1.359375 1.15625 3.515625 1.921875q2.15625 0.765625 4.5000305 0.765625q3.375 0 4.96875 -1.109375q1.609375 -1.109375 1.609375 -3.078125q0 -1.40625 -0.875 -2.21875q-0.875 -0.8125 -2.15625 -1.1875q-1.28125 -0.390625 -3.546875 -0.8125q-2.6406555 -0.46875 -4.2656555 -1.015625q-1.625 -0.5625 -2.78125 -1.796875q-1.140625 -1.234375 -1.140625 -3.421875q0 -2.640625 2.1875 -4.359375q2.203125 -1.734375 6.2656555 -1.734375q2.125 0 4.21875 0.59375q2.09375 0.59375 3.40625 1.578125l-0.984375 1.703125q-1.359375 -0.96875 -3.109375 -1.484375q-1.75 -0.515625 -3.578125 -0.515625q-3.1094055 0 -4.6875305 1.15625q-1.578125 1.15625 -1.578125 3.03125q0 1.484375 0.890625 2.328125q0.890625 0.828125 2.1875 1.234375q1.3125 0.40625 3.6562805 0.875q2.59375 0.46875 4.1875 1.0q1.609375 0.53125 2.71875 1.734375q1.109375 1.1875 1.109375 3.28125q0 2.765625 -2.3125 4.4375q-2.296875 1.65625 -6.46875 1.65625zm20.389648 0q-2.6875 0 -5.125 -0.8125q-2.421875 -0.8125 -3.796875 -2.046875l0.984375 -1.703125q1.359375 1.15625 3.515625 1.921875q2.15625 0.765625 4.5 0.765625q3.375 0 4.96875 -1.109375q1.609375 -1.109375 1.609375 -3.078125q0 -1.40625 -0.875 -2.21875q-0.875 -0.8125 -2.15625 -1.1875q-1.28125 -0.390625 -3.546875 -0.8125q-2.640625 -0.46875 -4.265625 -1.015625q-1.625 -0.5625 -2.78125 -1.796875q-1.140625 -1.234375 -1.140625 -3.421875q0 -2.640625 2.1875 -4.359375q2.203125 -1.734375 6.265625 -1.734375q2.125 0 4.21875 0.59375q2.09375 0.59375 3.40625 1.578125l-0.984375 1.703125q-1.359375 -0.96875 -3.109375 -1.484375q-1.75 -0.515625 -3.578125 -0.515625q-3.109375 0 -4.6875 1.15625q-1.578125 1.15625 -1.578125 3.03125q0 1.484375 0.890625 2.328125q0.890625 0.828125 2.1875 1.234375q1.3125 0.40625 3.65625 0.875q2.59375 0.46875 4.1875 1.0q1.609375 0.53125 2.71875 1.734375q1.109375 1.1875 1.109375 3.28125q0 2.765625 -2.3125 4.4375q-2.296875 1.65625 -6.46875 1.65625zm14.749023 -22.4375l2.140625 0l0 22.265625l-2.140625 0l0 -22.265625zm1.078125 -5.421875q-0.71875 0 -1.234375 -0.484375q-0.515625 -0.5 -0.515625 -1.21875q0 -0.71875 0.515625 -1.234375q0.515625 -0.515625 1.234375 -0.515625q0.71875 0 1.234375 0.5q0.515625 0.484375 0.515625 1.203125q0 0.734375 -0.515625 1.25q-0.515625 0.5 -1.234375 0.5zm18.75824 27.859375q-3.15625 0 -5.703125 -1.453125q-2.53125 -1.453125 -3.984375 -4.03125q-1.4375 -2.578125 -1.4375 -5.828125q0 -3.234375 1.4375 -5.8125q1.453125 -2.578125 3.984375 -4.03125q2.546875 -1.453125 5.703125 -1.453125q3.15625 0 5.6875 1.453125q2.546875 1.453125 4.0 4.03125q1.453125 2.578125 1.453125 5.8125q0 3.25 -1.453125 5.828125q-1.453125 2.578125 -4.0 4.03125q-2.53125 1.453125 -5.6875 1.453125zm0 -1.921875q2.5625 0 4.578125 -1.1875q2.03125 -1.203125 3.203125 -3.328125q1.1875 -2.140625 1.1875 -4.875q0 -2.71875 -1.1875 -4.84375q-1.171875 -2.140625 -3.203125 -3.328125q-2.015625 -1.203125 -4.578125 -1.203125q-2.5625 0 -4.59375 1.203125q-2.015625 1.1875 -3.1875 3.328125q-1.171875 2.125 -1.171875 4.84375q0 2.734375 1.171875 4.875q1.171875 2.125 3.1875 3.328125q2.03125 1.1875 4.59375 1.1875zm28.6344 -20.6875q4.171875 0 6.59375 2.4375q2.4375 2.421875 2.4375 6.984375l0 13.015625l-2.125 0l0 -12.84375q0 -3.75 -1.90625 -5.703125q-1.890625 -1.96875 -5.3125 -1.96875q-3.921875 0 -6.1875 2.34375q-2.25 2.34375 -2.25 6.3125l0 11.859375l-2.140625 0l0 -22.265625l2.046875 0l0 4.8125q1.15625 -2.34375 3.4375 -3.65625q2.28125 -1.328125 5.40625 -1.328125zm28.779602 0.171875l2.140625 0l0 22.265625l-2.140625 0l0 -22.265625zm1.078125 -5.421875q-0.71875 0 -1.234375 -0.484375q-0.515625 -0.5 -0.515625 -1.21875q0 -0.71875 0.515625 -1.234375q0.515625 -0.515625 1.234375 -0.515625q0.71875 0 1.234375 0.5q0.515625 0.484375 0.515625 1.203125q0 0.734375 -0.515625 1.25q-0.515625 0.5 -1.234375 0.5zm15.69574 27.859375q-2.6875 0 -5.125 -0.8125q-2.421875 -0.8125 -3.796875 -2.046875l0.984375 -1.703125q1.359375 1.15625 3.515625 1.921875q2.15625 0.765625 4.5 0.765625q3.375 0 4.96875 -1.109375q1.609375 -1.109375 1.609375 -3.078125q0 -1.40625 -0.875 -2.21875q-0.875 -0.8125 -2.15625 -1.1875q-1.28125 -0.390625 -3.546875 -0.8125q-2.640625 -0.46875 -4.265625 -1.015625q-1.625 -0.5625 -2.78125 -1.796875q-1.140625 -1.234375 -1.140625 -3.421875q0 -2.640625 2.1875 -4.359375q2.203125 -1.734375 6.265625 -1.734375q2.125 0 4.21875 0.59375q2.09375 0.59375 3.40625 1.578125l-0.984375 1.703125q-1.359375 -0.96875 -3.109375 -1.484375q-1.75 -0.515625 -3.578125 -0.515625q-3.109375 0 -4.6875 1.15625q-1.578125 1.15625 -1.578125 3.03125q0 1.484375 0.890625 2.328125q0.890625 0.828125 2.1875 1.234375q1.3125 0.40625 3.65625 0.875q2.59375 0.46875 4.1875 1.0q1.609375 0.53125 2.71875 1.734375q1.109375 1.1875 1.109375 3.28125q0 2.765625 -2.3125 4.4375q-2.296875 1.65625 -6.46875 1.65625zm36.758545 -1.578125q-0.796875 0.765625 -2.015625 1.171875q-1.21875 0.40625 -2.546875 0.40625q-2.890625 0 -4.46875 -1.59375q-1.578125 -1.609375 -1.578125 -4.46875l0 -14.546875l-4.09375 0l0 -1.828125l4.09375 0l0 -4.859375l2.125 0l0 4.859375l7.078125 0l0 1.828125l-7.078125 0l0 14.34375q0 2.171875 1.046875 3.3125q1.046875 1.125 3.09375 1.125q2.09375 0 3.453125 -1.25l0.890625 1.5zm13.822754 1.578125q-3.15625 0 -5.703125 -1.453125q-2.53125 -1.453125 -3.984375 -4.03125q-1.4375 -2.578125 -1.4375 -5.828125q0 -3.234375 1.4375 -5.8125q1.453125 -2.578125 3.984375 -4.03125q2.546875 -1.453125 5.703125 -1.453125q3.15625 0 5.6875 1.453125q2.546875 1.453125 4.0 4.03125q1.453125 2.578125 1.453125 5.8125q0 3.25 -1.453125 5.828125q-1.453125 2.578125 -4.0 4.03125q-2.53125 1.453125 -5.6875 1.453125zm0 -1.921875q2.5625 0 4.578125 -1.1875q2.03125 -1.203125 3.203125 -3.328125q1.1875 -2.140625 1.1875 -4.875q0 -2.71875 -1.1875 -4.84375q-1.171875 -2.140625 -3.203125 -3.328125q-2.015625 -1.203125 -4.578125 -1.203125q-2.5625 0 -4.59375 1.203125q-2.015625 1.1875 -3.1875 3.328125q-1.171875 2.125 -1.171875 4.84375q0 2.734375 1.171875 4.875q1.171875 2.125 3.1875 3.328125q2.03125 1.1875 4.59375 1.1875zm56.440796 -20.6875q4.140625 0 6.5 2.4375q2.375 2.421875 2.375 6.984375l0 13.015625l-2.140625 0l0 -12.84375q0 -3.75 -1.84375 -5.703125q-1.828125 -1.96875 -5.109375 -1.96875q-3.75 0 -5.953125 2.34375q-2.1875 2.34375 -2.1875 6.3125l0 11.859375l-2.140625 0l0 -12.84375q0 -3.75 -1.828125 -5.703125q-1.828125 -1.96875 -5.125 -1.96875q-3.75 0 -5.953125 2.34375q-2.1875 2.34375 -2.1875 6.3125l0 11.859375l-2.140625 0l0 -22.265625l2.046875 0l0 4.78125q1.109375 -2.34375 3.3125 -3.640625q2.203125 -1.3125 5.21875 -1.3125q3.03125 0 5.140625 1.375q2.125 1.359375 3.015625 4.0q1.109375 -2.46875 3.46875 -3.921875q2.375 -1.453125 5.53125 -1.453125zm25.167358 0q4.140625 0 6.359375 2.109375q2.21875 2.109375 2.21875 6.203125l0 14.125l-2.046875 0l0 -3.96875q-1.078125 1.96875 -3.125 3.0625q-2.046875 1.078125 -4.90625 1.078125q-3.703125 0 -5.859375 -1.75q-2.15625 -1.75 -2.15625 -4.609375q0 -2.765625 1.984375 -4.484375q1.984375 -1.734375 6.328125 -1.734375l7.640625 0l0 -1.796875q0 -3.109375 -1.6875 -4.734375q-1.6875 -1.625 -4.921875 -1.625q-2.21875 0 -4.25 0.765625q-2.015625 0.765625 -3.421875 2.046875l-1.078125 -1.53125q1.671875 -1.5 4.015625 -2.328125q2.34375 -0.828125 4.90625 -0.828125zm-1.203125 20.859375q2.78125 0 4.71875 -1.28125q1.9375 -1.28125 2.921875 -3.703125l0 -4.1875l-7.59375 0q-3.28125 0 -4.75 1.203125q-1.46875 1.1875 -1.46875 3.28125q0 2.171875 1.609375 3.4375q1.625 1.25 4.5625 1.25zm26.493652 -10.328125l-5.796875 5.296875l0 6.609375l-2.140625 0l0 -31.65625l2.140625 0l0 22.40625l14.25 -13.015625l2.71875 0l-9.59375 9.0l10.53125 13.265625l-2.640625 0l-9.46875 -11.90625zm35.06079 1.28125l-19.140625 0q0.078125 2.609375 1.3125 4.640625q1.234375 2.015625 3.34375 3.125q2.125 1.109375 4.765625 1.109375q2.171875 0 4.03125 -0.78125q1.859375 -0.796875 3.09375 -2.328125l1.234375 1.40625q-1.453125 1.75 -3.65625 2.6875q-2.1875 0.9375 -4.75 0.9375q-3.328125 0 -5.9375 -1.453125q-2.59375 -1.453125 -4.0625 -4.0q-1.46875 -2.5625 -1.46875 -5.859375q0 -3.234375 1.375 -5.8125q1.390625 -2.578125 3.8125 -4.03125q2.4375 -1.453125 5.46875 -1.453125q3.03125 0 5.4375 1.4375q2.421875 1.421875 3.796875 3.984375q1.390625 2.5625 1.390625 5.796875l-0.046875 0.59375zm-10.578125 -9.9375q-2.34375 0 -4.21875 1.046875q-1.875 1.046875 -3.015625 2.953125q-1.125 1.890625 -1.296875 4.28125l17.0625 0q-0.125 -2.390625 -1.28125 -4.265625q-1.140625 -1.875 -3.03125 -2.9375q-1.875 -1.078125 -4.21875 -1.078125z" fill-rule="nonzero"/><path fill="#000000" fill-opacity="0.0" d="m837.0321 131.07826l10.9626465 0l0 51.997894l-10.9626465 0l0 -51.997894z" fill-rule="nonzero"/><path fill="#ffffff" d="m93.74841 186.8761l772.5031 0l0 51.199997l-772.5031 0l0 -51.199997z" fill-rule="nonzero"/><path fill="#000000" fill-opacity="0.0" d="m93.74841 186.5449l681.9442 0l0 51.997894l-681.9442 0l0 -51.997894z" fill-rule="nonzero"/><path fill="#000000" d="m106.96716 228.00797q-3.15625 0 -5.703125 -1.453125q-2.53125 -1.453125 -3.984375 -4.03125q-1.4375 -2.578125 -1.4375 -5.828125q0 -3.234375 1.4375 -5.8125q1.453125 -2.578125 3.984375 -4.03125q2.546875 -1.453125 5.703125 -1.453125q3.15625 0 5.6875 1.453125q2.546875 1.453125 4.0 4.03125q1.453125 2.578125 1.453125 5.8125q0 3.25 -1.453125 5.828125q-1.453125 2.578125 -4.0 4.03125q-2.53125 1.453125 -5.6875 1.453125zm0 -1.921875q2.5625 0 4.578125 -1.1875q2.03125 -1.203125 3.203125 -3.328125q1.1875 -2.140625 1.1875 -4.875q0 -2.71875 -1.1875 -4.84375q-1.171875 -2.140625 -3.203125 -3.328125q-2.015625 -1.203125 -4.578125 -1.203125q-2.5625 0 -4.59375 1.203125q-2.015625 1.1875 -3.1875 3.328125q-1.171875 2.125 -1.171875 4.84375q0 2.734375 1.171875 4.875q1.171875 2.125 3.1875 3.328125q2.03125 1.1875 4.59375 1.1875zm37.243713 -20.515625l0 22.265625l-2.046875 0l0 -4.78125q-1.109375 2.34375 -3.28125 3.65625q-2.171875 1.296875 -5.125 1.296875q-4.34375 0 -6.828125 -2.421875q-2.46875 -2.4375 -2.46875 -7.0l0 -13.015625l2.125 0l0 12.84375q0 3.75 1.921875 5.71875q1.921875 1.953125 5.421875 1.953125q3.75 0 5.9375 -2.34375q2.203125 -2.34375 2.203125 -6.3125l0 -11.859375l2.140625 0zm20.083862 20.859375q-0.796875 0.765625 -2.015625 1.171875q-1.21875 0.40625 -2.546875 0.40625q-2.890625 0 -4.46875 -1.59375q-1.578125 -1.609375 -1.578125 -4.46875l0 -14.546875l-4.09375 0l0 -1.828125l4.09375 0l0 -4.859375l2.125 0l0 4.859375l7.078125 0l0 1.828125l-7.078125 0l0 14.34375q0 2.171875 1.046875 3.3125q1.046875 1.125 3.09375 1.125q2.09375 0 3.453125 -1.25l0.890625 1.5zm11.570908 1.578125q-2.6875 0 -5.125 -0.8125q-2.421875 -0.8125 -3.796875 -2.046875l0.984375 -1.703125q1.359375 1.15625 3.515625 1.921875q2.15625 0.765625 4.5 0.765625q3.375 0 4.96875 -1.109375q1.609375 -1.109375 1.609375 -3.078125q0 -1.40625 -0.875 -2.21875q-0.875 -0.8125 -2.15625 -1.1875q-1.28125 -0.390625 -3.546875 -0.8125q-2.640625 -0.46875 -4.265625 -1.015625q-1.625 -0.5625 -2.78125 -1.796875q-1.140625 -1.234375 -1.140625 -3.421875q0 -2.640625 2.1875 -4.359375q2.203125 -1.734375 6.265625 -1.734375q2.125 0 4.21875 0.59375q2.09375 0.59375 3.40625 1.578125l-0.984375 1.703125q-1.359375 -0.96875 -3.109375 -1.484375q-1.75 -0.515625 -3.578125 -0.515625q-3.109375 0 -4.6875 1.15625q-1.578125 1.15625 -1.578125 3.03125q0 1.484375 0.890625 2.328125q0.890625 0.828125 2.1875 1.234375q1.3125 0.40625 3.65625 0.875q2.59375 0.46875 4.1875 1.0q1.609375 0.53125 2.71875 1.734375q1.109375 1.1875 1.109375 3.28125q0 2.765625 -2.3125 4.4375q-2.296875 1.65625 -6.46875 1.65625zm25.795898 -1.578125q-0.796875 0.765625 -2.015625 1.171875q-1.21875 0.40625 -2.546875 0.40625q-2.890625 0 -4.46875 -1.59375q-1.578125 -1.609375 -1.578125 -4.46875l0 -14.546875l-4.09375 0l0 -1.828125l4.09375 0l0 -4.859375l2.125 0l0 4.859375l7.078125 0l0 1.828125l-7.078125 0l0 14.34375q0 2.171875 1.046875 3.3125q1.046875 1.125 3.09375 1.125q2.09375 0 3.453125 -1.25l0.890625 1.5zm13.445908 -21.03125q4.140625 0 6.359375 2.109375q2.21875 2.109375 2.21875 6.203125l0 14.125l-2.046875 0l0 -3.96875q-1.078125 1.96875 -3.125 3.0625q-2.046875 1.078125 -4.90625 1.078125q-3.703125 0 -5.859375 -1.75q-2.15625 -1.75 -2.15625 -4.609375q0 -2.765625 1.984375 -4.484375q1.984375 -1.734375 6.328125 -1.734375l7.640625 0l0 -1.796875q0 -3.109375 -1.6875 -4.734375q-1.6875 -1.625 -4.921875 -1.625q-2.21875 0 -4.25 0.765625q-2.015625 0.765625 -3.421875 2.046875l-1.078125 -1.53125q1.671875 -1.5 4.015625 -2.328125q2.34375 -0.828125 4.90625 -0.828125zm-1.203125 20.859375q2.78125 0 4.71875 -1.28125q1.9375 -1.28125 2.921875 -3.703125l0 -4.1875l-7.59375 0q-3.28125 0 -4.75 1.203125q-1.46875 1.1875 -1.46875 3.28125q0 2.171875 1.609375 3.4375q1.625 1.25 4.5625 1.25zm29.446686 -20.859375q4.171875 0 6.59375 2.4375q2.4375 2.421875 2.4375 6.984375l0 13.015625l-2.125 0l0 -12.84375q0 -3.75 -1.90625 -5.703125q-1.890625 -1.96875 -5.3125 -1.96875q-3.921875 0 -6.1875 2.34375q-2.25 2.34375 -2.25 6.3125l0 11.859375l-2.140625 0l0 -22.265625l2.046875 0l0 4.8125q1.15625 -2.34375 3.4375 -3.65625q2.28125 -1.328125 5.40625 -1.328125zm37.656525 -9.21875l0 31.65625l-2.09375 0l0 -5.25q-1.3125 2.609375 -3.703125 4.015625q-2.390625 1.40625 -5.421875 1.40625q-3.109375 0 -5.625 -1.453125q-2.515625 -1.453125 -3.953125 -4.0q-1.421875 -2.5625 -1.421875 -5.859375q0 -3.28125 1.421875 -5.859375q1.4375 -2.578125 3.953125 -4.0q2.515625 -1.4375 5.625 -1.4375q2.984375 0 5.34375 1.40625q2.375 1.40625 3.75 3.921875l0 -14.546875l2.125 0zm-11.09375 29.90625q2.5625 0 4.578125 -1.1875q2.03125 -1.203125 3.203125 -3.328125q1.1875 -2.140625 1.1875 -4.875q0 -2.71875 -1.1875 -4.84375q-1.171875 -2.140625 -3.203125 -3.328125q-2.015625 -1.203125 -4.578125 -1.203125q-2.5625 0 -4.59375 1.203125q-2.015625 1.1875 -3.1875 3.328125q-1.171875 2.125 -1.171875 4.84375q0 2.734375 1.171875 4.875q1.171875 2.125 3.1875 3.328125q2.03125 1.1875 4.59375 1.1875zm20.089813 -20.515625l2.140625 0l0 22.265625l-2.140625 0l0 -22.265625zm1.078125 -5.421875q-0.71875 0 -1.234375 -0.484375q-0.515625 -0.5 -0.515625 -1.21875q0 -0.71875 0.515625 -1.234375q0.515625 -0.515625 1.234375 -0.515625q0.71875 0 1.234375 0.5q0.515625 0.484375 0.515625 1.203125q0 0.734375 -0.515625 1.25q-0.515625 0.5 -1.234375 0.5zm20.94577 5.25q4.171875 0 6.59375 2.4375q2.4375 2.421875 2.4375 6.984375l0 13.015625l-2.125 0l0 -12.84375q0 -3.75 -1.90625 -5.703125q-1.890625 -1.96875 -5.3125 -1.96875q-3.921875 0 -6.1875 2.34375q-2.25 2.34375 -2.25 6.3125l0 11.859375l-2.140625 0l0 -22.265625l2.046875 0l0 4.8125q1.15625 -2.34375 3.4375 -3.65625q2.28125 -1.328125 5.40625 -1.328125zm37.906494 0.171875l0 19.875q0 5.546875 -2.6875 8.1875q-2.6875 2.65625 -8.09375 2.65625q-3.078125 0 -5.8125 -0.953125q-2.71875 -0.9375 -4.390625 -2.59375l1.15625 -1.625q1.65625 1.53125 4.0 2.390625q2.359375 0.859375 5.0 0.859375q4.4375 0 6.5625 -2.125q2.140625 -2.109375 2.140625 -6.53125l0 -3.765625q-1.359375 2.4375 -3.796875 3.765625q-2.4375 1.3125 -5.453125 1.3125q-3.125 0 -5.671875 -1.375q-2.53125 -1.390625 -3.984375 -3.859375q-1.4375 -2.484375 -1.4375 -5.59375q0 -3.125 1.4375 -5.59375q1.453125 -2.46875 3.984375 -3.828125q2.546875 -1.375 5.671875 -1.375q3.0625 0 5.53125 1.375q2.484375 1.359375 3.796875 3.828125l0 -5.03125l2.046875 0zm-11.21875 19.53125q2.609375 0 4.703125 -1.125q2.09375 -1.125 3.265625 -3.15625q1.171875 -2.03125 1.171875 -4.625q0 -2.609375 -1.171875 -4.609375q-1.171875 -2.0 -3.265625 -3.125q-2.09375 -1.140625 -4.703125 -1.140625q-2.59375 0 -4.671875 1.140625q-2.0625 1.125 -3.234375 3.125q-1.171875 2.0 -1.171875 4.609375q0 2.59375 1.171875 4.625q1.171875 2.03125 3.234375 3.15625q2.078125 1.125 4.671875 1.125zm40.05417 2.90625q-3.234375 0 -5.796875 -1.453125q-2.5625 -1.453125 -4.015625 -4.03125q-1.4375 -2.578125 -1.4375 -5.828125q0 -3.28125 1.4375 -5.859375q1.453125 -2.578125 4.015625 -4.0q2.5625 -1.4375 5.796875 -1.4375q2.6875 0 4.890625 1.046875q2.203125 1.046875 3.5625 3.046875l-1.578125 1.15625q-1.1875 -1.671875 -2.96875 -2.5q-1.765625 -0.828125 -3.90625 -0.828125q-2.59375 0 -4.671875 1.171875q-2.0625 1.171875 -3.234375 3.3125q-1.171875 2.125 -1.171875 4.890625q0 2.78125 1.171875 4.921875q1.171875 2.125 3.234375 3.296875q2.078125 1.171875 4.671875 1.171875q2.140625 0 3.90625 -0.828125q1.78125 -0.828125 2.96875 -2.5l1.578125 1.15625q-1.359375 2.0 -3.5625 3.046875q-2.203125 1.046875 -4.890625 1.046875zm23.165161 0q-3.15625 0 -5.703125 -1.453125q-2.53125 -1.453125 -3.984375 -4.03125q-1.4375 -2.578125 -1.4375 -5.828125q0 -3.234375 1.4375 -5.8125q1.453125 -2.578125 3.984375 -4.03125q2.546875 -1.453125 5.703125 -1.453125q3.15625 0 5.6875 1.453125q2.546875 1.453125 4.0 4.03125q1.453125 2.578125 1.453125 5.8125q0 3.25 -1.453125 5.828125q-1.453125 2.578125 -4.0 4.03125q-2.53125 1.453125 -5.6875 1.453125zm0 -1.921875q2.5625 0 4.578125 -1.1875q2.03125 -1.203125 3.203125 -3.328125q1.1875 -2.140625 1.1875 -4.875q0 -2.71875 -1.1875 -4.84375q-1.171875 -2.140625 -3.203125 -3.328125q-2.015625 -1.203125 -4.578125 -1.203125q-2.5625 0 -4.59375 1.203125q-2.015625 1.1875 -3.1875 3.328125q-1.171875 2.125 -1.171875 4.84375q0 2.734375 1.171875 4.875q1.171875 2.125 3.1875 3.328125q2.03125 1.1875 4.59375 1.1875zm28.634338 -20.6875q4.171875 0 6.59375 2.4375q2.4375 2.421875 2.4375 6.984375l0 13.015625l-2.125 0l0 -12.84375q0 -3.75 -1.90625 -5.703125q-1.890625 -1.96875 -5.3125 -1.96875q-3.921875 0 -6.1875 2.34375q-2.25 2.34375 -2.25 6.3125l0 11.859375l-2.140625 0l0 -22.265625l2.046875 0l0 4.8125q1.15625 -2.34375 3.4375 -3.65625q2.28125 -1.328125 5.40625 -1.328125zm28.863861 21.03125q-0.796875 0.765625 -2.015625 1.171875q-1.21875 0.40625 -2.546875 0.40625q-2.890625 0 -4.46875 -1.59375q-1.578125 -1.609375 -1.578125 -4.46875l0 -14.546875l-4.09375 0l0 -1.828125l4.09375 0l0 -4.859375l2.125 0l0 4.859375l7.078125 0l0 1.828125l-7.078125 0l0 14.34375q0 2.171875 1.046875 3.3125q1.046875 1.125 3.09375 1.125q2.09375 0 3.453125 -1.25l0.890625 1.5zm7.9771423 -16.0q1.03125 -2.421875 3.203125 -3.71875q2.171875 -1.3125 5.296875 -1.3125l0 2.09375l-0.515625 -0.046875q-3.71875 0 -5.8125 2.328125q-2.078125 2.328125 -2.078125 6.453125l0 11.609375l-2.140625 0l0 -22.265625l2.046875 0l0 4.859375zm14.375671 -4.859375l2.140625 0l0 22.265625l-2.140625 0l0 -22.265625zm1.078125 -5.421875q-0.71875 0 -1.234375 -0.484375q-0.515625 -0.5 -0.515625 -1.21875q0 -0.71875 0.515625 -1.234375q0.515625 -0.515625 1.234375 -0.515625q0.71875 0 1.234375 0.5q0.515625 0.484375 0.515625 1.203125q0 0.734375 -0.515625 1.25q-0.515625 0.5 -1.234375 0.5zm21.242645 5.25q3.109375 0 5.625 1.4375q2.5156555 1.421875 3.9375305 4.0q1.4375 2.578125 1.4375 5.859375q0 3.296875 -1.4375 5.859375q-1.421875 2.546875 -3.9375305 4.0q-2.515625 1.453125 -5.625 1.453125q-2.984375 0 -5.40625 -1.421875q-2.40625 -1.4375 -3.734375 -4.0l0 5.25l-2.046875 0l0 -31.65625l2.140625 0l0 14.46875q1.328125 -2.484375 3.703125 -3.859375q2.390625 -1.390625 5.34375 -1.390625zm-0.140625 20.6875q2.5625 0 4.609375 -1.1875q2.046875 -1.203125 3.21875 -3.328125q1.1719055 -2.140625 1.1719055 -4.875q0 -2.71875 -1.1719055 -4.84375q-1.171875 -2.140625 -3.21875 -3.328125q-2.046875 -1.203125 -4.609375 -1.203125q-2.546875 0 -4.578125 1.203125q-2.03125 1.1875 -3.203125 3.328125q-1.171875 2.125 -1.171875 4.84375q0 2.734375 1.171875 4.875q1.171875 2.125 3.203125 3.328125q2.03125 1.1875 4.578125 1.1875zm37.246063 -20.515625l0 22.265625l-2.046875 0l0 -4.78125q-1.109375 2.34375 -3.28125 3.65625q-2.171875 1.296875 -5.125 1.296875q-4.34375 0 -6.828125 -2.421875q-2.46875 -2.4375 -2.46875 -7.0l0 -13.015625l2.125 0l0 12.84375q0 3.75 1.921875 5.71875q1.921875 1.953125 5.421875 1.953125q3.75 0 5.9375 -2.34375q2.203125 -2.34375 2.203125 -6.3125l0 -11.859375l2.140625 0zm20.083862 20.859375q-0.796875 0.765625 -2.015625 1.171875q-1.21875 0.40625 -2.546875 0.40625q-2.890625 0 -4.46875 -1.59375q-1.578125 -1.609375 -1.578125 -4.46875l0 -14.546875l-4.09375 0l0 -1.828125l4.09375 0l0 -4.859375l2.125 0l0 4.859375l7.078125 0l0 1.828125l-7.078125 0l0 14.34375q0 2.171875 1.046875 3.3125q1.046875 1.125 3.09375 1.125q2.09375 0 3.453125 -1.25l0.890625 1.5zm5.930298 -20.859375l2.140625 0l0 22.265625l-2.140625 0l0 -22.265625zm1.078125 -5.421875q-0.71875 0 -1.234375 -0.484375q-0.515625 -0.5 -0.515625 -1.21875q0 -0.71875 0.515625 -1.234375q0.515625 -0.515625 1.234375 -0.515625q0.71875 0 1.234375 0.5q0.515625 0.484375 0.515625 1.203125q0 0.734375 -0.515625 1.25q-0.515625 0.5 -1.234375 0.5zm18.7583 27.859375q-3.15625 0 -5.703125 -1.453125q-2.53125 -1.453125 -3.984375 -4.03125q-1.4375 -2.578125 -1.4375 -5.828125q0 -3.234375 1.4375 -5.8125q1.453125 -2.578125 3.984375 -4.03125q2.546875 -1.453125 5.703125 -1.453125q3.15625 0 5.6875 1.453125q2.546875 1.453125 4.0 4.03125q1.453125 2.578125 1.453125 5.8125q0 3.25 -1.453125 5.828125q-1.453125 2.578125 -4.0 4.03125q-2.53125 1.453125 -5.6875 1.453125zm0 -1.921875q2.5625 0 4.578125 -1.1875q2.03125 -1.203125 3.203125 -3.328125q1.1875 -2.140625 1.1875 -4.875q0 -2.71875 -1.1875 -4.84375q-1.171875 -2.140625 -3.203125 -3.328125q-2.015625 -1.203125 -4.578125 -1.203125q-2.5625 0 -4.59375 1.203125q-2.015625 1.1875 -3.1875 3.328125q-1.171875 2.125 -1.171875 4.84375q0 2.734375 1.171875 4.875q1.171875 2.125 3.1875 3.328125q2.03125 1.1875 4.59375 1.1875zm28.634338 -20.6875q4.171875 0 6.59375 2.4375q2.4375 2.421875 2.4375 6.984375l0 13.015625l-2.125 0l0 -12.84375q0 -3.75 -1.90625 -5.703125q-1.890625 -1.96875 -5.3125 -1.96875q-3.921875 0 -6.1875 2.34375q-2.25 2.34375 -2.25 6.3125l0 11.859375l-2.140625 0l0 -22.265625l2.046875 0l0 4.8125q1.15625 -2.34375 3.4375 -3.65625q2.28125 -1.328125 5.40625 -1.328125zm39.826477 21.03125q-0.796875 0.765625 -2.015625 1.171875q-1.21875 0.40625 -2.546875 0.40625q-2.890625 0 -4.46875 -1.59375q-1.578125 -1.609375 -1.578125 -4.46875l0 -14.546875l-4.09375 0l0 -1.828125l4.09375 0l0 -4.859375l2.125 0l0 4.859375l7.078125 0l0 1.828125l-7.078125 0l0 14.34375q0 2.171875 1.046875 3.3125q1.046875 1.125 3.09375 1.125q2.09375 0 3.453125 -1.25l0.890625 1.5zm13.822754 1.578125q-3.15625 0 -5.703125 -1.453125q-2.53125 -1.453125 -3.984375 -4.03125q-1.4375 -2.578125 -1.4375 -5.828125q0 -3.234375 1.4375 -5.8125q1.453125 -2.578125 3.984375 -4.03125q2.546875 -1.453125 5.703125 -1.453125q3.15625 0 5.6875 1.453125q2.546875 1.453125 4.0 4.03125q1.453125 2.578125 1.453125 5.8125q0 3.25 -1.453125 5.828125q-1.453125 2.578125 -4.0 4.03125q-2.53125 1.453125 -5.6875 1.453125zm0 -1.921875q2.5625 0 4.578125 -1.1875q2.03125 -1.203125 3.203125 -3.328125q1.1875 -2.140625 1.1875 -4.875q0 -2.71875 -1.1875 -4.84375q-1.171875 -2.140625 -3.203125 -3.328125q-2.015625 -1.203125 -4.578125 -1.203125q-2.5625 0 -4.59375 1.203125q-2.015625 1.1875 -3.1875 3.328125q-1.171875 2.125 -1.171875 4.84375q0 2.734375 1.171875 4.875q1.171875 2.125 3.1875 3.328125q2.03125 1.1875 4.59375 1.1875zm39.753296 0.34375q-0.796875 0.765625 -2.015625 1.171875q-1.21875 0.40625 -2.546875 0.40625q-2.890625 0 -4.46875 -1.59375q-1.578125 -1.609375 -1.578125 -4.46875l0 -14.546875l-4.09375 0l0 -1.828125l4.09375 0l0 -4.859375l2.125 0l0 4.859375l7.078125 0l0 1.828125l-7.078125 0l0 14.34375q0 2.171875 1.046875 3.3125q1.046875 1.125 3.09375 1.125q2.09375 0 3.453125 -1.25l0.890625 1.5zm16.820923 -21.03125q4.171875 0 6.59375 2.4375q2.4375 2.421875 2.4375 6.984375l0 13.015625l-2.125 0l0 -12.84375q0 -3.75 -1.90625 -5.703125q-1.890625 -1.96875 -5.3125 -1.96875q-3.921875 0 -6.1875 2.34375q-2.25 2.34375 -2.25 6.3125l0 11.859375l-2.140625 0l0 -31.65625l2.140625 0l0 14.046875q1.15625 -2.3125 3.40625 -3.5625q2.265625 -1.265625 5.34375 -1.265625zm36.67212 11.8125l-19.140625 0q0.078125 2.609375 1.3125 4.640625q1.234375 2.015625 3.34375 3.125q2.125 1.109375 4.765625 1.109375q2.171875 0 4.03125 -0.78125q1.859375 -0.796875 3.09375 -2.328125l1.234375 1.40625q-1.453125 1.75 -3.65625 2.6875q-2.1875 0.9375 -4.75 0.9375q-3.328125 0 -5.9375 -1.453125q-2.59375 -1.453125 -4.0625 -4.0q-1.46875 -2.5625 -1.46875 -5.859375q0 -3.234375 1.375 -5.8125q1.390625 -2.578125 3.8125 -4.03125q2.4375 -1.453125 5.46875 -1.453125q3.03125 0 5.4375 1.4375q2.421875 1.421875 3.796875 3.984375q1.390625 2.5625 1.390625 5.796875l-0.046875 0.59375zm-10.578125 -9.9375q-2.34375 0 -4.21875 1.046875q-1.875 1.046875 -3.015625 2.953125q-1.125 1.890625 -1.296875 4.28125l17.0625 0q-0.125 -2.390625 -1.28125 -4.265625q-1.140625 -1.875 -3.03125 -2.9375q-1.875 -1.078125 -4.21875 -1.078125z" fill-rule="nonzero"/><path fill="#010000" fill-opacity="0.0" d="m775.6926 186.5449l90.55896 0l0 51.997894l-90.55896 0l0 -51.997894z" fill-rule="nonzero"/><path fill="#000000" d="m791.0989 205.39859q4.171875 0 6.59375 2.4375q2.4375 2.421875 2.4375 6.984375l0 13.015625l-2.125 0l0 -12.84375q0 -3.75 -1.90625 -5.703125q-1.890625 -1.96875 -5.3125 -1.96875q-3.921875 0 -6.1875 2.34375q-2.25 2.34375 -2.25 6.3125l0 11.859375l-2.140625 0l0 -22.265625l2.046875 0l0 4.8125q1.15625 -2.34375 3.4375 -3.65625q2.28125 -1.328125 5.40625 -1.328125zm36.67212 11.8125l-19.140625 0q0.078125 2.609375 1.3125 4.640625q1.234375 2.015625 3.34375 3.125q2.125 1.109375 4.765625 1.109375q2.171875 0 4.03125 -0.78125q1.859375 -0.796875 3.09375 -2.328125l1.234375 1.40625q-1.453125 1.75 -3.65625 2.6875q-2.1875 0.9375 -4.75 0.9375q-3.328125 0 -5.9375 -1.453125q-2.59375 -1.453125 -4.0625 -4.0q-1.46875 -2.5625 -1.46875 -5.859375q0 -3.234375 1.375 -5.8125q1.390625 -2.578125 3.8125 -4.03125q2.4375 -1.453125 5.46875 -1.453125q3.03125 0 5.4375 1.4375q2.421875 1.421875 3.796875 3.984375q1.390625 2.5625 1.390625 5.796875l-0.046875 0.59375zm-10.578125 -9.9375q-2.34375 0 -4.21875 1.046875q-1.875 1.046875 -3.015625 2.953125q-1.125 1.890625 -1.296875 4.28125l17.0625 0q-0.125 -2.390625 -1.28125 -4.265625q-1.140625 -1.875 -3.03125 -2.9375q-1.875 -1.078125 -4.21875 -1.078125zm48.632874 -1.703125l-8.453125 22.265625l-2.0 0l-7.5 -19.328125l-7.5625 19.328125l-1.953125 0l-8.453125 -22.265625l2.046875 0l7.421875 19.875l7.59375 -19.875l1.84375 0l7.546875 19.828125l7.5 -19.828125l1.96875 0z" fill-rule="nonzero"/><path fill="#000000" fill-opacity="0.0" d="m866.2516 186.5449l10.9626465 0l0 51.997894l-10.9626465 0l0 -51.997894z" fill-rule="nonzero"/><path fill="#ffffff" d="m143.44305 242.34273l673.1139 0l0 51.199997l-673.1139 0l0 -51.199997z" fill-rule="nonzero"/><path fill="#000000" fill-opacity="0.0" d="m143.44305 242.01155l673.11395 0l0 51.99788l-673.11395 0l0 -51.99788z" fill-rule="nonzero"/><path fill="#000000" d="m166.77118 272.67773l-19.140625 0q0.078125 2.609375 1.3125 4.640625q1.234375 2.015625 3.34375 3.125q2.125 1.109375 4.765625 1.109375q2.171875 0 4.03125 -0.78125q1.859375 -0.796875 3.09375 -2.328125l1.234375 1.40625q-1.453125 1.75 -3.65625 2.6875q-2.1875 0.9375 -4.75 0.9375q-3.328125 0 -5.9375 -1.453125q-2.59375 -1.453125 -4.0625 -4.0q-1.46875 -2.5625 -1.46875 -5.859375q0 -3.234375 1.375 -5.8125q1.390625 -2.578125 3.8125 -4.03125q2.4375 -1.453125 5.46875 -1.453125q3.03125 0 5.4375 1.4375q2.421875 1.421875 3.796875 3.984375q1.390625 2.5625 1.390625 5.796875l-0.046875 0.59375zm-10.578125 -9.9375q-2.34375 0 -4.21875 1.046875q-1.875 1.046875 -3.015625 2.953125q-1.125 1.890625 -1.296875 4.28125l17.0625 0q-0.125 -2.390625 -1.28125 -4.265625q-1.140625 -1.875 -3.03125 -2.9375q-1.875 -1.078125 -4.21875 -1.078125zm28.121994 -1.875q4.171875 0 6.59375 2.4375q2.4375 2.421875 2.4375 6.984375l0 13.015625l-2.125 0l0 -12.84375q0 -3.75 -1.90625 -5.703125q-1.890625 -1.96875 -5.3125 -1.96875q-3.921875 0 -6.1875 2.34375q-2.25 2.34375 -2.25 6.3125l0 11.859375l-2.140625 0l0 -22.265625l2.046875 0l0 4.8125q1.15625 -2.34375 3.4375 -3.65625q2.28125 -1.328125 5.40625 -1.328125zm36.67215 11.8125l-19.140625 0q0.078125 2.609375 1.3125 4.640625q1.234375 2.015625 3.34375 3.125q2.125 1.109375 4.765625 1.109375q2.171875 0 4.03125 -0.78125q1.859375 -0.796875 3.09375 -2.328125l1.234375 1.40625q-1.453125 1.75 -3.65625 2.6875q-2.1875 0.9375 -4.75 0.9375q-3.328125 0 -5.9375 -1.453125q-2.59375 -1.453125 -4.0625 -4.0q-1.46875 -2.5625 -1.46875 -5.859375q0 -3.234375 1.375 -5.8125q1.390625 -2.578125 3.8125 -4.03125q2.4375 -1.453125 5.46875 -1.453125q3.03125 0 5.4375 1.4375q2.421875 1.421875 3.796875 3.984375q1.390625 2.5625 1.390625 5.796875l-0.046875 0.59375zm-10.578125 -9.9375q-2.34375 0 -4.21875 1.046875q-1.875 1.046875 -3.015625 2.953125q-1.125 1.890625 -1.296875 4.28125l17.0625 0q-0.125 -2.390625 -1.28125 -4.265625q-1.140625 -1.875 -3.03125 -2.9375q-1.875 -1.078125 -4.21875 -1.078125zm19.278244 3.15625q1.03125 -2.421875 3.203125 -3.71875q2.171875 -1.3125 5.296875 -1.3125l0 2.09375l-0.515625 -0.046875q-3.71875 0 -5.8125 2.328125q-2.078125 2.328125 -2.078125 6.453125l0 11.609375l-2.140625 0l0 -22.265625l2.046875 0l0 4.859375zm34.209198 -4.859375l0 19.875q0 5.546875 -2.6875 8.1875q-2.6875 2.65625 -8.09375 2.65625q-3.078125 0 -5.8125 -0.953125q-2.71875 -0.9375 -4.390625 -2.59375l1.15625 -1.625q1.65625 1.53125 4.0 2.390625q2.359375 0.859375 5.0 0.859375q4.4375 0 6.5625 -2.125q2.140625 -2.109375 2.140625 -6.53125l0 -3.765625q-1.359375 2.4375 -3.796875 3.765625q-2.4375 1.3125 -5.453125 1.3125q-3.125 0 -5.671875 -1.375q-2.53125 -1.390625 -3.984375 -3.859375q-1.4375 -2.484375 -1.4375 -5.59375q0 -3.125 1.4375 -5.59375q1.453125 -2.46875 3.984375 -3.828125q2.546875 -1.375 5.671875 -1.375q3.0625 0 5.53125 1.375q2.484375 1.359375 3.796875 3.828125l0 -5.03125l2.046875 0zm-11.21875 19.53125q2.609375 0 4.703125 -1.125q2.09375 -1.125 3.265625 -3.15625q1.171875 -2.03125 1.171875 -4.625q0 -2.609375 -1.171875 -4.609375q-1.171875 -2.0 -3.265625 -3.125q-2.09375 -1.140625 -4.703125 -1.140625q-2.59375 0 -4.671875 1.140625q-2.0625 1.125 -3.234375 3.125q-1.171875 2.0 -1.171875 4.609375q0 2.59375 1.171875 4.625q1.171875 2.03125 3.234375 3.15625q2.078125 1.125 4.671875 1.125zm38.138397 -19.53125l-11.421875 25.296875q-1.28125 2.9375 -2.96875 4.171875q-1.6875 1.25 -3.984375 1.25q-1.546875 0 -2.890625 -0.515625q-1.34375 -0.515625 -2.28125 -1.5l1.078125 -1.625q1.703125 1.75 4.125 1.75q1.625 0 2.78125 -0.890625q1.15625 -0.890625 2.125 -3.0625l1.203125 -2.6875l-10.03125 -22.1875l2.265625 0l8.90625 19.921875l8.921875 -19.921875l2.171875 0zm17.656982 4.859375q1.03125 -2.421875 3.203125 -3.71875q2.171875 -1.3125 5.296875 -1.3125l0 2.09375l-0.515625 -0.046875q-3.71875 0 -5.8125 2.328125q-2.078125 2.328125 -2.078125 6.453125l0 11.609375l-2.140625 0l0 -22.265625l2.046875 0l0 4.859375zm32.974823 6.78125l-19.140625 0q0.078125 2.609375 1.3125 4.640625q1.234375 2.015625 3.34375 3.125q2.125 1.109375 4.765625 1.109375q2.171875 0 4.03125 -0.78125q1.859375 -0.796875 3.09375 -2.328125l1.234375 1.40625q-1.453125 1.75 -3.65625 2.6875q-2.1875 0.9375 -4.75 0.9375q-3.328125 0 -5.9375 -1.453125q-2.59375 -1.453125 -4.0625 -4.0q-1.46875 -2.5625 -1.46875 -5.859375q0 -3.234375 1.375 -5.8125q1.390625 -2.578125 3.8125 -4.03125q2.4375 -1.453125 5.46875 -1.453125q3.03125 0 5.4375 1.4375q2.421875 1.421875 3.796875 3.984375q1.390625 2.5625 1.390625 5.796875l-0.046875 0.59375zm-10.578125 -9.9375q-2.34375 0 -4.21875 1.046875q-1.875 1.046875 -3.015625 2.953125q-1.125 1.890625 -1.296875 4.28125l17.0625 0q-0.125 -2.390625 -1.28125 -4.265625q-1.140625 -1.875 -3.03125 -2.9375q-1.875 -1.078125 -4.21875 -1.078125zm34.679688 -1.703125l-10.0625 22.265625l-2.171875 0l-10.03125 -22.265625l2.265625 0l8.875 19.921875l8.953125 -19.921875l2.171875 0zm12.710602 22.4375q-3.15625 0 -5.703125 -1.453125q-2.53125 -1.453125 -3.984375 -4.03125q-1.4375 -2.578125 -1.4375 -5.828125q0 -3.234375 1.4375 -5.8125q1.453125 -2.578125 3.984375 -4.03125q2.546875 -1.453125 5.703125 -1.453125q3.15625 0 5.6875 1.453125q2.546875 1.453125 4.0 4.03125q1.453125 2.578125 1.453125 5.8125q0 3.25 -1.453125 5.828125q-1.453125 2.578125 -4.0 4.03125q-2.53125 1.453125 -5.6875 1.453125zm0 -1.921875q2.5625 0 4.578125 -1.1875q2.03125 -1.203125 3.203125 -3.328125q1.1875 -2.140625 1.1875 -4.875q0 -2.71875 -1.1875 -4.84375q-1.171875 -2.140625 -3.203125 -3.328125q-2.015625 -1.203125 -4.578125 -1.203125q-2.5625 0 -4.59375 1.203125q-2.015625 1.1875 -3.1875 3.328125q-1.171875 2.125 -1.171875 4.84375q0 2.734375 1.171875 4.875q1.171875 2.125 3.1875 3.328125q2.03125 1.1875 4.59375 1.1875zm17.743713 -29.90625l2.140625 0l0 31.65625l-2.140625 0l0 -31.65625zm30.63327 9.390625l0 22.265625l-2.046875 0l0 -4.78125q-1.109375 2.34375 -3.28125 3.65625q-2.171875 1.296875 -5.125 1.296875q-4.34375 0 -6.828125 -2.421875q-2.46875 -2.4375 -2.46875 -7.0l0 -13.015625l2.125 0l0 12.84375q0 3.75 1.921875 5.71875q1.921875 1.953125 5.421875 1.953125q3.75 0 5.9375 -2.34375q2.203125 -2.34375 2.203125 -6.3125l0 -11.859375l2.140625 0zm20.083862 20.859375q-0.796875 0.765625 -2.015625 1.171875q-1.21875 0.40625 -2.546875 0.40625q-2.890625 0 -4.46875 -1.59375q-1.578125 -1.609375 -1.578125 -4.46875l0 -14.546875l-4.09375 0l0 -1.828125l4.09375 0l0 -4.859375l2.125 0l0 4.859375l7.078125 0l0 1.828125l-7.078125 0l0 14.34375q0 2.171875 1.046875 3.3125q1.046875 1.125 3.09375 1.125q2.09375 0 3.453125 -1.25l0.890625 1.5zm5.9302673 -20.859375l2.140625 0l0 22.265625l-2.140625 0l0 -22.265625zm1.078125 -5.421875q-0.71875 0 -1.234375 -0.484375q-0.515625 -0.5 -0.515625 -1.21875q0 -0.71875 0.515625 -1.234375q0.515625 -0.515625 1.234375 -0.515625q0.71875 0 1.234375 0.5q0.515625 0.484375 0.515625 1.203125q0 0.734375 -0.515625 1.25q-0.515625 0.5 -1.234375 0.5zm18.75827 27.859375q-3.15625 0 -5.703125 -1.453125q-2.53125 -1.453125 -3.984375 -4.03125q-1.4375 -2.578125 -1.4375 -5.828125q0 -3.234375 1.4375 -5.8125q1.453125 -2.578125 3.984375 -4.03125q2.546875 -1.453125 5.703125 -1.453125q3.15625 0 5.6875 1.453125q2.546875 1.453125 4.0 4.03125q1.453125 2.578125 1.453125 5.8125q0 3.25 -1.453125 5.828125q-1.453125 2.578125 -4.0 4.03125q-2.53125 1.453125 -5.6875 1.453125zm0 -1.921875q2.5625 0 4.578125 -1.1875q2.03125 -1.203125 3.203125 -3.328125q1.1875 -2.140625 1.1875 -4.875q0 -2.71875 -1.1875 -4.84375q-1.171875 -2.140625 -3.203125 -3.328125q-2.015625 -1.203125 -4.578125 -1.203125q-2.5625 0 -4.59375 1.203125q-2.015625 1.1875 -3.1875 3.328125q-1.171875 2.125 -1.171875 4.84375q0 2.734375 1.171875 4.875q1.171875 2.125 3.1875 3.328125q2.03125 1.1875 4.59375 1.1875zm28.634338 -20.6875q4.171875 0 6.59375 2.4375q2.4375 2.421875 2.4375 6.984375l0 13.015625l-2.125 0l0 -12.84375q0 -3.75 -1.90625 -5.703125q-1.890625 -1.96875 -5.3125 -1.96875q-3.921875 0 -6.1875 2.34375q-2.25 2.34375 -2.25 6.3125l0 11.859375l-2.140625 0l0 -22.265625l2.046875 0l0 4.8125q1.15625 -2.34375 3.4375 -3.65625q2.28125 -1.328125 5.40625 -1.328125zm36.295258 0q4.140625 0 6.359375 2.109375q2.21875 2.109375 2.21875 6.203125l0 14.125l-2.046875 0l0 -3.96875q-1.078125 1.96875 -3.125 3.0625q-2.046875 1.078125 -4.90625 1.078125q-3.703125 0 -5.859375 -1.75q-2.15625 -1.75 -2.15625 -4.609375q0 -2.765625 1.984375 -4.484375q1.984375 -1.734375 6.328125 -1.734375l7.640625 0l0 -1.796875q0 -3.109375 -1.6875 -4.734375q-1.6875 -1.625 -4.921875 -1.625q-2.21875 0 -4.25 0.765625q-2.015625 0.765625 -3.421875 2.046875l-1.078125 -1.53125q1.671875 -1.5 4.015625 -2.328125q2.34375 -0.828125 4.90625 -0.828125zm-1.203125 20.859375q2.78125 0 4.71875 -1.28125q1.9375 -1.28125 2.921875 -3.703125l0 -4.1875l-7.59375 0q-3.28125 0 -4.75 1.203125q-1.46875 1.1875 -1.46875 3.28125q0 2.171875 1.609375 3.4375q1.625 1.25 4.5625 1.25zm29.446716 -20.859375q4.171875 0 6.59375 2.4375q2.4375 2.421875 2.4375 6.984375l0 13.015625l-2.125 0l0 -12.84375q0 -3.75 -1.90625 -5.703125q-1.890625 -1.96875 -5.3125 -1.96875q-3.921875 0 -6.1875 2.34375q-2.25 2.34375 -2.25 6.3125l0 11.859375l-2.140625 0l0 -22.265625l2.046875 0l0 4.8125q1.15625 -2.34375 3.4375 -3.65625q2.28125 -1.328125 5.40625 -1.328125zm37.656555 -9.21875l0 31.65625l-2.09375 0l0 -5.25q-1.3125 2.609375 -3.703125 4.015625q-2.390625 1.40625 -5.421875 1.40625q-3.109375 0 -5.625 -1.453125q-2.515625 -1.453125 -3.953125 -4.0q-1.421875 -2.5625 -1.421875 -5.859375q0 -3.28125 1.421875 -5.859375q1.4375 -2.578125 3.953125 -4.0q2.515625 -1.4375 5.625 -1.4375q2.984375 0 5.34375 1.40625q2.375 1.40625 3.75 3.921875l0 -14.546875l2.125 0zm-11.09375 29.90625q2.5625 0 4.578125 -1.1875q2.03125 -1.203125 3.203125 -3.328125q1.1875 -2.140625 1.1875 -4.875q0 -2.71875 -1.1875 -4.84375q-1.171875 -2.140625 -3.203125 -3.328125q-2.015625 -1.203125 -4.578125 -1.203125q-2.5625 0 -4.59375 1.203125q-2.015625 1.1875 -3.1875 3.328125q-1.171875 2.125 -1.171875 4.84375q0 2.734375 1.171875 4.875q1.171875 2.125 3.1875 3.328125q2.03125 1.1875 4.59375 1.1875zm42.099243 0.34375q-0.796875 0.765625 -2.015625 1.171875q-1.21875 0.40625 -2.546875 0.40625q-2.890625 0 -4.46875 -1.59375q-1.578125 -1.609375 -1.578125 -4.46875l0 -14.546875l-4.09375 0l0 -1.828125l4.09375 0l0 -4.859375l2.125 0l0 4.859375l7.078125 0l0 1.828125l-7.078125 0l0 14.34375q0 2.171875 1.046875 3.3125q1.046875 1.125 3.09375 1.125q2.09375 0 3.453125 -1.25l0.890625 1.5zm13.822754 1.578125q-3.15625 0 -5.703125 -1.453125q-2.53125 -1.453125 -3.984375 -4.03125q-1.4375 -2.578125 -1.4375 -5.828125q0 -3.234375 1.4375 -5.8125q1.453125 -2.578125 3.984375 -4.03125q2.546875 -1.453125 5.703125 -1.453125q3.15625 0 5.6875 1.453125q2.546875 1.453125 4.0 4.03125q1.453125 2.578125 1.453125 5.8125q0 3.25 -1.453125 5.828125q-1.453125 2.578125 -4.0 4.03125q-2.53125 1.453125 -5.6875 1.453125zm0 -1.921875q2.5625 0 4.578125 -1.1875q2.03125 -1.203125 3.203125 -3.328125q1.1875 -2.140625 1.1875 -4.875q0 -2.71875 -1.1875 -4.84375q-1.171875 -2.140625 -3.203125 -3.328125q-2.015625 -1.203125 -4.578125 -1.203125q-2.5625 0 -4.59375 1.203125q-2.015625 1.1875 -3.1875 3.328125q-1.171875 2.125 -1.171875 4.84375q0 2.734375 1.171875 4.875q1.171875 2.125 3.1875 3.328125q2.03125 1.1875 4.59375 1.1875zm39.89392 -20.6875q3.109375 0 5.625 1.4375q2.515625 1.421875 3.9375 4.0q1.4375 2.578125 1.4375 5.859375q0 3.296875 -1.4375 5.859375q-1.421875 2.546875 -3.9375 4.0q-2.515625 1.453125 -5.625 1.453125q-2.984375 0 -5.40625 -1.421875q-2.40625 -1.4375 -3.734375 -4.0l0 5.25l-2.046875 0l0 -31.65625l2.140625 0l0 14.46875q1.328125 -2.484375 3.703125 -3.859375q2.390625 -1.390625 5.34375 -1.390625zm-0.140625 20.6875q2.5625 0 4.609375 -1.1875q2.046875 -1.203125 3.21875 -3.328125q1.171875 -2.140625 1.171875 -4.875q0 -2.71875 -1.171875 -4.84375q-1.171875 -2.140625 -3.21875 -3.328125q-2.046875 -1.203125 -4.609375 -1.203125q-2.546875 0 -4.578125 1.203125q-2.03125 1.1875 -3.203125 3.328125q-1.171875 2.125 -1.171875 4.84375q0 2.734375 1.171875 4.875q1.171875 2.125 3.203125 3.328125q2.03125 1.1875 4.578125 1.1875zm37.24597 -20.515625l0 22.265625l-2.046875 0l0 -4.78125q-1.109375 2.34375 -3.28125 3.65625q-2.171875 1.296875 -5.125 1.296875q-4.34375 0 -6.828125 -2.421875q-2.46875 -2.4375 -2.46875 -7.0l0 -13.015625l2.125 0l0 12.84375q0 3.75 1.921875 5.71875q1.921875 1.953125 5.421875 1.953125q3.75 0 5.9375 -2.34375q2.203125 -2.34375 2.203125 -6.3125l0 -11.859375l2.140625 0zm9.036987 0l2.140625 0l0 22.265625l-2.140625 0l0 -22.265625zm1.078125 -5.421875q-0.71875 0 -1.234375 -0.484375q-0.515625 -0.5 -0.515625 -1.21875q0 -0.71875 0.515625 -1.234375q0.515625 -0.515625 1.234375 -0.515625q0.71875 0 1.234375 0.5q0.515625 0.484375 0.515625 1.203125q0 0.734375 -0.515625 1.25q-0.515625 0.5 -1.234375 0.5zm10.055176 -3.96875l2.140625 0l0 31.65625l-2.140625 0l0 -31.65625zm30.930176 0l0 31.65625l-2.09375 0l0 -5.25q-1.3125 2.609375 -3.703125 4.015625q-2.390625 1.40625 -5.421875 1.40625q-3.109375 0 -5.625 -1.453125q-2.515625 -1.453125 -3.953125 -4.0q-1.421875 -2.5625 -1.421875 -5.859375q0 -3.28125 1.421875 -5.859375q1.4375 -2.578125 3.953125 -4.0q2.515625 -1.4375 5.625 -1.4375q2.984375 0 5.34375 1.40625q2.375 1.40625 3.75 3.921875l0 -14.546875l2.125 0zm-11.09375 29.90625q2.5625 0 4.578125 -1.1875q2.03125 -1.203125 3.203125 -3.328125q1.1875 -2.140625 1.1875 -4.875q0 -2.71875 -1.1875 -4.84375q-1.171875 -2.140625 -3.203125 -3.328125q-2.015625 -1.203125 -4.578125 -1.203125q-2.5625 0 -4.59375 1.203125q-2.015625 1.1875 -3.1875 3.328125q-1.171875 2.125 -1.171875 4.84375q0 2.734375 1.171875 4.875q1.171875 2.125 3.1875 3.328125q2.03125 1.1875 4.59375 1.1875zm38.567993 -20.6875q4.140625 0 6.359375 2.109375q2.21875 2.109375 2.21875 6.203125l0 14.125l-2.046875 0l0 -3.96875q-1.078125 1.96875 -3.125 3.0625q-2.046875 1.078125 -4.90625 1.078125q-3.703125 0 -5.859375 -1.75q-2.15625 -1.75 -2.15625 -4.609375q0 -2.765625 1.984375 -4.484375q1.984375 -1.734375 6.328125 -1.734375l7.640625 0l0 -1.796875q0 -3.109375 -1.6875 -4.734375q-1.6875 -1.625 -4.921875 -1.625q-2.21875 0 -4.25 0.765625q-2.015625 0.765625 -3.421875 2.046875l-1.078125 -1.53125q1.671875 -1.5 4.015625 -2.328125q2.34375 -0.828125 4.90625 -0.828125zm-1.203125 20.859375q2.78125 0 4.71875 -1.28125q1.9375 -1.28125 2.921875 -3.703125l0 -4.1875l-7.59375 0q-3.28125 0 -4.75 1.203125q-1.46875 1.1875 -1.46875 3.28125q0 2.171875 1.609375 3.4375q1.625 1.25 4.5625 1.25z" fill-rule="nonzero"/><path fill="#000000" fill-opacity="0.0" d="m816.557 242.01155l10.9626465 0l0 51.99788l-10.9626465 0l0 -51.99788z" fill-rule="nonzero"/><path fill="#ffffff" d="m146.4289 297.8094l667.14215 0l0 51.19998l-667.14215 0l0 -51.19998z" fill-rule="nonzero"/><path fill="#000000" fill-opacity="0.0" d="m146.4289 297.47818l246.63779 0l0 51.997894l-246.63779 0l0 -51.997894z" fill-rule="nonzero"/><path fill="#000000" d="m182.77264 316.50375l-8.453125 22.265625l-2.0 0l-7.5 -19.328125l-7.5625 19.328125l-1.953125 0l-8.453125 -22.265625l2.046875 0l7.421875 19.875l7.59375 -19.875l1.84375 0l7.546875 19.828125l7.5 -19.828125l1.96875 0zm13.004623 22.4375q-3.15625 0 -5.703125 -1.453125q-2.53125 -1.453125 -3.984375 -4.03125q-1.4375 -2.578125 -1.4375 -5.828125q0 -3.234375 1.4375 -5.8125q1.453125 -2.578125 3.984375 -4.03125q2.546875 -1.453125 5.703125 -1.453125q3.15625 0 5.6875 1.453125q2.546875 1.453125 4.0 4.03125q1.453125 2.578125 1.453125 5.8125q0 3.25 -1.453125 5.828125q-1.453125 2.578125 -4.0 4.03125q-2.53125 1.453125 -5.6875 1.453125zm0 -1.921875q2.5625 0 4.578125 -1.1875q2.03125 -1.203125 3.203125 -3.328125q1.1875 -2.140625 1.1875 -4.875q0 -2.71875 -1.1875 -4.84375q-1.171875 -2.140625 -3.203125 -3.328125q-2.015625 -1.203125 -4.578125 -1.203125q-2.5625 0 -4.59375 1.203125q-2.015625 1.1875 -3.1875 3.328125q-1.171875 2.125 -1.171875 4.84375q0 2.734375 1.171875 4.875q1.171875 2.125 3.1875 3.328125q2.03125 1.1875 4.59375 1.1875zm19.790588 -15.65625q1.03125 -2.421875 3.203125 -3.71875q2.171875 -1.3125 5.296875 -1.3125l0 2.09375l-0.515625 -0.046875q-3.71875 0 -5.8125 2.328125q-2.078125 2.328125 -2.078125 6.453125l0 11.609375l-2.140625 0l0 -22.265625l2.046875 0l0 4.859375zm14.375656 -14.25l2.140625 0l0 31.65625l-2.140625 0l0 -31.65625zm30.930145 0l0 31.65625l-2.09375 0l0 -5.25q-1.3125 2.609375 -3.703125 4.015625q-2.390625 1.40625 -5.421875 1.40625q-3.109375 0 -5.625 -1.453125q-2.515625 -1.453125 -3.953125 -4.0q-1.421875 -2.5625 -1.421875 -5.859375q0 -3.28125 1.421875 -5.859375q1.4375 -2.578125 3.953125 -4.0q2.515625 -1.4375 5.625 -1.4375q2.984375 0 5.34375 1.40625q2.375 1.40625 3.75 3.921875l0 -14.546875l2.125 0zm-11.09375 29.90625q2.5625 0 4.578125 -1.1875q2.03125 -1.203125 3.203125 -3.328125q1.1875 -2.140625 1.1875 -4.875q0 -2.71875 -1.1875 -4.84375q-1.171875 -2.140625 -3.203125 -3.328125q-2.015625 -1.203125 -4.578125 -1.203125q-2.5625 0 -4.59375 1.203125q-2.015625 1.1875 -3.1875 3.328125q-1.171875 2.125 -1.171875 4.84375q0 2.734375 1.171875 4.875q1.171875 2.125 3.1875 3.328125q2.03125 1.1875 4.59375 1.1875zm18.214813 -10.65625l10.96875 0l0 1.90625l-10.96875 0l0 -1.90625zm27.381775 12.578125q-3.234375 0 -5.796875 -1.453125q-2.5625 -1.453125 -4.015625 -4.03125q-1.4375 -2.578125 -1.4375 -5.828125q0 -3.28125 1.4375 -5.859375q1.453125 -2.578125 4.015625 -4.0q2.5625 -1.4375 5.796875 -1.4375q2.6875 0 4.890625 1.046875q2.203125 1.046875 3.5625 3.046875l-1.578125 1.15625q-1.1875 -1.671875 -2.96875 -2.5q-1.765625 -0.828125 -3.90625 -0.828125q-2.59375 0 -4.671875 1.171875q-2.0625 1.171875 -3.234375 3.3125q-1.171875 2.125 -1.171875 4.890625q0 2.78125 1.171875 4.921875q1.171875 2.125 3.234375 3.296875q2.078125 1.171875 4.671875 1.171875q2.140625 0 3.90625 -0.828125q1.78125 -0.828125 2.96875 -2.5l1.578125 1.15625q-1.359375 2.0 -3.5625 3.046875q-2.203125 1.046875 -4.890625 1.046875zm14.462067 -31.828125l2.140625 0l0 31.65625l-2.140625 0l0 -31.65625zm18.648895 9.21875q4.140625 0 6.359375 2.109375q2.21875 2.109375 2.21875 6.203125l0 14.125l-2.046875 0l0 -3.96875q-1.078125 1.96875 -3.125 3.0625q-2.046875 1.078125 -4.90625 1.078125q-3.703125 0 -5.859375 -1.75q-2.15625 -1.75 -2.15625 -4.609375q0 -2.765625 1.984375 -4.484375q1.984375 -1.734375 6.328125 -1.734375l7.640625 0l0 -1.796875q0 -3.109375 -1.6875 -4.734375q-1.6875 -1.625 -4.921875 -1.625q-2.21875 0 -4.25 0.765625q-2.015625 0.765625 -3.421875 2.046875l-1.078125 -1.53125q1.671875 -1.5 4.015625 -2.328125q2.34375 -0.828125 4.90625 -0.828125zm-1.203125 20.859375q2.78125 0 4.71875 -1.28125q1.9375 -1.28125 2.921875 -3.703125l0 -4.1875l-7.59375 0q-3.28125 0 -4.75 1.203125q-1.46875 1.1875 -1.46875 3.28125q0 2.171875 1.609375 3.4375q1.625 1.25 4.5625 1.25zm24.196655 1.75q-2.6875 0 -5.125 -0.8125q-2.421875 -0.8125 -3.796875 -2.046875l0.984375 -1.703125q1.359375 1.15625 3.515625 1.921875q2.15625 0.765625 4.5 0.765625q3.375 0 4.96875 -1.109375q1.609375 -1.109375 1.609375 -3.078125q0 -1.40625 -0.875 -2.21875q-0.875 -0.8125 -2.15625 -1.1875q-1.28125 -0.390625 -3.546875 -0.8125q-2.640625 -0.46875 -4.265625 -1.015625q-1.625 -0.5625 -2.78125 -1.796875q-1.140625 -1.234375 -1.140625 -3.421875q0 -2.640625 2.1875 -4.359375q2.203125 -1.734375 6.265625 -1.734375q2.125 0 4.21875 0.59375q2.09375 0.59375 3.40625 1.578125l-0.984375 1.703125q-1.359375 -0.96875 -3.109375 -1.484375q-1.75 -0.515625 -3.578125 -0.515625q-3.109375 0 -4.6875 1.15625q-1.578125 1.15625 -1.578125 3.03125q0 1.484375 0.890625 2.328125q0.890625 0.828125 2.1875 1.234375q1.3125 0.40625 3.65625 0.875q2.59375 0.46875 4.1875 1.0q1.609375 0.53125 2.71875 1.734375q1.109375 1.1875 1.109375 3.28125q0 2.765625 -2.3125 4.4375q-2.296875 1.65625 -6.46875 1.65625zm20.389648 0q-2.6875 0 -5.125 -0.8125q-2.421875 -0.8125 -3.796875 -2.046875l0.984375 -1.703125q1.359375 1.15625 3.515625 1.921875q2.15625 0.765625 4.5 0.765625q3.375 0 4.96875 -1.109375q1.609375 -1.109375 1.609375 -3.078125q0 -1.40625 -0.875 -2.21875q-0.875 -0.8125 -2.15625 -1.1875q-1.28125 -0.390625 -3.546875 -0.8125q-2.640625 -0.46875 -4.265625 -1.015625q-1.625 -0.5625 -2.78125 -1.796875q-1.140625 -1.234375 -1.140625 -3.421875q0 -2.640625 2.1875 -4.359375q2.203125 -1.734375 6.265625 -1.734375q2.125 0 4.21875 0.59375q2.09375 0.59375 3.40625 1.578125l-0.984375 1.703125q-1.359375 -0.96875 -3.109375 -1.484375q-1.75 -0.515625 -3.578125 -0.515625q-3.109375 0 -4.6875 1.15625q-1.578125 1.15625 -1.578125 3.03125q0 1.484375 0.890625 2.328125q0.890625 0.828125 2.1875 1.234375q1.3125 0.40625 3.65625 0.875q2.59375 0.46875 4.1875 1.0q1.609375 0.53125 2.71875 1.734375q1.109375 1.1875 1.109375 3.28125q0 2.765625 -2.3125 4.4375q-2.296875 1.65625 -6.46875 1.65625z" fill-rule="nonzero"/><path fill="#010000" fill-opacity="0.0" d="m393.06668 297.47818l277.13718 0l0 51.997894l-277.13718 0l0 -51.997894z" fill-rule="nonzero"/><path fill="#000000" d="m403.22293 338.94125q-2.6875 0 -5.125 -0.8125q-2.421875 -0.8125 -3.796875 -2.046875l0.984375 -1.703125q1.359375 1.15625 3.515625 1.921875q2.15625 0.765625 4.5 0.765625q3.375 0 4.96875 -1.109375q1.609375 -1.109375 1.609375 -3.078125q0 -1.40625 -0.875 -2.21875q-0.875 -0.8125 -2.15625 -1.1875q-1.28125 -0.390625 -3.546875 -0.8125q-2.640625 -0.46875 -4.265625 -1.015625q-1.625 -0.5625 -2.78125 -1.796875q-1.140625 -1.234375 -1.140625 -3.421875q0 -2.640625 2.1875 -4.359375q2.203125 -1.734375 6.265625 -1.734375q2.125 0 4.21875 0.59375q2.09375 0.59375 3.40625 1.578125l-0.984375 1.703125q-1.359375 -0.96875 -3.109375 -1.484375q-1.75 -0.515625 -3.578125 -0.515625q-3.109375 0 -4.6875 1.15625q-1.578125 1.15625 -1.578125 3.03125q0 1.484375 0.890625 2.328125q0.890625 0.828125 2.1875 1.234375q1.3125 0.40625 3.65625 0.875q2.59375 0.46875 4.1875 1.0q1.609375 0.53125 2.71875 1.734375q1.109375 1.1875 1.109375 3.28125q0 2.765625 -2.3125 4.4375q-2.296875 1.65625 -6.46875 1.65625zm34.249023 -22.4375l0 22.265625l-2.046875 0l0 -4.78125q-1.109375 2.34375 -3.28125 3.65625q-2.171875 1.296875 -5.125 1.296875q-4.34375 0 -6.828125 -2.421875q-2.46875 -2.4375 -2.46875 -7.0l0 -13.015625l2.125 0l0 12.84375q0 3.75 1.921875 5.71875q1.921875 1.953125 5.421875 1.953125q3.75 0 5.9375 -2.34375q2.203125 -2.34375 2.203125 -6.3125l0 -11.859375l2.140625 0zm14.677612 22.4375q-2.6875 0 -5.125 -0.8125q-2.421875 -0.8125 -3.796875 -2.046875l0.984375 -1.703125q1.359375 1.15625 3.515625 1.921875q2.15625 0.765625 4.5 0.765625q3.375 0 4.96875 -1.109375q1.609375 -1.109375 1.609375 -3.078125q0 -1.40625 -0.875 -2.21875q-0.875 -0.8125 -2.15625 -1.1875q-1.28125 -0.390625 -3.546875 -0.8125q-2.640625 -0.46875 -4.265625 -1.015625q-1.625 -0.5625 -2.78125 -1.796875q-1.140625 -1.234375 -1.140625 -3.421875q0 -2.640625 2.1875 -4.359375q2.203125 -1.734375 6.265625 -1.734375q2.125 0 4.21875 0.59375q2.09375 0.59375 3.40625 1.578125l-0.984375 1.703125q-1.359375 -0.96875 -3.109375 -1.484375q-1.75 -0.515625 -3.578125 -0.515625q-3.109375 0 -4.6875 1.15625q-1.578125 1.15625 -1.578125 3.03125q0 1.484375 0.890625 2.328125q0.890625 0.828125 2.1875 1.234375q1.3125 0.40625 3.65625 0.875q2.59375 0.46875 4.1875 1.0q1.609375 0.53125 2.71875 1.734375q1.109375 1.1875 1.109375 3.28125q0 2.765625 -2.3125 4.4375q-2.296875 1.65625 -6.46875 1.65625zm25.795898 -1.578125q-0.796875 0.765625 -2.015625 1.171875q-1.21875 0.40625 -2.546875 0.40625q-2.890625 0 -4.46875 -1.59375q-1.578125 -1.609375 -1.578125 -4.46875l0 -14.546875l-4.09375 0l0 -1.828125l4.09375 0l0 -4.859375l2.125 0l0 4.859375l7.078125 0l0 1.828125l-7.078125 0l0 14.34375q0 2.171875 1.046875 3.3125q1.046875 1.125 3.09375 1.125q2.09375 0 3.453125 -1.25l0.890625 1.5zm13.445923 -21.03125q4.140625 0 6.359375 2.109375q2.21875 2.109375 2.21875 6.203125l0 14.125l-2.046875 0l0 -3.96875q-1.078125 1.96875 -3.125 3.0625q-2.046875 1.078125 -4.90625 1.078125q-3.703125 0 -5.859375 -1.75q-2.15625 -1.75 -2.15625 -4.609375q0 -2.765625 1.984375 -4.484375q1.984375 -1.734375 6.328125 -1.734375l7.640625 0l0 -1.796875q0 -3.109375 -1.6875 -4.734375q-1.6875 -1.625 -4.921875 -1.625q-2.21875 0 -4.25 0.765625q-2.015625 0.765625 -3.421875 2.046875l-1.078125 -1.53125q1.671875 -1.5 4.015625 -2.328125q2.34375 -0.828125 4.90625 -0.828125zm-1.203125 20.859375q2.78125 0 4.71875 -1.28125q1.9375 -1.28125 2.921875 -3.703125l0 -4.1875l-7.59375 0q-3.28125 0 -4.75 1.203125q-1.46875 1.1875 -1.46875 3.28125q0 2.171875 1.609375 3.4375q1.625 1.25 4.5625 1.25zm18.55603 -20.6875l2.140625 0l0 22.265625l-2.140625 0l0 -22.265625zm1.078125 -5.421875q-0.71875 0 -1.234375 -0.484375q-0.515625 -0.5 -0.515625 -1.21875q0 -0.71875 0.515625 -1.234375q0.515625 -0.515625 1.234375 -0.515625q0.71875 0 1.234375 0.5q0.515625 0.484375 0.515625 1.203125q0 0.734375 -0.515625 1.25q-0.515625 0.5 -1.234375 0.5zm20.945831 5.25q4.171875 0 6.59375 2.4375q2.4375 2.421875 2.4375 6.984375l0 13.015625l-2.125 0l0 -12.84375q0 -3.75 -1.90625 -5.703125q-1.890625 -1.96875 -5.3125 -1.96875q-3.921875 0 -6.1875 2.34375q-2.25 2.34375 -2.25 6.3125l0 11.859375l-2.140625 0l0 -22.265625l2.046875 0l0 4.8125q1.15625 -2.34375 3.4375 -3.65625q2.28125 -1.328125 5.40625 -1.328125zm25.33258 0q4.140625 0 6.359375 2.109375q2.21875 2.109375 2.21875 6.203125l0 14.125l-2.046875 0l0 -3.96875q-1.078125 1.96875 -3.125 3.0625q-2.046875 1.078125 -4.90625 1.078125q-3.703125 0 -5.859375 -1.75q-2.15625 -1.75 -2.15625 -4.609375q0 -2.765625 1.984375 -4.484375q1.984375 -1.734375 6.328125 -1.734375l7.640625 0l0 -1.796875q0 -3.109375 -1.6875 -4.734375q-1.6875 -1.625 -4.921875 -1.625q-2.21875 0 -4.25 0.765625q-2.015625 0.765625 -3.421875 2.046875l-1.078125 -1.53125q1.671875 -1.5 4.015625 -2.328125q2.34375 -0.828125 4.90625 -0.828125zm-1.203125 20.859375q2.78125 0 4.71875 -1.28125q1.9375 -1.28125 2.921875 -3.703125l0 -4.1875l-7.59375 0q-3.28125 0 -4.75 1.203125q-1.46875 1.1875 -1.46875 3.28125q0 2.171875 1.609375 3.4375q1.625 1.25 4.5625 1.25zm29.743591 -20.859375q3.109375 0 5.625 1.4375q2.515625 1.421875 3.9375 4.0q1.4375 2.578125 1.4375 5.859375q0 3.296875 -1.4375 5.859375q-1.421875 2.546875 -3.9375 4.0q-2.515625 1.453125 -5.625 1.453125q-2.984375 0 -5.40625 -1.421875q-2.40625 -1.4375 -3.734375 -4.0l0 5.25l-2.046875 0l0 -31.65625l2.140625 0l0 14.46875q1.328125 -2.484375 3.703125 -3.859375q2.390625 -1.390625 5.34375 -1.390625zm-0.140625 20.6875q2.5625 0 4.609375 -1.1875q2.046875 -1.203125 3.21875 -3.328125q1.171875 -2.140625 1.171875 -4.875q0 -2.71875 -1.171875 -4.84375q-1.171875 -2.140625 -3.21875 -3.328125q-2.046875 -1.203125 -4.609375 -1.203125q-2.546875 0 -4.578125 1.203125q-2.03125 1.1875 -3.203125 3.328125q-1.171875 2.125 -1.171875 4.84375q0 2.734375 1.171875 4.875q1.171875 2.125 3.203125 3.328125q2.03125 1.1875 4.578125 1.1875zm17.746033 -20.515625l2.140625 0l0 22.265625l-2.140625 0l0 -22.265625zm1.078125 -5.421875q-0.71875 0 -1.234375 -0.484375q-0.515625 -0.5 -0.515625 -1.21875q0 -0.71875 0.515625 -1.234375q0.515625 -0.515625 1.234375 -0.515625q0.71875 0 1.234375 0.5q0.515625 0.484375 0.515625 1.203125q0 0.734375 -0.515625 1.25q-0.515625 0.5 -1.234375 0.5zm10.055176 -3.96875l2.140625 0l0 31.65625l-2.140625 0l0 -31.65625zm11.13324 9.390625l2.140625 0l0 22.265625l-2.140625 0l0 -22.265625zm1.078125 -5.421875q-0.71875 0 -1.234375 -0.484375q-0.515625 -0.5 -0.515625 -1.21875q0 -0.71875 0.515625 -1.234375q0.515625 -0.515625 1.234375 -0.515625q0.71875 0 1.234375 0.5q0.515625 0.484375 0.515625 1.203125q0 0.734375 -0.515625 1.25q-0.515625 0.5 -1.234375 0.5zm21.10199 26.28125q-0.796875 0.765625 -2.015625 1.171875q-1.21875 0.40625 -2.546875 0.40625q-2.890625 0 -4.46875 -1.59375q-1.578125 -1.609375 -1.578125 -4.46875l0 -14.546875l-4.09375 0l0 -1.828125l4.09375 0l0 -4.859375l2.125 0l0 4.859375l7.078125 0l0 1.828125l-7.078125 0l0 14.34375q0 2.171875 1.046875 3.3125q1.046875 1.125 3.09375 1.125q2.09375 0 3.453125 -1.25l0.890625 1.5zm23.378662 -20.859375l-11.421875 25.296875q-1.28125 2.9375 -2.96875 4.171875q-1.6875 1.25 -3.984375 1.25q-1.546875 0 -2.890625 -0.515625q-1.34375 -0.515625 -2.28125 -1.5l1.078125 -1.625q1.703125 1.75 4.125 1.75q1.625 0 2.78125 -0.890625q1.15625 -0.890625 2.125 -3.0625l1.203125 -2.6875l-10.03125 -22.1875l2.265625 0l8.90625 19.921875l8.921875 -19.921875l2.171875 0z" fill-rule="nonzero"/><path fill="#000000" fill-opacity="0.0" d="m670.20386 297.47818l143.36719 0l0 51.997894l-143.36719 0l0 -51.997894z" fill-rule="nonzero"/><path fill="#000000" d="m705.479 307.11313l0 31.65625l-2.09375 0l0 -5.25q-1.3125 2.609375 -3.703125 4.015625q-2.390625 1.40625 -5.421875 1.40625q-3.109375 0 -5.625 -1.453125q-2.515625 -1.453125 -3.953125 -4.0q-1.421875 -2.5625 -1.421875 -5.859375q0 -3.28125 1.421875 -5.859375q1.4375 -2.578125 3.953125 -4.0q2.515625 -1.4375 5.625 -1.4375q2.984375 0 5.34375 1.40625q2.375 1.40625 3.75 3.921875l0 -14.546875l2.125 0zm-11.09375 29.90625q2.5625 0 4.578125 -1.1875q2.03125 -1.203125 3.203125 -3.328125q1.1875 -2.140625 1.1875 -4.875q0 -2.71875 -1.1875 -4.84375q-1.171875 -2.140625 -3.203125 -3.328125q-2.015625 -1.203125 -4.578125 -1.203125q-2.5625 0 -4.59375 1.203125q-2.015625 1.1875 -3.1875 3.328125q-1.171875 2.125 -1.171875 4.84375q0 2.734375 1.171875 4.875q1.171875 2.125 3.1875 3.328125q2.03125 1.1875 4.59375 1.1875zm22.136658 -15.65625q1.03125 -2.421875 3.203125 -3.71875q2.171875 -1.3125 5.296875 -1.3125l0 2.09375l-0.515625 -0.046875q-3.71875 0 -5.8125 2.328125q-2.078125 2.328125 -2.078125 6.453125l0 11.609375l-2.140625 0l0 -22.265625l2.046875 0l0 4.859375zm14.375671 -4.859375l2.140625 0l0 22.265625l-2.140625 0l0 -22.265625zm1.078125 -5.421875q-0.71875 0 -1.234375 -0.484375q-0.515625 -0.5 -0.515625 -1.21875q0 -0.71875 0.515625 -1.234375q0.515625 -0.515625 1.234375 -0.515625q0.71875 0 1.234375 0.5q0.515625 0.484375 0.515625 1.203125q0 0.734375 -0.515625 1.25q-0.515625 0.5 -1.234375 0.5zm27.930176 5.421875l-10.0625 22.265625l-2.171875 0l-10.03125 -22.265625l2.265625 0l8.875 19.921875l8.953125 -19.921875l2.171875 0zm22.819946 11.640625l-19.140625 0q0.078125 2.609375 1.3125 4.640625q1.234375 2.015625 3.34375 3.125q2.125 1.109375 4.765625 1.109375q2.171875 0 4.03125 -0.78125q1.859375 -0.796875 3.09375 -2.328125l1.234375 1.40625q-1.453125 1.75 -3.65625 2.6875q-2.1875 0.9375 -4.75 0.9375q-3.328125 0 -5.9375 -1.453125q-2.59375 -1.453125 -4.0625 -4.0q-1.46875 -2.5625 -1.46875 -5.859375q0 -3.234375 1.375 -5.8125q1.390625 -2.578125 3.8125 -4.03125q2.4375 -1.453125 5.46875 -1.453125q3.03125 0 5.4375 1.4375q2.421875 1.421875 3.796875 3.984375q1.390625 2.5625 1.390625 5.796875l-0.046875 0.59375zm-10.578125 -9.9375q-2.34375 0 -4.21875 1.046875q-1.875 1.046875 -3.015625 2.953125q-1.125 1.890625 -1.296875 4.28125l17.0625 0q-0.125 -2.390625 -1.28125 -4.265625q-1.140625 -1.875 -3.03125 -2.9375q-1.875 -1.078125 -4.21875 -1.078125zm28.121948 -1.875q4.171875 0 6.59375 2.4375q2.4375 2.421875 2.4375 6.984375l0 13.015625l-2.125 0l0 -12.84375q0 -3.75 -1.90625 -5.703125q-1.890625 -1.96875 -5.3125 -1.96875q-3.921875 0 -6.1875 2.34375q-2.25 2.34375 -2.25 6.3125l0 11.859375l-2.140625 0l0 -22.265625l2.046875 0l0 4.8125q1.15625 -2.34375 3.4375 -3.65625q2.28125 -1.328125 5.40625 -1.328125z" fill-rule="nonzero"/><path fill="#000000" fill-opacity="0.0" d="m813.57104 297.47818l10.9626465 0l0 51.997894l-10.9626465 0l0 -51.997894z" fill-rule="nonzero"/><path fill="#ffffff" d="m252.2164 353.27603l455.56723 0l0 51.19998l-455.56723 0l0 -51.19998z" fill-rule="nonzero"/><path fill="#000000" fill-opacity="0.0" d="m252.2164 352.94482l455.56723 0l0 51.997894l-455.56723 0l0 -51.997894z" fill-rule="nonzero"/><path fill="#000000" d="m267.7789 392.82977q-0.796875 0.765625 -2.015625 1.171875q-1.21875 0.40625 -2.546875 0.40625q-2.890625 0 -4.46875 -1.59375q-1.578125 -1.609375 -1.578125 -4.46875l0 -14.546875l-4.09375 0l0 -1.828125l4.09375 0l0 -4.859375l2.125 0l0 4.859375l7.078125 0l0 1.828125l-7.078125 0l0 14.34375q0 2.171875 1.046875 3.3125q1.046875 1.125 3.09375 1.125q2.09375 0 3.453125 -1.25l0.890625 1.5zm23.932129 -9.21875l-19.140625 0q0.078125 2.609375 1.3125 4.640625q1.234375 2.015625 3.34375 3.125q2.125 1.109375 4.765625 1.109375q2.171875 0 4.03125 -0.78125q1.859375 -0.796875 3.09375 -2.328125l1.234375 1.40625q-1.453125 1.75 -3.65625 2.6875q-2.1875 0.9375 -4.75 0.9375q-3.328125 0 -5.9375 -1.453125q-2.59375 -1.453125 -4.0625 -4.0q-1.46875 -2.5625 -1.46875 -5.859375q0 -3.234375 1.375 -5.8125q1.390625 -2.578125 3.8125 -4.03125q2.4375 -1.453125 5.46875 -1.453125q3.03125 0 5.4375 1.4375q2.421875 1.421875 3.796875 3.984375q1.390625 2.5625 1.390625 5.796875l-0.046875 0.59375zm-10.578125 -9.9375q-2.34375 0 -4.21875 1.046875q-1.875 1.046875 -3.015625 2.953125q-1.125 1.890625 -1.296875 4.28125l17.0625 0q-0.125 -2.390625 -1.28125 -4.265625q-1.140625 -1.875 -3.03125 -2.9375q-1.875 -1.078125 -4.21875 -1.078125zm26.059479 20.734375q-3.234375 0 -5.796875 -1.453125q-2.5625 -1.453125 -4.015625 -4.03125q-1.4375 -2.578125 -1.4375 -5.828125q0 -3.28125 1.4375 -5.859375q1.453125 -2.578125 4.015625 -4.0q2.5625 -1.4375 5.796875 -1.4375q2.6875 0 4.890625 1.046875q2.203125 1.046875 3.5625 3.046875l-1.578125 1.15625q-1.1875 -1.671875 -2.96875 -2.5q-1.765625 -0.828125 -3.90625 -0.828125q-2.59375 0 -4.671875 1.171875q-2.0625 1.171875 -3.234375 3.3125q-1.171875 2.125 -1.171875 4.890625q0 2.78125 1.171875 4.921875q1.171875 2.125 3.234375 3.296875q2.078125 1.171875 4.671875 1.171875q2.140625 0 3.90625 -0.828125q1.78125 -0.828125 2.96875 -2.5l1.578125 1.15625q-1.359375 2.0 -3.5625 3.046875q-2.203125 1.046875 -4.890625 1.046875zm25.352692 -22.609375q4.171875 0 6.59375 2.4375q2.4375 2.421875 2.4375 6.984375l0 13.015625l-2.125 0l0 -12.84375q0 -3.75 -1.90625 -5.703125q-1.890625 -1.96875 -5.3125 -1.96875q-3.921875 0 -6.1875 2.34375q-2.25 2.34375 -2.25 6.3125l0 11.859375l-2.140625 0l0 -31.65625l2.140625 0l0 14.046875q1.15625 -2.3125 3.40625 -3.5625q2.265625 -1.265625 5.34375 -1.265625zm28.70758 0q4.171875 0 6.59375 2.4375q2.4375 2.421875 2.4375 6.984375l0 13.015625l-2.125 0l0 -12.84375q0 -3.75 -1.90625 -5.703125q-1.890625 -1.96875 -5.3125 -1.96875q-3.921875 0 -6.1875 2.34375q-2.25 2.34375 -2.25 6.3125l0 11.859375l-2.140625 0l0 -22.265625l2.046875 0l0 4.8125q1.15625 -2.34375 3.4375 -3.65625q2.28125 -1.328125 5.40625 -1.328125zm26.562805 22.609375q-3.15625 0 -5.703125 -1.453125q-2.53125 -1.453125 -3.984375 -4.03125q-1.4375 -2.578125 -1.4375 -5.828125q0 -3.234375 1.4375 -5.8125q1.453125 -2.578125 3.984375 -4.03125q2.546875 -1.453125 5.703125 -1.453125q3.15625 0 5.6875 1.453125q2.546875 1.453125 4.0 4.03125q1.453125 2.578125 1.453125 5.8125q0 3.25 -1.453125 5.828125q-1.453125 2.578125 -4.0 4.03125q-2.53125 1.453125 -5.6875 1.453125zm0 -1.921875q2.5625 0 4.578125 -1.1875q2.03125 -1.203125 3.203125 -3.328125q1.1875 -2.140625 1.1875 -4.875q0 -2.71875 -1.1875 -4.84375q-1.171875 -2.140625 -3.203125 -3.328125q-2.015625 -1.203125 -4.578125 -1.203125q-2.5625 0 -4.59375 1.203125q-2.015625 1.1875 -3.1875 3.328125q-1.171875 2.125 -1.171875 4.84375q0 2.734375 1.171875 4.875q1.171875 2.125 3.1875 3.328125q2.03125 1.1875 4.59375 1.1875zm17.743713 -29.90625l2.140625 0l0 31.65625l-2.140625 0l0 -31.65625zm19.836365 31.828125q-3.15625 0 -5.703125 -1.453125q-2.53125 -1.453125 -3.984375 -4.03125q-1.4375 -2.578125 -1.4375 -5.828125q0 -3.234375 1.4375 -5.8125q1.453125 -2.578125 3.984375 -4.03125q2.546875 -1.453125 5.703125 -1.453125q3.15625 0 5.6875 1.453125q2.546875 1.453125 4.0 4.03125q1.453125 2.578125 1.453125 5.8125q0 3.25 -1.453125 5.828125q-1.453125 2.578125 -4.0 4.03125q-2.53125 1.453125 -5.6875 1.453125zm0 -1.921875q2.5625 0 4.578125 -1.1875q2.03125 -1.203125 3.203125 -3.328125q1.1875 -2.140625 1.1875 -4.875q0 -2.71875 -1.1875 -4.84375q-1.171875 -2.140625 -3.203125 -3.328125q-2.015625 -1.203125 -4.578125 -1.203125q-2.5625 0 -4.59375 1.203125q-2.015625 1.1875 -3.1875 3.328125q-1.171875 2.125 -1.171875 4.84375q0 2.734375 1.171875 4.875q1.171875 2.125 3.1875 3.328125q2.03125 1.1875 4.59375 1.1875zm37.79059 -20.515625l0 19.875q0 5.546875 -2.6875 8.1875q-2.6875 2.65625 -8.09375 2.65625q-3.078125 0 -5.8125 -0.953125q-2.71875 -0.9375 -4.390625 -2.59375l1.15625 -1.625q1.65625 1.53125 4.0 2.390625q2.359375 0.859375 5.0 0.859375q4.4375 0 6.5625 -2.125q2.140625 -2.109375 2.140625 -6.53125l0 -3.765625q-1.359375 2.4375 -3.796875 3.765625q-2.4375 1.3125 -5.453125 1.3125q-3.125 0 -5.671875 -1.375q-2.53125 -1.390625 -3.984375 -3.859375q-1.4375 -2.484375 -1.4375 -5.59375q0 -3.125 1.4375 -5.59375q1.453125 -2.46875 3.984375 -3.828125q2.546875 -1.375 5.671875 -1.375q3.0625 0 5.53125 1.375q2.484375 1.359375 3.796875 3.828125l0 -5.03125l2.046875 0zm-11.21875 19.53125q2.609375 0 4.703125 -1.125q2.09375 -1.125 3.265625 -3.15625q1.171875 -2.03125 1.171875 -4.625q0 -2.609375 -1.171875 -4.609375q-1.171875 -2.0 -3.265625 -3.125q-2.09375 -1.140625 -4.703125 -1.140625q-2.59375 0 -4.671875 1.140625q-2.0625 1.125 -3.234375 3.125q-1.171875 2.0 -1.171875 4.609375q0 2.59375 1.171875 4.625q1.171875 2.03125 3.234375 3.15625q2.078125 1.125 4.671875 1.125zm38.138428 -19.53125l-11.421875 25.296875q-1.28125 2.9375 -2.96875 4.171875q-1.6875 1.25 -3.984375 1.25q-1.546875 0 -2.890625 -0.515625q-1.34375 -0.515625 -2.28125 -1.5l1.078125 -1.625q1.703125 1.75 4.125 1.75q1.625 0 2.78125 -0.890625q1.15625 -0.890625 2.125 -3.0625l1.203125 -2.6875l-10.03125 -22.1875l2.265625 0l8.90625 19.921875l8.921875 -19.921875l2.171875 0zm24.438263 22.4375q-3.2344055 0 -5.7969055 -1.453125q-2.5625 -1.453125 -4.015625 -4.03125q-1.4375 -2.578125 -1.4375 -5.828125q0 -3.28125 1.4375 -5.859375q1.453125 -2.578125 4.015625 -4.0q2.5625 -1.4375 5.7969055 -1.4375q2.6875 0 4.890625 1.046875q2.203125 1.046875 3.5625 3.046875l-1.578125 1.15625q-1.1875 -1.671875 -2.96875 -2.5q-1.765625 -0.828125 -3.90625 -0.828125q-2.5937805 0 -4.6719055 1.171875q-2.0625 1.171875 -3.234375 3.3125q-1.171875 2.125 -1.171875 4.890625q0 2.78125 1.171875 4.921875q1.171875 2.125 3.234375 3.296875q2.078125 1.171875 4.6719055 1.171875q2.140625 0 3.90625 -0.828125q1.78125 -0.828125 2.96875 -2.5l1.578125 1.15625q-1.359375 2.0 -3.5625 3.046875q-2.203125 1.046875 -4.890625 1.046875zm23.165161 0q-3.15625 0 -5.703125 -1.453125q-2.53125 -1.453125 -3.984375 -4.03125q-1.4375 -2.578125 -1.4375 -5.828125q0 -3.234375 1.4375 -5.8125q1.453125 -2.578125 3.984375 -4.03125q2.546875 -1.453125 5.703125 -1.453125q3.15625 0 5.6875 1.453125q2.546875 1.453125 4.0 4.03125q1.453125 2.578125 1.453125 5.8125q0 3.25 -1.453125 5.828125q-1.453125 2.578125 -4.0 4.03125q-2.53125 1.453125 -5.6875 1.453125zm0 -1.921875q2.5625 0 4.578125 -1.1875q2.03125 -1.203125 3.203125 -3.328125q1.1875 -2.140625 1.1875 -4.875q0 -2.71875 -1.1875 -4.84375q-1.171875 -2.140625 -3.203125 -3.328125q-2.015625 -1.203125 -4.578125 -1.203125q-2.5625 0 -4.59375 1.203125q-2.015625 1.1875 -3.1875 3.328125q-1.171875 2.125 -1.171875 4.84375q0 2.734375 1.171875 4.875q1.171875 2.125 3.1875 3.328125q2.03125 1.1875 4.59375 1.1875zm45.47809 -20.6875q4.140625 0 6.5 2.4375q2.375 2.421875 2.375 6.984375l0 13.015625l-2.140625 0l0 -12.84375q0 -3.75 -1.84375 -5.703125q-1.828125 -1.96875 -5.109375 -1.96875q-3.75 0 -5.953125 2.34375q-2.1875 2.34375 -2.1875 6.3125l0 11.859375l-2.140625 0l0 -12.84375q0 -3.75 -1.828125 -5.703125q-1.828125 -1.96875 -5.125 -1.96875q-3.75 0 -5.953125 2.34375q-2.1875 2.34375 -2.1875 6.3125l0 11.859375l-2.140625 0l0 -22.265625l2.046875 0l0 4.78125q1.109375 -2.34375 3.3125 -3.640625q2.203125 -1.3125 5.21875 -1.3125q3.03125 0 5.140625 1.375q2.125 1.359375 3.015625 4.0q1.109375 -2.46875 3.46875 -3.921875q2.375 -1.453125 5.53125 -1.453125zm28.839294 0q3.109375 0 5.625 1.453125q2.515625 1.453125 3.9375 4.015625q1.4375 2.546875 1.4375 5.828125q0 3.296875 -1.4375 5.875q-1.421875 2.578125 -3.9375 4.015625q-2.515625 1.421875 -5.625 1.421875q-2.953125 0 -5.34375 -1.390625q-2.375 -1.390625 -3.703125 -3.859375l0 13.359375l-2.140625 0l0 -30.546875l2.046875 0l0 5.25q1.328125 -2.5625 3.734375 -3.984375q2.421875 -1.4375 5.40625 -1.4375zm-0.140625 20.6875q2.5625 0 4.609375 -1.1875q2.046875 -1.203125 3.21875 -3.328125q1.171875 -2.140625 1.171875 -4.875q0 -2.71875 -1.171875 -4.84375q-1.171875 -2.140625 -3.21875 -3.328125q-2.046875 -1.203125 -4.609375 -1.203125q-2.546875 0 -4.578125 1.203125q-2.03125 1.1875 -3.203125 3.328125q-1.171875 2.125 -1.171875 4.84375q0 2.734375 1.171875 4.875q1.171875 2.125 3.203125 3.328125q2.03125 1.1875 4.578125 1.1875zm25.17633 -20.6875q4.140625 0 6.359375 2.109375q2.21875 2.109375 2.21875 6.203125l0 14.125l-2.046875 0l0 -3.96875q-1.078125 1.96875 -3.125 3.0625q-2.046875 1.078125 -4.90625 1.078125q-3.703125 0 -5.859375 -1.75q-2.15625 -1.75 -2.15625 -4.609375q0 -2.765625 1.984375 -4.484375q1.984375 -1.734375 6.328125 -1.734375l7.640625 0l0 -1.796875q0 -3.109375 -1.6875 -4.734375q-1.6875 -1.625 -4.921875 -1.625q-2.21875 0 -4.25 0.765625q-2.015625 0.765625 -3.421875 2.046875l-1.078125 -1.53125q1.671875 -1.5 4.015625 -2.328125q2.34375 -0.828125 4.90625 -0.828125zm-1.203125 20.859375q2.78125 0 4.71875 -1.28125q1.9375 -1.28125 2.921875 -3.703125l0 -4.1875l-7.59375 0q-3.28125 0 -4.75 1.203125q-1.46875 1.1875 -1.46875 3.28125q0 2.171875 1.609375 3.4375q1.625 1.25 4.5625 1.25zm29.446716 -20.859375q4.171875 0 6.59375 2.4375q2.4375 2.421875 2.4375 6.984375l0 13.015625l-2.125 0l0 -12.84375q0 -3.75 -1.90625 -5.703125q-1.890625 -1.96875 -5.3125 -1.96875q-3.921875 0 -6.1875 2.34375q-2.25 2.34375 -2.25 6.3125l0 11.859375l-2.140625 0l0 -22.265625l2.046875 0l0 4.8125q1.15625 -2.34375 3.4375 -3.65625q2.28125 -1.328125 5.40625 -1.328125zm35.26526 0.171875l-11.421875 25.296875q-1.28125 2.9375 -2.96875 4.171875q-1.6875 1.25 -3.984375 1.25q-1.546875 0 -2.890625 -0.515625q-1.34375 -0.515625 -2.28125 -1.5l1.078125 -1.625q1.703125 1.75 4.125 1.75q1.625 0 2.78125 -0.890625q1.15625 -0.890625 2.125 -3.0625l1.203125 -2.6875l-10.03125 -22.1875l2.265625 0l8.90625 19.921875l8.921875 -19.921875l2.171875 0zm2.9468384 22.4375q-0.71875 0 -1.265625 -0.53125q-0.53125 -0.53125 -0.53125 -1.296875q0 -0.78125 0.53125 -1.28125q0.546875 -0.515625 1.265625 -0.515625q0.71875 0 1.25 0.515625q0.546875 0.5 0.546875 1.28125q0 0.765625 -0.546875 1.296875q-0.53125 0.53125 -1.25 0.53125z" fill-rule="nonzero"/><path fill="#000000" fill-opacity="0.0" d="m707.7836 352.94482l10.9626465 0l0 51.997894l-10.9626465 0l0 -51.997894z" fill-rule="nonzero"/><path fill="#010000" fill-opacity="0.0" d="m718.7463 368.43286l0 0l0 32.493835l0 0l0 -32.493835z" fill-rule="nonzero"/></g></svg>