<svg version="1.1" viewBox="0.0 0.0 960.0 540.0" fill="none" stroke="none" stroke-linecap="square" stroke-miterlimit="10" xmlns:xlink="http://www.w3.org/1999/xlink" xmlns="http://www.w3.org/2000/svg"><clipPath id="g7b571b80b4_1_0.0"><path d="m0 0l960.0 0l0 540.0l-960.0 0l0 -540.0z" clip-rule="nonzero"/></clipPath><g clip-path="url(#g7b571b80b4_1_0.0)"><path fill="#000000" fill-opacity="0.0" d="m0 0l960.0 0l0 540.0l-960.0 0z" fill-rule="evenodd"/><path fill="#000000" fill-opacity="0.0" d="m173.1811 185.96326l697.6378 0l0 179.43307l-697.6378 0z" fill-rule="evenodd"/><path fill="#1b511a" d="m248.1811 293.24014l-39.421875 0l-7.53125 18.203125l-20.140625 0l37.859375 -84.92189l19.40625 0l37.98436 84.92189l-20.624985 0l-7.53125 -18.203125zm-6.1875 -14.921875l-13.46875 -32.51564l-13.46875 32.51564l26.9375 0zm59.937332 -23.531265q3.390625 -4.734375 9.15625 -7.15625q5.765625 -2.4375 13.296875 -2.4375l0 17.468765q-3.15625 -0.234375 -4.25 -0.234375q-8.125 0 -12.75 4.546875q-4.609375 4.546875 -4.609375 13.65625l0 30.8125l-18.921875 0l0 -65.281265l18.078125 0l0 8.625zm99.97992 -8.625l0 65.281265l-17.96875 0l0 -7.765625q-3.75 4.25 -8.96875 6.5q-5.21875 2.234375 -11.28125 2.234375q-12.859375 0 -20.390625 -7.390625q-7.515625 -7.40625 -7.515625 -21.96875l0 -36.89064l18.921875 0l0 34.093765q0 15.78125 13.234375 15.78125q6.78125 0 10.90625 -4.421875q4.125 -4.4375 4.125 -13.171875l0 -32.281265l18.9375 0zm56.164886 -0.96875q9.109375 0 16.5625 4.1875q7.46875 4.1875 11.703125 11.781265q4.25 7.578125 4.25 17.640625q0 10.078125 -4.25 17.65625q-4.234375 7.578125 -11.703125 11.765625q-7.453125 4.1875 -16.5625 4.1875q-12.484375 0 -19.65625 -7.890625l0 30.453125l-18.921844 0l0 -88.812515l18.078094 0l0 7.53125q7.03125 -8.5 20.5 -8.5zm-3.265625 51.687515q7.28125 0 11.9375 -4.90625q4.671875 -4.921875 4.671875 -13.171875q0 -8.25 -4.671875 -13.15625q-4.65625 -4.921875 -11.9375 -4.921875q-7.28125 0 -11.953125 4.921875q-4.671875 4.90625 -4.671875 13.15625q0 8.25 4.671875 13.171875q4.671875 4.90625 11.953125 4.90625zm73.640076 -51.687515q15.171875 0 23.296875 7.21875q8.125 7.2187653 8.125 21.781265l0 37.25l-17.703125 0l0 -8.125q-5.34375 9.09375 -19.90625 9.09375q-7.515625 0 -13.0469055 -2.546875q-5.515625 -2.546875 -8.4375 -7.03125q-2.90625 -4.5 -2.90625 -10.203125q0 -9.09375 6.859375 -14.3125q6.859375 -5.21875 21.171906 -5.21875l15.046875 0q0 -6.1875 -3.765625 -9.515625q-3.765625 -3.34375 -11.28125 -3.34375q-5.21875 0 -10.25 1.640625q-5.0312805 1.640625 -8.5625305 4.421875l-6.78125 -13.218765q5.328125 -3.765625 12.7812805 -5.828125q7.46875 -2.0625 15.359375 -2.0625zm-1.453125 54.48439q4.859375 0 8.609375 -2.25q3.765625 -2.25 5.34375 -6.609375l0 -6.671875l-12.984375 0q-11.640625 0 -11.640625 7.640625q0 3.640625 2.84375 5.765625q2.859375 2.125 7.828125 2.125z" fill-rule="nonzero"/><path fill="#1b511a" d="m669.67676 288.75577l-47.3125 0l-10.203125 22.6875l-9.328125 0l38.8125 -84.92189l8.859375 0l38.828125 84.92189l-9.46875 0l-10.1875 -22.6875zm-3.28125 -7.28125l-20.375 -45.625015l-20.390625 45.625015l40.765625 0zm95.607056 -12.5l8.625 0l0 32.40625q-5.953125 5.203125 -14.078125 8.0q-8.125 2.796875 -17.109375 2.796875q-12.734375 0 -22.9375 -5.578125q-10.1875 -5.59375 -16.015625 -15.46875q-5.8125 -9.890625 -5.8125 -22.15625q0 -12.25 5.8125 -22.14064q5.828125 -9.890625 16.015625 -15.46875q10.203125 -5.578125 23.0625 -5.578125q9.703125 0 17.828125 3.09375q8.140625 3.09375 13.71875 9.15625l-5.578125 5.703125q-10.078125 -9.953125 -25.609375 -9.953125q-10.3125 0 -18.625 4.5625q-8.3125 4.546875 -13.046875 12.625q-4.71875 8.062515 -4.71875 18.000015q0 9.953125 4.71875 17.96875q4.734375 8.0 12.984375 12.609375q8.25 4.609375 18.5625 4.609375q13.109375 0 22.203125 -6.546875l0 -28.640625zm34.21869 43.078125q-2.671875 0 -4.546875 -1.9375q-1.875 -1.953125 -1.875 -4.734375q0 -2.796875 1.875 -4.671875q1.875 -1.890625 4.546875 -1.890625q2.671875 0 4.609375 1.890625q1.9375 1.875 1.9375 4.671875q0 2.78125 -1.9375 4.734375q-1.9375 1.9375 -4.609375 1.9375z" fill-rule="nonzero"/><defs><linearGradient id="g7b571b80b4_1_0.1" gradientUnits="userSpaceOnUse" gradientTransform="matrix(-16.554375452669692 0.0 0.0 16.554375452669692 0.0 0.0)" spreadMethod="pad" x1="-17.12275955064355" y1="13.555899433385605" x2="-33.67713500287722" y2="13.555779283326665"><stop offset="0.0" stop-color="#1b511a"/><stop offset="0.33" stop-color="#6fa545"/><stop offset="0.58" stop-color="#7f9943"/><stop offset="1.0" stop-color="#e3e16c"/></linearGradient></defs><path fill="url(#g7b571b80b4_1_0.1)" d="m557.50397 224.40945l-274.04727 0l0 13.3858185l274.04727 0z" fill-rule="evenodd"/></g></svg>