<svg version="1.1" viewBox="0.0 0.0 960.0 540.0" fill="none" stroke="none" stroke-linecap="square" stroke-miterlimit="10" xmlns:xlink="http://www.w3.org/1999/xlink" xmlns="http://www.w3.org/2000/svg"><clipPath id="g7b56025fe2_0_0.0"><path d="m0 0l960.0 0l0 540.0l-960.0 0l0 -540.0z" clip-rule="nonzero"/></clipPath><g clip-path="url(#g7b56025fe2_0_0.0)"><path fill="#c9e5ab" d="m0 0l960.0 0l0 540.0l-960.0 0z" fill-rule="evenodd"/><path fill="#000000" fill-opacity="0.0" d="m723.0315 318.49344l222.80316 0l0 63.02362l-222.80316 0z" fill-rule="evenodd"/><path fill="#e3e16c" d="m749.7323 327.49344l195.77875 0l0 22.399994l-195.77875 0l0 -22.399994z" fill-rule="nonzero"/><path fill="#000000" fill-opacity="0.0" d="m749.7323 327.3542l195.77875 0l0 22.741974l-195.77875 0l0 -22.741974z" fill-rule="nonzero"/><path fill="#000000" d="m755.57605 345.63217q-1.546875 0 -3.0 -0.40625q-1.4375 -0.421875 -2.328125 -1.09375l1.03125 -2.28125q0.84375 0.609375 2.0 0.984375q1.15625 0.375 2.3125 0.375q1.28125 0 1.890625 -0.375q0.625 -0.390625 0.625 -1.015625q0 -0.46875 -0.359375 -0.78125q-0.359375 -0.3125 -0.9375 -0.5q-0.5625 -0.1875 -1.53125 -0.40625q-1.5 -0.359375 -2.453125 -0.703125q-0.953125 -0.359375 -1.640625 -1.140625q-0.671875 -0.78125 -0.671875 -2.09375q0 -1.140625 0.609375 -2.0625q0.625 -0.921875 1.859375 -1.453125q1.25 -0.546875 3.03125 -0.546875q1.25 0 2.4375 0.296875q1.203125 0.296875 2.109375 0.859375l-0.9375 2.296875q-1.8125 -1.03125 -3.625 -1.03125q-1.265625 0 -1.875 0.421875q-0.609375 0.40625 -0.609375 1.078125q0 0.671875 0.703125 1.0q0.703125 0.3125 2.140625 0.640625q1.484375 0.34375 2.4375 0.703125q0.953125 0.359375 1.625 1.125q0.6875 0.765625 0.6875 2.0625q0 1.125 -0.625 2.046875q-0.625 0.921875 -1.875 1.46875q-1.25 0.53125 -3.03125 0.53125zm12.18396 -0.0625q-1.59375 0 -2.859375 -0.65625q-1.25 -0.671875 -1.96875 -1.84375q-0.703125 -1.1875 -0.703125 -2.671875q0 -1.5 0.703125 -2.671875q0.71875 -1.171875 1.96875 -1.828125q1.265625 -0.671875 2.859375 -0.671875q1.578125 0 2.828125 0.671875q1.25 0.65625 1.953125 1.828125q0.71875 1.171875 0.71875 2.671875q0 1.484375 -0.71875 2.671875q-0.703125 1.171875 -1.953125 1.84375q-1.25 0.65625 -2.828125 0.65625zm0 -2.390625q1.109375 0 1.828125 -0.75q0.71875 -0.765625 0.71875 -2.03125q0 -1.265625 -0.71875 -2.015625q-0.71875 -0.765625 -1.828125 -0.765625q-1.125 0 -1.859375 0.765625q-0.71875 0.75 -0.71875 2.015625q0 1.265625 0.71875 2.03125q0.734375 0.75 1.859375 0.75zm7.4385986 -7.796875l2.90625 0l0 10.03125l-2.90625 0l0 -10.03125zm1.453125 -1.40625q-0.8125 0 -1.3125 -0.46875q-0.5 -0.46875 -0.5 -1.15625q0 -0.6875 0.5 -1.15625q0.5 -0.46875 1.3125 -0.46875q0.796875 0 1.296875 0.453125q0.515625 0.453125 0.515625 1.125q0 0.71875 -0.515625 1.203125q-0.5 0.46875 -1.296875 0.46875zm4.1624146 -2.40625l2.90625 0l0 13.84375l-2.90625 0l0 -13.84375zm10.895264 0l2.90625 0l0 13.84375l-2.90625 0l0 -13.84375zm10.39679 14.0q-1.59375 0 -2.859375 -0.65625q-1.25 -0.671875 -1.96875 -1.84375q-0.703125 -1.1875 -0.703125 -2.671875q0 -1.5 0.703125 -2.671875q0.71875 -1.171875 1.96875 -1.828125q1.265625 -0.671875 2.859375 -0.671875q1.578125 0 2.828125 0.671875q1.25 0.65625 1.953125 1.828125q0.71875 1.171875 0.71875 2.671875q0 1.484375 -0.71875 2.671875q-0.703125 1.171875 -1.953125 1.84375q-1.25 0.65625 -2.828125 0.65625zm0 -2.390625q1.109375 0 1.828125 -0.75q0.71875 -0.765625 0.71875 -2.03125q0 -1.265625 -0.71875 -2.015625q-0.71875 -0.765625 -1.828125 -0.765625q-1.125 0 -1.859375 0.765625q-0.71875 0.75 -0.71875 2.015625q0 1.265625 0.71875 2.03125q0.734375 0.75 1.859375 0.75zm10.813599 2.390625q-1.25 0 -2.453125 -0.3125q-1.1875 -0.3125 -1.890625 -0.78125l0.96875 -2.078125q0.671875 0.421875 1.625 0.703125q0.953125 0.265625 1.859375 0.265625q1.84375 0 1.84375 -0.921875q0 -0.421875 -0.5 -0.609375q-0.5 -0.1875 -1.546875 -0.328125q-1.234375 -0.171875 -2.03125 -0.421875q-0.796875 -0.25 -1.390625 -0.859375q-0.59375 -0.609375 -0.59375 -1.75q0 -0.953125 0.546875 -1.6875q0.5625 -0.734375 1.609375 -1.140625q1.0625 -0.421875 2.5 -0.421875q1.0625 0 2.109375 0.234375q1.0625 0.234375 1.75 0.640625l-0.96875 2.078125q-1.328125 -0.75 -2.890625 -0.75q-0.9375 0 -1.40625 0.265625q-0.46875 0.25 -0.46875 0.671875q0 0.46875 0.5 0.65625q0.515625 0.171875 1.609375 0.34375q1.234375 0.203125 2.015625 0.4375q0.78125 0.234375 1.359375 0.859375q0.578125 0.609375 0.578125 1.703125q0 0.9375 -0.5625 1.671875q-0.546875 0.71875 -1.625 1.125q-1.078125 0.40625 -2.546875 0.40625zm13.000183 -0.640625q-0.421875 0.3125 -1.046875 0.484375q-0.625 0.15625 -1.3125 0.15625q-1.796875 0 -2.78125 -0.90625q-0.96875 -0.921875 -0.96875 -2.703125l0 -4.125l-1.546875 0l0 -2.234375l1.546875 0l0 -2.4375l2.90625 0l0 2.4375l2.5 0l0 2.234375l-2.5 0l0 4.09375q0 0.625 0.328125 0.96875q0.328125 0.34375 0.921875 0.34375q0.6875 0 1.171875 -0.359375l0.78125 2.046875zm10.113953 -9.328125l2.578125 0l0 2.234375l-2.5 0l0 7.578125l-2.90625 0l0 -7.578125l-1.546875 0l0 -2.234375l1.546875 0l0 -0.453125q0 -1.71875 1.015625 -2.71875q1.015625 -1.015625 2.859375 -1.015625q0.65625 0 1.234375 0.140625q0.59375 0.140625 0.984375 0.40625l-0.765625 2.109375q-0.5 -0.359375 -1.171875 -0.359375q-1.328125 0 -1.328125 1.453125l0 0.4375zm13.729919 4.828125q0 0.0625 -0.046875 0.78125l-7.59375 0q0.203125 0.9375 0.96875 1.484375q0.765625 0.53125 1.90625 0.53125q0.78125 0 1.375 -0.234375q0.609375 -0.234375 1.140625 -0.734375l1.546875 1.6875q-1.421875 1.625 -4.140625 1.625q-1.703125 0 -3.015625 -0.65625q-1.296875 -0.671875 -2.015625 -1.84375q-0.703125 -1.1875 -0.703125 -2.671875q0 -1.484375 0.703125 -2.65625q0.703125 -1.1875 1.921875 -1.84375q1.21875 -0.671875 2.734375 -0.671875q1.46875 0 2.65625 0.640625q1.203125 0.625 1.875 1.8125q0.6875 1.1875 0.6875 2.75zm-5.203125 -3.0q-0.984375 0 -1.65625 0.5625q-0.671875 0.5625 -0.828125 1.53125l4.953125 0q-0.15625 -0.953125 -0.828125 -1.515625q-0.671875 -0.578125 -1.640625 -0.578125zm9.928345 -0.734375q0.515625 -0.71875 1.40625 -1.09375q0.890625 -0.375 2.046875 -0.375l0 2.6875q-0.484375 -0.03125 -0.65625 -0.03125q-1.25 0 -1.96875 0.703125q-0.703125 0.6875 -0.703125 2.09375l0 4.734375l-2.90625 0l0 -10.03125l2.78125 0l0 1.3125zm12.008362 8.234375q-0.421875 0.3125 -1.046875 0.484375q-0.625 0.15625 -1.3125 0.15625q-1.796875 0 -2.78125 -0.90625q-0.96875 -0.921875 -0.96875 -2.703125l0 -4.125l-1.546875 0l0 -2.234375l1.546875 0l0 -2.4375l2.90625 0l0 2.4375l2.5 0l0 2.234375l-2.5 0l0 4.09375q0 0.625 0.328125 0.96875q0.328125 0.34375 0.921875 0.34375q0.6875 0 1.171875 -0.359375l0.78125 2.046875zm1.6467285 -9.546875l2.90625 0l0 10.03125l-2.90625 0l0 -10.03125zm1.453125 -1.40625q-0.8125 0 -1.3125 -0.46875q-0.5 -0.46875 -0.5 -1.15625q0 -0.6875 0.5 -1.15625q0.5 -0.46875 1.3125 -0.46875q0.796875 0 1.296875 0.453125q0.515625 0.453125 0.515625 1.125q0 0.71875 -0.515625 1.203125q-0.5 0.46875 -1.296875 0.46875zm4.1624146 -2.40625l2.90625 0l0 13.84375l-2.90625 0l0 -13.84375zm5.6155396 3.8125l2.90625 0l0 10.03125l-2.90625 0l0 -10.03125zm1.453125 -1.40625q-0.8125 0 -1.3125 -0.46875q-0.5 -0.46875 -0.5 -1.15625q0 -0.6875 0.5 -1.15625q0.5 -0.46875 1.3125 -0.46875q0.796875 0 1.296875 0.453125q0.515625 0.453125 0.515625 1.125q0 0.71875 -0.515625 1.203125q-0.5 0.46875 -1.296875 0.46875zm10.631165 10.953125q-0.421875 0.3125 -1.046875 0.484375q-0.625 0.15625 -1.3125 0.15625q-1.796875 0 -2.78125 -0.90625q-0.96875 -0.921875 -0.96875 -2.703125l0 -4.125l-1.546875 0l0 -2.234375l1.546875 0l0 -2.4375l2.90625 0l0 2.4375l2.5 0l0 2.234375l-2.5 0l0 4.09375q0 0.625 0.328125 0.96875q0.328125 0.34375 0.921875 0.34375q0.6875 0 1.171875 -0.359375l0.78125 2.046875zm11.428772 -9.546875l-4.546875 10.640625q-0.6875 1.734375 -1.703125 2.4375q-1.015625 0.71875 -2.453125 0.71875q-0.78125 0 -1.546875 -0.25q-0.765625 -0.234375 -1.25 -0.65625l1.0625 -2.078125q0.34375 0.296875 0.78125 0.46875q0.4375 0.171875 0.859375 0.171875q0.59375 0 0.96875 -0.296875q0.375 -0.28125 0.671875 -0.953125l0.046875 -0.09375l-4.359375 -10.109375l3.015625 0l2.8125 6.796875l2.828125 -6.796875l2.8125 0zm16.686157 -3.8125l0 13.84375l-2.78125 0l0 -1.15625q-1.078125 1.3125 -3.125 1.3125q-1.421875 0 -2.578125 -0.640625q-1.140625 -0.640625 -1.796875 -1.8125q-0.640625 -1.171875 -0.640625 -2.71875q0 -1.546875 0.640625 -2.71875q0.65625 -1.1875 1.796875 -1.8125q1.15625 -0.640625 2.578125 -0.640625q1.921875 0 3.0 1.21875l0 -4.875l2.90625 0zm-5.40625 11.609375q1.09375 0 1.828125 -0.75q0.734375 -0.765625 0.734375 -2.03125q0 -1.265625 -0.734375 -2.015625q-0.734375 -0.765625 -1.828125 -0.765625q-1.125 0 -1.859375 0.765625q-0.71875 0.75 -0.71875 2.015625q0 1.265625 0.71875 2.03125q0.734375 0.75 1.859375 0.75zm18.207031 -7.796875l0 10.03125l-2.765625 0l0 -1.1875q-0.578125 0.640625 -1.375 1.0q-0.796875 0.34375 -1.734375 0.34375q-1.984375 0 -3.140625 -1.140625q-1.15625 -1.140625 -1.15625 -3.375l0 -5.671875l2.921875 0l0 5.234375q0 2.421875 2.03125 2.421875q1.046875 0 1.671875 -0.671875q0.640625 -0.6875 0.640625 -2.03125l0 -4.953125l2.90625 0zm12.5355835 5.046875q0 0.0625 -0.046875 0.78125l-7.59375 0q0.203125 0.9375 0.96875 1.484375q0.765625 0.53125 1.90625 0.53125q0.78125 0 1.375 -0.234375q0.609375 -0.234375 1.140625 -0.734375l1.546875 1.6875q-1.421875 1.625 -4.140625 1.625q-1.703125 0 -3.015625 -0.65625q-1.296875 -0.671875 -2.015625 -1.84375q-0.703125 -1.1875 -0.703125 -2.671875q0 -1.484375 0.703125 -2.65625q0.703125 -1.1875 1.921875 -1.84375q1.21875 -0.671875 2.734375 -0.671875q1.46875 0 2.65625 0.640625q1.203125 0.625 1.875 1.8125q0.6875 1.1875 0.6875 2.75zm-5.203125 -3.0q-0.984375 0 -1.65625 0.5625q-0.671875 0.5625 -0.828125 1.53125l4.953125 0q-0.15625 -0.953125 -0.828125 -1.515625q-0.671875 -0.578125 -1.640625 -0.578125z" fill-rule="nonzero"/><path fill="#000000" fill-opacity="0.0" d="m945.51105 327.3542l5.279724 0l0 22.741974l-5.279724 0l0 -22.741974z" fill-rule="nonzero"/><path fill="#000000" fill-opacity="0.0" d="m950.7908 327.3542l0 0l0 22.741974l0 0l0 -22.741974z" fill-rule="nonzero"/><path fill="#e3e16c" d="m817.2681 349.49344l128.24292 0l0 22.399994l-128.24292 0l0 -22.399994z" fill-rule="nonzero"/><path fill="#000000" fill-opacity="0.0" d="m817.2681 349.3542l128.24292 0l0 22.741974l-128.24292 0l0 -22.741974z" fill-rule="nonzero"/><path fill="#000000" d="m825.0806 366.92905q-0.421875 0.3125 -1.046875 0.484375q-0.625 0.15625 -1.3125 0.15625q-1.796875 0 -2.78125 -0.90625q-0.96875 -0.921875 -0.96875 -2.703125l0 -4.125l-1.546875 0l0 -2.234375l1.546875 0l0 -2.4375l2.90625 0l0 2.4375l2.5 0l0 2.234375l-2.5 0l0 4.09375q0 0.625 0.328125 0.96875q0.328125 0.34375 0.921875 0.34375q0.6875 0 1.171875 -0.359375l0.78125 2.046875zm6.1106567 0.640625q-1.59375 0 -2.859375 -0.65625q-1.25 -0.671875 -1.96875 -1.84375q-0.703125 -1.1875 -0.703125 -2.671875q0 -1.5 0.703125 -2.671875q0.71875 -1.171875 1.96875 -1.828125q1.265625 -0.671875 2.859375 -0.671875q1.578125 0 2.828125 0.671875q1.25 0.65625 1.953125 1.828125q0.71875 1.171875 0.71875 2.671875q0 1.484375 -0.71875 2.671875q-0.703125 1.171875 -1.953125 1.84375q-1.25 0.65625 -2.828125 0.65625zm0 -2.390625q1.109375 0 1.828125 -0.75q0.71875 -0.765625 0.71875 -2.03125q0 -1.265625 -0.71875 -2.015625q-0.71875 -0.765625 -1.828125 -0.765625q-1.125 0 -1.859375 0.765625q-0.71875 0.75 -0.71875 2.015625q0 1.265625 0.71875 2.03125q0.734375 0.75 1.859375 0.75zm18.655823 -7.953125q1.390625 0 2.53125 0.640625q1.15625 0.640625 1.8125 1.8125q0.65625 1.171875 0.65625 2.71875q0 1.546875 -0.65625 2.71875q-0.65625 1.15625 -1.8125 1.8125q-1.140625 0.640625 -2.53125 0.640625q-1.921875 0 -3.03125 -1.21875l0 4.6875l-2.90625 0l0 -13.65625l2.78125 0l0 1.15625q1.078125 -1.3125 3.15625 -1.3125zm-0.515625 7.953125q1.125 0 1.84375 -0.75q0.71875 -0.765625 0.71875 -2.03125q0 -1.265625 -0.71875 -2.015625q-0.71875 -0.765625 -1.84375 -0.765625q-1.109375 0 -1.828125 0.765625q-0.71875 0.75 -0.71875 2.015625q0 1.265625 0.71875 2.03125q0.71875 0.75 1.828125 0.75zm12.232178 2.390625q-1.59375 0 -2.859375 -0.65625q-1.25 -0.671875 -1.96875 -1.84375q-0.703125 -1.1875 -0.703125 -2.671875q0 -1.5 0.703125 -2.671875q0.71875 -1.171875 1.96875 -1.828125q1.265625 -0.671875 2.859375 -0.671875q1.578125 0 2.828125 0.671875q1.25 0.65625 1.953125 1.828125q0.71875 1.171875 0.71875 2.671875q0 1.484375 -0.71875 2.671875q-0.703125 1.171875 -1.953125 1.84375q-1.25 0.65625 -2.828125 0.65625zm0 -2.390625q1.109375 0 1.828125 -0.75q0.71875 -0.765625 0.71875 -2.03125q0 -1.265625 -0.71875 -2.015625q-0.71875 -0.765625 -1.828125 -0.765625q-1.125 0 -1.859375 0.765625q-0.71875 0.75 -0.71875 2.015625q0 1.265625 0.71875 2.03125q0.734375 0.75 1.859375 0.75zm12.219849 2.390625q-1.59375 0 -2.859375 -0.65625q-1.25 -0.671875 -1.96875 -1.84375q-0.703125 -1.1875 -0.703125 -2.671875q0 -1.5 0.703125 -2.671875q0.71875 -1.171875 1.96875 -1.828125q1.265625 -0.671875 2.859375 -0.671875q1.578125 0 2.828125 0.671875q1.25 0.65625 1.953125 1.828125q0.71875 1.171875 0.71875 2.671875q0 1.484375 -0.71875 2.671875q-0.703125 1.171875 -1.953125 1.84375q-1.25 0.65625 -2.828125 0.65625zm0 -2.390625q1.109375 0 1.828125 -0.75q0.71875 -0.765625 0.71875 -2.03125q0 -1.265625 -0.71875 -2.015625q-0.71875 -0.765625 -1.828125 -0.765625q-1.125 0 -1.859375 0.765625q-0.71875 0.75 -0.71875 2.015625q0 1.265625 0.71875 2.03125q0.734375 0.75 1.859375 0.75zm10.219849 -6.484375q0.515625 -0.71875 1.40625 -1.09375q0.890625 -0.375 2.046875 -0.375l0 2.6875q-0.484375 -0.03125 -0.65625 -0.03125q-1.25 0 -1.96875 0.703125q-0.703125 0.6875 -0.703125 2.09375l0 4.734375l-2.90625 0l0 -10.03125l2.78125 0l0 1.3125zm10.539307 -1.3125l2.90625 0l0 10.03125l-2.90625 0l0 -10.03125zm1.453125 -1.40625q-0.8125 0 -1.3125 -0.46875q-0.5 -0.46875 -0.5 -1.15625q0 -0.6875 0.5 -1.15625q0.5 -0.46875 1.3125 -0.46875q0.796875 0 1.296875 0.453125q0.515625 0.453125 0.515625 1.125q0 0.71875 -0.515625 1.203125q-0.5 0.46875 -1.296875 0.46875zm10.256165 1.25q1.875 0 3.015625 1.125q1.15625 1.109375 1.15625 3.3125l0 5.75l-2.921875 0l0 -5.296875q0 -1.203125 -0.515625 -1.78125q-0.515625 -0.59375 -1.515625 -0.59375q-1.09375 0 -1.75 0.6875q-0.65625 0.671875 -0.65625 2.015625l0 4.96875l-2.90625 0l0 -10.03125l2.78125 0l0 1.171875q0.578125 -0.640625 1.4375 -0.984375q0.859375 -0.34375 1.875 -0.34375zm12.7352295 0q1.390625 0 2.53125 0.640625q1.15625 0.640625 1.8125 1.8125q0.65625 1.171875 0.65625 2.71875q0 1.546875 -0.65625 2.71875q-0.65625 1.15625 -1.8125 1.8125q-1.140625 0.640625 -2.53125 0.640625q-1.921875 0 -3.03125 -1.21875l0 4.6875l-2.90625 0l0 -13.65625l2.78125 0l0 1.15625q1.078125 -1.3125 3.15625 -1.3125zm-0.515625 7.953125q1.125 0 1.84375 -0.75q0.71875 -0.765625 0.71875 -2.03125q0 -1.265625 -0.71875 -2.015625q-0.71875 -0.765625 -1.84375 -0.765625q-1.109375 0 -1.828125 0.765625q-0.71875 0.75 -0.71875 2.015625q0 1.265625 0.71875 2.03125q0.71875 0.75 1.828125 0.75zm17.560303 -7.796875l0 10.03125l-2.765625 0l0 -1.1875q-0.578125 0.640625 -1.375 1.0q-0.796875 0.34375 -1.734375 0.34375q-1.984375 0 -3.140625 -1.140625q-1.15625 -1.140625 -1.15625 -3.375l0 -5.671875l2.921875 0l0 5.234375q0 2.421875 2.03125 2.421875q1.046875 0 1.671875 -0.671875q0.640625 -0.6875 0.640625 -2.03125l0 -4.953125l2.90625 0zm9.1762085 9.546875q-0.421875 0.3125 -1.046875 0.484375q-0.625 0.15625 -1.3125 0.15625q-1.796875 0 -2.78125 -0.90625q-0.96875 -0.921875 -0.96875 -2.703125l0 -4.125l-1.546875 0l0 -2.234375l1.546875 0l0 -2.4375l2.90625 0l0 2.4375l2.5 0l0 2.234375l-2.5 0l0 4.09375q0 0.625 0.328125 0.96875q0.328125 0.34375 0.921875 0.34375q0.6875 0 1.171875 -0.359375l0.78125 2.046875z" fill-rule="nonzero"/><path fill="#000000" fill-opacity="0.0" d="m945.51105 349.3542l5.279724 0l0 22.741974l-5.279724 0l0 -22.741974z" fill-rule="nonzero"/><path fill="#e3e16c" d="m807.54785 371.49344l137.9632 0l0 22.399994l-137.9632 0l0 -22.399994z" fill-rule="nonzero"/><path fill="#000000" fill-opacity="0.0" d="m807.54785 371.3542l137.9632 0l0 22.741974l-137.9632 0l0 -22.741974z" fill-rule="nonzero"/><path fill="#000000" d="m821.751 379.22592q1.875 0 2.984375 1.109375q1.109375 1.109375 1.109375 3.328125l0 5.75l-2.90625 0l0 -5.296875q0 -1.203125 -0.5 -1.78125q-0.484375 -0.59375 -1.40625 -0.59375q-1.015625 0 -1.625 0.671875q-0.59375 0.65625 -0.59375 1.96875l0 5.03125l-2.90625 0l0 -5.296875q0 -2.375 -1.90625 -2.375q-1.0 0 -1.609375 0.671875q-0.59375 0.65625 -0.59375 1.96875l0 5.03125l-2.90625 0l0 -10.03125l2.78125 0l0 1.15625q0.5625 -0.640625 1.375 -0.96875q0.8125 -0.34375 1.78125 -0.34375q1.0625 0 1.921875 0.421875q0.859375 0.421875 1.375 1.21875q0.609375 -0.78125 1.546875 -1.203125q0.953125 -0.4375 2.078125 -0.4375zm10.757935 0q2.328125 0 3.578125 1.109375q1.25 1.109375 1.25 3.34375l0 5.734375l-2.71875 0l0 -1.25q-0.828125 1.40625 -3.0625 1.40625q-1.15625 0 -2.015625 -0.390625q-0.84375 -0.40625 -1.296875 -1.09375q-0.4375 -0.6875 -0.4375 -1.5625q0 -1.40625 1.046875 -2.203125q1.0625 -0.796875 3.265625 -0.796875l2.3125 0q0 -0.953125 -0.578125 -1.46875q-0.578125 -0.515625 -1.734375 -0.515625q-0.796875 0 -1.578125 0.25q-0.765625 0.25 -1.3125 0.6875l-1.046875 -2.03125q0.828125 -0.578125 1.96875 -0.890625q1.140625 -0.328125 2.359375 -0.328125zm-0.21875 8.375q0.734375 0 1.3125 -0.34375q0.59375 -0.34375 0.828125 -1.015625l0 -1.03125l-2.0 0q-1.78125 0 -1.78125 1.1875q0 0.546875 0.4375 0.875q0.4375 0.328125 1.203125 0.328125zm13.77655 -8.375q1.875 0 3.015625 1.125q1.15625 1.109375 1.15625 3.3125l0 5.75l-2.921875 0l0 -5.296875q0 -1.203125 -0.515625 -1.78125q-0.515625 -0.59375 -1.515625 -0.59375q-1.09375 0 -1.75 0.6875q-0.65625 0.671875 -0.65625 2.015625l0 4.96875l-2.90625 0l0 -10.03125l2.78125 0l0 1.171875q0.578125 -0.640625 1.4375 -0.984375q0.859375 -0.34375 1.875 -0.34375zm10.844543 0q2.328125 0 3.578125 1.109375q1.25 1.109375 1.25 3.34375l0 5.734375l-2.71875 0l0 -1.25q-0.828125 1.40625 -3.0625 1.40625q-1.15625 0 -2.015625 -0.390625q-0.84375 -0.40625 -1.296875 -1.09375q-0.4375 -0.6875 -0.4375 -1.5625q0 -1.40625 1.046875 -2.203125q1.0625 -0.796875 3.265625 -0.796875l2.3125 0q0 -0.953125 -0.578125 -1.46875q-0.578125 -0.515625 -1.734375 -0.515625q-0.796875 0 -1.578125 0.25q-0.765625 0.25 -1.3125 0.6875l-1.046875 -2.03125q0.828125 -0.578125 1.96875 -0.890625q1.140625 -0.328125 2.359375 -0.328125zm-0.21875 8.375q0.734375 0 1.3125 -0.34375q0.59375 -0.34375 0.828125 -1.015625l0 -1.03125l-2.0 0q-1.78125 0 -1.78125 1.1875q0 0.546875 0.4375 0.875q0.4375 0.328125 1.203125 0.328125zm18.154175 -8.21875l0 8.359375q0 2.75 -1.4375 4.09375q-1.4375 1.34375 -4.203125 1.34375q-1.453125 0 -2.765625 -0.359375q-1.296875 -0.34375 -2.15625 -1.015625l1.15625 -2.09375q0.625 0.53125 1.59375 0.828125q0.984375 0.3125 1.953125 0.3125q1.5 0 2.21875 -0.6875q0.71875 -0.671875 0.71875 -2.0625l0 -0.421875q-1.125 1.25 -3.171875 1.25q-1.375 0 -2.53125 -0.609375q-1.140625 -0.609375 -1.8125 -1.703125q-0.671875 -1.109375 -0.671875 -2.53125q0 -1.4375 0.671875 -2.53125q0.671875 -1.109375 1.8125 -1.71875q1.15625 -0.609375 2.53125 -0.609375q2.1875 0 3.328125 1.4375l0 -1.28125l2.765625 0zm-5.515625 7.15625q1.15625 0 1.890625 -0.671875q0.75 -0.6875 0.75 -1.78125q0 -1.109375 -0.75 -1.78125q-0.734375 -0.6875 -1.890625 -0.6875q-1.15625 0 -1.90625 0.6875q-0.734375 0.671875 -0.734375 1.78125q0 1.09375 0.734375 1.78125q0.75 0.671875 1.90625 0.671875zm18.043762 -2.109375q0 0.0625 -0.046875 0.78125l-7.59375 0q0.203125 0.9375 0.96875 1.484375q0.765625 0.53125 1.90625 0.53125q0.78125 0 1.375 -0.234375q0.609375 -0.234375 1.140625 -0.734375l1.546875 1.6875q-1.421875 1.625 -4.140625 1.625q-1.703125 0 -3.015625 -0.65625q-1.296875 -0.671875 -2.015625 -1.84375q-0.703125 -1.1875 -0.703125 -2.671875q0 -1.484375 0.703125 -2.65625q0.703125 -1.1875 1.921875 -1.84375q1.21875 -0.671875 2.734375 -0.671875q1.46875 0 2.65625 0.640625q1.203125 0.625 1.875 1.8125q0.6875 1.1875 0.6875 2.75zm-5.203125 -3.0q-0.984375 0 -1.65625 0.5625q-0.671875 0.5625 -0.828125 1.53125l4.953125 0q-0.15625 -0.953125 -0.828125 -1.515625q-0.671875 -0.578125 -1.640625 -0.578125zm20.00647 -2.203125q1.875 0 2.984375 1.109375q1.109375 1.109375 1.109375 3.328125l0 5.75l-2.90625 0l0 -5.296875q0 -1.203125 -0.5 -1.78125q-0.484375 -0.59375 -1.40625 -0.59375q-1.015625 0 -1.625 0.671875q-0.59375 0.65625 -0.59375 1.96875l0 5.03125l-2.90625 0l0 -5.296875q0 -2.375 -1.90625 -2.375q-1.0 0 -1.609375 0.671875q-0.59375 0.65625 -0.59375 1.96875l0 5.03125l-2.90625 0l0 -10.03125l2.78125 0l0 1.15625q0.5625 -0.640625 1.375 -0.96875q0.8125 -0.34375 1.78125 -0.34375q1.0625 0 1.921875 0.421875q0.859375 0.421875 1.375 1.21875q0.609375 -0.78125 1.546875 -1.203125q0.953125 -0.4375 2.078125 -0.4375zm16.651123 5.203125q0 0.0625 -0.046875 0.78125l-7.59375 0q0.203125 0.9375 0.96875 1.484375q0.765625 0.53125 1.90625 0.53125q0.78125 0 1.375 -0.234375q0.609375 -0.234375 1.140625 -0.734375l1.546875 1.6875q-1.421875 1.625 -4.140625 1.625q-1.703125 0 -3.015625 -0.65625q-1.296875 -0.671875 -2.015625 -1.84375q-0.703125 -1.1875 -0.703125 -2.671875q0 -1.484375 0.703125 -2.65625q0.703125 -1.1875 1.921875 -1.84375q1.21875 -0.671875 2.734375 -0.671875q1.46875 0 2.65625 0.640625q1.203125 0.625 1.875 1.8125q0.6875 1.1875 0.6875 2.75zm-5.203125 -3.0q-0.984375 0 -1.65625 0.5625q-0.671875 0.5625 -0.828125 1.53125l4.953125 0q-0.15625 -0.953125 -0.828125 -1.515625q-0.671875 -0.578125 -1.640625 -0.578125zm13.240845 -2.203125q1.875 0 3.015625 1.125q1.15625 1.109375 1.15625 3.3125l0 5.75l-2.921875 0l0 -5.296875q0 -1.203125 -0.515625 -1.78125q-0.515625 -0.59375 -1.515625 -0.59375q-1.09375 0 -1.75 0.6875q-0.65625 0.671875 -0.65625 2.015625l0 4.96875l-2.90625 0l0 -10.03125l2.78125 0l0 1.171875q0.578125 -0.640625 1.4375 -0.984375q0.859375 -0.34375 1.875 -0.34375zm13.2664795 9.703125q-0.421875 0.3125 -1.046875 0.484375q-0.625 0.15625 -1.3125 0.15625q-1.796875 0 -2.78125 -0.90625q-0.96875 -0.921875 -0.96875 -2.703125l0 -4.125l-1.546875 0l0 -2.234375l1.546875 0l0 -2.4375l2.90625 0l0 2.4375l2.5 0l0 2.234375l-2.5 0l0 4.09375q0 0.625 0.328125 0.96875q0.328125 0.34375 0.921875 0.34375q0.6875 0 1.171875 -0.359375l0.78125 2.046875zm2.927124 0.640625q-0.765625 0 -1.28125 -0.515625q-0.515625 -0.53125 -0.515625 -1.3125q0 -0.8125 0.515625 -1.296875q0.515625 -0.5 1.28125 -0.5q0.765625 0 1.28125 0.5q0.53125 0.484375 0.53125 1.296875q0 0.78125 -0.53125 1.3125q-0.515625 0.515625 -1.28125 0.515625z" fill-rule="nonzero"/><path fill="#000000" fill-opacity="0.0" d="m945.51105 371.3542l0 0l0 22.741974l0 0l0 -22.741974z" fill-rule="nonzero"/><path fill="#000000" fill-opacity="0.0" d="m945.51105 393.3542l0 0l0 22.741974l0 0l0 -22.741974z" fill-rule="nonzero"/><path fill="#000000" fill-opacity="0.0" d="m812.10284 246.6508l0 0c0 -37.19008 30.148499 -67.33859 67.33862 -67.33859l0 0c17.859253 0 34.98712 7.094589 47.61554 19.723022c12.628418 12.628433 19.723022 29.756256 19.723022 47.61557l0 0c0 37.19008 -30.148499 67.33858 -67.33856 67.33858l0 0c-37.190125 0 -67.33862 -30.148499 -67.33862 -67.33858z" fill-rule="evenodd"/><path stroke="#1b511a" stroke-width="2.0" stroke-linejoin="round" stroke-linecap="butt" d="m812.10284 246.6508l0 0c0 -37.19008 30.148499 -67.33859 67.33862 -67.33859l0 0c17.859253 0 34.98712 7.094589 47.61554 19.723022c12.628418 12.628433 19.723022 29.756256 19.723022 47.61557l0 0c0 37.19008 -30.148499 67.33858 -67.33856 67.33858l0 0c-37.190125 0 -67.33862 -30.148499 -67.33862 -67.33858z" fill-rule="evenodd"/><path fill="#000000" d="m865.5058 253.83705l-3.953125 0l0 5.0937347l-5.46875 0l0 -5.0937347l-13.0625 0l0 -3.78125l11.4375 -15.390625l5.890625 0l-10.609375 14.59375l6.515625 0l0 -4.53125l5.296875 0l0 4.53125l3.953125 0l0 4.578125zm19.730713 0.515625l0 4.5781097l-18.34375 0l0 -3.6406097l9.359375 -8.828125q1.484375 -1.421875 2.0 -2.4375q0.53125 -1.03125 0.53125 -2.046875q0 -1.453125 -0.984375 -2.234375q-0.984375 -0.78125 -2.890625 -0.78125q-1.59375 0 -2.890625 0.609375q-1.28125 0.609375 -2.140625 1.828125l-4.09375 -2.640625q1.421875 -2.109375 3.921875 -3.296875q2.5 -1.203125 5.71875 -1.203125q2.703125 0 4.71875 0.890625q2.03125 0.875 3.15625 2.484375q1.140625 1.609375 1.140625 3.796875q0 1.96875 -0.84375 3.703125q-0.828125 1.734375 -3.21875 3.953125l-5.578125 5.265625l10.4375 0zm8.278259 -6.578125q-2.671875 0 -4.359375 -1.8125q-1.671875 -1.828125 -1.671875 -4.875q0 -3.046875 1.671875 -4.859375q1.6875 -1.828125 4.359375 -1.828125q2.671875 0 4.328125 1.828125q1.671875 1.8125 1.671875 4.859375q0 3.046875 -1.671875 4.875q-1.65625 1.8125 -4.328125 1.8125zm14.453125 -13.109375l4.125 0l-16.578125 24.26561l-4.109375 0l16.5625 -24.26561zm-14.453125 10.265625q1.171875 0 1.84375 -0.96875q0.6875 -0.96875 0.6875 -2.875q0 -1.90625 -0.6875 -2.875q-0.671875 -0.96875 -1.84375 -0.96875q-1.140625 0 -1.84375 0.984375q-0.6875 0.984375 -0.6875 2.859375q0 1.875 0.6875 2.859375q0.703125 0.984375 1.84375 0.984375zm16.453125 14.281235q-1.734375 0 -3.109375 -0.8125q-1.359375 -0.828125 -2.125 -2.34375q-0.75 -1.5312347 -0.75 -3.5312347q0 -2.015625 0.75 -3.53125q0.765625 -1.53125 2.125 -2.34375q1.375 -0.8125 3.109375 -0.8125q2.671875 0 4.34375 1.8125q1.6875 1.8125 1.6875 4.875q0 3.046875 -1.6875 4.8749847q-1.671875 1.8125 -4.34375 1.8125zm0 -2.84375q1.1875 0 1.859375 -0.98435974q0.671875 -1.0 0.671875 -2.859375q0 -1.875 -0.671875 -2.859375q-0.671875 -1.0 -1.859375 -1.0q-1.140625 0 -1.84375 0.984375q-0.6875 0.96875 -0.6875 2.875q0 1.90625 0.6875 2.875q0.703125 0.96873474 1.84375 0.96873474z" fill-rule="nonzero"/></g></svg>