<svg version="1.1" viewBox="0.0 0.0 960.0 540.0" fill="none" stroke="none" stroke-linecap="square" stroke-miterlimit="10" xmlns:xlink="http://www.w3.org/1999/xlink" xmlns="http://www.w3.org/2000/svg"><clipPath id="g7b56025fe2_0_0.0"><path d="m0 0l960.0 0l0 540.0l-960.0 0l0 -540.0z" clip-rule="nonzero"/></clipPath><g clip-path="url(#g7b56025fe2_0_0.0)"><path fill="#c9e5ab" d="m0 0l960.0 0l0 540.0l-960.0 0z" fill-rule="evenodd"/><path fill="#000000" fill-opacity="0.0" d="m699.1575 318.49344l246.67719 0l0 63.02362l-246.67719 0z" fill-rule="evenodd"/><path fill="#e3e16c" d="m781.82135 327.49344l163.6897 0l0 22.399994l-163.6897 0l0 -22.399994z" fill-rule="nonzero"/><path fill="#000000" fill-opacity="0.0" d="m781.82135 327.3542l163.6897 0l0 22.741974l-163.6897 0l0 -22.741974z" fill-rule="nonzero"/><path fill="#000000" d="m787.6651 345.63217q-1.546875 0 -3.0 -0.40625q-1.4375 -0.421875 -2.328125 -1.09375l1.03125 -2.28125q0.84375 0.609375 2.0 0.984375q1.15625 0.375 2.3125 0.375q1.28125 0 1.890625 -0.375q0.625 -0.390625 0.625 -1.015625q0 -0.46875 -0.359375 -0.78125q-0.359375 -0.3125 -0.9375 -0.5q-0.5625 -0.1875 -1.53125 -0.40625q-1.5 -0.359375 -2.453125 -0.703125q-0.953125 -0.359375 -1.640625 -1.140625q-0.671875 -0.78125 -0.671875 -2.09375q0 -1.140625 0.609375 -2.0625q0.625 -0.921875 1.859375 -1.453125q1.25 -0.546875 3.03125 -0.546875q1.25 0 2.4375 0.296875q1.203125 0.296875 2.109375 0.859375l-0.9375 2.296875q-1.8125 -1.03125 -3.625 -1.03125q-1.265625 0 -1.875 0.421875q-0.609375 0.40625 -0.609375 1.078125q0 0.671875 0.703125 1.0q0.703125 0.3125 2.140625 0.640625q1.484375 0.34375 2.4375 0.703125q0.953125 0.359375 1.625 1.125q0.6875 0.765625 0.6875 2.0625q0 1.125 -0.625 2.046875q-0.625 0.921875 -1.875 1.46875q-1.25 0.53125 -3.03125 0.53125zm11.449524 -10.40625q2.328125 0 3.578125 1.109375q1.25 1.109375 1.25 3.34375l0 5.734375l-2.71875 0l0 -1.25q-0.828125 1.40625 -3.0625 1.40625q-1.15625 0 -2.015625 -0.390625q-0.84375 -0.40625 -1.296875 -1.09375q-0.4375 -0.6875 -0.4375 -1.5625q0 -1.40625 1.046875 -2.203125q1.0625 -0.796875 3.265625 -0.796875l2.3125 0q0 -0.953125 -0.578125 -1.46875q-0.578125 -0.515625 -1.734375 -0.515625q-0.796875 0 -1.578125 0.25q-0.765625 0.25 -1.3125 0.6875l-1.046875 -2.03125q0.828125 -0.578125 1.96875 -0.890625q1.140625 -0.328125 2.359375 -0.328125zm-0.21875 8.375q0.734375 0 1.3125 -0.34375q0.59375 -0.34375 0.828125 -1.015625l0 -1.03125l-2.0 0q-1.78125 0 -1.78125 1.1875q0 0.546875 0.4375 0.875q0.4375 0.328125 1.203125 0.328125zm7.6828003 -12.03125l2.90625 0l0 13.84375l-2.90625 0l0 -13.84375zm15.443665 8.859375q0 0.0625 -0.046875 0.78125l-7.59375 0q0.203125 0.9375 0.96875 1.484375q0.765625 0.53125 1.90625 0.53125q0.78125 0 1.375 -0.234375q0.609375 -0.234375 1.140625 -0.734375l1.546875 1.6875q-1.421875 1.625 -4.140625 1.625q-1.703125 0 -3.015625 -0.65625q-1.296875 -0.671875 -2.015625 -1.84375q-0.703125 -1.1875 -0.703125 -2.671875q0 -1.484375 0.703125 -2.65625q0.703125 -1.1875 1.921875 -1.84375q1.21875 -0.671875 2.734375 -0.671875q1.46875 0 2.65625 0.640625q1.203125 0.625 1.875 1.8125q0.6875 1.1875 0.6875 2.75zm-5.203125 -3.0q-0.984375 0 -1.65625 0.5625q-0.671875 0.5625 -0.828125 1.53125l4.953125 0q-0.15625 -0.953125 -0.828125 -1.515625q-0.671875 -0.578125 -1.640625 -0.578125zm10.522095 8.140625q-1.25 0 -2.453125 -0.3125q-1.1875 -0.3125 -1.890625 -0.78125l0.96875 -2.078125q0.671875 0.421875 1.625 0.703125q0.953125 0.265625 1.859375 0.265625q1.84375 0 1.84375 -0.921875q0 -0.421875 -0.5 -0.609375q-0.5 -0.1875 -1.546875 -0.328125q-1.234375 -0.171875 -2.03125 -0.421875q-0.796875 -0.25 -1.390625 -0.859375q-0.59375 -0.609375 -0.59375 -1.75q0 -0.953125 0.546875 -1.6875q0.5625 -0.734375 1.609375 -1.140625q1.0625 -0.421875 2.5 -0.421875q1.0625 0 2.109375 0.234375q1.0625 0.234375 1.75 0.640625l-0.96875 2.078125q-1.328125 -0.75 -2.890625 -0.75q-0.9375 0 -1.40625 0.265625q-0.46875 0.25 -0.46875 0.671875q0 0.46875 0.5 0.65625q0.515625 0.171875 1.609375 0.34375q1.234375 0.203125 2.015625 0.4375q0.78125 0.234375 1.359375 0.859375q0.578125 0.609375 0.578125 1.703125q0 0.9375 -0.5625 1.671875q-0.546875 0.71875 -1.625 1.125q-1.078125 0.40625 -2.546875 0.40625zm23.904968 -0.15625l-0.03125 -7.828125l-3.828125 6.453125l-1.375 0l-3.8125 -6.296875l0 7.671875l-2.84375 0l0 -13.0625l2.5 0l4.890625 8.125l4.8125 -8.125l2.484375 0l0.03125 13.0625l-2.828125 0zm9.769836 -10.1875q2.328125 0 3.578125 1.109375q1.25 1.109375 1.25 3.34375l0 5.734375l-2.71875 0l0 -1.25q-0.828125 1.40625 -3.0625 1.40625q-1.15625 0 -2.015625 -0.390625q-0.84375 -0.40625 -1.296875 -1.09375q-0.4375 -0.6875 -0.4375 -1.5625q0 -1.40625 1.046875 -2.203125q1.0625 -0.796875 3.265625 -0.796875l2.3125 0q0 -0.953125 -0.578125 -1.46875q-0.578125 -0.515625 -1.734375 -0.515625q-0.796875 0 -1.578125 0.25q-0.765625 0.25 -1.3125 0.6875l-1.046875 -2.03125q0.828125 -0.578125 1.96875 -0.890625q1.140625 -0.328125 2.359375 -0.328125zm-0.21875 8.375q0.734375 0 1.3125 -0.34375q0.59375 -0.34375 0.828125 -1.015625l0 -1.03125l-2.0 0q-1.78125 0 -1.78125 1.1875q0 0.546875 0.4375 0.875q0.4375 0.328125 1.203125 0.328125zm10.46405 -6.90625q0.515625 -0.71875 1.40625 -1.09375q0.890625 -0.375 2.046875 -0.375l0 2.6875q-0.484375 -0.03125 -0.65625 -0.03125q-1.25 0 -1.96875 0.703125q-0.703125 0.6875 -0.703125 2.09375l0 4.734375l-2.90625 0l0 -10.03125l2.78125 0l0 1.3125zm15.450928 -1.3125l0 8.359375q0 2.75 -1.4375 4.09375q-1.4375 1.34375 -4.203125 1.34375q-1.453125 0 -2.765625 -0.359375q-1.296875 -0.34375 -2.15625 -1.015625l1.15625 -2.09375q0.625 0.53125 1.59375 0.828125q0.984375 0.3125 1.953125 0.3125q1.5 0 2.21875 -0.6875q0.71875 -0.671875 0.71875 -2.0625l0 -0.421875q-1.125 1.25 -3.171875 1.25q-1.375 0 -2.53125 -0.609375q-1.140625 -0.609375 -1.8125 -1.703125q-0.671875 -1.109375 -0.671875 -2.53125q0 -1.4375 0.671875 -2.53125q0.671875 -1.109375 1.8125 -1.71875q1.15625 -0.609375 2.53125 -0.609375q2.1875 0 3.328125 1.4375l0 -1.28125l2.765625 0zm-5.515625 7.15625q1.15625 0 1.890625 -0.671875q0.75 -0.6875 0.75 -1.78125q0 -1.109375 -0.75 -1.78125q-0.734375 -0.6875 -1.890625 -0.6875q-1.15625 0 -1.90625 0.6875q-0.734375 0.671875 -0.734375 1.78125q0 1.09375 0.734375 1.78125q0.75 0.671875 1.90625 0.671875zm8.215637 -7.15625l2.90625 0l0 10.03125l-2.90625 0l0 -10.03125zm1.453125 -1.40625q-0.8125 0 -1.3125 -0.46875q-0.5 -0.46875 -0.5 -1.15625q0 -0.6875 0.5 -1.15625q0.5 -0.46875 1.3125 -0.46875q0.796875 0 1.296875 0.453125q0.515625 0.453125 0.515625 1.125q0 0.71875 -0.515625 1.203125q-0.5 0.46875 -1.296875 0.46875zm10.256165 1.25q1.875 0 3.015625 1.125q1.15625 1.109375 1.15625 3.3125l0 5.75l-2.921875 0l0 -5.296875q0 -1.203125 -0.515625 -1.78125q-0.515625 -0.59375 -1.515625 -0.59375q-1.09375 0 -1.75 0.6875q-0.65625 0.671875 -0.65625 2.015625l0 4.96875l-2.90625 0l0 -10.03125l2.78125 0l0 1.171875q0.578125 -0.640625 1.4375 -0.984375q0.859375 -0.34375 1.875 -0.34375zm10.1727295 10.34375q-1.25 0 -2.453125 -0.3125q-1.1875 -0.3125 -1.890625 -0.78125l0.96875 -2.078125q0.671875 0.421875 1.625 0.703125q0.953125 0.265625 1.859375 0.265625q1.84375 0 1.84375 -0.921875q0 -0.421875 -0.5 -0.609375q-0.5 -0.1875 -1.546875 -0.328125q-1.234375 -0.171875 -2.03125 -0.421875q-0.796875 -0.25 -1.390625 -0.859375q-0.59375 -0.609375 -0.59375 -1.75q0 -0.953125 0.546875 -1.6875q0.5625 -0.734375 1.609375 -1.140625q1.0625 -0.421875 2.5 -0.421875q1.0625 0 2.109375 0.234375q1.0625 0.234375 1.75 0.640625l-0.96875 2.078125q-1.328125 -0.75 -2.890625 -0.75q-0.9375 0 -1.40625 0.265625q-0.46875 0.25 -0.46875 0.671875q0 0.46875 0.5 0.65625q0.515625 0.171875 1.609375 0.34375q1.234375 0.203125 2.015625 0.4375q0.78125 0.234375 1.359375 0.859375q0.578125 0.609375 0.578125 1.703125q0 0.9375 -0.5625 1.671875q-0.546875 0.71875 -1.625 1.125q-1.078125 0.40625 -2.546875 0.40625zm17.748657 -10.34375q1.390625 0 2.53125 0.640625q1.15625 0.640625 1.8125 1.8125q0.65625 1.171875 0.65625 2.71875q0 1.546875 -0.65625 2.71875q-0.65625 1.15625 -1.8125 1.8125q-1.140625 0.640625 -2.53125 0.640625q-2.078125 0 -3.15625 -1.3125l0 1.15625l-2.78125 0l0 -13.84375l2.90625 0l0 4.875q1.109375 -1.21875 3.03125 -1.21875zm-0.515625 7.953125q1.125 0 1.84375 -0.75q0.71875 -0.765625 0.71875 -2.03125q0 -1.265625 -0.71875 -2.015625q-0.71875 -0.765625 -1.84375 -0.765625q-1.109375 0 -1.828125 0.765625q-0.71875 0.75 -0.71875 2.015625q0 1.265625 0.71875 2.03125q0.71875 0.75 1.828125 0.75zm17.13971 -7.796875l-4.546875 10.640625q-0.6875 1.734375 -1.703125 2.4375q-1.015625 0.71875 -2.453125 0.71875q-0.78125 0 -1.546875 -0.25q-0.765625 -0.234375 -1.25 -0.65625l1.0625 -2.078125q0.34375 0.296875 0.78125 0.46875q0.4375 0.171875 0.859375 0.171875q0.59375 0 0.96875 -0.296875q0.375 -0.28125 0.671875 -0.953125l0.046875 -0.09375l-4.359375 -10.109375l3.015625 0l2.8125 6.796875l2.828125 -6.796875l2.8125 0z" fill-rule="nonzero"/><path fill="#000000" fill-opacity="0.0" d="m945.51105 327.3542l5.279724 0l0 22.741974l-5.279724 0l0 -22.741974z" fill-rule="nonzero"/><path fill="#000000" fill-opacity="0.0" d="m950.7908 327.3542l0 0l0 22.741974l0 0l0 -22.741974z" fill-rule="nonzero"/><path fill="#e3e16c" d="m767.0275 349.49344l178.48352 0l0 22.399994l-178.48352 0l0 -22.399994z" fill-rule="nonzero"/><path fill="#000000" fill-opacity="0.0" d="m767.0275 349.3542l178.48352 0l0 22.741974l-178.48352 0l0 -22.741974z" fill-rule="nonzero"/><path fill="#000000" d="m780.5588 354.35092l0 13.0625l-2.484375 0l-6.515625 -7.921875l0 7.921875l-2.984375 0l0 -13.0625l2.5 0l6.5 7.9375l0 -7.9375l2.984375 0zm7.6679688 13.21875q-1.59375 0 -2.859375 -0.65625q-1.25 -0.671875 -1.96875 -1.84375q-0.703125 -1.1875 -0.703125 -2.671875q0 -1.5 0.703125 -2.671875q0.71875 -1.171875 1.96875 -1.828125q1.265625 -0.671875 2.859375 -0.671875q1.578125 0 2.828125 0.671875q1.25 0.65625 1.953125 1.828125q0.71875 1.171875 0.71875 2.671875q0 1.484375 -0.71875 2.671875q-0.703125 1.171875 -1.953125 1.84375q-1.25 0.65625 -2.828125 0.65625zm0 -2.390625q1.109375 0 1.828125 -0.75q0.71875 -0.765625 0.71875 -2.03125q0 -1.265625 -0.71875 -2.015625q-0.71875 -0.765625 -1.828125 -0.765625q-1.125 0 -1.859375 0.765625q-0.71875 0.75 -0.71875 2.015625q0 1.265625 0.71875 2.03125q0.734375 0.75 1.859375 0.75zm13.532349 -7.953125q1.875 0 3.015625 1.125q1.15625 1.109375 1.15625 3.3125l0 5.75l-2.921875 0l0 -5.296875q0 -1.203125 -0.515625 -1.78125q-0.515625 -0.59375 -1.515625 -0.59375q-1.09375 0 -1.75 0.6875q-0.65625 0.671875 -0.65625 2.015625l0 4.96875l-2.90625 0l0 -10.03125l2.78125 0l0 1.171875q0.578125 -0.640625 1.4375 -0.984375q0.859375 -0.34375 1.875 -0.34375zm6.4227295 3.765625l5.28125 0l0 2.34375l-5.28125 0l0 -2.34375zm19.856628 -6.640625l-5.65625 13.0625l-2.984375 0l-5.640625 -13.0625l3.265625 0l3.984375 9.328125l4.015625 -9.328125l3.015625 0zm4.172119 2.875q2.328125 0 3.578125 1.109375q1.25 1.109375 1.25 3.34375l0 5.734375l-2.71875 0l0 -1.25q-0.828125 1.40625 -3.0625 1.40625q-1.15625 0 -2.015625 -0.390625q-0.84375 -0.40625 -1.296875 -1.09375q-0.4375 -0.6875 -0.4375 -1.5625q0 -1.40625 1.046875 -2.203125q1.0625 -0.796875 3.265625 -0.796875l2.3125 0q0 -0.953125 -0.578125 -1.46875q-0.578125 -0.515625 -1.734375 -0.515625q-0.796875 0 -1.578125 0.25q-0.765625 0.25 -1.3125 0.6875l-1.046875 -2.03125q0.828125 -0.578125 1.96875 -0.890625q1.140625 -0.328125 2.359375 -0.328125zm-0.21875 8.375q0.734375 0 1.3125 -0.34375q0.59375 -0.34375 0.828125 -1.015625l0 -1.03125l-2.0 0q-1.78125 0 -1.78125 1.1875q0 0.546875 0.4375 0.875q0.4375 0.328125 1.203125 0.328125zm7.6828003 -12.03125l2.90625 0l0 13.84375l-2.90625 0l0 -13.84375zm15.724915 3.8125l0 10.03125l-2.765625 0l0 -1.1875q-0.578125 0.640625 -1.375 1.0q-0.796875 0.34375 -1.734375 0.34375q-1.984375 0 -3.140625 -1.140625q-1.15625 -1.140625 -1.15625 -3.375l0 -5.671875l2.921875 0l0 5.234375q0 2.421875 2.03125 2.421875q1.046875 0 1.671875 -0.671875q0.640625 -0.6875 0.640625 -2.03125l0 -4.953125l2.90625 0zm12.5355835 5.046875q0 0.0625 -0.046875 0.78125l-7.59375 0q0.203125 0.9375 0.96875 1.484375q0.765625 0.53125 1.90625 0.53125q0.78125 0 1.375 -0.234375q0.609375 -0.234375 1.140625 -0.734375l1.546875 1.6875q-1.421875 1.625 -4.140625 1.625q-1.703125 0 -3.015625 -0.65625q-1.296875 -0.671875 -2.015625 -1.84375q-0.703125 -1.1875 -0.703125 -2.671875q0 -1.484375 0.703125 -2.65625q0.703125 -1.1875 1.921875 -1.84375q1.21875 -0.671875 2.734375 -0.671875q1.46875 0 2.65625 0.640625q1.203125 0.625 1.875 1.8125q0.6875 1.1875 0.6875 2.75zm-5.203125 -3.0q-0.984375 0 -1.65625 0.5625q-0.671875 0.5625 -0.828125 1.53125l4.953125 0q-0.15625 -0.953125 -0.828125 -1.515625q-0.671875 -0.578125 -1.640625 -0.578125zm21.239319 5.1875l-6.078125 0l-1.15625 2.796875l-3.09375 0l5.828125 -13.0625l2.984375 0l5.84375 13.0625l-3.171875 0l-1.15625 -2.796875zm-0.953125 -2.296875l-2.078125 -5.0l-2.0625 5.0l4.140625 0zm16.556763 -8.75l0 13.84375l-2.78125 0l0 -1.15625q-1.078125 1.3125 -3.125 1.3125q-1.421875 0 -2.578125 -0.640625q-1.140625 -0.640625 -1.796875 -1.8125q-0.640625 -1.171875 -0.640625 -2.71875q0 -1.546875 0.640625 -2.71875q0.65625 -1.1875 1.796875 -1.8125q1.15625 -0.640625 2.578125 -0.640625q1.921875 0 3.0 1.21875l0 -4.875l2.90625 0zm-5.40625 11.609375q1.09375 0 1.828125 -0.75q0.734375 -0.765625 0.734375 -2.03125q0 -1.265625 -0.734375 -2.015625q-0.734375 -0.765625 -1.828125 -0.765625q-1.125 0 -1.859375 0.765625q-0.71875 0.75 -0.71875 2.015625q0 1.265625 0.71875 2.03125q0.734375 0.75 1.859375 0.75zm18.316345 -11.609375l0 13.84375l-2.78125 0l0 -1.15625q-1.078125 1.3125 -3.125 1.3125q-1.421875 0 -2.578125 -0.640625q-1.140625 -0.640625 -1.796875 -1.8125q-0.640625 -1.171875 -0.640625 -2.71875q0 -1.546875 0.640625 -2.71875q0.65625 -1.1875 1.796875 -1.8125q1.15625 -0.640625 2.578125 -0.640625q1.921875 0 3.0 1.21875l0 -4.875l2.90625 0zm-5.40625 11.609375q1.09375 0 1.828125 -0.75q0.734375 -0.765625 0.734375 -2.03125q0 -1.265625 -0.734375 -2.015625q-0.734375 -0.765625 -1.828125 -0.765625q-1.125 0 -1.859375 0.765625q-0.71875 0.75 -0.71875 2.015625q0 1.265625 0.71875 2.03125q0.734375 0.75 1.859375 0.75zm8.097656 -7.796875l2.90625 0l0 10.03125l-2.90625 0l0 -10.03125zm1.453125 -1.40625q-0.8125 0 -1.3125 -0.46875q-0.5 -0.46875 -0.5 -1.15625q0 -0.6875 0.5 -1.15625q0.5 -0.46875 1.3125 -0.46875q0.796875 0 1.296875 0.453125q0.515625 0.453125 0.515625 1.125q0 0.71875 -0.515625 1.203125q-0.5 0.46875 -1.296875 0.46875zm10.256165 1.25q1.875 0 3.015625 1.125q1.15625 1.109375 1.15625 3.3125l0 5.75l-2.921875 0l0 -5.296875q0 -1.203125 -0.515625 -1.78125q-0.515625 -0.59375 -1.515625 -0.59375q-1.09375 0 -1.75 0.6875q-0.65625 0.671875 -0.65625 2.015625l0 4.96875l-2.90625 0l0 -10.03125l2.78125 0l0 1.171875q0.578125 -0.640625 1.4375 -0.984375q0.859375 -0.34375 1.875 -0.34375zm17.269043 0.15625l0 8.359375q0 2.75 -1.4375 4.09375q-1.4375 1.34375 -4.203125 1.34375q-1.453125 0 -2.765625 -0.359375q-1.296875 -0.34375 -2.15625 -1.015625l1.15625 -2.09375q0.625 0.53125 1.59375 0.828125q0.984375 0.3125 1.953125 0.3125q1.5 0 2.21875 -0.6875q0.71875 -0.671875 0.71875 -2.0625l0 -0.421875q-1.125 1.25 -3.171875 1.25q-1.375 0 -2.53125 -0.609375q-1.140625 -0.609375 -1.8125 -1.703125q-0.671875 -1.109375 -0.671875 -2.53125q0 -1.4375 0.671875 -2.53125q0.671875 -1.109375 1.8125 -1.71875q1.15625 -0.609375 2.53125 -0.609375q2.1875 0 3.328125 1.4375l0 -1.28125l2.765625 0zm-5.515625 7.15625q1.15625 0 1.890625 -0.671875q0.75 -0.6875 0.75 -1.78125q0 -1.109375 -0.75 -1.78125q-0.734375 -0.6875 -1.890625 -0.6875q-1.15625 0 -1.90625 0.6875q-0.734375 0.671875 -0.734375 1.78125q0 1.09375 0.734375 1.78125q0.75 0.671875 1.90625 0.671875z" fill-rule="nonzero"/><path fill="#000000" fill-opacity="0.0" d="m945.51105 349.3542l5.279724 0l0 22.741974l-5.279724 0l0 -22.741974z" fill-rule="nonzero"/><path fill="#000000" fill-opacity="0.0" d="m950.7908 349.3542l0 0l0 22.741974l0 0l0 -22.741974z" fill-rule="nonzero"/><path fill="#e3e16c" d="m815.25323 371.49344l130.25781 0l0 22.399994l-130.25781 0l0 -22.399994z" fill-rule="nonzero"/><path fill="#000000" fill-opacity="0.0" d="m815.25323 371.3542l130.25781 0l0 22.741974l-130.25781 0l0 -22.741974z" fill-rule="nonzero"/><path fill="#000000" d="m828.69073 389.41342l-0.03125 -7.828125l-3.828125 6.453125l-1.375 0l-3.8125 -6.296875l0 7.671875l-2.84375 0l0 -13.0625l2.5 0l4.890625 8.125l4.8125 -8.125l2.484375 0l0.03125 13.0625l-2.828125 0zm5.7230225 -10.03125l2.90625 0l0 10.03125l-2.90625 0l0 -10.03125zm1.453125 -1.40625q-0.8125 0 -1.3125 -0.46875q-0.5 -0.46875 -0.5 -1.15625q0 -0.6875 0.5 -1.15625q0.5 -0.46875 1.3125 -0.46875q0.796875 0 1.296875 0.453125q0.515625 0.453125 0.515625 1.125q0 0.71875 -0.515625 1.203125q-0.5 0.46875 -1.296875 0.46875zm14.381165 -2.40625l0 13.84375l-2.78125 0l0 -1.15625q-1.078125 1.3125 -3.125 1.3125q-1.421875 0 -2.578125 -0.640625q-1.140625 -0.640625 -1.796875 -1.8125q-0.640625 -1.171875 -0.640625 -2.71875q0 -1.546875 0.640625 -2.71875q0.65625 -1.1875 1.796875 -1.8125q1.15625 -0.640625 2.578125 -0.640625q1.921875 0 3.0 1.21875l0 -4.875l2.90625 0zm-5.40625 11.609375q1.09375 0 1.828125 -0.75q0.734375 -0.765625 0.734375 -2.03125q0 -1.265625 -0.734375 -2.015625q-0.734375 -0.765625 -1.828125 -0.765625q-1.125 0 -1.859375 0.765625q-0.71875 0.75 -0.71875 2.015625q0 1.265625 0.71875 2.03125q0.734375 0.75 1.859375 0.75zm18.316345 -11.609375l0 13.84375l-2.78125 0l0 -1.15625q-1.078125 1.3125 -3.125 1.3125q-1.421875 0 -2.578125 -0.640625q-1.140625 -0.640625 -1.796875 -1.8125q-0.640625 -1.171875 -0.640625 -2.71875q0 -1.546875 0.640625 -2.71875q0.65625 -1.1875 1.796875 -1.8125q1.15625 -0.640625 2.578125 -0.640625q1.921875 0 3.0 1.21875l0 -4.875l2.90625 0zm-5.40625 11.609375q1.09375 0 1.828125 -0.75q0.734375 -0.765625 0.734375 -2.03125q0 -1.265625 -0.734375 -2.015625q-0.734375 -0.765625 -1.828125 -0.765625q-1.125 0 -1.859375 0.765625q-0.71875 0.75 -0.71875 2.015625q0 1.265625 0.71875 2.03125q0.734375 0.75 1.859375 0.75zm8.097656 -11.609375l2.90625 0l0 13.84375l-2.90625 0l0 -13.84375zm15.443665 8.859375q0 0.0625 -0.046875 0.78125l-7.59375 0q0.203125 0.9375 0.96875 1.484375q0.765625 0.53125 1.90625 0.53125q0.78125 0 1.375 -0.234375q0.609375 -0.234375 1.140625 -0.734375l1.546875 1.6875q-1.421875 1.625 -4.140625 1.625q-1.703125 0 -3.015625 -0.65625q-1.296875 -0.671875 -2.015625 -1.84375q-0.703125 -1.1875 -0.703125 -2.671875q0 -1.484375 0.703125 -2.65625q0.703125 -1.1875 1.921875 -1.84375q1.21875 -0.671875 2.734375 -0.671875q1.46875 0 2.65625 0.640625q1.203125 0.625 1.875 1.8125q0.6875 1.1875 0.6875 2.75zm-5.203125 -3.0q-0.984375 0 -1.65625 0.5625q-0.671875 0.5625 -0.828125 1.53125l4.953125 0q-0.15625 -0.953125 -0.828125 -1.515625q-0.671875 -0.578125 -1.640625 -0.578125zm20.00647 -2.203125q1.875 0 2.984375 1.109375q1.109375 1.109375 1.109375 3.328125l0 5.75l-2.90625 0l0 -5.296875q0 -1.203125 -0.5 -1.78125q-0.484375 -0.59375 -1.40625 -0.59375q-1.015625 0 -1.625 0.671875q-0.59375 0.65625 -0.59375 1.96875l0 5.03125l-2.90625 0l0 -5.296875q0 -2.375 -1.90625 -2.375q-1.0 0 -1.609375 0.671875q-0.59375 0.65625 -0.59375 1.96875l0 5.03125l-2.90625 0l0 -10.03125l2.78125 0l0 1.15625q0.5625 -0.640625 1.375 -0.96875q0.8125 -0.34375 1.78125 -0.34375q1.0625 0 1.921875 0.421875q0.859375 0.421875 1.375 1.21875q0.609375 -0.78125 1.546875 -1.203125q0.953125 -0.4375 2.078125 -0.4375zm16.651123 5.203125q0 0.0625 -0.046875 0.78125l-7.59375 0q0.203125 0.9375 0.96875 1.484375q0.765625 0.53125 1.90625 0.53125q0.78125 0 1.375 -0.234375q0.609375 -0.234375 1.140625 -0.734375l1.546875 1.6875q-1.421875 1.625 -4.140625 1.625q-1.703125 0 -3.015625 -0.65625q-1.296875 -0.671875 -2.015625 -1.84375q-0.703125 -1.1875 -0.703125 -2.671875q0 -1.484375 0.703125 -2.65625q0.703125 -1.1875 1.921875 -1.84375q1.21875 -0.671875 2.734375 -0.671875q1.46875 0 2.65625 0.640625q1.203125 0.625 1.875 1.8125q0.6875 1.1875 0.6875 2.75zm-5.203125 -3.0q-0.984375 0 -1.65625 0.5625q-0.671875 0.5625 -0.828125 1.53125l4.953125 0q-0.15625 -0.953125 -0.828125 -1.515625q-0.671875 -0.578125 -1.640625 -0.578125zm13.240845 -2.203125q1.875 0 3.015625 1.125q1.15625 1.109375 1.15625 3.3125l0 5.75l-2.921875 0l0 -5.296875q0 -1.203125 -0.515625 -1.78125q-0.515625 -0.59375 -1.515625 -0.59375q-1.09375 0 -1.75 0.6875q-0.65625 0.671875 -0.65625 2.015625l0 4.96875l-2.90625 0l0 -10.03125l2.78125 0l0 1.171875q0.578125 -0.640625 1.4375 -0.984375q0.859375 -0.34375 1.875 -0.34375zm7.8480835 -3.8125q0.78125 0 1.28125 0.5q0.5 0.5 0.5 1.296875q0 0.375 -0.09375 0.75q-0.09375 0.375 -0.390625 1.125l-1.078125 2.671875l-1.84375 0l0.796875 -2.9375q-0.46875 -0.203125 -0.734375 -0.609375q-0.25 -0.421875 -0.25 -1.0q0 -0.796875 0.5 -1.296875q0.515625 -0.5 1.3125 -0.5zm6.801941 14.15625q-1.25 0 -2.453125 -0.3125q-1.1875 -0.3125 -1.890625 -0.78125l0.96875 -2.078125q0.671875 0.421875 1.625 0.703125q0.953125 0.265625 1.859375 0.265625q1.84375 0 1.84375 -0.921875q0 -0.421875 -0.5 -0.609375q-0.5 -0.1875 -1.546875 -0.328125q-1.234375 -0.171875 -2.03125 -0.421875q-0.796875 -0.25 -1.390625 -0.859375q-0.59375 -0.609375 -0.59375 -1.75q0 -0.953125 0.546875 -1.6875q0.5625 -0.734375 1.609375 -1.140625q1.0625 -0.421875 2.5 -0.421875q1.0625 0 2.109375 0.234375q1.0625 0.234375 1.75 0.640625l-0.96875 2.078125q-1.328125 -0.75 -2.890625 -0.75q-0.9375 0 -1.40625 0.265625q-0.46875 0.25 -0.46875 0.671875q0 0.46875 0.5 0.65625q0.515625 0.171875 1.609375 0.34375q1.234375 0.203125 2.015625 0.4375q0.78125 0.234375 1.359375 0.859375q0.578125 0.609375 0.578125 1.703125q0 0.9375 -0.5625 1.671875q-0.546875 0.71875 -1.625 1.125q-1.078125 0.40625 -2.546875 0.40625zm7.625183 0q-0.765625 0 -1.28125 -0.515625q-0.515625 -0.53125 -0.515625 -1.3125q0 -0.8125 0.515625 -1.296875q0.515625 -0.5 1.28125 -0.5q0.765625 0 1.28125 0.5q0.53125 0.484375 0.53125 1.296875q0 0.78125 -0.53125 1.3125q-0.515625 0.515625 -1.28125 0.515625z" fill-rule="nonzero"/><path fill="#000000" fill-opacity="0.0" d="m945.51105 371.3542l0 0l0 22.741974l0 0l0 -22.741974z" fill-rule="nonzero"/><path fill="#000000" fill-opacity="0.0" d="m945.51105 393.3542l0 0l0 22.741974l0 0l0 -22.741974z" fill-rule="nonzero"/><path fill="#000000" fill-opacity="0.0" d="m945.51105 415.3542l0 0l0 22.741974l0 0l0 -22.741974z" fill-rule="nonzero"/><path fill="#000000" fill-opacity="0.0" d="m945.51105 437.3542l0 0l0 22.741974l0 0l0 -22.741974z" fill-rule="nonzero"/><path fill="#000000" fill-opacity="0.0" d="m945.51105 459.3542l0 0l0 22.741974l0 0l0 -22.741974z" fill-rule="nonzero"/><path fill="#000000" fill-opacity="0.0" d="m812.10284 246.6508l0 0c0 -37.19008 30.148499 -67.33859 67.33862 -67.33859l0 0c17.859253 0 34.98712 7.094589 47.61554 19.723022c12.628418 12.628433 19.723022 29.756256 19.723022 47.61557l0 0c0 37.19008 -30.148499 67.33858 -67.33856 67.33858l0 0c-37.190125 0 -67.33862 -30.148499 -67.33862 -67.33858z" fill-rule="evenodd"/><path stroke="#1b511a" stroke-width="2.0" stroke-linejoin="round" stroke-linecap="butt" d="m812.10284 246.6508l0 0c0 -37.19008 30.148499 -67.33859 67.33862 -67.33859l0 0c17.859253 0 34.98712 7.094589 47.61554 19.723022c12.628418 12.628433 19.723022 29.756256 19.723022 47.61557l0 0c0 37.19008 -30.148499 67.33858 -67.33856 67.33858l0 0c-37.190125 0 -67.33862 -30.148499 -67.33862 -67.33858z" fill-rule="evenodd"/><path fill="#000000" d="m865.7486 253.83705l-3.953125 0l0 5.0937347l-5.46875 0l0 -5.0937347l-13.0625 0l0 -3.78125l11.4375 -15.390625l5.890625 0l-10.609375 14.59375l6.515625 0l0 -4.53125l5.296875 0l0 4.53125l3.953125 0l0 4.578125zm19.20343 -19.171875l0 3.640625l-9.015625 20.624985l-6.09375 0l8.703125 -19.687485l-8.046875 0l0 3.953125l-4.984375 0l0 -8.53125l19.4375 0zm8.319885 13.109375q-2.671875 0 -4.359375 -1.8125q-1.671875 -1.828125 -1.671875 -4.875q0 -3.046875 1.671875 -4.859375q1.6875 -1.828125 4.359375 -1.828125q2.671875 0 4.328125 1.828125q1.671875 1.8125 1.671875 4.859375q0 3.046875 -1.671875 4.875q-1.65625 1.8125 -4.328125 1.8125zm14.453125 -13.109375l4.125 0l-16.578125 24.26561l-4.109375 0l16.5625 -24.26561zm-14.453125 10.265625q1.171875 0 1.84375 -0.96875q0.6875 -0.96875 0.6875 -2.875q0 -1.90625 -0.6875 -2.875q-0.671875 -0.96875 -1.84375 -0.96875q-1.140625 0 -1.84375 0.984375q-0.6875 0.984375 -0.6875 2.859375q0 1.875 0.6875 2.859375q0.703125 0.984375 1.84375 0.984375zm16.453125 14.281235q-1.734375 0 -3.109375 -0.8125q-1.359375 -0.828125 -2.125 -2.34375q-0.75 -1.5312347 -0.75 -3.5312347q0 -2.015625 0.75 -3.53125q0.765625 -1.53125 2.125 -2.34375q1.375 -0.8125 3.109375 -0.8125q2.671875 0 4.34375 1.8125q1.6875 1.8125 1.6875 4.875q0 3.046875 -1.6875 4.8749847q-1.671875 1.8125 -4.34375 1.8125zm0 -2.84375q1.1875 0 1.859375 -0.98435974q0.671875 -1.0 0.671875 -2.859375q0 -1.875 -0.671875 -2.859375q-0.671875 -1.0 -1.859375 -1.0q-1.140625 0 -1.84375 0.984375q-0.6875 0.96875 -0.6875 2.875q0 1.90625 0.6875 2.875q0.703125 0.96873474 1.84375 0.96873474z" fill-rule="nonzero"/></g></svg>