<svg version="1.1" viewBox="0.0 0.0 960.0 540.0" fill="none" stroke="none" stroke-linecap="square" stroke-miterlimit="10" xmlns:xlink="http://www.w3.org/1999/xlink" xmlns="http://www.w3.org/2000/svg"><clipPath id="g6c61430f32_1_0.0"><path d="m0 0l960.0 0l0 540.0l-960.0 0l0 -540.0z" clip-rule="nonzero"/></clipPath><g clip-path="url(#g6c61430f32_1_0.0)"><path fill="#ffffff" d="m0 0l960.0 0l0 540.0l-960.0 0z" fill-rule="evenodd"/><g filter="url(#shadowFilter-g6c61430f32_1_0.1)"><use xlink:href="#g6c61430f32_1_0.1" transform="matrix(1.0 0.0 0.0 1.0 0.0 3.0)"/></g><defs><filter id="shadowFilter-g6c61430f32_1_0.1" filterUnits="userSpaceOnUse"><feGaussianBlur in="SourceAlpha" stdDeviation="2.0" result="blur"/><feComponentTransfer in="blur" color-interpolation-filters="sRGB"><feFuncR type="linear" slope="0" intercept="0.0"/><feFuncG type="linear" slope="0" intercept="0.0"/><feFuncB type="linear" slope="0" intercept="0.0"/><feFuncA type="linear" slope="0.08" intercept="0"/></feComponentTransfer></filter></defs><g id="g6c61430f32_1_0.1"><path fill="#e3e16c" d="m42.60019 239.41267l0 0c0.20028687 -0.48490906 0.75564575 -0.71539307 1.2404251 -0.51483154l3.5109901 1.4525757l0 0c0.23279953 0.09631348 0.41785812 0.28118896 0.5144615 0.51394653c0.09660339 0.23275757 0.096839905 0.494339 6.599426E-4 0.7271881l-9.0253105 21.850311c-0.20028687 0.4848938 -0.75564575 0.71539307 -1.2404251 0.514801l-3.5109901 -1.4525757c-0.48477936 -0.20056152 -0.7154083 -0.7562256 -0.51512146 -1.2411194z" fill-rule="evenodd"/></g><g filter="url(#shadowFilter-g6c61430f32_1_0.2)"><use xlink:href="#g6c61430f32_1_0.2" transform="matrix(1.0 0.0 0.0 1.0 0.0 3.0)"/></g><defs><filter id="shadowFilter-g6c61430f32_1_0.2" filterUnits="userSpaceOnUse"><feGaussianBlur in="SourceAlpha" stdDeviation="2.0" result="blur"/><feComponentTransfer in="blur" color-interpolation-filters="sRGB"><feFuncR type="linear" slope="0" intercept="0.0"/><feFuncG type="linear" slope="0" intercept="0.0"/><feFuncB type="linear" slope="0" intercept="0.0"/><feFuncA type="linear" slope="0.08" intercept="0"/></feComponentTransfer></filter></defs><g id="g6c61430f32_1_0.2"><path fill="#c9e5ab" d="m33.14906 263.39566l0 0c0.20033264 0.4848938 0.75572205 0.71536255 1.2405052 0.514801l3.5109863 -1.4525757l0 0c0.23279953 -0.09631348 0.4178505 -0.28118896 0.5144386 -0.51394653c0.09659195 -0.23272705 0.09680939 -0.49432373 6.0653687E-4 -0.72714233l-9.015125 -21.820251c-0.20032883 -0.48487854 -0.75572205 -0.71536255 -1.2405014 -0.514801l-3.5109901 1.4525757c-0.48477936 0.20057678 -0.715374 0.7562256 -0.51504326 1.2411041z" fill-rule="evenodd"/></g><g filter="url(#shadowFilter-g6c61430f32_1_0.3)"><use xlink:href="#g6c61430f32_1_0.3" transform="matrix(1.0 0.0 0.0 1.0 0.0 3.0)"/></g><defs><filter id="shadowFilter-g6c61430f32_1_0.3" filterUnits="userSpaceOnUse"><feGaussianBlur in="SourceAlpha" stdDeviation="2.0" result="blur"/><feComponentTransfer in="blur" color-interpolation-filters="sRGB"><feFuncR type="linear" slope="0" intercept="0.0"/><feFuncG type="linear" slope="0" intercept="0.0"/><feFuncB type="linear" slope="0" intercept="0.0"/><feFuncA type="linear" slope="0.08" intercept="0"/></feComponentTransfer></filter></defs><g id="g6c61430f32_1_0.3"><defs><linearGradient id="g6c61430f32_1_0.4" gradientUnits="userSpaceOnUse" gradientTransform="matrix(2.3870250254131857 0.0 0.0 -2.3870250254131857 0.0 0.0)" spreadMethod="pad" x1="13.90149521381721" y1="-99.87297836527975" x2="16.288520239230397" y2="-99.87297836527975"><stop offset="0.0" stop-color="#c9e5ab"/><stop offset="1.0" stop-color="#e3e16c"/></linearGradient></defs><path fill="url(#g6c61430f32_1_0.4)" d="m33.183216 263.1143l0 0c0 0.5244751 0.42518234 0.9496765 0.9496689 0.9496765l3.7985535 0l0 0c0.2518692 0 0.49341965 -0.10006714 0.6715164 -0.27816772c0.17809677 -0.17810059 0.27815247 -0.41964722 0.27815247 -0.6715088l0 -23.76532c0 -0.52449036 -0.42518234 -0.9496765 -0.9496689 -0.9496765l-3.7985535 0c-0.52448654 0 -0.9496689 0.42518616 -0.9496689 0.9496765z" fill-rule="evenodd"/></g><g filter="url(#shadowFilter-g6c61430f32_1_0.5)"><use xlink:href="#g6c61430f32_1_0.5" transform="matrix(1.0 0.0 0.0 1.0 0.0 3.0)"/></g><defs><filter id="shadowFilter-g6c61430f32_1_0.5" filterUnits="userSpaceOnUse"><feGaussianBlur in="SourceAlpha" stdDeviation="2.0" result="blur"/><feComponentTransfer in="blur" color-interpolation-filters="sRGB"><feFuncR type="linear" slope="0" intercept="0.0"/><feFuncG type="linear" slope="0" intercept="0.0"/><feFuncB type="linear" slope="0" intercept="0.0"/><feFuncA type="linear" slope="0.08" intercept="0"/></feComponentTransfer></filter></defs><g id="g6c61430f32_1_0.5"><defs><linearGradient id="g6c61430f32_1_0.6" gradientUnits="userSpaceOnUse" gradientTransform="matrix(2.0803111281752322 0.0 0.0 2.0803111281752322 0.0 0.0)" spreadMethod="pad" x1="18.344887264624845" y1="126.75317675130245" x2="18.344909442466612" y2="124.67286562324543"><stop offset="0.0" stop-color="#1b511a"/><stop offset="0.33" stop-color="#457b30"/><stop offset="1.0" stop-color="#6fa545"/></linearGradient></defs><path fill="url(#g6c61430f32_1_0.6)" d="m33.839497 261.5222l0 0c0 -1.1950378 0.967865 -2.1638184 2.161789 -2.1638184l0 0c0.57334137 0 1.1231995 0.22796631 1.528614 0.63375854c0.40541077 0.40579224 0.6331711 0.95617676 0.6331711 1.5300598l0 0c0 1.1950378 -0.967865 2.1638184 -2.1617851 2.1638184l0 0c-1.193924 0 -2.161789 -0.9687805 -2.161789 -2.1638184z" fill-rule="evenodd"/></g></g></svg>