<svg version="1.1" viewBox="0.0 0.0 960.0 540.0" fill="none" stroke="none" stroke-linecap="square" stroke-miterlimit="10" xmlns:xlink="http://www.w3.org/1999/xlink" xmlns="http://www.w3.org/2000/svg"><clipPath id="g75e3084146_0_76.0"><path d="m0 0l960.0 0l0 540.0l-960.0 0l0 -540.0z" clip-rule="nonzero"/></clipPath><g clip-path="url(#g75e3084146_0_76.0)"><path fill="#ffffff" d="m0 0l960.0 0l0 540.0l-960.0 0z" fill-rule="evenodd"/><path fill="#000000" fill-opacity="0.0" d="m96.608925 94.0l314.96063 0l0 352.0l-314.96063 0z" fill-rule="evenodd"/><path fill="#000000" d="m157.71829 115.14375l-10.8125 32.65625l-6.4375 0l-8.078125 -24.171875l-8.218742 24.171875l-6.484375 0l-10.8125 -32.65625l6.296875 0l8.109375 24.8125l8.453117 -24.8125l5.59375 0l8.265625 24.953125l8.34375 -24.953125l5.78125 0zm25.948578 20.34375q0 0.609375 -0.09375 1.71875l-19.546875 0q0.515625 2.75 2.671875 4.359375q2.171875 1.609375 5.390625 1.609375q4.109375 0 6.765625 -2.703125l3.125 3.59375q-1.671875 2.015625 -4.25 3.046875q-2.5625 1.015625 -5.78125 1.015625q-4.09375 0 -7.234375 -1.625q-3.125 -1.640625 -4.828125 -4.546875q-1.703125 -2.921875 -1.703125 -6.609375q0 -3.640625 1.65625 -6.546875q1.65625 -2.921875 4.59375 -4.546875q2.953125 -1.640625 6.640625 -1.640625q3.640625 0 6.5 1.609375q2.875 1.609375 4.484375 4.53125q1.609375 2.90625 1.609375 6.734375zm-12.59375 -8.21875q-2.8125 0 -4.75 1.65625q-1.921875 1.65625 -2.34375 4.40625l14.125 0q-0.359375 -2.703125 -2.28125 -4.375q-1.90625 -1.6875 -4.75 -1.6875zm62.506577 -4.65625q4.71875 0 7.46875 2.734375q2.75 2.71875 2.75 8.171875l0 14.28125l-5.828125 0l0 -13.53125q0 -3.265625 -1.453125 -4.921875q-1.4375 -1.65625 -4.140625 -1.65625q-2.9375 0 -4.71875 1.9375q-1.765625 1.9375 -1.765625 5.53125l0 12.640625l-5.84375 0l0 -13.53125q0 -3.265625 -1.453125 -4.921875q-1.4375 -1.65625 -4.140625 -1.65625q-2.984375 0 -4.734375 1.921875q-1.75 1.90625 -1.75 5.546875l0 12.640625l-5.828125 0l0 -24.921875l5.546875 0l0 3.1875q1.40625 -1.6875 3.5 -2.5625q2.109375 -0.890625 4.671875 -0.890625q2.796875 0 4.96875 1.046875q2.171875 1.046875 3.421875 3.09375q1.546875 -1.953125 3.96875 -3.046875q2.421875 -1.09375 5.359375 -1.09375zm27.207047 0q5.5 0 8.421875 2.640625q2.921875 2.625 2.921875 7.9375l0 14.609375l-5.515625 0l0 -3.03125q-1.0625 1.625 -3.046875 2.5q-1.984375 0.859375 -4.78125 0.859375q-2.8125153 0 -4.9062653 -0.953125q-2.09375 -0.96875 -3.25 -2.671875q-1.140625 -1.703125 -1.140625 -3.84375q0 -3.359375 2.5 -5.390625q2.5 -2.03125 7.8593903 -2.03125l6.4375 0l0 -0.375q0 -2.609375 -1.5625 -4.0q-1.5625 -1.40625 -4.640625 -1.40625q-2.09375 0 -4.1250153 0.65625q-2.03125 0.65625 -3.4375 1.8125l-2.28125 -4.234375q1.96875 -1.5 4.71875 -2.28125q2.7500153 -0.796875 5.8281403 -0.796875zm-0.796875 21.265625q2.203125 0 3.90625 -1.0q1.703125 -1.0 2.390625 -2.875l0 -2.890625l-6.015625 0q-5.0312653 0 -5.0312653 3.3125q0 1.59375 1.2500153 2.53125q1.265625 0.921875 3.5 0.921875zm29.773376 -6.765625l-4.34375 4.109375l0 6.578125l-5.828125 0l0 -34.625l5.828125 0l0 20.90625l12.078125 -11.203125l7.0 0l-10.40625 10.453125l11.390625 14.46875l-7.09375 0l-8.625 -10.6875zm41.896637 -1.625q0 0.609375 -0.09375 1.71875l-19.546875 0q0.515625 2.75 2.671875 4.359375q2.171875 1.609375 5.390625 1.609375q4.109375 0 6.765625 -2.703125l3.125 3.59375q-1.671875 2.015625 -4.25 3.046875q-2.5625 1.015625 -5.78125 1.015625q-4.09375 0 -7.234375 -1.625q-3.125 -1.640625 -4.828125 -4.546875q-1.703125 -2.921875 -1.703125 -6.609375q0 -3.640625 1.65625 -6.546875q1.65625 -2.921875 4.59375 -4.546875q2.953125 -1.640625 6.640625 -1.640625q3.640625 0 6.5 1.609375q2.875 1.609375 4.484375 4.53125q1.609375 2.90625 1.609375 6.734375zm-12.59375 -8.21875q-2.8125 0 -4.75 1.65625q-1.921875 1.65625 -2.34375 4.40625l14.125 0q-0.359375 -2.703125 -2.28125 -4.375q-1.90625 -1.6875 -4.75 -1.6875zm31.069061 -4.390625l5.828125 0l0 24.921875l-5.828125 0l0 -24.921875zm2.9375 -4.09375q-1.578125 0 -2.65625 -1.0q-1.078125 -1.015625 -1.078125 -2.5q0 -1.5 1.078125 -2.5q1.078125 -1.0 2.65625 -1.0q1.59375 0 2.65625 0.953125q1.078125 0.953125 1.078125 2.40625q0 1.53125 -1.046875 2.59375q-1.046875 1.046875 -2.6875 1.046875zm25.514862 27.65625q-1.015625 0.84375 -2.484375 1.265625q-1.46875 0.421875 -3.109375 0.421875q-4.109375 0 -6.34375 -2.140625q-2.234375 -2.15625 -2.234375 -6.265625l0 -11.984375l-4.109375 0l0 -4.671875l4.109375 0l0 -5.6875l5.828125 0l0 5.6875l6.671875 0l0 4.671875l-6.671875 0l0 11.84375q0 1.828125 0.875 2.78125q0.890625 0.953125 2.578125 0.953125q1.953125 0 3.265625 -1.015625l1.625 4.140625z" fill-rule="nonzero"/><path fill="#000000" d="m120.62455 204.12813q-3.765625 0 -6.8125 -1.625q-3.03125 -1.640625 -4.734375 -4.546875q-1.703125 -2.921875 -1.703125 -6.609375q0 -3.6875 1.703125 -6.578125q1.703125 -2.890625 4.734375 -4.515625q3.046875 -1.640625 6.8125 -1.640625q3.828125 0 6.859375 1.640625q3.0468674 1.625 4.7343674 4.515625q1.703125 2.890625 1.703125 6.578125q0 3.6875 -1.703125 6.609375q-1.6875 2.90625 -4.7343674 4.546875q-3.03125 1.625 -6.859375 1.625zm0 -5.0q3.234375 0 5.328125 -2.140625q2.0937424 -2.140625 2.0937424 -5.640625q0 -3.5 -2.0937424 -5.640625q-2.09375 -2.15625 -5.328125 -2.15625q-3.21875 0 -5.296875 2.15625q-2.0625 2.140625 -2.0625 5.640625q0 3.5 2.0625 5.640625q2.078125 2.140625 5.296875 2.140625zm43.030693 -20.25l0 24.921875l-5.5625 0l0 -3.171875q-1.390625 1.671875 -3.5 2.59375q-2.09375 0.90625 -4.515625 0.90625q-5.0 0 -7.875 -2.765625q-2.859375 -2.78125 -2.859375 -8.25l0 -14.234375l5.828125 0l0 13.4375q0 3.359375 1.515625 5.015625q1.515625 1.65625 4.3125 1.65625q3.125 0 4.96875 -1.921875q1.84375 -1.9375 1.84375 -5.578125l0 -12.609375l5.84375 0zm13.194702 3.640625q2.515625 -3.90625 8.875 -3.90625l0 5.546875q-0.75 -0.140625 -1.359375 -0.140625q-3.40625 0 -5.328125 1.984375q-1.90625 1.984375 -1.90625 5.71875l0 12.078125l-5.828125 0l0 -24.921875l5.546875 0l0 3.640625z" fill-rule="nonzero"/><path fill="#000000" d="m123.24955 234.6125q3.640625 0 6.4999924 1.59375q2.875 1.578125 4.5 4.46875q1.640625 2.890625 1.640625 6.671875q0 3.78125 -1.640625 6.703125q-1.625 2.9062347 -4.5 4.4999847q-2.8593674 1.578125 -6.4999924 1.578125q-2.578125 0 -4.703125 -0.890625q-2.109375 -0.890625 -3.5625 -2.65625l0 3.21875l-5.546875 0l0 -34.624985l5.828125 0l0 12.75q1.5 -1.640625 3.515625 -2.46875q2.03125 -0.84375 4.46875 -0.84375zm-0.65625 20.515625q3.21875 0 5.296875 -2.140625q2.0781174 -2.140625 2.0781174 -5.640625q0 -3.5 -2.0781174 -5.640625q-2.078125 -2.15625 -5.296875 -2.15625q-2.09375 0 -3.78125 0.96875q-1.671875 0.953125 -2.65625 2.71875q-0.984375 1.765625 -0.984375 4.109375q0 2.328125 0.984375 4.109375q0.984375 1.765625 2.65625 2.71875q1.6875 0.953125 3.78125 0.953125zm42.974846 -20.25l0 24.92186l-5.5625 0l0 -3.171875q-1.390625 1.671875 -3.5 2.59375q-2.09375 0.90625 -4.515625 0.90625q-5.0 0 -7.875 -2.765625q-2.859375 -2.7812347 -2.859375 -8.249985l0 -14.234375l5.828125 0l0 13.4375q0 3.359375 1.515625 5.015625q1.515625 1.65625 4.3125 1.65625q3.125 0 4.96875 -1.921875q1.84375 -1.9375 1.84375 -5.578125l0 -12.609375l5.84375 0zm15.350952 25.249985q-3.046875 0 -5.9375 -0.796875q-2.890625 -0.796875 -4.609375 -2.0l2.234375 -4.4374847q1.6875 1.125 4.03125 1.796875q2.359375 0.671875 4.640625 0.671875q5.234375 0 5.234375 -2.75q0 -1.296875 -1.328125 -1.8125q-1.328125 -0.515625 -4.265625 -0.984375q-3.09375 -0.46875 -5.03125 -1.0625q-1.921875 -0.609375 -3.359375 -2.125q-1.421875 -1.53125 -1.421875 -4.234375q0 -3.546875 2.96875 -5.65625q2.96875 -2.125 8.0 -2.125q2.5625 0 5.125 0.578125q2.578125 0.578125 4.203125 1.5625l-2.234375 4.4375q-3.171875 -1.875 -7.140625 -1.875q-2.5625 0 -3.890625 0.78125q-1.328125 0.765625 -1.328125 2.015625q0 1.40625 1.421875 2.0q1.421875 0.578125 4.40625 1.078125q2.984375 0.46875 4.890625 1.078125q1.921875 0.609375 3.296875 2.0625q1.375 1.4375 1.375 4.09375q0 3.5 -3.03125 5.6093597q-3.03125 2.09375 -8.25 2.09375zm16.324783 -25.249985l5.828125 0l0 24.92186l-5.828125 0l0 -24.92186zm2.9375 -4.09375q-1.578125 0 -2.65625 -1.0q-1.078125 -1.015625 -1.078125 -2.5q0 -1.5 1.078125 -2.5q1.078125 -1.0 2.65625 -1.0q1.59375 0 2.65625 0.953125q1.078125 0.953125 1.078125 2.40625q0 1.53125 -1.046875 2.59375q-1.046875 1.046875 -2.6875 1.046875zm24.686752 3.828125q4.703125 0 7.546875 2.75q2.84375 2.75 2.84375 8.15625l0 14.281235l-5.828125 0l0 -13.531235q0 -3.265625 -1.546875 -4.921875q-1.53125 -1.65625 -4.375 -1.65625q-3.21875 0 -5.09375 1.9375q-1.859375 1.9375 -1.859375 5.578125l0 12.593735l-5.828125 0l0 -24.92186l5.546875 0l0 3.234375q1.453125 -1.734375 3.640625 -2.609375q2.1875 -0.890625 4.953125 -0.890625zm41.47406 12.875q0 0.609375 -0.09375 1.71875l-19.54689 0q0.515625 2.75 2.671875 4.359375q2.171875 1.609375 5.390625 1.609375q4.1093903 0 6.7656403 -2.703125l3.125 3.5937347q-1.671875 2.015625 -4.25 3.046875q-2.5625 1.015625 -5.7812653 1.015625q-4.09375 0 -7.234375 -1.625q-3.125 -1.640625 -4.828125 -4.5468597q-1.703125 -2.921875 -1.703125 -6.609375q0 -3.640625 1.65625 -6.546875q1.65625 -2.921875 4.59375 -4.546875q2.953125 -1.640625 6.640625 -1.640625q3.6406403 0 6.5000153 1.609375q2.875 1.609375 4.484375 4.53125q1.609375 2.90625 1.609375 6.734375zm-12.593765 -8.21875q-2.8125 0 -4.75 1.65625q-1.921875 1.65625 -2.34375 4.40625l14.125015 0q-0.359375 -2.703125 -2.28125 -4.375q-1.90625 -1.6875 -4.7500153 -1.6875zm25.895126 20.85936q-3.046875 0 -5.9375 -0.796875q-2.890625 -0.796875 -4.609375 -2.0l2.234375 -4.4374847q1.6875 1.125 4.03125 1.796875q2.359375 0.671875 4.640625 0.671875q5.234375 0 5.234375 -2.75q0 -1.296875 -1.328125 -1.8125q-1.328125 -0.515625 -4.265625 -0.984375q-3.09375 -0.46875 -5.03125 -1.0625q-1.921875 -0.609375 -3.359375 -2.125q-1.421875 -1.53125 -1.421875 -4.234375q0 -3.546875 2.96875 -5.65625q2.96875 -2.125 8.0 -2.125q2.5625 0 5.125 0.578125q2.578125 0.578125 4.203125 1.5625l-2.234375 4.4375q-3.171875 -1.875 -7.140625 -1.875q-2.5625 0 -3.890625 0.78125q-1.328125 0.765625 -1.328125 2.015625q0 1.40625 1.421875 2.0q1.421875 0.578125 4.40625 1.078125q2.984375 0.46875 4.890625 1.078125q1.921875 0.609375 3.296875 2.0625q1.375 1.4375 1.375 4.09375q0 3.5 -3.03125 5.6093597q-3.03125 2.09375 -8.25 2.09375zm24.027893 0q-3.046875 0 -5.9375 -0.796875q-2.890625 -0.796875 -4.609375 -2.0l2.234375 -4.4374847q1.6875 1.125 4.03125 1.796875q2.359375 0.671875 4.640625 0.671875q5.234375 0 5.234375 -2.75q0 -1.296875 -1.328125 -1.8125q-1.328125 -0.515625 -4.265625 -0.984375q-3.09375 -0.46875 -5.03125 -1.0625q-1.921875 -0.609375 -3.359375 -2.125q-1.421875 -1.53125 -1.421875 -4.234375q0 -3.546875 2.96875 -5.65625q2.96875 -2.125 8.0 -2.125q2.5625 0 5.125 0.578125q2.578125 0.578125 4.203125 1.5625l-2.234375 4.4375q-3.171875 -1.875 -7.140625 -1.875q-2.5625 0 -3.890625 0.78125q-1.328125 0.765625 -1.328125 2.015625q0 1.40625 1.421875 2.0q1.421875 0.578125 4.40625 1.078125q2.984375 0.46875 4.890625 1.078125q1.921875 0.609375 3.296875 2.0625q1.375 1.4375 1.375 4.09375q0 3.5 -3.03125 5.6093597q-3.03125 2.09375 -8.25 2.09375zm44.170624 -1.6875q-1.015625 0.84375 -2.484375 1.265625q-1.46875 0.421875 -3.109375 0.421875q-4.109375 0 -6.34375 -2.140625q-2.234375 -2.1562347 -2.234375 -6.2656097l0 -11.984375l-4.109375 0l0 -4.671875l4.109375 0l0 -5.6875l5.828125 0l0 5.6875l6.671875 0l0 4.671875l-6.671875 0l0 11.84375q0 1.828125 0.875 2.78125q0.890625 0.953125 2.578125 0.953125q1.953125 0 3.265625 -1.015625l1.625 4.1406097zm15.16095 1.6875q-3.765625 0 -6.8125 -1.625q-3.03125 -1.640625 -4.734375 -4.5468597q-1.703125 -2.921875 -1.703125 -6.609375q0 -3.6875 1.703125 -6.578125q1.703125 -2.890625 4.734375 -4.515625q3.046875 -1.640625 6.8125 -1.640625q3.828125 0 6.859375 1.640625q3.046875 1.625 4.734375 4.515625q1.703125 2.890625 1.703125 6.578125q0 3.6875 -1.703125 6.609375q-1.6875 2.9062347 -4.734375 4.5468597q-3.03125 1.625 -6.859375 1.625zm0 -4.9999847q3.234375 0 5.328125 -2.140625q2.09375 -2.140625 2.09375 -5.640625q0 -3.5 -2.09375 -5.640625q-2.09375 -2.15625 -5.328125 -2.15625q-3.21875 0 -5.296875 2.15625q-2.0625 2.140625 -2.0625 5.640625q0 3.5 2.0625 5.640625q2.078125 2.140625 5.296875 2.140625z" fill-rule="nonzero"/><path fill="#000000" d="m118.952675 290.6125q5.5 0 8.421875 2.640625q2.9218674 2.625 2.9218674 7.9375l0 14.609375l-5.5156174 0l0 -3.03125q-1.0625 1.625 -3.046875 2.5q-1.984375 0.859375 -4.78125 0.859375q-2.8125 0 -4.90625 -0.953125q-2.09375 -0.96875 -3.25 -2.671875q-1.140625 -1.703125 -1.140625 -3.84375q0 -3.359375 2.5 -5.390625q2.5 -2.03125 7.859375 -2.03125l6.4375 0l0 -0.375q0 -2.609375 -1.5625 -4.0q-1.5625 -1.40625 -4.640625 -1.40625q-2.09375 0 -4.125 0.65625q-2.03125 0.65625 -3.4375 1.8125l-2.28125 -4.234375q1.96875 -1.5 4.71875 -2.28125q2.75 -0.796875 5.828125 -0.796875zm-0.796875 21.265625q2.203125 0 3.90625 -1.0q1.703125 -1.0 2.390625 -2.875l0 -2.890625l-6.015625 0q-5.03125 0 -5.03125 3.3125q0 1.59375 1.25 2.53125q1.265625 0.921875 3.5 0.921875zm44.241096 -30.703125l0 34.625l-5.609375 0l0 -3.21875q-1.4375 1.765625 -3.5625 2.65625q-2.125 0.890625 -4.6875 0.890625q-3.59375 0 -6.46875 -1.578125q-2.875 -1.59375 -4.515625 -4.5q-1.625 -2.921875 -1.625 -6.703125q0 -3.78125 1.625 -6.671875q1.640625 -2.890625 4.515625 -4.46875q2.875 -1.59375 6.46875 -1.59375q2.46875 0 4.515625 0.84375q2.0625 0.828125 3.5 2.515625l0 -12.796875l5.84375 0zm-13.171875 29.953125q2.109375 0 3.78125 -0.953125q1.6875 -0.953125 2.65625 -2.71875q0.984375 -1.78125 0.984375 -4.109375q0 -2.34375 -0.984375 -4.109375q-0.96875 -1.765625 -2.65625 -2.71875q-1.671875 -0.96875 -3.78125 -0.96875q-2.09375 0 -3.78125 0.96875q-1.671875 0.953125 -2.65625 2.71875q-0.96875 1.765625 -0.96875 4.109375q0 2.328125 0.96875 4.109375q0.984375 1.765625 2.65625 2.71875q1.6875 0.953125 3.78125 0.953125zm44.146515 -20.25l-10.6875 24.921875l-6.015625 0l-10.6875 -24.921875l6.0625 0l7.75 18.484375l7.984375 -18.484375l5.59375 0zm12.361404 -0.265625q5.5 0 8.421875 2.640625q2.921875 2.625 2.921875 7.9375l0 14.609375l-5.515625 0l0 -3.03125q-1.0625 1.625 -3.046875 2.5q-1.984375 0.859375 -4.78125 0.859375q-2.8125 0 -4.90625 -0.953125q-2.09375 -0.96875 -3.25 -2.671875q-1.140625 -1.703125 -1.140625 -3.84375q0 -3.359375 2.5 -5.390625q2.5 -2.03125 7.859375 -2.03125l6.4375 0l0 -0.375q0 -2.609375 -1.5625 -4.0q-1.5625 -1.40625 -4.640625 -1.40625q-2.09375 0 -4.125 0.65625q-2.03125 0.65625 -3.4375 1.8125l-2.28125 -4.234375q1.96875 -1.5 4.71875 -2.28125q2.75 -0.796875 5.828125 -0.796875zm-0.796875 21.265625q2.203125 0 3.90625 -1.0q1.703125 -1.0 2.390625 -2.875l0 -2.890625l-6.015625 0q-5.03125 0 -5.03125 3.3125q0 1.59375 1.25 2.53125q1.265625 0.921875 3.5 0.921875zm33.74214 -21.265625q4.703125 0 7.546875 2.75q2.84375 2.75 2.84375 8.15625l0 14.28125l-5.828125 0l0 -13.53125q0 -3.265625 -1.546875 -4.921875q-1.53125 -1.65625 -4.375 -1.65625q-3.21875 0 -5.09375 1.9375q-1.859375 1.9375 -1.859375 5.578125l0 12.59375l-5.828125 0l0 -24.921875l5.546875 0l0 3.234375q1.453125 -1.734375 3.640625 -2.609375q2.1875 -0.890625 4.953125 -0.890625zm29.474045 25.515625q-3.859375 0 -6.953125 -1.625q-3.078125 -1.640625 -4.8125 -4.546875q-1.71875 -2.921875 -1.71875 -6.609375q0 -3.6875 1.71875 -6.578125q1.734375 -2.890625 4.796875 -4.515625q3.0625 -1.640625 6.96875 -1.640625q3.6875 0 6.46875 1.5q2.78125 1.484375 4.171875 4.28125l-4.46875 2.609375q-1.078125 -1.71875 -2.6875 -2.578125q-1.609375 -0.875 -3.53125 -0.875q-3.265625 0 -5.40625 2.125q-2.140625 2.125 -2.140625 5.671875q0 3.546875 2.109375 5.671875q2.125 2.109375 5.4375 2.109375q1.921875 0 3.53125 -0.859375q1.609375 -0.859375 2.6875 -2.59375l4.46875 2.625q-1.4375 2.796875 -4.21875 4.3125q-2.78125 1.515625 -6.421875 1.515625zm38.733887 -12.640625q0 0.609375 -0.09375 1.71875l-19.546875 0q0.515625 2.75 2.671875 4.359375q2.171875 1.609375 5.390625 1.609375q4.109375 0 6.765625 -2.703125l3.125 3.59375q-1.671875 2.015625 -4.25 3.046875q-2.5625 1.015625 -5.78125 1.015625q-4.09375 0 -7.234375 -1.625q-3.125 -1.640625 -4.828125 -4.546875q-1.703125 -2.921875 -1.703125 -6.609375q0 -3.640625 1.65625 -6.546875q1.65625 -2.921875 4.59375 -4.546875q2.953125 -1.640625 6.640625 -1.640625q3.640625 0 6.5 1.609375q2.875 1.609375 4.484375 4.53125q1.609375 2.90625 1.609375 6.734375zm-12.59375 -8.21875q-2.8125 0 -4.75 1.65625q-1.921875 1.65625 -2.34375 4.40625l14.125 0q-0.359375 -2.703125 -2.28125 -4.375q-1.90625 -1.6875 -4.75 -1.6875z" fill-rule="nonzero"/><path fill="#000000" d="m132.76517 346.8781l-11.671867 26.921875q-1.625 4.0625 -3.96875 5.71875q-2.328125 1.65625 -5.640625 1.65625q-1.859375 0 -3.6875 -0.609375q-1.8125 -0.59375 -2.984375 -1.671875l2.34375 -4.296875q0.828125 0.796875 1.96875 1.265625q1.15625 0.46875 2.3125 0.46875q1.546875 0 2.546875 -0.796875q1.0 -0.796875 1.84375 -2.65625l0.421875 -0.984375l-10.875 -25.015625l6.0625 0l7.84375 18.4375l7.890625 -18.4375l5.5937424 0zm14.126617 25.25q-3.765625 0 -6.8125 -1.625q-3.03125 -1.640625 -4.734375 -4.546875q-1.703125 -2.921875 -1.703125 -6.609375q0 -3.6875 1.703125 -6.578125q1.703125 -2.890625 4.734375 -4.515625q3.046875 -1.640625 6.8125 -1.640625q3.828125 0 6.859375 1.640625q3.046875 1.625 4.734375 4.515625q1.703125 2.890625 1.703125 6.578125q0 3.6875 -1.703125 6.609375q-1.6875 2.90625 -4.734375 4.546875q-3.03125 1.625 -6.859375 1.625zm0 -5.0q3.234375 0 5.328125 -2.140625q2.09375 -2.140625 2.09375 -5.640625q0 -3.5 -2.09375 -5.640625q-2.09375 -2.15625 -5.328125 -2.15625q-3.21875 0 -5.296875 2.15625q-2.0625 2.140625 -2.0625 5.640625q0 3.5 2.0625 5.640625q2.078125 2.140625 5.296875 2.140625zm43.0307 -20.25l0 24.921875l-5.5625 0l0 -3.171875q-1.390625 1.671875 -3.5 2.59375q-2.09375 0.90625 -4.515625 0.90625q-5.0 0 -7.875 -2.765625q-2.859375 -2.78125 -2.859375 -8.25l0 -14.234375l5.828125 0l0 13.4375q0 3.359375 1.515625 5.015625q1.515625 1.65625 4.3125 1.65625q3.125 0 4.96875 -1.921875q1.84375 -1.9375 1.84375 -5.578125l0 -12.609375l5.84375 0zm13.194702 3.640625q2.515625 -3.90625 8.875 -3.90625l0 5.546875q-0.75 -0.140625 -1.359375 -0.140625q-3.40625 0 -5.328125 1.984375q-1.90625 1.984375 -1.90625 5.71875l0 12.078125l-5.828125 0l0 -24.921875l5.546875 0l0 3.640625z" fill-rule="nonzero"/><path fill="#000000" d="m123.24955 402.6125q3.640625 0 6.4999924 1.59375q2.875 1.578125 4.5 4.46875q1.640625 2.890625 1.640625 6.671875q0 3.78125 -1.640625 6.703125q-1.625 2.90625 -4.5 4.5q-2.8593674 1.578125 -6.4999924 1.578125q-2.578125 0 -4.703125 -0.890625q-2.109375 -0.890625 -3.5625 -2.65625l0 3.21875l-5.546875 0l0 -34.625l5.828125 0l0 12.75q1.5 -1.640625 3.515625 -2.46875q2.03125 -0.84375 4.46875 -0.84375zm-0.65625 20.515625q3.21875 0 5.296875 -2.140625q2.0781174 -2.140625 2.0781174 -5.640625q0 -3.5 -2.0781174 -5.640625q-2.078125 -2.15625 -5.296875 -2.15625q-2.09375 0 -3.78125 0.96875q-1.671875 0.953125 -2.65625 2.71875q-0.984375 1.765625 -0.984375 4.109375q0 2.328125 0.984375 4.109375q0.984375 1.765625 2.65625 2.71875q1.6875 0.953125 3.78125 0.953125zm42.974846 -20.25l0 24.921875l-5.5625 0l0 -3.171875q-1.390625 1.671875 -3.5 2.59375q-2.09375 0.90625 -4.515625 0.90625q-5.0 0 -7.875 -2.765625q-2.859375 -2.78125 -2.859375 -8.25l0 -14.234375l5.828125 0l0 13.4375q0 3.359375 1.515625 5.015625q1.515625 1.65625 4.3125 1.65625q3.125 0 4.96875 -1.921875q1.84375 -1.9375 1.84375 -5.578125l0 -12.609375l5.84375 0zm15.350952 25.25q-3.046875 0 -5.9375 -0.796875q-2.890625 -0.796875 -4.609375 -2.0l2.234375 -4.4375q1.6875 1.125 4.03125 1.796875q2.359375 0.671875 4.640625 0.671875q5.234375 0 5.234375 -2.75q0 -1.296875 -1.328125 -1.8125q-1.328125 -0.515625 -4.265625 -0.984375q-3.09375 -0.46875 -5.03125 -1.0625q-1.921875 -0.609375 -3.359375 -2.125q-1.421875 -1.53125 -1.421875 -4.234375q0 -3.546875 2.96875 -5.65625q2.96875 -2.125 8.0 -2.125q2.5625 0 5.125 0.578125q2.578125 0.578125 4.203125 1.5625l-2.234375 4.4375q-3.171875 -1.875 -7.140625 -1.875q-2.5625 0 -3.890625 0.78125q-1.328125 0.765625 -1.328125 2.015625q0 1.40625 1.421875 2.0q1.421875 0.578125 4.40625 1.078125q2.984375 0.46875 4.890625 1.078125q1.921875 0.609375 3.296875 2.0625q1.375 1.4375 1.375 4.09375q0 3.5 -3.03125 5.609375q-3.03125 2.09375 -8.25 2.09375zm16.324783 -25.25l5.828125 0l0 24.921875l-5.828125 0l0 -24.921875zm2.9375 -4.09375q-1.578125 0 -2.65625 -1.0q-1.078125 -1.015625 -1.078125 -2.5q0 -1.5 1.078125 -2.5q1.078125 -1.0 2.65625 -1.0q1.59375 0 2.65625 0.953125q1.078125 0.953125 1.078125 2.40625q0 1.53125 -1.046875 2.59375q-1.046875 1.046875 -2.6875 1.046875zm24.686752 3.828125q4.703125 0 7.546875 2.75q2.84375 2.75 2.84375 8.15625l0 14.28125l-5.828125 0l0 -13.53125q0 -3.265625 -1.546875 -4.921875q-1.53125 -1.65625 -4.375 -1.65625q-3.21875 0 -5.09375 1.9375q-1.859375 1.9375 -1.859375 5.578125l0 12.59375l-5.828125 0l0 -24.921875l5.546875 0l0 3.234375q1.453125 -1.734375 3.640625 -2.609375q2.1875 -0.890625 4.953125 -0.890625zm41.47406 12.875q0 0.609375 -0.09375 1.71875l-19.54689 0q0.515625 2.75 2.671875 4.359375q2.171875 1.609375 5.390625 1.609375q4.1093903 0 6.7656403 -2.703125l3.125 3.59375q-1.671875 2.015625 -4.25 3.046875q-2.5625 1.015625 -5.7812653 1.015625q-4.09375 0 -7.234375 -1.625q-3.125 -1.640625 -4.828125 -4.546875q-1.703125 -2.921875 -1.703125 -6.609375q0 -3.640625 1.65625 -6.546875q1.65625 -2.921875 4.59375 -4.546875q2.953125 -1.640625 6.640625 -1.640625q3.6406403 0 6.5000153 1.609375q2.875 1.609375 4.484375 4.53125q1.609375 2.90625 1.609375 6.734375zm-12.593765 -8.21875q-2.8125 0 -4.75 1.65625q-1.921875 1.65625 -2.34375 4.40625l14.125015 0q-0.359375 -2.703125 -2.28125 -4.375q-1.90625 -1.6875 -4.7500153 -1.6875zm25.895126 20.859375q-3.046875 0 -5.9375 -0.796875q-2.890625 -0.796875 -4.609375 -2.0l2.234375 -4.4375q1.6875 1.125 4.03125 1.796875q2.359375 0.671875 4.640625 0.671875q5.234375 0 5.234375 -2.75q0 -1.296875 -1.328125 -1.8125q-1.328125 -0.515625 -4.265625 -0.984375q-3.09375 -0.46875 -5.03125 -1.0625q-1.921875 -0.609375 -3.359375 -2.125q-1.421875 -1.53125 -1.421875 -4.234375q0 -3.546875 2.96875 -5.65625q2.96875 -2.125 8.0 -2.125q2.5625 0 5.125 0.578125q2.578125 0.578125 4.203125 1.5625l-2.234375 4.4375q-3.171875 -1.875 -7.140625 -1.875q-2.5625 0 -3.890625 0.78125q-1.328125 0.765625 -1.328125 2.015625q0 1.40625 1.421875 2.0q1.421875 0.578125 4.40625 1.078125q2.984375 0.46875 4.890625 1.078125q1.921875 0.609375 3.296875 2.0625q1.375 1.4375 1.375 4.09375q0 3.5 -3.03125 5.609375q-3.03125 2.09375 -8.25 2.09375zm24.027893 0q-3.046875 0 -5.9375 -0.796875q-2.890625 -0.796875 -4.609375 -2.0l2.234375 -4.4375q1.6875 1.125 4.03125 1.796875q2.359375 0.671875 4.640625 0.671875q5.234375 0 5.234375 -2.75q0 -1.296875 -1.328125 -1.8125q-1.328125 -0.515625 -4.265625 -0.984375q-3.09375 -0.46875 -5.03125 -1.0625q-1.921875 -0.609375 -3.359375 -2.125q-1.421875 -1.53125 -1.421875 -4.234375q0 -3.546875 2.96875 -5.65625q2.96875 -2.125 8.0 -2.125q2.5625 0 5.125 0.578125q2.578125 0.578125 4.203125 1.5625l-2.234375 4.4375q-3.171875 -1.875 -7.140625 -1.875q-2.5625 0 -3.890625 0.78125q-1.328125 0.765625 -1.328125 2.015625q0 1.40625 1.421875 2.0q1.421875 0.578125 4.40625 1.078125q2.984375 0.46875 4.890625 1.078125q1.921875 0.609375 3.296875 2.0625q1.375 1.4375 1.375 4.09375q0 3.5 -3.03125 5.609375q-3.03125 2.09375 -8.25 2.09375zm18.184174 0q-1.578125 0 -2.703125 -1.09375q-1.125 -1.09375 -1.125 -2.78125q0 -1.71875 1.09375 -2.796875q1.109375 -1.078125 2.734375 -1.078125q1.640625 0 2.734375 1.078125q1.09375 1.078125 1.09375 2.796875q0 1.6875 -1.125 2.78125q-1.109375 1.09375 -2.703125 1.09375z" fill-rule="nonzero"/><path fill="#000000" fill-opacity="0.0" d="m511.14435 180.86613l359.65356 0l0 178.26772l-359.65356 0z" fill-rule="evenodd"/><path fill="#e3e16c" d="m520.14435 189.86613l252.63226 0l0 25.600006l-252.63226 0l0 -25.600006z" fill-rule="nonzero"/><path fill="#000000" fill-opacity="0.0" d="m520.14435 189.70044l252.63226 0l0 25.999084l-252.63226 0l0 -25.999084z" fill-rule="nonzero"/><path fill="#000000" d="m522.58185 195.40865l1.578125 0l0 14.9375l-1.578125 0l0 -14.9375zm20.112976 3.640625q2.109375 0 3.3125 1.21875q1.203125 1.203125 1.203125 3.578125l0 6.5l-1.515625 0l0 -6.359375q0 -1.75 -0.84375 -2.65625q-0.84375 -0.921875 -2.375 -0.921875q-1.75 0 -2.75 1.078125q-1.0 1.078125 -1.0 2.96875l0 5.890625l-1.515625 0l0 -6.359375q0 -1.75 -0.84375 -2.65625q-0.84375 -0.921875 -2.40625 -0.921875q-1.71875 0 -2.734375 1.078125q-1.015625 1.078125 -1.015625 2.96875l0 5.890625l-1.515625 0l0 -11.21875l1.453125 0l0 2.046875q0.59375 -1.015625 1.65625 -1.5625q1.078125 -0.5625 2.453125 -0.5625q1.40625 0 2.4375 0.59375q1.046875 0.59375 1.5625 1.765625q0.609375 -1.109375 1.765625 -1.734375q1.171875 -0.625 2.671875 -0.625zm14.410522 0q1.578125 0 2.859375 0.71875q1.28125 0.703125 2.0 2.015625q0.734375 1.296875 0.734375 2.953125q0 1.6875 -0.734375 2.984375q-0.71875 1.296875 -2.0 2.015625q-1.265625 0.71875 -2.859375 0.71875q-1.359375 0 -2.46875 -0.5625q-1.09375 -0.578125 -1.796875 -1.65625l0 6.25l-1.515625 0l0 -15.359375l1.453125 0l0 2.21875q0.6875 -1.109375 1.796875 -1.703125q1.125 -0.59375 2.53125 -0.59375zm-0.109375 10.0625q1.171875 0 2.125 -0.546875q0.96875 -0.546875 1.515625 -1.546875q0.546875 -1.0 0.546875 -2.28125q0 -1.28125 -0.546875 -2.265625q-0.546875 -1.0 -1.515625 -1.546875q-0.953125 -0.5625 -2.125 -0.5625q-1.1875 0 -2.140625 0.5625q-0.953125 0.546875 -1.5 1.546875q-0.53125 0.984375 -0.53125 2.265625q0 1.28125 0.53125 2.28125q0.546875 1.0 1.5 1.546875q0.953125 0.546875 2.140625 0.546875zm10.24176 -7.78125q0.53125 -1.140625 1.578125 -1.703125q1.0625 -0.578125 2.625 -0.578125l0 1.46875l-0.359375 -0.03125q-1.78125 0 -2.78125 1.09375q-1.0 1.09375 -1.0 3.046875l0 5.71875l-1.515625 0l0 -11.21875l1.453125 0l0 2.203125zm11.415894 9.125q-1.625 0 -2.9375 -0.734375q-1.296875 -0.734375 -2.046875 -2.03125q-0.734375 -1.3125 -0.734375 -2.953125q0 -1.640625 0.734375 -2.9375q0.75 -1.3125 2.046875 -2.03125q1.3125 -0.71875 2.9375 -0.71875q1.609375 0 2.90625 0.71875q1.3125 0.71875 2.046875 2.03125q0.734375 1.296875 0.734375 2.9375q0 1.640625 -0.734375 2.953125q-0.734375 1.296875 -2.046875 2.03125q-1.296875 0.734375 -2.90625 0.734375zm0 -1.34375q1.1875 0 2.140625 -0.546875q0.953125 -0.546875 1.484375 -1.546875q0.53125 -1.0 0.53125 -2.28125q0 -1.28125 -0.53125 -2.28125q-0.53125 -1.0 -1.484375 -1.546875q-0.953125 -0.546875 -2.140625 -0.546875q-1.203125 0 -2.15625 0.546875q-0.9375 0.546875 -1.484375 1.546875q-0.546875 1.0 -0.546875 2.28125q0 1.28125 0.546875 2.28125q0.546875 1.0 1.484375 1.546875q0.953125 0.546875 2.15625 0.546875zm17.88092 -9.984375l-4.984375 11.21875l-1.5625 0l-4.96875 -11.21875l1.578125 0l4.203125 9.5625l4.25 -9.5625l1.484375 0zm11.583618 6.078125l-9.375 0q0.125 1.75 1.34375 2.828125q1.21875 1.078125 3.0625 1.078125q1.046875 0 1.921875 -0.375q0.875 -0.375 1.515625 -1.09375l0.859375 0.96875q-0.75 0.90625 -1.875 1.375q-1.109375 0.46875 -2.453125 0.46875q-1.734375 0 -3.078125 -0.734375q-1.328125 -0.734375 -2.078125 -2.03125q-0.734375 -1.3125 -0.734375 -2.953125q0 -1.640625 0.703125 -2.9375q0.71875 -1.3125 1.96875 -2.03125q1.25 -0.71875 2.8125 -0.71875q1.546875 0 2.78125 0.71875q1.25 0.71875 1.953125 2.015625q0.703125 1.296875 0.703125 2.953125l-0.03125 0.46875zm-5.40625 -4.859375q-1.625 0 -2.734375 1.03125q-1.09375 1.03125 -1.234375 2.703125l7.953125 0q-0.15625 -1.671875 -1.25 -2.703125q-1.09375 -1.03125 -2.734375 -1.03125zm18.757263 -5.828125l0 15.828125l-1.4375 0l0 -2.21875q-0.6875 1.125 -1.8125 1.734375q-1.109375 0.59375 -2.53125 0.59375q-1.578125 0 -2.859375 -0.71875q-1.265625 -0.734375 -2.0 -2.03125q-0.71875 -1.3125 -0.71875 -2.96875q0 -1.65625 0.71875 -2.953125q0.734375 -1.3125 2.0 -2.015625q1.28125 -0.71875 2.859375 -0.71875q1.375 0 2.46875 0.5625q1.09375 0.5625 1.796875 1.65625l0 -6.75l1.515625 0zm-5.640625 14.59375q1.171875 0 2.109375 -0.546875q0.953125 -0.546875 1.5 -1.546875q0.546875 -1.0 0.546875 -2.28125q0 -1.28125 -0.546875 -2.28125q-0.546875 -1.0 -1.5 -1.546875q-0.9375 -0.546875 -2.109375 -0.546875q-1.203125 0 -2.15625 0.546875q-0.9375 0.546875 -1.484375 1.546875q-0.546875 1.0 -0.546875 2.28125q0 1.28125 0.546875 2.28125q0.546875 1.0 1.484375 1.546875q0.953125 0.546875 2.15625 0.546875zm21.236023 -10.0625q1.578125 0 2.859375 0.71875q1.28125 0.703125 2.0 2.015625q0.734375 1.296875 0.734375 2.953125q0 1.6875 -0.734375 2.984375q-0.71875 1.296875 -2.0 2.015625q-1.265625 0.71875 -2.859375 0.71875q-1.359375 0 -2.46875 -0.5625q-1.09375 -0.578125 -1.796875 -1.65625l0 6.25l-1.515625 0l0 -15.359375l1.453125 0l0 2.21875q0.6875 -1.109375 1.796875 -1.703125q1.125 -0.59375 2.53125 -0.59375zm-0.109375 10.0625q1.171875 0 2.125 -0.546875q0.96875 -0.546875 1.515625 -1.546875q0.546875 -1.0 0.546875 -2.28125q0 -1.28125 -0.546875 -2.265625q-0.546875 -1.0 -1.515625 -1.546875q-0.953125 -0.5625 -2.125 -0.5625q-1.1875 0 -2.140625 0.5625q-0.953125 0.546875 -1.5 1.546875q-0.53125 0.984375 -0.53125 2.265625q0 1.28125 0.53125 2.28125q0.546875 1.0 1.5 1.546875q0.953125 0.546875 2.140625 0.546875zm18.55426 -3.90625l-9.375 0q0.125 1.75 1.34375 2.828125q1.21875 1.078125 3.0625 1.078125q1.046875 0 1.921875 -0.375q0.875 -0.375 1.515625 -1.09375l0.859375 0.96875q-0.75 0.90625 -1.875 1.375q-1.109375 0.46875 -2.453125 0.46875q-1.734375 0 -3.078125 -0.734375q-1.328125 -0.734375 -2.078125 -2.03125q-0.734375 -1.3125 -0.734375 -2.953125q0 -1.640625 0.703125 -2.9375q0.71875 -1.3125 1.96875 -2.03125q1.25 -0.71875 2.8125 -0.71875q1.546875 0 2.78125 0.71875q1.25 0.71875 1.953125 2.015625q0.703125 1.296875 0.703125 2.953125l-0.03125 0.46875zm-5.40625 -4.859375q-1.625 0 -2.734375 1.03125q-1.09375 1.03125 -1.234375 2.703125l7.953125 0q-0.15625 -1.671875 -1.25 -2.703125q-1.09375 -1.03125 -2.734375 -1.03125zm9.975952 0.984375q0.53125 -1.140625 1.578125 -1.703125q1.0625 -0.578125 2.625 -0.578125l0 1.46875l-0.359375 -0.03125q-1.78125 0 -2.78125 1.09375q-1.0 1.09375 -1.0 3.046875l0 5.71875l-1.515625 0l0 -11.21875l1.453125 0l0 2.203125zm10.818237 -5.640625q-0.984375 0 -1.484375 0.53125q-0.5 0.53125 -0.5 1.578125l0 1.328125l3.453125 0l0 1.28125l-3.421875 0l0 9.9375l-1.5 0l0 -9.9375l-2.015625 0l0 -1.28125l2.015625 0l0 -1.390625q0 -1.53125 0.875 -2.421875q0.890625 -0.90625 2.515625 -0.90625q0.640625 0 1.234375 0.1875q0.59375 0.1875 1.0 0.515625l-0.515625 1.140625q-0.65625 -0.5625 -1.65625 -0.5625zm7.913269 14.765625q-1.625 0 -2.9375 -0.734375q-1.296875 -0.734375 -2.046875 -2.03125q-0.734375 -1.3125 -0.734375 -2.953125q0 -1.640625 0.734375 -2.9375q0.75 -1.3125 2.046875 -2.03125q1.3125 -0.71875 2.9375 -0.71875q1.609375 0 2.90625 0.71875q1.3125 0.71875 2.046875 2.03125q0.734375 1.296875 0.734375 2.9375q0 1.640625 -0.734375 2.953125q-0.734375 1.296875 -2.046875 2.03125q-1.296875 0.734375 -2.90625 0.734375zm0 -1.34375q1.1875 0 2.140625 -0.546875q0.953125 -0.546875 1.484375 -1.546875q0.53125 -1.0 0.53125 -2.28125q0 -1.28125 -0.53125 -2.28125q-0.53125 -1.0 -1.484375 -1.546875q-0.953125 -0.546875 -2.140625 -0.546875q-1.203125 0 -2.15625 0.546875q-0.9375 0.546875 -1.484375 1.546875q-0.546875 1.0 -0.546875 2.28125q0 1.28125 0.546875 2.28125q0.546875 1.0 1.484375 1.546875q0.953125 0.546875 2.15625 0.546875zm10.232178 -7.78125q0.53125 -1.140625 1.578125 -1.703125q1.0625 -0.578125 2.625 -0.578125l0 1.46875l-0.359375 -0.03125q-1.78125 0 -2.78125 1.09375q-1.0 1.09375 -1.0 3.046875l0 5.71875l-1.515625 0l0 -11.21875l1.453125 0l0 2.203125zm20.928833 -2.28125q2.109375 0 3.3125 1.21875q1.203125 1.203125 1.203125 3.578125l0 6.5l-1.515625 0l0 -6.359375q0 -1.75 -0.84375 -2.65625q-0.84375 -0.921875 -2.375 -0.921875q-1.75 0 -2.75 1.078125q-1.0 1.078125 -1.0 2.96875l0 5.890625l-1.515625 0l0 -6.359375q0 -1.75 -0.84375 -2.65625q-0.84375 -0.921875 -2.40625 -0.921875q-1.71875 0 -2.734375 1.078125q-1.015625 1.078125 -1.015625 2.96875l0 5.890625l-1.515625 0l0 -11.21875l1.453125 0l0 2.046875q0.59375 -1.015625 1.65625 -1.5625q1.078125 -0.5625 2.453125 -0.5625q1.40625 0 2.4375 0.59375q1.046875 0.59375 1.5625 1.765625q0.609375 -1.109375 1.765625 -1.734375q1.171875 -0.625 2.671875 -0.625zm12.551086 0q2.203125 0 3.375 1.09375q1.171875 1.09375 1.171875 3.25l0 6.953125l-1.453125 0l0 -1.75q-0.515625 0.875 -1.5 1.375q-0.984375 0.484375 -2.359375 0.484375q-1.875 0 -2.984375 -0.890625q-1.109375 -0.90625 -1.109375 -2.375q0 -1.421875 1.03125 -2.296875q1.03125 -0.875 3.296875 -0.875l3.5625 0l0 -0.6875q0 -1.453125 -0.8125 -2.203125q-0.8125 -0.765625 -2.359375 -0.765625q-1.078125 0 -2.0625 0.359375q-0.96875 0.34375 -1.671875 0.96875l-0.6875 -1.140625q0.859375 -0.71875 2.046875 -1.109375q1.203125 -0.390625 2.515625 -0.390625zm-0.53125 10.203125q1.28125 0 2.1875 -0.578125q0.921875 -0.59375 1.375 -1.703125l0 -1.828125l-3.515625 0q-2.875 0 -2.875 2.0q0 0.984375 0.734375 1.546875q0.75 0.5625 2.09375 0.5625zm14.911804 -10.203125q2.109375 0 3.359375 1.234375q1.25 1.21875 1.25 3.5625l0 6.5l-1.515625 0l0 -6.359375q0 -1.75 -0.875 -2.65625q-0.875 -0.921875 -2.5 -0.921875q-1.8125 0 -2.875 1.078125q-1.046875 1.078125 -1.046875 2.96875l0 5.890625l-1.515625 0l0 -11.21875l1.453125 0l0 2.0625q0.625 -1.015625 1.71875 -1.578125q1.09375 -0.5625 2.546875 -0.5625zm13.419312 11.40625q-1.671875 0 -2.984375 -0.71875q-1.3125 -0.734375 -2.0625 -2.046875q-0.734375 -1.3125 -0.734375 -2.953125q0 -1.640625 0.734375 -2.9375q0.75 -1.3125 2.0625 -2.03125q1.3125 -0.71875 2.984375 -0.71875q1.453125 0 2.59375 0.5625q1.140625 0.5625 1.796875 1.65625l-1.125 0.765625q-0.5625 -0.84375 -1.421875 -1.25q-0.84375 -0.421875 -1.84375 -0.421875q-1.21875 0 -2.1875 0.546875q-0.96875 0.546875 -1.515625 1.546875q-0.546875 1.0 -0.546875 2.28125q0 1.296875 0.546875 2.296875q0.546875 0.984375 1.515625 1.53125q0.96875 0.546875 2.1875 0.546875q1.0 0 1.84375 -0.40625q0.859375 -0.40625 1.421875 -1.234375l1.125 0.765625q-0.65625 1.078125 -1.8125 1.65625q-1.15625 0.5625 -2.578125 0.5625zm16.92517 -5.25l-9.375 0q0.125 1.75 1.34375 2.828125q1.21875 1.078125 3.0625 1.078125q1.046875 0 1.921875 -0.375q0.875 -0.375 1.515625 -1.09375l0.859375 0.96875q-0.75 0.90625 -1.875 1.375q-1.109375 0.46875 -2.453125 0.46875q-1.734375 0 -3.078125 -0.734375q-1.328125 -0.734375 -2.078125 -2.03125q-0.734375 -1.3125 -0.734375 -2.953125q0 -1.640625 0.703125 -2.9375q0.71875 -1.3125 1.96875 -2.03125q1.25 -0.71875 2.8125 -0.71875q1.546875 0 2.78125 0.71875q1.25 0.71875 1.953125 2.015625q0.703125 1.296875 0.703125 2.953125l-0.03125 0.46875zm-5.40625 -4.859375q-1.625 0 -2.734375 1.03125q-1.09375 1.03125 -1.234375 2.703125l7.953125 0q-0.15625 -1.671875 -1.25 -2.703125q-1.09375 -1.03125 -2.734375 -1.03125zm8.694763 7.78125q0.484375 0 0.796875 0.328125q0.328125 0.328125 0.328125 0.828125q0 0.25 -0.078125 0.546875q-0.0625 0.296875 -0.21875 0.6875l-0.890625 2.9375l-1.03125 0l0.734375 -3.09375q-0.34375 -0.09375 -0.5625 -0.375q-0.203125 -0.296875 -0.203125 -0.703125q0 -0.5 0.3125 -0.828125q0.328125 -0.328125 0.8125 -0.328125z" fill-rule="nonzero"/><path fill="#000000" fill-opacity="0.0" d="m772.7766 189.70044l5.5880127 0l0 25.999084l-5.5880127 0l0 -25.999084z" fill-rule="nonzero"/><path fill="#e3e16c" d="m520.14435 215.86613l190.18329 0l0 25.600006l-190.18329 0l0 -25.600006z" fill-rule="nonzero"/><path fill="#000000" fill-opacity="0.0" d="m520.14435 215.70042l190.18329 0l0 25.9991l-190.18329 0l0 -25.9991z" fill-rule="nonzero"/><path fill="#000000" d="m532.01935 231.20552l-9.375 0q0.125 1.75 1.34375 2.828125q1.21875 1.078125 3.0625 1.078125q1.046875 0 1.921875 -0.375q0.875 -0.375 1.515625 -1.09375l0.859375 0.96875q-0.75 0.90625 -1.875 1.375q-1.109375 0.46875 -2.453125 0.46875q-1.734375 0 -3.078125 -0.734375q-1.328125 -0.734375 -2.078125 -2.03125q-0.734375 -1.3125 -0.734375 -2.953125q0 -1.640625 0.703125 -2.9375q0.71875 -1.3125 1.96875 -2.03125q1.25 -0.71875 2.8125 -0.71875q1.546875 0 2.78125 0.71875q1.25 0.71875 1.953125 2.015625q0.703125 1.296875 0.703125 2.953125l-0.03125 0.46875zm-5.40625 -4.859375q-1.625 0 -2.734375 1.03125q-1.09375 1.03125 -1.234375 2.703125l7.953125 0q-0.15625 -1.671875 -1.25 -2.703125q-1.09375 -1.03125 -2.734375 -1.03125zm12.241638 -4.65625q-0.984375 0 -1.484375 0.53125q-0.5 0.53125 -0.5 1.578125l0 1.328125l3.453125 0l0 1.28125l-3.421875 0l0 9.9375l-1.5 0l0 -9.9375l-2.015625 0l0 -1.28125l2.015625 0l0 -1.390625q0 -1.53125 0.875 -2.421875q0.890625 -0.90625 2.515625 -0.90625q0.640625 0 1.234375 0.1875q0.59375 0.1875 1.0 0.515625l-0.515625 1.140625q-0.65625 -0.5625 -1.65625 -0.5625zm7.2302246 0q-0.984375 0 -1.484375 0.53125q-0.5 0.53125 -0.5 1.578125l0 1.328125l3.453125 0l0 1.28125l-3.421875 0l0 9.9375l-1.5 0l0 -9.9375l-2.015625 0l0 -1.28125l2.015625 0l0 -1.390625q0 -1.53125 0.875 -2.421875q0.890625 -0.90625 2.515625 -0.90625q0.640625 0 1.234375 0.1875q0.59375 0.1875 1.0 0.515625l-0.515625 1.140625q-0.65625 -0.5625 -1.65625 -0.5625zm5.21875 3.4375l1.515625 0l0 11.21875l-1.515625 0l0 -11.21875zm0.765625 -2.453125q-0.46875 0 -0.78125 -0.3125q-0.3125 -0.328125 -0.3125 -0.78125q0 -0.421875 0.3125 -0.734375q0.3125 -0.328125 0.78125 -0.328125q0.484375 0 0.796875 0.3125q0.3125 0.3125 0.3125 0.734375q0 0.46875 -0.3125 0.796875q-0.3125 0.3125 -0.796875 0.3125zm9.626953 13.78125q-1.671875 0 -2.984375 -0.71875q-1.3125 -0.734375 -2.0625 -2.046875q-0.734375 -1.3125 -0.734375 -2.953125q0 -1.640625 0.734375 -2.9375q0.75 -1.3125 2.0625 -2.03125q1.3125 -0.71875 2.984375 -0.71875q1.453125 0 2.59375 0.5625q1.140625 0.5625 1.796875 1.65625l-1.125 0.765625q-0.5625 -0.84375 -1.421875 -1.25q-0.84375 -0.421875 -1.84375 -0.421875q-1.21875 0 -2.1875 0.546875q-0.96875 0.546875 -1.515625 1.546875q-0.546875 1.0 -0.546875 2.28125q0 1.296875 0.546875 2.296875q0.546875 0.984375 1.515625 1.53125q0.96875 0.546875 2.1875 0.546875q1.0 0 1.84375 -0.40625q0.859375 -0.40625 1.421875 -1.234375l1.125 0.765625q-0.65625 1.078125 -1.8125 1.65625q-1.15625 0.5625 -2.578125 0.5625zm7.3515625 -11.328125l1.515625 0l0 11.21875l-1.515625 0l0 -11.21875zm0.765625 -2.453125q-0.46875 0 -0.78125 -0.3125q-0.3125 -0.328125 -0.3125 -0.78125q0 -0.421875 0.3125 -0.734375q0.3125 -0.328125 0.78125 -0.328125q0.484375 0 0.796875 0.3125q0.3125 0.3125 0.3125 0.734375q0 0.46875 -0.3125 0.796875q-0.3125 0.3125 -0.796875 0.3125zm14.737244 8.53125l-9.375 0q0.125 1.75 1.34375 2.828125q1.21875 1.078125 3.0625 1.078125q1.046875 0 1.921875 -0.375q0.875 -0.375 1.515625 -1.09375l0.859375 0.96875q-0.75 0.90625 -1.875 1.375q-1.109375 0.46875 -2.453125 0.46875q-1.734375 0 -3.078125 -0.734375q-1.328125 -0.734375 -2.078125 -2.03125q-0.734375 -1.3125 -0.734375 -2.953125q0 -1.640625 0.703125 -2.9375q0.71875 -1.3125 1.96875 -2.03125q1.25 -0.71875 2.8125 -0.71875q1.546875 0 2.78125 0.71875q1.25 0.71875 1.953125 2.015625q0.703125 1.296875 0.703125 2.953125l-0.03125 0.46875zm-5.40625 -4.859375q-1.625 0 -2.734375 1.03125q-1.09375 1.03125 -1.234375 2.703125l7.953125 0q-0.15625 -1.671875 -1.25 -2.703125q-1.09375 -1.03125 -2.734375 -1.03125zm14.241638 -1.296875q2.109375 0 3.359375 1.234375q1.25 1.21875 1.25 3.5625l0 6.5l-1.515625 0l0 -6.359375q0 -1.75 -0.875 -2.65625q-0.875 -0.921875 -2.5 -0.921875q-1.8125 0 -2.875 1.078125q-1.046875 1.078125 -1.046875 2.96875l0 5.890625l-1.515625 0l0 -11.21875l1.453125 0l0 2.0625q0.625 -1.015625 1.71875 -1.578125q1.09375 -0.5625 2.546875 -0.5625zm13.419373 11.40625q-1.671875 0 -2.984375 -0.71875q-1.3125 -0.734375 -2.0625 -2.046875q-0.734375 -1.3125 -0.734375 -2.953125q0 -1.640625 0.734375 -2.9375q0.75 -1.3125 2.0625 -2.03125q1.3125 -0.71875 2.984375 -0.71875q1.453125 0 2.59375 0.5625q1.140625 0.5625 1.796875 1.65625l-1.125 0.765625q-0.5625 -0.84375 -1.421875 -1.25q-0.84375 -0.421875 -1.84375 -0.421875q-1.21875 0 -2.1875 0.546875q-0.96875 0.546875 -1.515625 1.546875q-0.546875 1.0 -0.546875 2.28125q0 1.296875 0.546875 2.296875q0.546875 0.984375 1.515625 1.53125q0.96875 0.546875 2.1875 0.546875q1.0 0 1.84375 -0.40625q0.859375 -0.40625 1.421875 -1.234375l1.125 0.765625q-0.65625 1.078125 -1.8125 1.65625q-1.15625 0.5625 -2.578125 0.5625zm16.602722 -11.328125l-5.609375 12.5625q-0.671875 1.578125 -1.578125 2.234375q-0.890625 0.671875 -2.140625 0.671875q-0.8125 0 -1.515625 -0.265625q-0.703125 -0.25 -1.21875 -0.765625l0.703125 -1.125q0.859375 0.84375 2.046875 0.84375q0.765625 0 1.3125 -0.421875q0.546875 -0.421875 1.015625 -1.453125l0.484375 -1.078125l-5.015625 -11.203125l1.578125 0l4.234375 9.53125l4.21875 -9.53125l1.484375 0zm1.5845337 9.0q0.484375 0 0.796875 0.328125q0.328125 0.328125 0.328125 0.828125q0 0.25 -0.078125 0.546875q-0.0625 0.296875 -0.21875 0.6875l-0.890625 2.9375l-1.03125 0l0.734375 -3.09375q-0.34375 -0.09375 -0.5625 -0.375q-0.203125 -0.296875 -0.203125 -0.703125q0 -0.5 0.3125 -0.828125q0.328125 -0.328125 0.8125 -0.328125zm23.937744 -9.078125q2.109375 0 3.3125 1.21875q1.203125 1.203125 1.203125 3.578125l0 6.5l-1.515625 0l0 -6.359375q0 -1.75 -0.84375 -2.65625q-0.84375 -0.921875 -2.375 -0.921875q-1.75 0 -2.75 1.078125q-1.0 1.078125 -1.0 2.96875l0 5.890625l-1.515625 0l0 -6.359375q0 -1.75 -0.84375 -2.65625q-0.84375 -0.921875 -2.40625 -0.921875q-1.71875 0 -2.734375 1.078125q-1.015625 1.078125 -1.015625 2.96875l0 5.890625l-1.515625 0l0 -11.21875l1.453125 0l0 2.046875q0.59375 -1.015625 1.65625 -1.5625q1.078125 -0.5625 2.453125 -0.5625q1.40625 0 2.4375 0.59375q1.046875 0.59375 1.5625 1.765625q0.609375 -1.109375 1.765625 -1.734375q1.171875 -0.625 2.671875 -0.625zm12.551086 0q2.203125 0 3.375 1.09375q1.171875 1.09375 1.171875 3.25l0 6.953125l-1.453125 0l0 -1.75q-0.515625 0.875 -1.5 1.375q-0.984375 0.484375 -2.359375 0.484375q-1.875 0 -2.984375 -0.890625q-1.109375 -0.90625 -1.109375 -2.375q0 -1.421875 1.03125 -2.296875q1.03125 -0.875 3.296875 -0.875l3.5625 0l0 -0.6875q0 -1.453125 -0.8125 -2.203125q-0.8125 -0.765625 -2.359375 -0.765625q-1.078125 0 -2.0625 0.359375q-0.96875 0.34375 -1.671875 0.96875l-0.6875 -1.140625q0.859375 -0.71875 2.046875 -1.109375q1.203125 -0.390625 2.515625 -0.390625zm-0.53125 10.203125q1.28125 0 2.1875 -0.578125q0.921875 -0.59375 1.375 -1.703125l0 -1.828125l-3.515625 0q-2.875 0 -2.875 2.0q0 0.984375 0.734375 1.546875q0.75 0.5625 2.09375 0.5625zm10.646118 -7.921875q0.53125 -1.140625 1.578125 -1.703125q1.0625 -0.578125 2.625 -0.578125l0 1.46875l-0.359375 -0.03125q-1.78125 0 -2.78125 1.09375q-1.0 1.09375 -1.0 3.046875l0 5.71875l-1.515625 0l0 -11.21875l1.453125 0l0 2.203125zm11.085083 3.390625l-2.640625 2.421875l0 3.203125l-1.515625 0l0 -15.828125l1.515625 0l0 10.734375l6.703125 -6.125l1.875 0l-4.796875 4.578125l5.234375 6.640625l-1.84375 0l-4.53125 -5.625zm17.979614 0.484375l-9.375 0q0.125 1.75 1.34375 2.828125q1.21875 1.078125 3.0625 1.078125q1.046875 0 1.921875 -0.375q0.875 -0.375 1.515625 -1.09375l0.859375 0.96875q-0.75 0.90625 -1.875 1.375q-1.109375 0.46875 -2.453125 0.46875q-1.734375 0 -3.078125 -0.734375q-1.328125 -0.734375 -2.078125 -2.03125q-0.734375 -1.3125 -0.734375 -2.953125q0 -1.640625 0.703125 -2.9375q0.71875 -1.3125 1.96875 -2.03125q1.25 -0.71875 2.8125 -0.71875q1.546875 0 2.78125 0.71875q1.25 0.71875 1.953125 2.015625q0.703125 1.296875 0.703125 2.953125l-0.03125 0.46875zm-5.40625 -4.859375q-1.625 0 -2.734375 1.03125q-1.09375 1.03125 -1.234375 2.703125l7.953125 0q-0.15625 -1.671875 -1.25 -2.703125q-1.09375 -1.03125 -2.734375 -1.03125zm14.429138 9.3125q-0.421875 0.390625 -1.0625 0.59375q-0.625 0.203125 -1.296875 0.203125q-1.578125 0 -2.4375 -0.84375q-0.84375 -0.859375 -0.84375 -2.421875l0 -6.78125l-2.015625 0l0 -1.28125l2.015625 0l0 -2.453125l1.5 0l0 2.453125l3.421875 0l0 1.28125l-3.421875 0l0 6.703125q0 1.0 0.5 1.53125q0.515625 0.515625 1.453125 0.515625q0.46875 0 0.90625 -0.15625q0.4375 -0.15625 0.75 -0.421875l0.53125 1.078125z" fill-rule="nonzero"/><path fill="#000000" fill-opacity="0.0" d="m710.32764 215.70042l5.5880127 0l0 25.9991l-5.5880127 0l0 -25.9991z" fill-rule="nonzero"/><path fill="#e3e16c" d="m520.14435 241.86613l282.57715 0l0 25.59999l-282.57715 0l0 -25.59999z" fill-rule="nonzero"/><path fill="#000000" fill-opacity="0.0" d="m520.14435 241.70042l282.57715 0l0 25.9991l-282.57715 0l0 -25.9991z" fill-rule="nonzero"/><path fill="#000000" d="m532.4881 246.518l0 15.828125l-1.4375 0l0 -2.21875q-0.6875 1.125 -1.8125 1.734375q-1.109375 0.59375 -2.53125 0.59375q-1.578125 0 -2.859375 -0.71875q-1.265625 -0.734375 -2.0 -2.03125q-0.71875 -1.3125 -0.71875 -2.96875q0 -1.65625 0.71875 -2.953125q0.734375 -1.3125 2.0 -2.015625q1.28125 -0.71875 2.859375 -0.71875q1.375 0 2.46875 0.5625q1.09375 0.5625 1.796875 1.65625l0 -6.75l1.515625 0zm-5.640625 14.59375q1.171875 0 2.109375 -0.546875q0.953125 -0.546875 1.5 -1.546875q0.546875 -1.0 0.546875 -2.28125q0 -1.28125 -0.546875 -2.28125q-0.546875 -1.0 -1.5 -1.546875q-0.9375 -0.546875 -2.109375 -0.546875q-1.203125 0 -2.15625 0.546875q-0.9375 0.546875 -1.484375 1.546875q-0.546875 1.0 -0.546875 2.28125q0 1.28125 0.546875 2.28125q0.546875 1.0 1.484375 1.546875q0.953125 0.546875 2.15625 0.546875zm9.86676 -9.984375l1.515625 0l0 11.21875l-1.515625 0l0 -11.21875zm0.765625 -2.453125q-0.46875 0 -0.78125 -0.3125q-0.3125 -0.328125 -0.3125 -0.78125q0 -0.421875 0.3125 -0.734375q0.3125 -0.328125 0.78125 -0.328125q0.484375 0 0.796875 0.3125q0.3125 0.3125 0.3125 0.734375q0 0.46875 -0.3125 0.796875q-0.3125 0.3125 -0.796875 0.3125zm8.69043 -0.984375q-0.984375 0 -1.484375 0.53125q-0.5 0.53125 -0.5 1.578125l0 1.328125l3.453125 0l0 1.28125l-3.421875 0l0 9.9375l-1.5 0l0 -9.9375l-2.015625 0l0 -1.28125l2.015625 0l0 -1.390625q0 -1.53125 0.875 -2.421875q0.890625 -0.90625 2.515625 -0.90625q0.640625 0 1.234375 0.1875q0.59375 0.1875 1.0 0.515625l-0.515625 1.140625q-0.65625 -0.5625 -1.65625 -0.5625zm7.2302856 0q-0.984375 0 -1.484375 0.53125q-0.5 0.53125 -0.5 1.578125l0 1.328125l3.453125 0l0 1.28125l-3.421875 0l0 9.9375l-1.5 0l0 -9.9375l-2.015625 0l0 -1.28125l2.015625 0l0 -1.390625q0 -1.53125 0.875 -2.421875q0.890625 -0.90625 2.515625 -0.90625q0.640625 0 1.234375 0.1875q0.59375 0.1875 1.0 0.515625l-0.515625 1.140625q-0.65625 -0.5625 -1.65625 -0.5625zm13.085144 9.515625l-9.375 0q0.125 1.75 1.34375 2.828125q1.21875 1.078125 3.0625 1.078125q1.046875 0 1.921875 -0.375q0.875 -0.375 1.515625 -1.09375l0.859375 0.96875q-0.75 0.90625 -1.875 1.375q-1.109375 0.46875 -2.453125 0.46875q-1.734375 0 -3.078125 -0.734375q-1.328125 -0.734375 -2.078125 -2.03125q-0.734375 -1.3125 -0.734375 -2.953125q0 -1.640625 0.703125 -2.9375q0.71875 -1.3125 1.96875 -2.03125q1.25 -0.71875 2.8125 -0.71875q1.546875 0 2.78125 0.71875q1.25 0.71875 1.953125 2.015625q0.703125 1.296875 0.703125 2.953125l-0.03125 0.46875zm-5.40625 -4.859375q-1.625 0 -2.734375 1.03125q-1.09375 1.03125 -1.234375 2.703125l7.953125 0q-0.15625 -1.671875 -1.25 -2.703125q-1.09375 -1.03125 -2.734375 -1.03125zm9.975952 0.984375q0.53125 -1.140625 1.578125 -1.703125q1.0625 -0.578125 2.625 -0.578125l0 1.46875l-0.359375 -0.03125q-1.78125 0 -2.78125 1.09375q-1.0 1.09375 -1.0 3.046875l0 5.71875l-1.515625 0l0 -11.21875l1.453125 0l0 2.203125zm16.58783 3.875l-9.375 0q0.125 1.75 1.34375 2.828125q1.21875 1.078125 3.0625 1.078125q1.046875 0 1.921875 -0.375q0.875 -0.375 1.515625 -1.09375l0.859375 0.96875q-0.75 0.90625 -1.875 1.375q-1.109375 0.46875 -2.453125 0.46875q-1.734375 0 -3.078125 -0.734375q-1.328125 -0.734375 -2.078125 -2.03125q-0.734375 -1.3125 -0.734375 -2.953125q0 -1.640625 0.703125 -2.9375q0.71875 -1.3125 1.96875 -2.03125q1.25 -0.71875 2.8125 -0.71875q1.546875 0 2.78125 0.71875q1.25 0.71875 1.953125 2.015625q0.703125 1.296875 0.703125 2.953125l-0.03125 0.46875zm-5.40625 -4.859375q-1.625 0 -2.734375 1.03125q-1.09375 1.03125 -1.234375 2.703125l7.953125 0q-0.15625 -1.671875 -1.25 -2.703125q-1.09375 -1.03125 -2.734375 -1.03125zm14.241577 -1.296875q2.109375 0 3.359375 1.234375q1.25 1.21875 1.25 3.5625l0 6.5l-1.515625 0l0 -6.359375q0 -1.75 -0.875 -2.65625q-0.875 -0.921875 -2.5 -0.921875q-1.8125 0 -2.875 1.078125q-1.046875 1.078125 -1.046875 2.96875l0 5.890625l-1.515625 0l0 -11.21875l1.453125 0l0 2.0625q0.625 -1.015625 1.71875 -1.578125q1.09375 -0.5625 2.546875 -0.5625zm14.626709 10.609375q-0.421875 0.390625 -1.0625 0.59375q-0.625 0.203125 -1.296875 0.203125q-1.578125 0 -2.4375 -0.84375q-0.84375 -0.859375 -0.84375 -2.421875l0 -6.78125l-2.015625 0l0 -1.28125l2.015625 0l0 -2.453125l1.5 0l0 2.453125l3.421875 0l0 1.28125l-3.421875 0l0 6.703125q0 1.0 0.5 1.53125q0.515625 0.515625 1.453125 0.515625q0.46875 0 0.90625 -0.15625q0.4375 -0.15625 0.75 -0.421875l0.53125 1.078125zm2.7529907 -10.53125l1.515625 0l0 11.21875l-1.515625 0l0 -11.21875zm0.765625 -2.453125q-0.46875 0 -0.78125 -0.3125q-0.3125 -0.328125 -0.3125 -0.78125q0 -0.421875 0.3125 -0.734375q0.3125 -0.328125 0.78125 -0.328125q0.484375 0 0.796875 0.3125q0.3125 0.3125 0.3125 0.734375q0 0.46875 -0.3125 0.796875q-0.3125 0.3125 -0.796875 0.3125zm8.893555 2.375q2.203125 0 3.375 1.09375q1.171875 1.09375 1.171875 3.25l0 6.953125l-1.453125 0l0 -1.75q-0.515625 0.875 -1.5 1.375q-0.984375 0.484375 -2.359375 0.484375q-1.875 0 -2.984375 -0.890625q-1.109375 -0.90625 -1.109375 -2.375q0 -1.421875 1.03125 -2.296875q1.03125 -0.875 3.296875 -0.875l3.5625 0l0 -0.6875q0 -1.453125 -0.8125 -2.203125q-0.8125 -0.765625 -2.359375 -0.765625q-1.078125 0 -2.0625 0.359375q-0.96875 0.34375 -1.671875 0.96875l-0.6875 -1.140625q0.859375 -0.71875 2.046875 -1.109375q1.203125 -0.390625 2.515625 -0.390625zm-0.53125 10.203125q1.28125 0 2.1875 -0.578125q0.921875 -0.59375 1.375 -1.703125l0 -1.828125l-3.515625 0q-2.875 0 -2.875 2.0q0 0.984375 0.734375 1.546875q0.75 0.5625 2.09375 0.5625zm15.099243 0.40625q-0.421875 0.390625 -1.0625 0.59375q-0.625 0.203125 -1.296875 0.203125q-1.578125 0 -2.4375 -0.84375q-0.84375 -0.859375 -0.84375 -2.421875l0 -6.78125l-2.015625 0l0 -1.28125l2.015625 0l0 -2.453125l1.5 0l0 2.453125l3.421875 0l0 1.28125l-3.421875 0l0 6.703125q0 1.0 0.5 1.53125q0.515625 0.515625 1.453125 0.515625q0.46875 0 0.90625 -0.15625q0.4375 -0.15625 0.75 -0.421875l0.53125 1.078125zm2.7530518 -10.53125l1.515625 0l0 11.21875l-1.515625 0l0 -11.21875zm0.765625 -2.453125q-0.46875 0 -0.78125 -0.3125q-0.3125 -0.328125 -0.3125 -0.78125q0 -0.421875 0.3125 -0.734375q0.3125 -0.328125 0.78125 -0.328125q0.484375 0 0.796875 0.3125q0.3125 0.3125 0.3125 0.734375q0 0.46875 -0.3125 0.796875q-0.3125 0.3125 -0.796875 0.3125zm9.565369 13.78125q-1.625 0 -2.9375 -0.734375q-1.296875 -0.734375 -2.046875 -2.03125q-0.734375 -1.3125 -0.734375 -2.953125q0 -1.640625 0.734375 -2.9375q0.75 -1.3125 2.046875 -2.03125q1.3125 -0.71875 2.9375 -0.71875q1.609375 0 2.90625 0.71875q1.3125 0.71875 2.046875 2.03125q0.734375 1.296875 0.734375 2.9375q0 1.640625 -0.734375 2.953125q-0.734375 1.296875 -2.046875 2.03125q-1.296875 0.734375 -2.90625 0.734375zm0 -1.34375q1.1875 0 2.140625 -0.546875q0.953125 -0.546875 1.484375 -1.546875q0.53125 -1.0 0.53125 -2.28125q0 -1.28125 -0.53125 -2.28125q-0.53125 -1.0 -1.484375 -1.546875q-0.953125 -0.546875 -2.140625 -0.546875q-1.203125 0 -2.15625 0.546875q-0.9375 0.546875 -1.484375 1.546875q-0.546875 1.0 -0.546875 2.28125q0 1.28125 0.546875 2.28125q0.546875 1.0 1.484375 1.546875q0.953125 0.546875 2.15625 0.546875zm14.497803 -10.0625q2.109375 0 3.359375 1.234375q1.25 1.21875 1.25 3.5625l0 6.5l-1.515625 0l0 -6.359375q0 -1.75 -0.875 -2.65625q-0.875 -0.921875 -2.5 -0.921875q-1.8125 0 -2.875 1.078125q-1.046875 1.078125 -1.046875 2.96875l0 5.890625l-1.515625 0l0 -11.21875l1.453125 0l0 2.0625q0.625 -1.015625 1.71875 -1.578125q1.09375 -0.5625 2.546875 -0.5625zm18.230347 0q2.203125 0 3.375 1.09375q1.171875 1.09375 1.171875 3.25l0 6.953125l-1.453125 0l0 -1.75q-0.515625 0.875 -1.5 1.375q-0.984375 0.484375 -2.359375 0.484375q-1.875 0 -2.984375 -0.890625q-1.109375 -0.90625 -1.109375 -2.375q0 -1.421875 1.03125 -2.296875q1.03125 -0.875 3.296875 -0.875l3.5625 0l0 -0.6875q0 -1.453125 -0.8125 -2.203125q-0.8125 -0.765625 -2.359375 -0.765625q-1.078125 0 -2.0625 0.359375q-0.96875 0.34375 -1.671875 0.96875l-0.6875 -1.140625q0.859375 -0.71875 2.046875 -1.109375q1.203125 -0.390625 2.515625 -0.390625zm-0.53125 10.203125q1.28125 0 2.1875 -0.578125q0.921875 -0.59375 1.375 -1.703125l0 -1.828125l-3.515625 0q-2.875 0 -2.875 2.0q0 0.984375 0.734375 1.546875q0.75 0.5625 2.09375 0.5625zm14.911743 -10.203125q2.109375 0 3.359375 1.234375q1.25 1.21875 1.25 3.5625l0 6.5l-1.515625 0l0 -6.359375q0 -1.75 -0.875 -2.65625q-0.875 -0.921875 -2.5 -0.921875q-1.8125 0 -2.875 1.078125q-1.046875 1.078125 -1.046875 2.96875l0 5.890625l-1.515625 0l0 -11.21875l1.453125 0l0 2.0625q0.625 -1.015625 1.71875 -1.578125q1.09375 -0.5625 2.546875 -0.5625zm18.997498 -4.53125l0 15.828125l-1.4375 0l0 -2.21875q-0.6875 1.125 -1.8125 1.734375q-1.109375 0.59375 -2.53125 0.59375q-1.578125 0 -2.859375 -0.71875q-1.265625 -0.734375 -2.0 -2.03125q-0.71875 -1.3125 -0.71875 -2.96875q0 -1.65625 0.71875 -2.953125q0.734375 -1.3125 2.0 -2.015625q1.28125 -0.71875 2.859375 -0.71875q1.375 0 2.46875 0.5625q1.09375 0.5625 1.796875 1.65625l0 -6.75l1.515625 0zm-5.640625 14.59375q1.171875 0 2.109375 -0.546875q0.953125 -0.546875 1.5 -1.546875q0.546875 -1.0 0.546875 -2.28125q0 -1.28125 -0.546875 -2.28125q-0.546875 -1.0 -1.5 -1.546875q-0.9375 -0.546875 -2.109375 -0.546875q-1.203125 0 -2.15625 0.546875q-0.9375 0.546875 -1.484375 1.546875q-0.546875 1.0 -0.546875 2.28125q0 1.28125 0.546875 2.28125q0.546875 1.0 1.484375 1.546875q0.953125 0.546875 2.15625 0.546875zm25.845398 -9.984375l0 9.859375q0 2.859375 -1.40625 4.234375q-1.390625 1.375 -4.203125 1.375q-1.5625 0 -2.96875 -0.46875q-1.390625 -0.453125 -2.265625 -1.265625l0.78125 -1.15625q0.796875 0.734375 1.953125 1.140625q1.171875 0.40625 2.453125 0.40625q2.140625 0 3.140625 -1.0q1.0 -0.984375 1.0 -3.078125l0 -1.4375q-0.703125 1.078125 -1.84375 1.640625q-1.140625 0.546875 -2.53125 0.546875q-1.578125 0 -2.875 -0.6875q-1.28125 -0.703125 -2.015625 -1.953125q-0.734375 -1.25 -0.734375 -2.828125q0 -1.578125 0.734375 -2.8125q0.734375 -1.234375 2.015625 -1.90625q1.28125 -0.6875 2.875 -0.6875q1.4375 0 2.578125 0.578125q1.15625 0.5625 1.859375 1.65625l0 -2.15625l1.453125 0zm-5.734375 9.453125q1.21875 0 2.1875 -0.515625q0.984375 -0.53125 1.53125 -1.46875q0.546875 -0.9375 0.546875 -2.140625q0 -1.1875 -0.546875 -2.109375q-0.546875 -0.9375 -1.515625 -1.453125q-0.96875 -0.53125 -2.203125 -0.53125q-1.21875 0 -2.1875 0.515625q-0.96875 0.515625 -1.515625 1.453125q-0.546875 0.9375 -0.546875 2.125q0 1.203125 0.546875 2.140625q0.546875 0.9375 1.515625 1.46875q0.96875 0.515625 2.1875 0.515625zm11.42804 -7.25q0.53125 -1.140625 1.578125 -1.703125q1.0625 -0.578125 2.625 -0.578125l0 1.46875l-0.359375 -0.03125q-1.78125 0 -2.78125 1.09375q-1.0 1.09375 -1.0 3.046875l0 5.71875l-1.515625 0l0 -11.21875l1.453125 0l0 2.203125zm16.587769 3.875l-9.375 0q0.125 1.75 1.34375 2.828125q1.21875 1.078125 3.0625 1.078125q1.046875 0 1.921875 -0.375q0.875 -0.375 1.515625 -1.09375l0.859375 0.96875q-0.75 0.90625 -1.875 1.375q-1.109375 0.46875 -2.453125 0.46875q-1.734375 0 -3.078125 -0.734375q-1.328125 -0.734375 -2.078125 -2.03125q-0.734375 -1.3125 -0.734375 -2.953125q0 -1.640625 0.703125 -2.9375q0.71875 -1.3125 1.96875 -2.03125q1.25 -0.71875 2.8125 -0.71875q1.546875 0 2.78125 0.71875q1.25 0.71875 1.953125 2.015625q0.703125 1.296875 0.703125 2.953125l-0.03125 0.46875zm-5.40625 -4.859375q-1.625 0 -2.734375 1.03125q-1.09375 1.03125 -1.234375 2.703125l7.953125 0q-0.15625 -1.671875 -1.25 -2.703125q-1.09375 -1.03125 -2.734375 -1.03125zm12.124695 -1.296875q2.203125 0 3.375 1.09375q1.171875 1.09375 1.171875 3.25l0 6.953125l-1.453125 0l0 -1.75q-0.515625 0.875 -1.5 1.375q-0.984375 0.484375 -2.359375 0.484375q-1.875 0 -2.984375 -0.890625q-1.109375 -0.90625 -1.109375 -2.375q0 -1.421875 1.03125 -2.296875q1.03125 -0.875 3.296875 -0.875l3.5625 0l0 -0.6875q0 -1.453125 -0.8125 -2.203125q-0.8125 -0.765625 -2.359375 -0.765625q-1.078125 0 -2.0625 0.359375q-0.96875 0.34375 -1.671875 0.96875l-0.6875 -1.140625q0.859375 -0.71875 2.046875 -1.109375q1.203125 -0.390625 2.515625 -0.390625zm-0.53125 10.203125q1.28125 0 2.1875 -0.578125q0.921875 -0.59375 1.375 -1.703125l0 -1.828125l-3.515625 0q-2.875 0 -2.875 2.0q0 0.984375 0.734375 1.546875q0.75 0.5625 2.09375 0.5625zm15.099304 0.40625q-0.421875 0.390625 -1.0625 0.59375q-0.625 0.203125 -1.296875 0.203125q-1.578125 0 -2.4375 -0.84375q-0.84375 -0.859375 -0.84375 -2.421875l0 -6.78125l-2.015625 0l0 -1.28125l2.015625 0l0 -2.453125l1.5 0l0 2.453125l3.421875 0l0 1.28125l-3.421875 0l0 6.703125q0 1.0 0.5 1.53125q0.515625 0.515625 1.453125 0.515625q0.46875 0 0.90625 -0.15625q0.4375 -0.15625 0.75 -0.421875l0.53125 1.078125zm12.113281 -4.453125l-9.375 0q0.125 1.75 1.34375 2.828125q1.21875 1.078125 3.0625 1.078125q1.046875 0 1.921875 -0.375q0.875 -0.375 1.515625 -1.09375l0.859375 0.96875q-0.75 0.90625 -1.875 1.375q-1.109375 0.46875 -2.453125 0.46875q-1.734375 0 -3.078125 -0.734375q-1.328125 -0.734375 -2.078125 -2.03125q-0.734375 -1.3125 -0.734375 -2.953125q0 -1.640625 0.703125 -2.9375q0.71875 -1.3125 1.96875 -2.03125q1.25 -0.71875 2.8125 -0.71875q1.546875 0 2.78125 0.71875q1.25 0.71875 1.953125 2.015625q0.703125 1.296875 0.703125 2.953125l-0.03125 0.46875zm-5.40625 -4.859375q-1.625 0 -2.734375 1.03125q-1.09375 1.03125 -1.234375 2.703125l7.953125 0q-0.15625 -1.671875 -1.25 -2.703125q-1.09375 -1.03125 -2.734375 -1.03125zm9.976013 0.984375q0.53125 -1.140625 1.578125 -1.703125q1.0625 -0.578125 2.625 -0.578125l0 1.46875l-0.359375 -0.03125q-1.78125 0 -2.78125 1.09375q-1.0 1.09375 -1.0 3.046875l0 5.71875l-1.515625 0l0 -11.21875l1.453125 0l0 2.203125z" fill-rule="nonzero"/><path fill="#000000" fill-opacity="0.0" d="m802.7215 241.70042l5.5879517 0l0 25.9991l-5.5879517 0l0 -25.9991z" fill-rule="nonzero"/><path fill="#e3e16c" d="m520.14435 267.86615l337.3479 0l0 25.599976l-337.3479 0l0 -25.599976z" fill-rule="nonzero"/><path fill="#000000" fill-opacity="0.0" d="m520.14435 267.70044l337.3479 0l0 25.999084l-337.3479 0l0 -25.999084z" fill-rule="nonzero"/><path fill="#000000" d="m525.26935 288.4555q-1.375 0 -2.625 -0.390625q-1.234375 -0.40625 -1.953125 -1.0l0.6875 -1.1875q0.703125 0.546875 1.765625 0.90625q1.078125 0.34375 2.21875 0.34375q1.546875 0 2.28125 -0.46875q0.734375 -0.484375 0.734375 -1.359375q0 -0.625 -0.40625 -0.96875q-0.40625 -0.359375 -1.03125 -0.53125q-0.609375 -0.1875 -1.640625 -0.359375q-1.359375 -0.25 -2.1875 -0.515625q-0.828125 -0.265625 -1.421875 -0.90625q-0.59375 -0.640625 -0.59375 -1.78125q0 -1.40625 1.171875 -2.296875q1.1875 -0.890625 3.265625 -0.890625q1.09375 0 2.171875 0.28125q1.09375 0.28125 1.796875 0.75l-0.65625 1.21875q-1.390625 -0.953125 -3.3125 -0.953125q-1.4375 0 -2.1875 0.515625q-0.734375 0.5 -0.734375 1.34375q0 0.640625 0.421875 1.03125q0.421875 0.375 1.03125 0.5625q0.625 0.171875 1.703125 0.359375q1.34375 0.265625 2.15625 0.515625q0.8125 0.25 1.390625 0.875q0.578125 0.609375 0.578125 1.703125q0 1.46875 -1.234375 2.34375q-1.21875 0.859375 -3.390625 0.859375zm17.523254 -11.328125l0 11.21875l-1.453125 0l0 -2.046875q-0.59375 1.015625 -1.640625 1.59375q-1.046875 0.5625 -2.390625 0.5625q-2.1875 0 -3.46875 -1.21875q-1.265625 -1.234375 -1.265625 -3.609375l0 -6.5l1.515625 0l0 6.359375q0 1.765625 0.875 2.6875q0.875 0.90625 2.5 0.90625q1.765625 0 2.78125 -1.0625q1.03125 -1.078125 1.03125 -3.0l0 -5.890625l1.515625 0zm7.260132 11.328125q-1.375 0 -2.625 -0.390625q-1.234375 -0.40625 -1.953125 -1.0l0.6875 -1.1875q0.703125 0.546875 1.765625 0.90625q1.078125 0.34375 2.21875 0.34375q1.546875 0 2.28125 -0.46875q0.734375 -0.484375 0.734375 -1.359375q0 -0.625 -0.40625 -0.96875q-0.40625 -0.359375 -1.03125 -0.53125q-0.609375 -0.1875 -1.640625 -0.359375q-1.359375 -0.25 -2.1875 -0.515625q-0.828125 -0.265625 -1.421875 -0.90625q-0.59375 -0.640625 -0.59375 -1.78125q0 -1.40625 1.171875 -2.296875q1.1875 -0.890625 3.265625 -0.890625q1.09375 0 2.171875 0.28125q1.09375 0.28125 1.796875 0.75l-0.65625 1.21875q-1.390625 -0.953125 -3.3125 -0.953125q-1.4375 0 -2.1875 0.515625q-0.734375 0.5 -0.734375 1.34375q0 0.640625 0.421875 1.03125q0.421875 0.375 1.03125 0.5625q0.625 0.171875 1.703125 0.359375q1.34375 0.265625 2.15625 0.515625q0.8125 0.25 1.390625 0.875q0.578125 0.609375 0.578125 1.703125q0 1.46875 -1.234375 2.34375q-1.21875 0.859375 -3.390625 0.859375zm13.320129 -0.796875q-0.421875 0.390625 -1.0625 0.59375q-0.625 0.203125 -1.296875 0.203125q-1.578125 0 -2.4375 -0.84375q-0.84375 -0.859375 -0.84375 -2.421875l0 -6.78125l-2.015625 0l0 -1.28125l2.015625 0l0 -2.453125l1.5 0l0 2.453125l3.421875 0l0 1.28125l-3.421875 0l0 6.703125q0 1.0 0.5 1.53125q0.515625 0.515625 1.453125 0.515625q0.46875 0 0.90625 -0.15625q0.4375 -0.15625 0.75 -0.421875l0.53125 1.078125zm6.6748657 -10.609375q2.203125 0 3.375 1.09375q1.171875 1.09375 1.171875 3.25l0 6.953125l-1.453125 0l0 -1.75q-0.515625 0.875 -1.5 1.375q-0.984375 0.484375 -2.359375 0.484375q-1.875 0 -2.984375 -0.890625q-1.109375 -0.90625 -1.109375 -2.375q0 -1.421875 1.03125 -2.296875q1.03125 -0.875 3.296875 -0.875l3.5625 0l0 -0.6875q0 -1.453125 -0.8125 -2.203125q-0.8125 -0.765625 -2.359375 -0.765625q-1.078125 0 -2.0625 0.359375q-0.96875 0.34375 -1.671875 0.96875l-0.6875 -1.140625q0.859375 -0.71875 2.046875 -1.109375q1.203125 -0.390625 2.515625 -0.390625zm-0.53125 10.203125q1.28125 0 2.1875 -0.578125q0.921875 -0.59375 1.375 -1.703125l0 -1.828125l-3.515625 0q-2.875 0 -2.875 2.0q0 0.984375 0.734375 1.546875q0.75 0.5625 2.09375 0.5625zm9.192993 -10.125l1.515625 0l0 11.21875l-1.515625 0l0 -11.21875zm0.765625 -2.453125q-0.46875 0 -0.78125 -0.3125q-0.3125 -0.328125 -0.3125 -0.78125q0 -0.421875 0.3125 -0.734375q0.3125 -0.328125 0.78125 -0.328125q0.484375 0 0.796875 0.3125q0.3125 0.3125 0.3125 0.734375q0 0.46875 -0.3125 0.796875q-0.3125 0.3125 -0.796875 0.3125zm10.69043 2.375q2.109375 0 3.359375 1.234375q1.25 1.21875 1.25 3.5625l0 6.5l-1.515625 0l0 -6.359375q0 -1.75 -0.875 -2.65625q-0.875 -0.921875 -2.5 -0.921875q-1.8125 0 -2.875 1.078125q-1.046875 1.078125 -1.046875 2.96875l0 5.890625l-1.515625 0l0 -11.21875l1.453125 0l0 2.0625q0.625 -1.015625 1.71875 -1.578125q1.09375 -0.5625 2.546875 -0.5625zm12.642334 0q2.203125 0 3.375 1.09375q1.171875 1.09375 1.171875 3.25l0 6.953125l-1.453125 0l0 -1.75q-0.515625 0.875 -1.5 1.375q-0.984375 0.484375 -2.359375 0.484375q-1.875 0 -2.984375 -0.890625q-1.109375 -0.90625 -1.109375 -2.375q0 -1.421875 1.03125 -2.296875q1.03125 -0.875 3.296875 -0.875l3.5625 0l0 -0.6875q0 -1.453125 -0.8125 -2.203125q-0.8125 -0.765625 -2.359375 -0.765625q-1.078125 0 -2.0625 0.359375q-0.96875 0.34375 -1.671875 0.96875l-0.6875 -1.140625q0.859375 -0.71875 2.046875 -1.109375q1.203125 -0.390625 2.515625 -0.390625zm-0.53125 10.203125q1.28125 0 2.1875 -0.578125q0.921875 -0.59375 1.375 -1.703125l0 -1.828125l-3.515625 0q-2.875 0 -2.875 2.0q0 0.984375 0.734375 1.546875q0.75 0.5625 2.09375 0.5625zm14.974243 -10.203125q1.578125 0 2.859375 0.71875q1.28125 0.703125 2.0 2.015625q0.734375 1.296875 0.734375 2.953125q0 1.65625 -0.734375 2.96875q-0.71875 1.296875 -2.0 2.03125q-1.28125 0.71875 -2.859375 0.71875q-1.40625 0 -2.53125 -0.59375q-1.109375 -0.609375 -1.796875 -1.734375l0 2.21875l-1.453125 0l0 -15.828125l1.515625 0l0 6.75q0.703125 -1.09375 1.796875 -1.65625q1.109375 -0.5625 2.46875 -0.5625zm-0.109375 10.0625q1.171875 0 2.125 -0.546875q0.96875 -0.546875 1.515625 -1.546875q0.546875 -1.0 0.546875 -2.28125q0 -1.28125 -0.546875 -2.28125q-0.546875 -1.0 -1.515625 -1.546875q-0.953125 -0.546875 -2.125 -0.546875q-1.1875 0 -2.140625 0.546875q-0.953125 0.546875 -1.5 1.546875q-0.53125 1.0 -0.53125 2.28125q0 1.28125 0.53125 2.28125q0.546875 1.0 1.5 1.546875q0.953125 0.546875 2.140625 0.546875zm8.788696 -9.984375l1.515625 0l0 11.21875l-1.515625 0l0 -11.21875zm0.765625 -2.453125q-0.46875 0 -0.78125 -0.3125q-0.3125 -0.328125 -0.3125 -0.78125q0 -0.421875 0.3125 -0.734375q0.3125 -0.328125 0.78125 -0.328125q0.484375 0 0.796875 0.3125q0.3125 0.3125 0.3125 0.734375q0 0.46875 -0.3125 0.796875q-0.3125 0.3125 -0.796875 0.3125zm4.9716187 -2.15625l1.515625 0l0 15.828125l-1.515625 0l0 -15.828125zm5.7373047 4.609375l1.515625 0l0 11.21875l-1.515625 0l0 -11.21875zm0.765625 -2.453125q-0.46875 0 -0.78125 -0.3125q-0.3125 -0.328125 -0.3125 -0.78125q0 -0.421875 0.3125 -0.734375q0.3125 -0.328125 0.78125 -0.328125q0.484375 0 0.796875 0.3125q0.3125 0.3125 0.3125 0.734375q0 0.46875 -0.3125 0.796875q-0.3125 0.3125 -0.796875 0.3125zm10.87793 12.984375q-0.421875 0.390625 -1.0625 0.59375q-0.625 0.203125 -1.296875 0.203125q-1.578125 0 -2.4375 -0.84375q-0.84375 -0.859375 -0.84375 -2.421875l0 -6.78125l-2.015625 0l0 -1.28125l2.015625 0l0 -2.453125l1.5 0l0 2.453125l3.421875 0l0 1.28125l-3.421875 0l0 6.703125q0 1.0 0.5 1.53125q0.515625 0.515625 1.453125 0.515625q0.46875 0 0.90625 -0.15625q0.4375 -0.15625 0.75 -0.421875l0.53125 1.078125zm11.961548 -10.53125l-5.609375 12.5625q-0.671875 1.578125 -1.578125 2.234375q-0.890625 0.671875 -2.140625 0.671875q-0.8125 0 -1.515625 -0.265625q-0.703125 -0.25 -1.21875 -0.765625l0.703125 -1.125q0.859375 0.84375 2.046875 0.84375q0.765625 0 1.3125 -0.421875q0.546875 -0.421875 1.015625 -1.453125l0.484375 -1.078125l-5.015625 -11.203125l1.578125 0l4.234375 9.53125l4.21875 -9.53125l1.484375 0zm11.647888 -0.078125q2.203125 0 3.375 1.09375q1.171875 1.09375 1.171875 3.25l0 6.953125l-1.453125 0l0 -1.75q-0.515625 0.875 -1.5 1.375q-0.984375 0.484375 -2.359375 0.484375q-1.875 0 -2.984375 -0.890625q-1.109375 -0.90625 -1.109375 -2.375q0 -1.421875 1.03125 -2.296875q1.03125 -0.875 3.296875 -0.875l3.5625 0l0 -0.6875q0 -1.453125 -0.8125 -2.203125q-0.8125 -0.765625 -2.359375 -0.765625q-1.078125 0 -2.0625 0.359375q-0.96875 0.34375 -1.671875 0.96875l-0.6875 -1.140625q0.859375 -0.71875 2.046875 -1.109375q1.203125 -0.390625 2.515625 -0.390625zm-0.53125 10.203125q1.28125 0 2.1875 -0.578125q0.921875 -0.59375 1.375 -1.703125l0 -1.828125l-3.515625 0q-2.875 0 -2.875 2.0q0 0.984375 0.734375 1.546875q0.75 0.5625 2.09375 0.5625zm10.646118 -7.921875q0.53125 -1.140625 1.578125 -1.703125q1.0625 -0.578125 2.625 -0.578125l0 1.46875l-0.359375 -0.03125q-1.78125 0 -2.78125 1.09375q-1.0 1.09375 -1.0 3.046875l0 5.71875l-1.515625 0l0 -11.21875l1.453125 0l0 2.203125zm16.58783 3.875l-9.375 0q0.125 1.75 1.34375 2.828125q1.21875 1.078125 3.0625 1.078125q1.046875 0 1.921875 -0.375q0.875 -0.375 1.515625 -1.09375l0.859375 0.96875q-0.75 0.90625 -1.875 1.375q-1.109375 0.46875 -2.453125 0.46875q-1.734375 0 -3.078125 -0.734375q-1.328125 -0.734375 -2.078125 -2.03125q-0.734375 -1.3125 -0.734375 -2.953125q0 -1.640625 0.703125 -2.9375q0.71875 -1.3125 1.96875 -2.03125q1.25 -0.71875 2.8125 -0.71875q1.546875 0 2.78125 0.71875q1.25 0.71875 1.953125 2.015625q0.703125 1.296875 0.703125 2.953125l-0.03125 0.46875zm-5.40625 -4.859375q-1.625 0 -2.734375 1.03125q-1.09375 1.03125 -1.234375 2.703125l7.953125 0q-0.15625 -1.671875 -1.25 -2.703125q-1.09375 -1.03125 -2.734375 -1.03125zm18.26709 4.375l-2.640625 2.421875l0 3.203125l-1.515625 0l0 -15.828125l1.515625 0l0 10.734375l6.703125 -6.125l1.875 0l-4.796875 4.578125l5.234375 6.640625l-1.84375 0l-4.53125 -5.625zm17.979614 0.484375l-9.375 0q0.125 1.75 1.34375 2.828125q1.21875 1.078125 3.0625 1.078125q1.046875 0 1.921875 -0.375q0.875 -0.375 1.515625 -1.09375l0.859375 0.96875q-0.75 0.90625 -1.875 1.375q-1.109375 0.46875 -2.453125 0.46875q-1.734375 0 -3.078125 -0.734375q-1.328125 -0.734375 -2.078125 -2.03125q-0.734375 -1.3125 -0.734375 -2.953125q0 -1.640625 0.703125 -2.9375q0.71875 -1.3125 1.96875 -2.03125q1.25 -0.71875 2.8125 -0.71875q1.546875 0 2.78125 0.71875q1.25 0.71875 1.953125 2.015625q0.703125 1.296875 0.703125 2.953125l-0.03125 0.46875zm-5.40625 -4.859375q-1.625 0 -2.734375 1.03125q-1.09375 1.03125 -1.234375 2.703125l7.953125 0q-0.15625 -1.671875 -1.25 -2.703125q-1.09375 -1.03125 -2.734375 -1.03125zm17.731384 -1.21875l-5.609375 12.5625q-0.671875 1.578125 -1.578125 2.234375q-0.890625 0.671875 -2.140625 0.671875q-0.8125 0 -1.515625 -0.265625q-0.703125 -0.25 -1.21875 -0.765625l0.703125 -1.125q0.859375 0.84375 2.046875 0.84375q0.765625 0 1.3125 -0.421875q0.546875 -0.421875 1.015625 -1.453125l0.484375 -1.078125l-5.015625 -11.203125l1.578125 0l4.234375 9.53125l4.21875 -9.53125l1.484375 0zm13.632263 10.53125q-0.421875 0.390625 -1.0625 0.59375q-0.625 0.203125 -1.296875 0.203125q-1.578125 0 -2.4375 -0.84375q-0.84375 -0.859375 -0.84375 -2.421875l0 -6.78125l-2.015625 0l0 -1.28125l2.015625 0l0 -2.453125l1.5 0l0 2.453125l3.421875 0l0 1.28125l-3.421875 0l0 6.703125q0 1.0 0.5 1.53125q0.515625 0.515625 1.453125 0.515625q0.46875 0 0.90625 -0.15625q0.4375 -0.15625 0.75 -0.421875l0.53125 1.078125zm6.9414673 0.796875q-1.625 0 -2.9375 -0.734375q-1.296875 -0.734375 -2.046875 -2.03125q-0.734375 -1.3125 -0.734375 -2.953125q0 -1.640625 0.734375 -2.9375q0.75 -1.3125 2.046875 -2.03125q1.3125 -0.71875 2.9375 -0.71875q1.609375 0 2.90625 0.71875q1.3125 0.71875 2.046875 2.03125q0.734375 1.296875 0.734375 2.9375q0 1.640625 -0.734375 2.953125q-0.734375 1.296875 -2.046875 2.03125q-1.296875 0.734375 -2.90625 0.734375zm0 -1.34375q1.1875 0 2.140625 -0.546875q0.953125 -0.546875 1.484375 -1.546875q0.53125 -1.0 0.53125 -2.28125q0 -1.28125 -0.53125 -2.28125q-0.53125 -1.0 -1.484375 -1.546875q-0.953125 -0.546875 -2.140625 -0.546875q-1.203125 0 -2.15625 0.546875q-0.9375 0.546875 -1.484375 1.546875q-0.546875 1.0 -0.546875 2.28125q0 1.28125 0.546875 2.28125q0.546875 1.0 1.484375 1.546875q0.953125 0.546875 2.15625 0.546875zm28.367004 -10.0625q2.109375 0 3.3125 1.21875q1.203125 1.203125 1.203125 3.578125l0 6.5l-1.515625 0l0 -6.359375q0 -1.75 -0.84375 -2.65625q-0.84375 -0.921875 -2.375 -0.921875q-1.75 0 -2.75 1.078125q-1.0 1.078125 -1.0 2.96875l0 5.890625l-1.515625 0l0 -6.359375q0 -1.75 -0.84375 -2.65625q-0.84375 -0.921875 -2.40625 -0.921875q-1.71875 0 -2.734375 1.078125q-1.015625 1.078125 -1.015625 2.96875l0 5.890625l-1.515625 0l0 -11.21875l1.453125 0l0 2.046875q0.59375 -1.015625 1.65625 -1.5625q1.078125 -0.5625 2.453125 -0.5625q1.40625 0 2.4375 0.59375q1.046875 0.59375 1.5625 1.765625q0.609375 -1.109375 1.765625 -1.734375q1.171875 -0.625 2.671875 -0.625zm13.265625 11.40625q-1.625 0 -2.9375 -0.734375q-1.296875 -0.734375 -2.046875 -2.03125q-0.734375 -1.3125 -0.734375 -2.953125q0 -1.640625 0.734375 -2.9375q0.75 -1.3125 2.046875 -2.03125q1.3125 -0.71875 2.9375 -0.71875q1.609375 0 2.90625 0.71875q1.3125 0.71875 2.046875 2.03125q0.734375 1.296875 0.734375 2.9375q0 1.640625 -0.734375 2.953125q-0.734375 1.296875 -2.046875 2.03125q-1.296875 0.734375 -2.90625 0.734375zm0 -1.34375q1.1875 0 2.140625 -0.546875q0.953125 -0.546875 1.484375 -1.546875q0.53125 -1.0 0.53125 -2.28125q0 -1.28125 -0.53125 -2.28125q-0.53125 -1.0 -1.484375 -1.546875q-0.953125 -0.546875 -2.140625 -0.546875q-1.203125 0 -2.15625 0.546875q-0.9375 0.546875 -1.484375 1.546875q-0.546875 1.0 -0.546875 2.28125q0 1.28125 0.546875 2.28125q0.546875 1.0 1.484375 1.546875q0.953125 0.546875 2.15625 0.546875zm17.88092 -9.984375l-4.984375 11.21875l-1.5625 0l-4.96875 -11.21875l1.578125 0l4.203125 9.5625l4.25 -9.5625l1.484375 0zm2.1380005 0l1.515625 0l0 11.21875l-1.515625 0l0 -11.21875zm0.765625 -2.453125q-0.46875 0 -0.78125 -0.3125q-0.3125 -0.328125 -0.3125 -0.78125q0 -0.421875 0.3125 -0.734375q0.3125 -0.328125 0.78125 -0.328125q0.484375 0 0.796875 0.3125q0.3125 0.3125 0.3125 0.734375q0 0.46875 -0.3125 0.796875q-0.3125 0.3125 -0.796875 0.3125zm10.69043 2.375q2.109375 0 3.359375 1.234375q1.25 1.21875 1.25 3.5625l0 6.5l-1.515625 0l0 -6.359375q0 -1.75 -0.875 -2.65625q-0.875 -0.921875 -2.5 -0.921875q-1.8125 0 -2.875 1.078125q-1.046875 1.078125 -1.046875 2.96875l0 5.890625l-1.515625 0l0 -11.21875l1.453125 0l0 2.0625q0.625 -1.015625 1.71875 -1.578125q1.09375 -0.5625 2.546875 -0.5625zm19.153748 0.078125l0 9.859375q0 2.859375 -1.40625 4.234375q-1.390625 1.375 -4.203125 1.375q-1.5625 0 -2.96875 -0.46875q-1.390625 -0.453125 -2.265625 -1.265625l0.78125 -1.15625q0.796875 0.734375 1.953125 1.140625q1.171875 0.40625 2.453125 0.40625q2.140625 0 3.140625 -1.0q1.0 -0.984375 1.0 -3.078125l0 -1.4375q-0.703125 1.078125 -1.84375 1.640625q-1.140625 0.546875 -2.53125 0.546875q-1.578125 0 -2.875 -0.6875q-1.28125 -0.703125 -2.015625 -1.953125q-0.734375 -1.25 -0.734375 -2.828125q0 -1.578125 0.734375 -2.8125q0.734375 -1.234375 2.015625 -1.90625q1.28125 -0.6875 2.875 -0.6875q1.4375 0 2.578125 0.578125q1.15625 0.5625 1.859375 1.65625l0 -2.15625l1.453125 0zm-5.734375 9.453125q1.21875 0 2.1875 -0.515625q0.984375 -0.53125 1.53125 -1.46875q0.546875 -0.9375 0.546875 -2.140625q0 -1.1875 -0.546875 -2.109375q-0.546875 -0.9375 -1.515625 -1.453125q-0.96875 -0.53125 -2.203125 -0.53125q-1.21875 0 -2.1875 0.515625q-0.96875 0.515625 -1.515625 1.453125q-0.546875 0.9375 -0.546875 2.125q0 1.203125 0.546875 2.140625q0.546875 0.9375 1.515625 1.46875q0.96875 0.515625 2.1875 0.515625z" fill-rule="nonzero"/><path fill="#000000" fill-opacity="0.0" d="m857.49225 267.70044l5.5880127 0l0 25.999084l-5.5880127 0l0 -25.999084z" fill-rule="nonzero"/><path fill="#e3e16c" d="m520.14435 293.86615l293.6892 0l0 25.599976l-293.6892 0l0 -25.599976z" fill-rule="nonzero"/><path fill="#000000" fill-opacity="0.0" d="m520.14435 293.70044l293.6892 0l0 25.999084l-293.6892 0l0 -25.999084z" fill-rule="nonzero"/><path fill="#000000" d="m531.6756 303.12738l-5.609375 12.5625q-0.671875 1.578125 -1.578125 2.234375q-0.890625 0.671875 -2.140625 0.671875q-0.8125 0 -1.515625 -0.265625q-0.703125 -0.25 -1.21875 -0.765625l0.703125 -1.125q0.859375 0.84375 2.046875 0.84375q0.765625 0 1.3125 -0.421875q0.546875 -0.421875 1.015625 -1.453125l0.484375 -1.078125l-5.015625 -11.203125l1.578125 0l4.234375 9.53125l4.21875 -9.53125l1.484375 0zm6.411743 11.328125q-1.625 0 -2.9375 -0.734375q-1.296875 -0.734375 -2.046875 -2.03125q-0.734375 -1.3125 -0.734375 -2.953125q0 -1.640625 0.734375 -2.9375q0.75 -1.3125 2.046875 -2.03125q1.3125 -0.71875 2.9375 -0.71875q1.609375 0 2.90625 0.71875q1.3125 0.71875 2.046875 2.03125q0.734375 1.296875 0.734375 2.9375q0 1.640625 -0.734375 2.953125q-0.734375 1.296875 -2.046875 2.03125q-1.296875 0.734375 -2.90625 0.734375zm0 -1.34375q1.1875 0 2.140625 -0.546875q0.953125 -0.546875 1.484375 -1.546875q0.53125 -1.0 0.53125 -2.28125q0 -1.28125 -0.53125 -2.28125q-0.53125 -1.0 -1.484375 -1.546875q-0.953125 -0.546875 -2.140625 -0.546875q-1.203125 0 -2.15625 0.546875q-0.9375 0.546875 -1.484375 1.546875q-0.546875 1.0 -0.546875 2.28125q0 1.28125 0.546875 2.28125q0.546875 1.0 1.484375 1.546875q0.953125 0.546875 2.15625 0.546875zm18.888428 -9.984375l0 11.21875l-1.453125 0l0 -2.046875q-0.59375 1.015625 -1.640625 1.59375q-1.046875 0.5625 -2.390625 0.5625q-2.1875 0 -3.46875 -1.21875q-1.265625 -1.234375 -1.265625 -3.609375l0 -6.5l1.515625 0l0 6.359375q0 1.765625 0.875 2.6875q0.875 0.90625 2.5 0.90625q1.765625 0 2.78125 -1.0625q1.03125 -1.078125 1.03125 -3.0l0 -5.890625l1.515625 0zm5.697632 2.203125q0.53125 -1.140625 1.578125 -1.703125q1.0625 -0.578125 2.625 -0.578125l0 1.46875l-0.359375 -0.03125q-1.78125 0 -2.78125 1.09375q-1.0 1.09375 -1.0 3.046875l0 5.71875l-1.515625 0l0 -11.21875l1.453125 0l0 2.203125zm18.46875 -2.28125q1.578125 0 2.859375 0.71875q1.28125 0.703125 2.0 2.015625q0.734375 1.296875 0.734375 2.953125q0 1.65625 -0.734375 2.96875q-0.71875 1.296875 -2.0 2.03125q-1.28125 0.71875 -2.859375 0.71875q-1.40625 0 -2.53125 -0.59375q-1.109375 -0.609375 -1.796875 -1.734375l0 2.21875l-1.453125 0l0 -15.828125l1.515625 0l0 6.75q0.703125 -1.09375 1.796875 -1.65625q1.109375 -0.5625 2.46875 -0.5625zm-0.109375 10.0625q1.171875 0 2.125 -0.546875q0.96875 -0.546875 1.515625 -1.546875q0.546875 -1.0 0.546875 -2.28125q0 -1.28125 -0.546875 -2.28125q-0.546875 -1.0 -1.515625 -1.546875q-0.953125 -0.546875 -2.125 -0.546875q-1.1875 0 -2.140625 0.546875q-0.953125 0.546875 -1.5 1.546875q-0.53125 1.0 -0.53125 2.28125q0 1.28125 0.53125 2.28125q0.546875 1.0 1.5 1.546875q0.953125 0.546875 2.140625 0.546875zm18.89801 -9.984375l0 11.21875l-1.453125 0l0 -2.046875q-0.59375 1.015625 -1.640625 1.59375q-1.046875 0.5625 -2.390625 0.5625q-2.1875 0 -3.46875 -1.21875q-1.265625 -1.234375 -1.265625 -3.609375l0 -6.5l1.515625 0l0 6.359375q0 1.765625 0.875 2.6875q0.875 0.90625 2.5 0.90625q1.765625 0 2.78125 -1.0625q1.03125 -1.078125 1.03125 -3.0l0 -5.890625l1.515625 0zm7.260132 11.328125q-1.375 0 -2.625 -0.390625q-1.234375 -0.40625 -1.953125 -1.0l0.6875 -1.1875q0.703125 0.546875 1.765625 0.90625q1.078125 0.34375 2.21875 0.34375q1.546875 0 2.28125 -0.46875q0.734375 -0.484375 0.734375 -1.359375q0 -0.625 -0.40625 -0.96875q-0.40625 -0.359375 -1.03125 -0.53125q-0.609375 -0.1875 -1.640625 -0.359375q-1.359375 -0.25 -2.1875 -0.515625q-0.828125 -0.265625 -1.421875 -0.90625q-0.59375 -0.640625 -0.59375 -1.78125q0 -1.40625 1.171875 -2.296875q1.1875 -0.890625 3.265625 -0.890625q1.09375 0 2.171875 0.28125q1.09375 0.28125 1.796875 0.75l-0.65625 1.21875q-1.390625 -0.953125 -3.3125 -0.953125q-1.4375 0 -2.1875 0.515625q-0.734375 0.5 -0.734375 1.34375q0 0.640625 0.421875 1.03125q0.421875 0.375 1.03125 0.5625q0.625 0.171875 1.703125 0.359375q1.34375 0.265625 2.15625 0.515625q0.8125 0.25 1.390625 0.875q0.578125 0.609375 0.578125 1.703125q0 1.46875 -1.234375 2.34375q-1.21875 0.859375 -3.390625 0.859375zm7.4138794 -11.328125l1.515625 0l0 11.21875l-1.515625 0l0 -11.21875zm0.765625 -2.453125q-0.46875 0 -0.78125 -0.3125q-0.3125 -0.328125 -0.3125 -0.78125q0 -0.421875 0.3125 -0.734375q0.3125 -0.328125 0.78125 -0.328125q0.484375 0 0.796875 0.3125q0.3125 0.3125 0.3125 0.734375q0 0.46875 -0.3125 0.796875q-0.3125 0.3125 -0.796875 0.3125zm10.69043 2.375q2.109375 0 3.359375 1.234375q1.25 1.21875 1.25 3.5625l0 6.5l-1.515625 0l0 -6.359375q0 -1.75 -0.875 -2.65625q-0.875 -0.921875 -2.5 -0.921875q-1.8125 0 -2.875 1.078125q-1.046875 1.078125 -1.046875 2.96875l0 5.890625l-1.515625 0l0 -11.21875l1.453125 0l0 2.0625q0.625 -1.015625 1.71875 -1.578125q1.09375 -0.5625 2.546875 -0.5625zm18.528687 6.15625l-9.375 0q0.125 1.75 1.34375 2.828125q1.21875 1.078125 3.0625 1.078125q1.046875 0 1.921875 -0.375q0.875 -0.375 1.515625 -1.09375l0.859375 0.96875q-0.75 0.90625 -1.875 1.375q-1.109375 0.46875 -2.453125 0.46875q-1.734375 0 -3.078125 -0.734375q-1.328125 -0.734375 -2.078125 -2.03125q-0.734375 -1.3125 -0.734375 -2.953125q0 -1.640625 0.703125 -2.9375q0.71875 -1.3125 1.96875 -2.03125q1.25 -0.71875 2.8125 -0.71875q1.546875 0 2.78125 0.71875q1.25 0.71875 1.953125 2.015625q0.703125 1.296875 0.703125 2.953125l-0.03125 0.46875zm-5.40625 -4.859375q-1.625 0 -2.734375 1.03125q-1.09375 1.03125 -1.234375 2.703125l7.953125 0q-0.15625 -1.671875 -1.25 -2.703125q-1.09375 -1.03125 -2.734375 -1.03125zm11.538513 10.109375q-1.375 0 -2.625 -0.390625q-1.234375 -0.40625 -1.953125 -1.0l0.6875 -1.1875q0.703125 0.546875 1.765625 0.90625q1.078125 0.34375 2.21875 0.34375q1.546875 0 2.28125 -0.46875q0.734375 -0.484375 0.734375 -1.359375q0 -0.625 -0.40625 -0.96875q-0.40625 -0.359375 -1.03125 -0.53125q-0.609375 -0.1875 -1.640625 -0.359375q-1.359375 -0.25 -2.1875 -0.515625q-0.828125 -0.265625 -1.421875 -0.90625q-0.59375 -0.640625 -0.59375 -1.78125q0 -1.40625 1.171875 -2.296875q1.1875 -0.890625 3.265625 -0.890625q1.09375 0 2.171875 0.28125q1.09375 0.28125 1.796875 0.75l-0.65625 1.21875q-1.390625 -0.953125 -3.3125 -0.953125q-1.4375 0 -2.1875 0.515625q-0.734375 0.5 -0.734375 1.34375q0 0.640625 0.421875 1.03125q0.421875 0.375 1.03125 0.5625q0.625 0.171875 1.703125 0.359375q1.34375 0.265625 2.15625 0.515625q0.8125 0.25 1.390625 0.875q0.578125 0.609375 0.578125 1.703125q0 1.46875 -1.234375 2.34375q-1.21875 0.859375 -3.390625 0.859375zm10.429504 0q-1.375 0 -2.625 -0.390625q-1.234375 -0.40625 -1.953125 -1.0l0.6875 -1.1875q0.703125 0.546875 1.765625 0.90625q1.078125 0.34375 2.21875 0.34375q1.546875 0 2.28125 -0.46875q0.734375 -0.484375 0.734375 -1.359375q0 -0.625 -0.40625 -0.96875q-0.40625 -0.359375 -1.03125 -0.53125q-0.609375 -0.1875 -1.640625 -0.359375q-1.359375 -0.25 -2.1875 -0.515625q-0.828125 -0.265625 -1.421875 -0.90625q-0.59375 -0.640625 -0.59375 -1.78125q0 -1.40625 1.171875 -2.296875q1.1875 -0.890625 3.265625 -0.890625q1.09375 0 2.171875 0.28125q1.09375 0.28125 1.796875 0.75l-0.65625 1.21875q-1.390625 -0.953125 -3.3125 -0.953125q-1.4375 0 -2.1875 0.515625q-0.734375 0.5 -0.734375 1.34375q0 0.640625 0.421875 1.03125q0.421875 0.375 1.03125 0.5625q0.625 0.171875 1.703125 0.359375q1.34375 0.265625 2.15625 0.515625q0.8125 0.25 1.390625 0.875q0.578125 0.609375 0.578125 1.703125q0 1.46875 -1.234375 2.34375q-1.21875 0.859375 -3.390625 0.859375zm16.720581 -14.765625q-0.984375 0 -1.484375 0.53125q-0.5 0.53125 -0.5 1.578125l0 1.328125l3.453125 0l0 1.28125l-3.421875 0l0 9.9375l-1.5 0l0 -9.9375l-2.015625 0l0 -1.28125l2.015625 0l0 -1.390625q0 -1.53125 0.875 -2.421875q0.890625 -0.90625 2.515625 -0.90625q0.640625 0 1.234375 0.1875q0.59375 0.1875 1.0 0.515625l-0.515625 1.140625q-0.65625 -0.5625 -1.65625 -0.5625zm7.913269 14.765625q-1.625 0 -2.9375 -0.734375q-1.296875 -0.734375 -2.046875 -2.03125q-0.734375 -1.3125 -0.734375 -2.953125q0 -1.640625 0.734375 -2.9375q0.75 -1.3125 2.046875 -2.03125q1.3125 -0.71875 2.9375 -0.71875q1.609375 0 2.90625 0.71875q1.3125 0.71875 2.046875 2.03125q0.734375 1.296875 0.734375 2.9375q0 1.640625 -0.734375 2.953125q-0.734375 1.296875 -2.046875 2.03125q-1.296875 0.734375 -2.90625 0.734375zm0 -1.34375q1.1875 0 2.140625 -0.546875q0.953125 -0.546875 1.484375 -1.546875q0.53125 -1.0 0.53125 -2.28125q0 -1.28125 -0.53125 -2.28125q-0.53125 -1.0 -1.484375 -1.546875q-0.953125 -0.546875 -2.140625 -0.546875q-1.203125 0 -2.15625 0.546875q-0.9375 0.546875 -1.484375 1.546875q-0.546875 1.0 -0.546875 2.28125q0 1.28125 0.546875 2.28125q0.546875 1.0 1.484375 1.546875q0.953125 0.546875 2.15625 0.546875zm10.232178 -7.78125q0.53125 -1.140625 1.578125 -1.703125q1.0625 -0.578125 2.625 -0.578125l0 1.46875l-0.359375 -0.03125q-1.78125 0 -2.78125 1.09375q-1.0 1.09375 -1.0 3.046875l0 5.71875l-1.515625 0l0 -11.21875l1.453125 0l0 2.203125zm23.888245 -2.203125l-4.25 11.21875l-1.421875 0l-3.546875 -9.1875l-3.53125 9.1875l-1.4375 0l-4.21875 -11.21875l1.453125 0l3.515625 9.53125l3.609375 -9.53125l1.296875 0l3.578125 9.53125l3.5625 -9.53125l1.390625 0zm5.859253 -0.078125q2.203125 0 3.375 1.09375q1.171875 1.09375 1.171875 3.25l0 6.953125l-1.453125 0l0 -1.75q-0.515625 0.875 -1.5 1.375q-0.984375 0.484375 -2.359375 0.484375q-1.875 0 -2.984375 -0.890625q-1.109375 -0.90625 -1.109375 -2.375q0 -1.421875 1.03125 -2.296875q1.03125 -0.875 3.296875 -0.875l3.5625 0l0 -0.6875q0 -1.453125 -0.8125 -2.203125q-0.8125 -0.765625 -2.359375 -0.765625q-1.078125 0 -2.0625 0.359375q-0.96875 0.34375 -1.671875 0.96875l-0.6875 -1.140625q0.859375 -0.71875 2.046875 -1.109375q1.203125 -0.390625 2.515625 -0.390625zm-0.53125 10.203125q1.28125 0 2.1875 -0.578125q0.921875 -0.59375 1.375 -1.703125l0 -1.828125l-3.515625 0q-2.875 0 -2.875 2.0q0 0.984375 0.734375 1.546875q0.75 0.5625 2.09375 0.5625zm10.646179 -7.921875q0.53125 -1.140625 1.578125 -1.703125q1.0625 -0.578125 2.625 -0.578125l0 1.46875l-0.359375 -0.03125q-1.78125 0 -2.78125 1.09375q-1.0 1.09375 -1.0 3.046875l0 5.71875l-1.515625 0l0 -11.21875l1.453125 0l0 2.203125zm17.056519 -6.8125l0 15.828125l-1.4375 0l0 -2.21875q-0.6875 1.125 -1.8125 1.734375q-1.109375 0.59375 -2.53125 0.59375q-1.578125 0 -2.859375 -0.71875q-1.265625 -0.734375 -2.0 -2.03125q-0.71875 -1.3125 -0.71875 -2.96875q0 -1.65625 0.71875 -2.953125q0.734375 -1.3125 2.0 -2.015625q1.28125 -0.71875 2.859375 -0.71875q1.375 0 2.46875 0.5625q1.09375 0.5625 1.796875 1.65625l0 -6.75l1.515625 0zm-5.640625 14.59375q1.171875 0 2.109375 -0.546875q0.953125 -0.546875 1.5 -1.546875q0.546875 -1.0 0.546875 -2.28125q0 -1.28125 -0.546875 -2.28125q-0.546875 -1.0 -1.5 -1.546875q-0.9375 -0.546875 -2.109375 -0.546875q-1.203125 0 -2.15625 0.546875q-0.9375 0.546875 -1.484375 1.546875q-0.546875 1.0 -0.546875 2.28125q0 1.28125 0.546875 2.28125q0.546875 1.0 1.484375 1.546875q0.953125 0.546875 2.15625 0.546875zm10.02301 1.34375q-0.46875 0 -0.8125 -0.34375q-0.328125 -0.34375 -0.328125 -0.828125q0 -0.5 0.328125 -0.828125q0.34375 -0.328125 0.8125 -0.328125q0.46875 0 0.796875 0.328125q0.34375 0.328125 0.34375 0.828125q0 0.484375 -0.34375 0.828125q-0.328125 0.34375 -0.796875 0.34375zm10.281494 -15.046875l1.578125 0l0 13.578125l8.359375 0l0 1.359375l-9.9375 0l0 -14.9375zm21.829102 9.796875l-9.375 0q0.125 1.75 1.34375 2.828125q1.21875 1.078125 3.0625 1.078125q1.046875 0 1.921875 -0.375q0.875 -0.375 1.515625 -1.09375l0.859375 0.96875q-0.75 0.90625 -1.875 1.375q-1.109375 0.46875 -2.453125 0.46875q-1.734375 0 -3.078125 -0.734375q-1.328125 -0.734375 -2.078125 -2.03125q-0.734375 -1.3125 -0.734375 -2.953125q0 -1.640625 0.703125 -2.9375q0.71875 -1.3125 1.96875 -2.03125q1.25 -0.71875 2.8125 -0.71875q1.546875 0 2.78125 0.71875q1.25 0.71875 1.953125 2.015625q0.703125 1.296875 0.703125 2.953125l-0.03125 0.46875zm-5.40625 -4.859375q-1.625 0 -2.734375 1.03125q-1.09375 1.03125 -1.234375 2.703125l7.953125 0q-0.15625 -1.671875 -1.25 -2.703125q-1.09375 -1.03125 -2.734375 -1.03125zm14.429138 9.3125q-0.421875 0.390625 -1.0625 0.59375q-0.625 0.203125 -1.296875 0.203125q-1.578125 0 -2.4375 -0.84375q-0.84375 -0.859375 -0.84375 -2.421875l0 -6.78125l-2.015625 0l0 -1.28125l2.015625 0l0 -2.453125l1.5 0l0 2.453125l3.421875 0l0 1.28125l-3.421875 0l0 6.703125q0 1.0 0.5 1.53125q0.515625 0.515625 1.453125 0.515625q0.46875 0 0.90625 -0.15625q0.4375 -0.15625 0.75 -0.421875l0.53125 1.078125zm2.1123657 -14.25l1.34375 0l-0.109375 5.640625l-1.125 0l-0.109375 -5.640625zm7.9645386 15.046875q-1.375 0 -2.625 -0.390625q-1.234375 -0.40625 -1.953125 -1.0l0.6875 -1.1875q0.703125 0.546875 1.765625 0.90625q1.078125 0.34375 2.21875 0.34375q1.546875 0 2.28125 -0.46875q0.734375 -0.484375 0.734375 -1.359375q0 -0.625 -0.40625 -0.96875q-0.40625 -0.359375 -1.03125 -0.53125q-0.609375 -0.1875 -1.640625 -0.359375q-1.359375 -0.25 -2.1875 -0.515625q-0.828125 -0.265625 -1.421875 -0.90625q-0.59375 -0.640625 -0.59375 -1.78125q0 -1.40625 1.171875 -2.296875q1.1875 -0.890625 3.265625 -0.890625q1.09375 0 2.171875 0.28125q1.09375 0.28125 1.796875 0.75l-0.65625 1.21875q-1.390625 -0.953125 -3.3125 -0.953125q-1.4375 0 -2.1875 0.515625q-0.734375 0.5 -0.734375 1.34375q0 0.640625 0.421875 1.03125q0.421875 0.375 1.03125 0.5625q0.625 0.171875 1.703125 0.359375q1.34375 0.265625 2.15625 0.515625q0.8125 0.25 1.390625 0.875q0.578125 0.609375 0.578125 1.703125q0 1.46875 -1.234375 2.34375q-1.21875 0.859375 -3.390625 0.859375z" fill-rule="nonzero"/><path fill="#000000" fill-opacity="0.0" d="m813.83356 293.70044l5.5880127 0l0 25.999084l-5.5880127 0l0 -25.999084z" fill-rule="nonzero"/><path fill="#e3e16c" d="m520.14435 319.86615l252.0564 0l0 25.599976l-252.0564 0l0 -25.599976z" fill-rule="nonzero"/><path fill="#000000" fill-opacity="0.0" d="m520.14435 319.70044l252.0564 0l0 25.999084l-252.0564 0l0 -25.999084z" fill-rule="nonzero"/><path fill="#000000" d="m536.2537 329.04926q2.109375 0 3.3125 1.21875q1.203125 1.203125 1.203125 3.578125l0 6.5l-1.515625 0l0 -6.359375q0 -1.75 -0.84375 -2.65625q-0.84375 -0.921875 -2.375 -0.921875q-1.75 0 -2.75 1.078125q-1.0 1.078125 -1.0 2.96875l0 5.890625l-1.515625 0l0 -6.359375q0 -1.75 -0.84375 -2.65625q-0.84375 -0.921875 -2.40625 -0.921875q-1.71875 0 -2.734375 1.078125q-1.015625 1.078125 -1.015625 2.96875l0 5.890625l-1.515625 0l0 -11.21875l1.453125 0l0 2.046875q0.59375 -1.015625 1.65625 -1.5625q1.078125 -0.5625 2.453125 -0.5625q1.40625 0 2.4375 0.59375q1.046875 0.59375 1.5625 1.765625q0.609375 -1.109375 1.765625 -1.734375q1.171875 -0.625 2.671875 -0.625zm13.265625 11.40625q-1.625 0 -2.9375 -0.734375q-1.296875 -0.734375 -2.046875 -2.03125q-0.734375 -1.3125 -0.734375 -2.953125q0 -1.640625 0.734375 -2.9375q0.75 -1.3125 2.046875 -2.03125q1.3125 -0.71875 2.9375 -0.71875q1.609375 0 2.90625 0.71875q1.3125 0.71875 2.046875 2.03125q0.734375 1.296875 0.734375 2.9375q0 1.640625 -0.734375 2.953125q-0.734375 1.296875 -2.046875 2.03125q-1.296875 0.734375 -2.90625 0.734375zm0 -1.34375q1.1875 0 2.140625 -0.546875q0.953125 -0.546875 1.484375 -1.546875q0.53125 -1.0 0.53125 -2.28125q0 -1.28125 -0.53125 -2.28125q-0.53125 -1.0 -1.484375 -1.546875q-0.953125 -0.546875 -2.140625 -0.546875q-1.203125 0 -2.15625 0.546875q-0.9375 0.546875 -1.484375 1.546875q-0.546875 1.0 -0.546875 2.28125q0 1.28125 0.546875 2.28125q0.546875 1.0 1.484375 1.546875q0.953125 0.546875 2.15625 0.546875zm17.88092 -9.984375l-4.984375 11.21875l-1.5625 0l-4.96875 -11.21875l1.578125 0l4.203125 9.5625l4.25 -9.5625l1.484375 0zm11.583618 6.078125l-9.375 0q0.125 1.75 1.34375 2.828125q1.21875 1.078125 3.0625 1.078125q1.046875 0 1.921875 -0.375q0.875 -0.375 1.515625 -1.09375l0.859375 0.96875q-0.75 0.90625 -1.875 1.375q-1.109375 0.46875 -2.453125 0.46875q-1.734375 0 -3.078125 -0.734375q-1.328125 -0.734375 -2.078125 -2.03125q-0.734375 -1.3125 -0.734375 -2.953125q0 -1.640625 0.703125 -2.9375q0.71875 -1.3125 1.96875 -2.03125q1.25 -0.71875 2.8125 -0.71875q1.546875 0 2.78125 0.71875q1.25 0.71875 1.953125 2.015625q0.703125 1.296875 0.703125 2.953125l-0.03125 0.46875zm-5.40625 -4.859375q-1.625 0 -2.734375 1.03125q-1.09375 1.03125 -1.234375 2.703125l7.953125 0q-0.15625 -1.671875 -1.25 -2.703125q-1.09375 -1.03125 -2.734375 -1.03125zm17.82965 -4.65625q-0.984375 0 -1.484375 0.53125q-0.5 0.53125 -0.5 1.578125l0 1.328125l3.453125 0l0 1.28125l-3.421875 0l0 9.9375l-1.5 0l0 -9.9375l-2.015625 0l0 -1.28125l2.015625 0l0 -1.390625q0 -1.53125 0.875 -2.421875q0.890625 -0.90625 2.515625 -0.90625q0.640625 0 1.234375 0.1875q0.59375 0.1875 1.0 0.515625l-0.515625 1.140625q-0.65625 -0.5625 -1.65625 -0.5625zm7.913269 14.765625q-1.625 0 -2.9375 -0.734375q-1.296875 -0.734375 -2.046875 -2.03125q-0.734375 -1.3125 -0.734375 -2.953125q0 -1.640625 0.734375 -2.9375q0.75 -1.3125 2.046875 -2.03125q1.3125 -0.71875 2.9375 -0.71875q1.609375 0 2.90625 0.71875q1.3125 0.71875 2.046875 2.03125q0.734375 1.296875 0.734375 2.9375q0 1.640625 -0.734375 2.953125q-0.734375 1.296875 -2.046875 2.03125q-1.296875 0.734375 -2.90625 0.734375zm0 -1.34375q1.1875 0 2.140625 -0.546875q0.953125 -0.546875 1.484375 -1.546875q0.53125 -1.0 0.53125 -2.28125q0 -1.28125 -0.53125 -2.28125q-0.53125 -1.0 -1.484375 -1.546875q-0.953125 -0.546875 -2.140625 -0.546875q-1.203125 0 -2.15625 0.546875q-0.9375 0.546875 -1.484375 1.546875q-0.546875 1.0 -0.546875 2.28125q0 1.28125 0.546875 2.28125q0.546875 1.0 1.484375 1.546875q0.953125 0.546875 2.15625 0.546875zm10.232117 -7.78125q0.53125 -1.140625 1.578125 -1.703125q1.0625 -0.578125 2.625 -0.578125l0 1.46875l-0.359375 -0.03125q-1.78125 0 -2.78125 1.09375q-1.0 1.09375 -1.0 3.046875l0 5.71875l-1.515625 0l0 -11.21875l1.453125 0l0 2.203125zm23.888245 -2.203125l-4.25 11.21875l-1.421875 0l-3.546875 -9.1875l-3.53125 9.1875l-1.4375 0l-4.21875 -11.21875l1.453125 0l3.515625 9.53125l3.609375 -9.53125l1.296875 0l3.578125 9.53125l3.5625 -9.53125l1.390625 0zm5.859314 -0.078125q2.203125 0 3.375 1.09375q1.171875 1.09375 1.171875 3.25l0 6.953125l-1.453125 0l0 -1.75q-0.515625 0.875 -1.5 1.375q-0.984375 0.484375 -2.359375 0.484375q-1.875 0 -2.984375 -0.890625q-1.109375 -0.90625 -1.109375 -2.375q0 -1.421875 1.03125 -2.296875q1.03125 -0.875 3.296875 -0.875l3.5625 0l0 -0.6875q0 -1.453125 -0.8125 -2.203125q-0.8125 -0.765625 -2.359375 -0.765625q-1.078125 0 -2.0625 0.359375q-0.96875 0.34375 -1.671875 0.96875l-0.6875 -1.140625q0.859375 -0.71875 2.046875 -1.109375q1.203125 -0.390625 2.515625 -0.390625zm-0.53125 10.203125q1.28125 0 2.1875 -0.578125q0.921875 -0.59375 1.375 -1.703125l0 -1.828125l-3.515625 0q-2.875 0 -2.875 2.0q0 0.984375 0.734375 1.546875q0.75 0.5625 2.09375 0.5625zm10.646118 -7.921875q0.53125 -1.140625 1.578125 -1.703125q1.0625 -0.578125 2.625 -0.578125l0 1.46875l-0.359375 -0.03125q-1.78125 0 -2.78125 1.09375q-1.0 1.09375 -1.0 3.046875l0 5.71875l-1.515625 0l0 -11.21875l1.453125 0l0 2.203125zm17.05658 -6.8125l0 15.828125l-1.4375 0l0 -2.21875q-0.6875 1.125 -1.8125 1.734375q-1.109375 0.59375 -2.53125 0.59375q-1.578125 0 -2.859375 -0.71875q-1.265625 -0.734375 -2.0 -2.03125q-0.71875 -1.3125 -0.71875 -2.96875q0 -1.65625 0.71875 -2.953125q0.734375 -1.3125 2.0 -2.015625q1.28125 -0.71875 2.859375 -0.71875q1.375 0 2.46875 0.5625q1.09375 0.5625 1.796875 1.65625l0 -6.75l1.515625 0zm-5.640625 14.59375q1.171875 0 2.109375 -0.546875q0.953125 -0.546875 1.5 -1.546875q0.546875 -1.0 0.546875 -2.28125q0 -1.28125 -0.546875 -2.28125q-0.546875 -1.0 -1.5 -1.546875q-0.9375 -0.546875 -2.109375 -0.546875q-1.203125 0 -2.15625 0.546875q-0.9375 0.546875 -1.484375 1.546875q-0.546875 1.0 -0.546875 2.28125q0 1.28125 0.546875 2.28125q0.546875 1.0 1.484375 1.546875q0.953125 0.546875 2.15625 0.546875zm21.361023 0.546875q-0.421875 0.390625 -1.0625 0.59375q-0.625 0.203125 -1.296875 0.203125q-1.578125 0 -2.4375 -0.84375q-0.84375 -0.859375 -0.84375 -2.421875l0 -6.78125l-2.015625 0l0 -1.28125l2.015625 0l0 -2.453125l1.5 0l0 2.453125l3.421875 0l0 1.28125l-3.421875 0l0 6.703125q0 1.0 0.5 1.53125q0.515625 0.515625 1.453125 0.515625q0.46875 0 0.90625 -0.15625q0.4375 -0.15625 0.75 -0.421875l0.53125 1.078125zm6.9414062 0.796875q-1.625 0 -2.9375 -0.734375q-1.296875 -0.734375 -2.046875 -2.03125q-0.734375 -1.3125 -0.734375 -2.953125q0 -1.640625 0.734375 -2.9375q0.75 -1.3125 2.046875 -2.03125q1.3125 -0.71875 2.9375 -0.71875q1.609375 0 2.90625 0.71875q1.3125 0.71875 2.046875 2.03125q0.734375 1.296875 0.734375 2.9375q0 1.640625 -0.734375 2.953125q-0.734375 1.296875 -2.046875 2.03125q-1.296875 0.734375 -2.90625 0.734375zm0 -1.34375q1.1875 0 2.140625 -0.546875q0.953125 -0.546875 1.484375 -1.546875q0.53125 -1.0 0.53125 -2.28125q0 -1.28125 -0.53125 -2.28125q-0.53125 -1.0 -1.484375 -1.546875q-0.953125 -0.546875 -2.140625 -0.546875q-1.203125 0 -2.15625 0.546875q-0.9375 0.546875 -1.484375 1.546875q-0.546875 1.0 -0.546875 2.28125q0 1.28125 0.546875 2.28125q0.546875 1.0 1.484375 1.546875q0.953125 0.546875 2.15625 0.546875zm19.169678 -9.984375l0 9.859375q0 2.859375 -1.40625 4.234375q-1.390625 1.375 -4.203125 1.375q-1.5625 0 -2.96875 -0.46875q-1.390625 -0.453125 -2.265625 -1.265625l0.78125 -1.15625q0.796875 0.734375 1.953125 1.140625q1.171875 0.40625 2.453125 0.40625q2.140625 0 3.140625 -1.0q1.0 -0.984375 1.0 -3.078125l0 -1.4375q-0.703125 1.078125 -1.84375 1.640625q-1.140625 0.546875 -2.53125 0.546875q-1.578125 0 -2.875 -0.6875q-1.28125 -0.703125 -2.015625 -1.953125q-0.734375 -1.25 -0.734375 -2.828125q0 -1.578125 0.734375 -2.8125q0.734375 -1.234375 2.015625 -1.90625q1.28125 -0.6875 2.875 -0.6875q1.4375 0 2.578125 0.578125q1.15625 0.5625 1.859375 1.65625l0 -2.15625l1.453125 0zm-5.734375 9.453125q1.21875 0 2.1875 -0.515625q0.984375 -0.53125 1.53125 -1.46875q0.546875 -0.9375 0.546875 -2.140625q0 -1.1875 -0.546875 -2.109375q-0.546875 -0.9375 -1.515625 -1.453125q-0.96875 -0.53125 -2.203125 -0.53125q-1.21875 0 -2.1875 0.515625q-0.96875 0.515625 -1.515625 1.453125q-0.546875 0.9375 -0.546875 2.125q0 1.203125 0.546875 2.140625q0.546875 0.9375 1.515625 1.46875q0.96875 0.515625 2.1875 0.515625zm19.740479 -3.375l-9.375 0q0.125 1.75 1.34375 2.828125q1.21875 1.078125 3.0625 1.078125q1.046875 0 1.921875 -0.375q0.875 -0.375 1.515625 -1.09375l0.859375 0.96875q-0.75 0.90625 -1.875 1.375q-1.109375 0.46875 -2.453125 0.46875q-1.734375 0 -3.078125 -0.734375q-1.328125 -0.734375 -2.078125 -2.03125q-0.734375 -1.3125 -0.734375 -2.953125q0 -1.640625 0.703125 -2.9375q0.71875 -1.3125 1.96875 -2.03125q1.25 -0.71875 2.8125 -0.71875q1.546875 0 2.78125 0.71875q1.25 0.71875 1.953125 2.015625q0.703125 1.296875 0.703125 2.953125l-0.03125 0.46875zm-5.40625 -4.859375q-1.625 0 -2.734375 1.03125q-1.09375 1.03125 -1.234375 2.703125l7.953125 0q-0.15625 -1.671875 -1.25 -2.703125q-1.09375 -1.03125 -2.734375 -1.03125zm14.429138 9.3125q-0.421875 0.390625 -1.0625 0.59375q-0.625 0.203125 -1.296875 0.203125q-1.578125 0 -2.4375 -0.84375q-0.84375 -0.859375 -0.84375 -2.421875l0 -6.78125l-2.015625 0l0 -1.28125l2.015625 0l0 -2.453125l1.5 0l0 2.453125l3.421875 0l0 1.28125l-3.421875 0l0 6.703125q0 1.0 0.5 1.53125q0.515625 0.515625 1.453125 0.515625q0.46875 0 0.90625 -0.15625q0.4375 -0.15625 0.75 -0.421875l0.53125 1.078125zm8.471741 -10.609375q2.109375 0 3.359375 1.234375q1.25 1.21875 1.25 3.5625l0 6.5l-1.515625 0l0 -6.359375q0 -1.75 -0.875 -2.65625q-0.875 -0.921875 -2.5 -0.921875q-1.8125 0 -2.875 1.078125q-1.046875 1.078125 -1.046875 2.96875l0 5.890625l-1.515625 0l0 -15.828125l1.515625 0l0 6.578125q0.625 -0.984375 1.703125 -1.515625q1.09375 -0.53125 2.5 -0.53125zm18.528748 6.15625l-9.375 0q0.125 1.75 1.34375 2.828125q1.21875 1.078125 3.0625 1.078125q1.046875 0 1.921875 -0.375q0.875 -0.375 1.515625 -1.09375l0.859375 0.96875q-0.75 0.90625 -1.875 1.375q-1.109375 0.46875 -2.453125 0.46875q-1.734375 0 -3.078125 -0.734375q-1.328125 -0.734375 -2.078125 -2.03125q-0.734375 -1.3125 -0.734375 -2.953125q0 -1.640625 0.703125 -2.9375q0.71875 -1.3125 1.96875 -2.03125q1.25 -0.71875 2.8125 -0.71875q1.546875 0 2.78125 0.71875q1.25 0.71875 1.953125 2.015625q0.703125 1.296875 0.703125 2.953125l-0.03125 0.46875zm-5.40625 -4.859375q-1.625 0 -2.734375 1.03125q-1.09375 1.03125 -1.234375 2.703125l7.953125 0q-0.15625 -1.671875 -1.25 -2.703125q-1.09375 -1.03125 -2.734375 -1.03125zm9.975952 0.984375q0.53125 -1.140625 1.578125 -1.703125q1.0625 -0.578125 2.625 -0.578125l0 1.46875l-0.359375 -0.03125q-1.78125 0 -2.78125 1.09375q-1.0 1.09375 -1.0 3.046875l0 5.71875l-1.515625 0l0 -11.21875l1.453125 0l0 2.203125zm7.0424194 9.125q-0.46875 0 -0.8125 -0.34375q-0.328125 -0.34375 -0.328125 -0.828125q0 -0.5 0.328125 -0.828125q0.34375 -0.328125 0.8125 -0.328125q0.46875 0 0.796875 0.328125q0.34375 0.328125 0.34375 0.828125q0 0.484375 -0.34375 0.828125q-0.328125 0.34375 -0.796875 0.34375z" fill-rule="nonzero"/><path fill="#000000" fill-opacity="0.0" d="m772.20074 319.70044l0 0l0 25.999084l0 0l0 -25.999084z" fill-rule="nonzero"/></g></svg>