<svg version="1.1" viewBox="0.0 0.0 960.0 540.0" fill="none" stroke="none" stroke-linecap="square" stroke-miterlimit="10" xmlns:xlink="http://www.w3.org/1999/xlink" xmlns="http://www.w3.org/2000/svg"><clipPath id="g75e3084146_0_76.0"><path d="m0 0l960.0 0l0 540.0l-960.0 0l0 -540.0z" clip-rule="nonzero"/></clipPath><g clip-path="url(#g75e3084146_0_76.0)"><path fill="#ffffff" d="m0 0l960.0 0l0 540.0l-960.0 0z" fill-rule="evenodd"/><path fill="#000000" fill-opacity="0.0" d="m130.66142 94.0l283.62207 0l0 352.0l-283.62207 0z" fill-rule="evenodd"/><path fill="#000000" d="m153.50517 124.710625l-13.609375 0l0 -6.453125l34.84375 0l0 6.453125l-13.609375 0l0 34.609383l-7.625 0l0 -34.609383zm44.04541 2.9375q5.921875 0 9.5 3.4687576q3.578125 3.453125 3.578125 10.25l0 17.953125l-7.328125 0l0 -17.015625q0 -4.09375 -1.9375 -6.171875q-1.9375 -2.09375 -5.515625 -2.09375q-4.046875 0 -6.390625 2.4375q-2.34375 2.4375 -2.34375 7.0l0 15.84375l-7.328125 0l0 -43.515633l7.328125 0l0 15.828133q1.8125 -1.9375 4.484375 -2.953125q2.671875 -1.0312576 5.953125 -1.0312576zm52.144714 16.187508q0 0.765625 -0.109375 2.171875l-24.578125 0q0.640625 3.453125 3.359375 5.484375q2.734375 2.015625 6.78125 2.015625q5.171875 0 8.515625 -3.390625l3.921875 4.515625q-2.109375 2.515625 -5.34375 3.8125q-3.21875 1.28125 -7.265625 1.28125q-5.15625 0 -9.09375 -2.046875q-3.921875 -2.0625 -6.0625 -5.71875q-2.140625 -3.671875 -2.140625 -8.296875q0 -4.578125 2.078125 -8.234375q2.078125 -3.671875 5.765625 -5.71875q3.703125 -2.0625076 8.34375 -2.0625076q4.578125 0 8.171875 2.0312576q3.609375 2.015625 5.625 5.6875q2.03125 3.65625 2.03125 8.46875zm-15.828125 -10.328125q-3.515625 0 -5.953125 2.09375q-2.4375 2.078125 -2.96875 5.53125l17.78125 0q-0.46875 -3.390625 -2.875 -5.5q-2.40625 -2.125 -5.984375 -2.125z" fill-rule="nonzero"/><path fill="#000000" d="m173.80205 197.99188l-14.671875 33.84375q-2.046875 5.109375 -4.984375 7.1875q-2.921875 2.09375 -7.09375 2.09375q-2.34375 0 -4.640625 -0.765625q-2.28125 -0.765625 -3.75 -2.109375l2.9375 -5.40625q1.046875 1.0 2.484375 1.578125q1.4375 0.59375 2.90625 0.59375q1.9375 0 3.203125 -1.0q1.265625 -0.984375 2.3125 -3.34375l0.53125 -1.21875l-13.671875 -31.453125l7.625 0l9.859375 23.171875l9.90625 -23.171875l7.046875 0zm4.575165 0l7.328125 0l0 31.328125l-7.328125 0l0 -31.328125zm3.703125 -5.15625q-2.0 0 -3.359375 -1.25q-1.34375 -1.265625 -1.34375 -3.15625q0 -1.875 1.34375 -3.125q1.359375 -1.265625 3.359375 -1.265625q1.984375 0 3.328125 1.203125q1.359375 1.203125 1.359375 3.015625q0 1.9375 -1.328125 3.265625q-1.3125 1.3125 -3.359375 1.3125zm42.68602 21.0q0 0.765625 -0.109375 2.171875l-24.578125 0q0.640625 3.453125 3.359375 5.484375q2.734375 2.015625 6.78125 2.015625q5.171875 0 8.515625 -3.390625l3.921875 4.515625q-2.109375 2.515625 -5.34375 3.8125q-3.21875 1.28125 -7.265625 1.28125q-5.15625 0 -9.09375 -2.046875q-3.921875 -2.0625 -6.0625 -5.71875q-2.140625 -3.671875 -2.140625 -8.296875q0 -4.578125 2.078125 -8.234375q2.078125 -3.671875 5.765625 -5.71875q3.703125 -2.0625 8.34375 -2.0625q4.578125 0 8.171875 2.03125q3.609375 2.015625 5.625 5.6875q2.03125 3.65625 2.03125 8.46875zm-15.828125 -10.328125q-3.515625 0 -5.953125 2.09375q-2.4375 2.078125 -2.96875 5.53125l17.78125 0q-0.46875 -3.390625 -2.875 -5.5q-2.40625 -2.125 -5.984375 -2.125zm22.874786 -17.703125l7.328125 0l0 43.515625l-7.328125 0l0 -43.515625zm47.623505 0l0 43.515625l-7.03125 0l0 -4.046875q-1.828125 2.234375 -4.5 3.34375q-2.65625 1.109375 -5.890625 1.109375q-4.515625 0 -8.124985 -1.984375q-3.609375 -2.0 -5.65625 -5.65625q-2.046875 -3.671875 -2.046875 -8.421875q0 -4.75 2.046875 -8.390625q2.046875 -3.640625 5.65625 -5.625q3.6093597 -2.0 8.124985 -2.0q3.109375 0 5.6875 1.0625q2.59375 1.046875 4.40625 3.15625l0 -16.0625l7.328125 0zm-16.53125 37.65625q2.625 0 4.734375 -1.203125q2.125 -1.203125 3.34375 -3.4375q1.234375 -2.234375 1.234375 -5.15625q0 -2.9375 -1.234375 -5.15625q-1.21875 -2.234375 -3.34375 -3.4375q-2.109375 -1.203125 -4.734375 -1.203125q-2.640625 0 -4.765625 1.203125q-2.109375 1.203125 -3.3437347 3.4375q-1.21875 2.21875 -1.21875 5.15625q0 2.921875 1.21875 5.15625q1.2343597 2.234375 3.3437347 3.4375q2.125 1.203125 4.765625 1.203125zm35.828064 6.265625q-3.8125 0 -7.453125 -0.984375q-3.625 -1.0 -5.796875 -2.53125l2.8125 -5.578125q2.109375 1.421875 5.0625 2.265625q2.96875 0.84375 5.84375 0.84375q6.578125 0 6.578125 -3.453125q0 -1.640625 -1.671875 -2.28125q-1.671875 -0.65625 -5.375 -1.234375q-3.875 -0.59375 -6.3125 -1.34375q-2.421875 -0.765625 -4.21875 -2.671875q-1.78125 -1.921875 -1.78125 -5.3125q0 -4.46875 3.71875 -7.125q3.734375 -2.671875 10.0625 -2.671875q3.234375 0 6.453125 0.734375q3.21875 0.734375 5.28125 1.96875l-2.8125 5.5625q-4.0 -2.34375 -8.984375 -2.34375q-3.21875 0 -4.890625 0.96875q-1.671875 0.96875 -1.671875 2.546875q0 1.765625 1.78125 2.5q1.796875 0.734375 5.546875 1.375q3.75 0.59375 6.15625 1.359375q2.40625 0.75 4.140625 2.578125q1.734375 1.8125 1.734375 5.15625q0 4.390625 -3.8125 7.03125q-3.8125 2.640625 -10.390625 2.640625z" fill-rule="nonzero"/><path fill="#000000" d="m158.55205 299.72626q-4.75 0 -8.5625 -2.046875q-3.8125 -2.0625 -5.953125 -5.71875q-2.140625 -3.671875 -2.140625 -8.296875q0 -4.640625 2.140625 -8.265625q2.140625 -3.640625 5.953125 -5.6875q3.8125 -2.0625 8.5625 -2.0625q4.8125 0 8.625 2.0625q3.8125 2.046875 5.953125 5.6875q2.140625 3.625 2.140625 8.265625q0 4.625 -2.140625 8.296875q-2.140625 3.65625 -5.953125 5.71875q-3.8125 2.046875 -8.625 2.046875zm0 -6.265625q4.046875 0 6.6875 -2.703125q2.640625 -2.703125 2.640625 -7.09375q0 -4.40625 -2.640625 -7.09375q-2.640625 -2.703125 -6.6875 -2.703125q-4.046875 0 -6.65625 2.703125q-2.609375 2.6875 -2.609375 7.09375q0 4.390625 2.609375 7.09375q2.609375 2.703125 6.65625 2.703125zm54.083252 -25.46875l0 31.328125l-6.984375 0l0 -3.984375q-1.765625 2.109375 -4.40625 3.25q-2.640625 1.140625 -5.6875 1.140625q-6.265625 0 -9.875 -3.484375q-3.609375 -3.484375 -3.609375 -10.359375l0 -17.890625l7.328125 0l0 16.90625q0 4.21875 1.90625 6.296875q1.90625 2.078125 5.421875 2.078125q3.9375 0 6.25 -2.421875q2.3125 -2.4375 2.3125 -7.015625l0 -15.84375l7.34375 0zm16.601135 4.578125q3.15625 -4.921875 11.140625 -4.921875l0 6.984375q-0.9375 -0.1875 -1.703125 -0.1875q-4.28125 0 -6.6875 2.5q-2.40625 2.484375 -2.40625 7.1875l0 15.1875l-7.328125 0l0 -31.328125l6.984375 0l0 4.578125z" fill-rule="nonzero"/><path fill="#000000" d="m193.3333 337.99188l-11.5625 31.328125l-7.03125 0l-8.09375 -21.578125l-8.21875 21.578125l-7.03125 0l-11.5 -31.328125l6.921875 0l8.265625 23.109375l8.625 -23.109375l6.15625 0l8.453125 23.234375l8.5 -23.234375l6.515625 0zm18.243805 31.734375q-4.75 0 -8.5625 -2.046875q-3.8125 -2.0625 -5.953125 -5.71875q-2.140625 -3.671875 -2.140625 -8.296875q0 -4.640625 2.140625 -8.265625q2.140625 -3.640625 5.953125 -5.6875q3.8125 -2.0625 8.5625 -2.0625q4.8125 0 8.625 2.0625q3.8125 2.046875 5.953125 5.6875q2.140625 3.625 2.140625 8.265625q0 4.625 -2.140625 8.296875q-2.140625 3.65625 -5.953125 5.71875q-3.8125 2.046875 -8.625 2.046875zm0 -6.265625q4.046875 0 6.6875 -2.703125q2.640625 -2.703125 2.640625 -7.09375q0 -4.40625 -2.640625 -7.09375q-2.640625 -2.703125 -6.6875 -2.703125q-4.046875 0 -6.65625 2.703125q-2.609375 2.6875 -2.609375 7.09375q0 4.390625 2.609375 7.09375q2.609375 2.703125 6.65625 2.703125zm30.739502 -20.890625q3.15625 -4.921875 11.140625 -4.921875l0 6.984375q-0.9375 -0.1875 -1.703125 -0.1875q-4.28125 0 -6.6875 2.5q-2.40625 2.484375 -2.40625 7.1875l0 15.1875l-7.328125 0l0 -31.328125l6.984375 0l0 4.578125zm17.357895 -16.765625l7.328125 0l0 43.515625l-7.328125 0l0 -43.515625zm47.623505 0l0 43.515625l-7.03125 0l0 -4.046875q-1.828125 2.234375 -4.5 3.34375q-2.65625 1.109375 -5.890625 1.109375q-4.515625 0 -8.125 -1.984375q-3.609375 -2.0 -5.65625 -5.65625q-2.046875 -3.671875 -2.046875 -8.421875q0 -4.75 2.046875 -8.390625q2.046875 -3.640625 5.65625 -5.625q3.609375 -2.0 8.125 -2.0q3.109375 0 5.6875 1.0625q2.59375 1.046875 4.40625 3.15625l0 -16.0625l7.328125 0zm-16.53125 37.65625q2.625 0 4.734375 -1.203125q2.125 -1.203125 3.34375 -3.4375q1.234375 -2.234375 1.234375 -5.15625q0 -2.9375 -1.234375 -5.15625q-1.21875 -2.234375 -3.34375 -3.4375q-2.109375 -1.203125 -4.734375 -1.203125q-2.640625 0 -4.765625 1.203125q-2.109375 1.203125 -3.34375 3.4375q-1.21875 2.21875 -1.21875 5.15625q0 2.921875 1.21875 5.15625q1.234375 2.234375 3.34375 3.4375q2.125 1.203125 4.765625 1.203125z" fill-rule="nonzero"/><path fill="#000000" d="m162.23955 407.64813q5.921875 0 9.5 3.46875q3.578125 3.453125 3.578125 10.25l0 17.953125l-7.328125 0l0 -17.015625q0 -4.09375 -1.9375 -6.171875q-1.9375 -2.09375 -5.515625 -2.09375q-4.046875 0 -6.390625 2.4375q-2.34375 2.4375 -2.34375 7.0l0 15.84375l-7.328125 0l0 -31.328125l6.984375 0l0 4.046875q1.8125 -2.171875 4.5625 -3.28125q2.765625 -1.109375 6.21875 -1.109375zm52.144714 16.1875q0 0.765625 -0.109375 2.171875l-24.578125 0q0.640625 3.453125 3.359375 5.484375q2.734375 2.015625 6.78125 2.015625q5.171875 0 8.515625 -3.390625l3.921875 4.515625q-2.109375 2.515625 -5.34375 3.8125q-3.21875 1.28125 -7.265625 1.28125q-5.15625 0 -9.09375 -2.046875q-3.921875 -2.0625 -6.0625 -5.71875q-2.140625 -3.671875 -2.140625 -8.296875q0 -4.578125 2.078125 -8.234375q2.078125 -3.671875 5.765625 -5.71875q3.703125 -2.0625 8.34375 -2.0625q4.578125 0 8.171875 2.03125q3.609375 2.015625 5.625 5.6875q2.03125 3.65625 2.03125 8.46875zm-15.828125 -10.328125q-3.515625 0 -5.953125 2.09375q-2.4375 2.078125 -2.96875 5.53125l17.78125 0q-0.46875 -3.390625 -2.875 -5.5q-2.40625 -2.125 -5.984375 -2.125zm52.312286 10.328125q0 0.765625 -0.109375 2.171875l-24.578125 0q0.640625 3.453125 3.359375 5.484375q2.734375 2.015625 6.78125 2.015625q5.171875 0 8.515625 -3.390625l3.921875 4.515625q-2.109375 2.515625 -5.34375 3.8125q-3.21875 1.28125 -7.265625 1.28125q-5.15625 0 -9.09375 -2.046875q-3.921875 -2.0625 -6.0625 -5.71875q-2.140625 -3.671875 -2.140625 -8.296875q0 -4.578125 2.078125 -8.234375q2.078125 -3.671875 5.765625 -5.71875q3.703125 -2.0625 8.34375 -2.0625q4.578125 0 8.171875 2.03125q3.609375 2.015625 5.625 5.6875q2.03125 3.65625 2.03125 8.46875zm-15.828125 -10.328125q-3.515625 0 -5.953125 2.09375q-2.4375 2.078125 -2.96875 5.53125l17.78125 0q-0.46875 -3.390625 -2.875 -5.5q-2.40625 -2.125 -5.984375 -2.125zm53.546646 -17.703125l0 43.515625l-7.03125 0l0 -4.046875q-1.828125 2.234375 -4.5 3.34375q-2.65625 1.109375 -5.890625 1.109375q-4.515625 0 -8.125 -1.984375q-3.609375 -2.0 -5.65625 -5.65625q-2.0468597 -3.671875 -2.0468597 -8.421875q0 -4.75 2.0468597 -8.390625q2.046875 -3.640625 5.65625 -5.625q3.609375 -2.0 8.125 -2.0q3.109375 0 5.6875 1.0625q2.59375 1.046875 4.40625 3.15625l0 -16.0625l7.328125 0zm-16.53125 37.65625q2.625 0 4.734375 -1.203125q2.125 -1.203125 3.34375 -3.4375q1.234375 -2.234375 1.234375 -5.15625q0 -2.9375 -1.234375 -5.15625q-1.21875 -2.234375 -3.34375 -3.4375q-2.109375 -1.203125 -4.734375 -1.203125q-2.640625 0 -4.765625 1.203125q-2.109375 1.203125 -3.34375 3.4375q-1.21875 2.21875 -1.21875 5.15625q0 2.921875 1.21875 5.15625q1.234375 2.234375 3.34375 3.4375q2.125 1.203125 4.765625 1.203125zm35.828064 6.265625q-3.8125 0 -7.453125 -0.984375q-3.625 -1.0 -5.796875 -2.53125l2.8125 -5.578125q2.109375 1.421875 5.0625 2.265625q2.96875 0.84375 5.84375 0.84375q6.578125 0 6.578125 -3.453125q0 -1.640625 -1.671875 -2.28125q-1.671875 -0.65625 -5.375 -1.234375q-3.875 -0.59375 -6.3125 -1.34375q-2.421875 -0.765625 -4.21875 -2.671875q-1.78125 -1.921875 -1.78125 -5.3125q0 -4.46875 3.71875 -7.125q3.734375 -2.671875 10.0625 -2.671875q3.234375 0 6.453125 0.734375q3.21875 0.734375 5.28125 1.96875l-2.8125 5.5625q-4.0 -2.34375 -8.984375 -2.34375q-3.21875 0 -4.890625 0.96875q-1.671875 0.96875 -1.671875 2.546875q0 1.765625 1.78125 2.5q1.796875 0.734375 5.546875 1.375q3.75 0.59375 6.15625 1.359375q2.40625 0.75 4.140625 2.578125q1.734375 1.8125 1.734375 5.15625q0 4.390625 -3.8125 7.03125q-3.8125 2.640625 -10.390625 2.640625zm22.879822 0q-2.0 0 -3.40625 -1.375q-1.40625 -1.375 -1.40625 -3.484375q0 -2.171875 1.375 -3.515625q1.390625 -1.359375 3.4375 -1.359375q2.046875 0 3.421875 1.359375q1.390625 1.34375 1.390625 3.515625q0 2.109375 -1.40625 3.484375q-1.40625 1.375 -3.40625 1.375z" fill-rule="nonzero"/><path fill="#000000" fill-opacity="0.0" d="m497.52493 210.31496l339.18112 0l0 119.37007l-339.18112 0z" fill-rule="evenodd"/><path fill="#e3e16c" d="m506.52493 219.31496l308.91678 0l0 27.199997l-308.91678 0l0 -27.199997z" fill-rule="nonzero"/><path fill="#000000" fill-opacity="0.0" d="m506.52493 219.14375l308.91678 0l0 27.61792l-308.91678 0l0 -27.61792z" fill-rule="nonzero"/><path fill="#000000" d="m510.79056 226.66872l0 6.234375l8.1875305 0l0 1.4375l-8.1875305 0l0 6.734375l-1.6875 0l0 -15.859375l10.8750305 0l0 1.453125l-9.1875305 0zm16.006012 2.40625q2.34375 0 3.578125 1.171875q1.25 1.15625 1.25 3.4375l0 7.390625l-1.53125 0l0 -1.859375q-0.546875 0.9375 -1.609375 1.453125q-1.046875 0.515625 -2.5 0.515625q-1.984375 0 -3.171875 -0.953125q-1.171875 -0.953125 -1.171875 -2.515625q0 -1.515625 1.09375 -2.4375q1.09375 -0.9375 3.5 -0.9375l3.78125 0l0 -0.71875q0 -1.546875 -0.859375 -2.34375q-0.859375 -0.8125 -2.515625 -0.8125q-1.125 0 -2.171875 0.375q-1.046875 0.375 -1.796875 1.03125l-0.71875 -1.203125q0.90625 -0.765625 2.171875 -1.171875q1.265625 -0.421875 2.671875 -0.421875zm-0.5625 10.84375q1.359375 0 2.328125 -0.625q0.984375 -0.625 1.453125 -1.796875l0 -1.953125l-3.734375 0q-3.0625 0 -3.0625 2.140625q0 1.03125 0.796875 1.640625q0.796875 0.59375 2.21875 0.59375zm11.304626 -8.421875q0.5625 -1.203125 1.6875 -1.8125q1.125 -0.609375 2.78125 -0.609375l0 1.5625l-0.390625 -0.03125q-1.875 0 -2.953125 1.15625q-1.0625 1.15625 -1.0625 3.234375l0 6.078125l-1.59375 0l0 -11.921875l1.53125 0l0 2.34375zm22.231934 -2.421875q2.234375 0 3.515625 1.296875q1.28125 1.28125 1.28125 3.796875l0 6.90625l-1.609375 0l0 -6.75q0 -1.859375 -0.890625 -2.828125q-0.890625 -0.984375 -2.53125 -0.984375q-1.859375 0 -2.921875 1.15625q-1.0625 1.140625 -1.0625 3.15625l0 6.25l-1.609375 0l0 -6.75q0 -1.859375 -0.890625 -2.828125q-0.890625 -0.984375 -2.546875 -0.984375q-1.84375 0 -2.921875 1.15625q-1.078125 1.140625 -1.078125 3.15625l0 6.25l-1.59375 0l0 -11.921875l1.53125 0l0 2.1875q0.640625 -1.09375 1.765625 -1.671875q1.140625 -0.59375 2.609375 -0.59375q1.5 0 2.59375 0.640625q1.09375 0.625 1.640625 1.859375q0.65625 -1.171875 1.890625 -1.828125q1.234375 -0.671875 2.828125 -0.671875zm19.599182 6.546875l-9.96875 0q0.125 1.84375 1.421875 3.0q1.296875 1.140625 3.265625 1.140625q1.109375 0 2.03125 -0.390625q0.9375 -0.40625 1.609375 -1.171875l0.90625 1.046875q-0.796875 0.9375 -1.984375 1.4375q-1.1875 0.5 -2.609375 0.5q-1.84375 0 -3.265625 -0.78125q-1.40625 -0.78125 -2.203125 -2.15625q-0.78125 -1.390625 -0.78125 -3.125q0 -1.75 0.75 -3.125q0.765625 -1.390625 2.078125 -2.15625q1.328125 -0.765625 2.984375 -0.765625q1.65625 0 2.96875 0.765625q1.3125 0.765625 2.0625 2.140625q0.75 1.375 0.75 3.140625l-0.015625 0.5zm-5.765625 -5.171875q-1.71875 0 -2.890625 1.109375q-1.15625 1.09375 -1.3125 2.859375l8.4375 0q-0.15625 -1.765625 -1.328125 -2.859375q-1.15625 -1.109375 -2.90625 -1.109375zm10.606262 1.046875q0.5625 -1.203125 1.6875 -1.8125q1.125 -0.609375 2.78125 -0.609375l0 1.5625l-0.390625 -0.03125q-1.875 0 -2.953125 1.15625q-1.0625 1.15625 -1.0625 3.234375l0 6.078125l-1.59375 0l0 -11.921875l1.53125 0l0 2.34375zm10.650696 9.6875q-1.453125 0 -2.78125 -0.40625q-1.3125 -0.421875 -2.0625 -1.0625l0.71875 -1.265625q0.75 0.59375 1.875 0.96875q1.140625 0.359375 2.359375 0.359375q1.640625 0 2.421875 -0.5q0.78125 -0.515625 0.78125 -1.4375q0 -0.65625 -0.4375 -1.03125q-0.421875 -0.375 -1.09375 -0.5625q-0.65625 -0.203125 -1.734375 -0.375q-1.453125 -0.28125 -2.34375 -0.5625q-0.875 -0.28125 -1.5 -0.953125q-0.625 -0.6875 -0.625 -1.890625q0 -1.5 1.25 -2.4375q1.25 -0.953125 3.46875 -0.953125q1.15625 0 2.3125 0.3125q1.15625 0.296875 1.90625 0.796875l-0.703125 1.28125q-1.484375 -1.015625 -3.515625 -1.015625q-1.546875 0 -2.328125 0.546875q-0.78125 0.546875 -0.78125 1.421875q0 0.6875 0.4375 1.09375q0.453125 0.40625 1.109375 0.59375q0.65625 0.1875 1.8125 0.40625q1.421875 0.265625 2.28125 0.546875q0.859375 0.265625 1.46875 0.921875q0.625 0.65625 0.625 1.8125q0 1.5625 -1.3125 2.484375q-1.296875 0.90625 -3.609375 0.90625zm17.764832 -15.671875q-1.046875 0 -1.578125 0.5625q-0.53125 0.5625 -0.53125 1.671875l0 1.40625l3.671875 0l0 1.359375l-3.625 0l0 10.5625l-1.609375 0l0 -10.5625l-2.125 0l0 -1.359375l2.125 0l0 -1.46875q0 -1.625 0.9375 -2.578125q0.9375 -0.953125 2.65625 -0.953125q0.6875 0 1.3125 0.203125q0.640625 0.1875 1.078125 0.546875l-0.546875 1.203125q-0.703125 -0.59375 -1.765625 -0.59375zm7.6725464 3.5625q2.34375 0 3.578125 1.171875q1.25 1.15625 1.25 3.4375l0 7.390625l-1.53125 0l0 -1.859375q-0.546875 0.9375 -1.609375 1.453125q-1.046875 0.515625 -2.5 0.515625q-1.984375 0 -3.171875 -0.953125q-1.171875 -0.953125 -1.171875 -2.515625q0 -1.515625 1.09375 -2.4375q1.09375 -0.9375 3.5 -0.9375l3.78125 0l0 -0.71875q0 -1.546875 -0.859375 -2.34375q-0.859375 -0.8125 -2.515625 -0.8125q-1.125 0 -2.171875 0.375q-1.046875 0.375 -1.796875 1.03125l-0.71875 -1.203125q0.90625 -0.765625 2.171875 -1.171875q1.265625 -0.421875 2.671875 -0.421875zm-0.5625 10.84375q1.359375 0 2.328125 -0.625q0.984375 -0.625 1.453125 -1.796875l0 -1.953125l-3.734375 0q-3.0625 0 -3.0625 2.140625q0 1.03125 0.796875 1.640625q0.796875 0.59375 2.21875 0.59375zm14.756226 1.265625q-1.765625 0 -3.171875 -0.765625q-1.390625 -0.765625 -2.1875 -2.15625q-0.78125 -1.40625 -0.78125 -3.140625q0 -1.75 0.78125 -3.125q0.796875 -1.390625 2.1875 -2.15625q1.40625 -0.765625 3.171875 -0.765625q1.53125 0 2.734375 0.59375q1.21875 0.59375 1.921875 1.75l-1.203125 0.828125q-0.578125 -0.890625 -1.484375 -1.328125q-0.90625 -0.453125 -1.96875 -0.453125q-1.296875 0 -2.328125 0.578125q-1.03125 0.578125 -1.609375 1.65625q-0.578125 1.0625 -0.578125 2.421875q0 1.375 0.578125 2.4375q0.578125 1.046875 1.609375 1.625q1.03125 0.578125 2.328125 0.578125q1.0625 0 1.96875 -0.421875q0.90625 -0.4375 1.484375 -1.328125l1.203125 0.8125q-0.703125 1.15625 -1.921875 1.765625q-1.21875 0.59375 -2.734375 0.59375zm17.988953 -5.5625l-9.96875 0q0.125 1.84375 1.421875 3.0q1.296875 1.140625 3.265625 1.140625q1.109375 0 2.03125 -0.390625q0.9375 -0.40625 1.609375 -1.171875l0.90625 1.046875q-0.796875 0.9375 -1.984375 1.4375q-1.1875 0.5 -2.609375 0.5q-1.84375 0 -3.265625 -0.78125q-1.40625 -0.78125 -2.203125 -2.15625q-0.78125 -1.390625 -0.78125 -3.125q0 -1.75 0.75 -3.125q0.765625 -1.390625 2.078125 -2.15625q1.328125 -0.765625 2.984375 -0.765625q1.65625 0 2.96875 0.765625q1.3125 0.765625 2.0625 2.140625q0.75 1.375 0.75 3.140625l-0.015625 0.5zm-5.765625 -5.171875q-1.71875 0 -2.890625 1.109375q-1.15625 1.09375 -1.3125 2.859375l8.4375 0q-0.15625 -1.765625 -1.328125 -2.859375q-1.15625 -1.109375 -2.90625 -1.109375zm21.27649 9.90625q-0.453125 0.40625 -1.125 0.625q-0.65625 0.203125 -1.390625 0.203125q-1.671875 0 -2.578125 -0.90625q-0.90625 -0.90625 -0.90625 -2.5625l0 -7.203125l-2.125 0l0 -1.359375l2.125 0l0 -2.59375l1.609375 0l0 2.59375l3.625 0l0 1.359375l-3.625 0l0 7.125q0 1.0625 0.53125 1.625q0.53125 0.546875 1.53125 0.546875q0.5 0 0.953125 -0.15625q0.46875 -0.15625 0.8125 -0.453125l0.5625 1.15625zm8.9953 -11.28125q2.25 0 3.5625 1.296875q1.328125 1.296875 1.328125 3.796875l0 6.90625l-1.609375 0l0 -6.75q0 -1.859375 -0.9375 -2.828125q-0.921875 -0.984375 -2.640625 -0.984375q-1.921875 0 -3.046875 1.15625q-1.125 1.140625 -1.125 3.15625l0 6.25l-1.59375 0l0 -16.8125l1.59375 0l0 6.984375q0.671875 -1.046875 1.8125 -1.609375q1.15625 -0.5625 2.65625 -0.5625zm19.696106 6.546875l-9.96875 0q0.125 1.84375 1.421875 3.0q1.296875 1.140625 3.265625 1.140625q1.109375 0 2.03125 -0.390625q0.9375 -0.40625 1.609375 -1.171875l0.90625 1.046875q-0.796875 0.9375 -1.984375 1.4375q-1.1875 0.5 -2.609375 0.5q-1.84375 0 -3.265625 -0.78125q-1.40625 -0.78125 -2.203125 -2.15625q-0.78125 -1.390625 -0.78125 -3.125q0 -1.75 0.75 -3.125q0.765625 -1.390625 2.078125 -2.15625q1.328125 -0.765625 2.984375 -0.765625q1.65625 0 2.96875 0.765625q1.3125 0.765625 2.0625 2.140625q0.75 1.375 0.75 3.140625l-0.015625 0.5zm-5.765625 -5.171875q-1.71875 0 -2.890625 1.109375q-1.15625 1.09375 -1.3125 2.859375l8.4375 0q-0.15625 -1.765625 -1.328125 -2.859375q-1.15625 -1.109375 -2.90625 -1.109375zm19.948364 10.734375q-1.765625 0 -3.171875 -0.765625q-1.390625 -0.765625 -2.1875 -2.15625q-0.78125 -1.40625 -0.78125 -3.140625q0 -1.75 0.78125 -3.125q0.796875 -1.390625 2.1875 -2.15625q1.40625 -0.765625 3.171875 -0.765625q1.53125 0 2.734375 0.59375q1.21875 0.59375 1.921875 1.75l-1.203125 0.828125q-0.578125 -0.890625 -1.484375 -1.328125q-0.90625 -0.453125 -1.96875 -0.453125q-1.296875 0 -2.328125 0.578125q-1.03125 0.578125 -1.609375 1.65625q-0.578125 1.0625 -0.578125 2.421875q0 1.375 0.578125 2.4375q0.578125 1.046875 1.609375 1.625q1.03125 0.578125 2.328125 0.578125q1.0625 0 1.96875 -0.421875q0.90625 -0.4375 1.484375 -1.328125l1.203125 0.8125q-0.703125 1.15625 -1.921875 1.765625q-1.21875 0.59375 -2.734375 0.59375zm13.699158 -12.109375q2.25 0 3.5625 1.296875q1.328125 1.296875 1.328125 3.796875l0 6.90625l-1.609375 0l0 -6.75q0 -1.859375 -0.9375 -2.828125q-0.921875 -0.984375 -2.640625 -0.984375q-1.921875 0 -3.046875 1.15625q-1.125 1.140625 -1.125 3.15625l0 6.25l-1.59375 0l0 -16.8125l1.59375 0l0 6.984375q0.671875 -1.046875 1.8125 -1.609375q1.15625 -0.5625 2.65625 -0.5625zm13.431946 0q2.34375 0 3.578125 1.171875q1.25 1.15625 1.25 3.4375l0 7.390625l-1.53125 0l0 -1.859375q-0.546875 0.9375 -1.609375 1.453125q-1.046875 0.515625 -2.5 0.515625q-1.984375 0 -3.171875 -0.953125q-1.171875 -0.953125 -1.171875 -2.515625q0 -1.515625 1.09375 -2.4375q1.09375 -0.9375 3.5 -0.9375l3.78125 0l0 -0.71875q0 -1.546875 -0.859375 -2.34375q-0.859375 -0.8125 -2.515625 -0.8125q-1.125 0 -2.171875 0.375q-1.046875 0.375 -1.796875 1.03125l-0.71875 -1.203125q0.90625 -0.765625 2.171875 -1.171875q1.265625 -0.421875 2.671875 -0.421875zm-0.5625 10.84375q1.359375 0 2.328125 -0.625q0.984375 -0.625 1.453125 -1.796875l0 -1.953125l-3.734375 0q-3.0625 0 -3.0625 2.140625q0 1.03125 0.796875 1.640625q0.796875 0.59375 2.21875 0.59375zm9.7734375 -15.65625l1.59375 0l0 16.8125l-1.59375 0l0 -16.8125zm6.0944824 0l1.593811 0l0 16.8125l-1.593811 0l0 -16.8125zm16.469543 11.359375l-9.96875 0q0.125 1.84375 1.421875 3.0q1.296875 1.140625 3.265625 1.140625q1.109375 0 2.03125 -0.390625q0.9375 -0.40625 1.609375 -1.171875l0.90625 1.046875q-0.796875 0.9375 -1.984375 1.4375q-1.1875 0.5 -2.609375 0.5q-1.84375 0 -3.265625 -0.78125q-1.40625 -0.78125 -2.203125 -2.15625q-0.78125 -1.390625 -0.78125 -3.125q0 -1.75 0.75 -3.125q0.765625 -1.390625 2.078125 -2.15625q1.328125 -0.765625 2.984375 -0.765625q1.65625 0 2.96875 0.765625q1.3125 0.765625 2.0625 2.140625q0.75 1.375 0.75 3.140625l-0.015625 0.5zm-5.765625 -5.171875q-1.71875 0 -2.890625 1.109375q-1.15625 1.09375 -1.3125 2.859375l8.4375 0q-0.15625 -1.765625 -1.328125 -2.859375q-1.15625 -1.109375 -2.90625 -1.109375zm15.137451 -1.375q2.25 0 3.5625 1.296875q1.328125 1.296875 1.328125 3.796875l0 6.90625l-1.609375 0l0 -6.75q0 -1.859375 -0.9375 -2.828125q-0.921875 -0.984375 -2.640625 -0.984375q-1.921875 0 -3.046875 1.15625q-1.125 1.140625 -1.125 3.15625l0 6.25l-1.59375 0l0 -11.921875l1.53125 0l0 2.203125q0.65625 -1.09375 1.828125 -1.6875q1.171875 -0.59375 2.703125 -0.59375zm20.352356 0.078125l0 10.46875q0 3.03125 -1.484375 4.5q-1.484375 1.46875 -4.484375 1.46875q-1.65625 0 -3.140625 -0.5q-1.46875 -0.484375 -2.40625 -1.34375l0.8125 -1.21875q0.859375 0.765625 2.09375 1.1875q1.234375 0.4375 2.59375 0.4375q2.265625 0 3.328125 -1.0625q1.078125 -1.046875 1.078125 -3.265625l0 -1.515625q-0.75 1.140625 -1.96875 1.734375q-1.203125 0.578125 -2.6875 0.578125q-1.671875 0 -3.046875 -0.734375q-1.359375 -0.734375 -2.140625 -2.0625q-0.78125 -1.328125 -0.78125 -3.0q0 -1.671875 0.78125 -2.984375q0.78125 -1.328125 2.140625 -2.046875q1.359375 -0.71875 3.046875 -0.71875q1.53125 0 2.75 0.609375q1.21875 0.609375 1.96875 1.765625l0 -2.296875l1.546875 0zm-6.09375 10.046875q1.28125 0 2.328125 -0.546875q1.046875 -0.5625 1.625 -1.5625q0.578125 -1.0 0.578125 -2.265625q0 -1.265625 -0.578125 -2.25q-0.578125 -1.0 -1.609375 -1.546875q-1.03125 -0.5625 -2.34375 -0.5625q-1.296875 0 -2.328125 0.546875q-1.03125 0.546875 -1.609375 1.546875q-0.578125 1.0 -0.578125 2.265625q0 1.265625 0.578125 2.265625q0.578125 1.0 1.609375 1.5625q1.03125 0.546875 2.328125 0.546875zm20.979675 -3.578125l-9.96875 0q0.125 1.84375 1.421875 3.0q1.296875 1.140625 3.265625 1.140625q1.109375 0 2.03125 -0.390625q0.9375 -0.40625 1.609375 -1.171875l0.90625 1.046875q-0.796875 0.9375 -1.984375 1.4375q-1.1875 0.5 -2.609375 0.5q-1.84375 0 -3.265625 -0.78125q-1.40625 -0.78125 -2.203125 -2.15625q-0.78125 -1.390625 -0.78125 -3.125q0 -1.75 0.75 -3.125q0.765625 -1.390625 2.078125 -2.15625q1.328125 -0.765625 2.984375 -0.765625q1.65625 0 2.96875 0.765625q1.3125 0.765625 2.0625 2.140625q0.75 1.375 0.75 3.140625l-0.015625 0.5zm-5.765625 -5.171875q-1.71875 0 -2.890625 1.109375q-1.15625 1.09375 -1.3125 2.859375l8.4375 0q-0.15625 -1.765625 -1.328125 -2.859375q-1.15625 -1.109375 -2.90625 -1.109375z" fill-rule="nonzero"/><path fill="#000000" fill-opacity="0.0" d="m815.4417 219.14375l5.935913 0l0 27.61792l-5.935913 0l0 -27.61792z" fill-rule="nonzero"/><path fill="#e3e16c" d="m506.52493 246.31496l269.74454 0l0 27.199997l-269.74454 0l0 -27.199997z" fill-rule="nonzero"/><path fill="#000000" fill-opacity="0.0" d="m506.52493 246.14375l269.74454 0l0 27.617905l-269.74454 0l0 -27.617905z" fill-rule="nonzero"/><path fill="#000000" d="m513.63434 268.18433q-1.7187805 0 -3.1094055 -0.78125q-1.375 -0.78125 -2.171875 -2.15625q-0.78125 -1.390625 -0.78125 -3.125q0 -1.75 0.78125 -3.125q0.796875 -1.390625 2.171875 -2.15625q1.390625 -0.765625 3.1094055 -0.765625q1.71875 0 3.09375 0.765625q1.390625 0.765625 2.171875 2.15625q0.78125 1.375 0.78125 3.125q0 1.734375 -0.78125 3.125q-0.78125 1.375 -2.171875 2.15625q-1.375 0.78125 -3.09375 0.78125zm0 -1.421875q1.265625 0 2.28125 -0.578125q1.015625 -0.578125 1.578125 -1.640625q0.5625 -1.0625 0.5625 -2.421875q0 -1.359375 -0.5625 -2.421875q-0.5625 -1.078125 -1.578125 -1.65625q-1.015625 -0.578125 -2.28125 -0.578125q-1.265625 0 -2.2812805 0.578125q-1.0 0.578125 -1.578125 1.65625q-0.578125 1.0625 -0.578125 2.421875q0 1.359375 0.578125 2.421875q0.578125 1.0625 1.578125 1.640625q1.0156555 0.578125 2.2812805 0.578125zm13.283569 -14.249985q-1.046875 0 -1.578125 0.5625q-0.53125 0.5625 -0.53125 1.671875l0 1.4062347l3.671875 0l0 1.359375l-3.625 0l0 10.5625l-1.609375 0l0 -10.5625l-2.125 0l0 -1.359375l2.125 0l0 -1.4687347q0 -1.625 0.9375 -2.578125q0.9375 -0.953125 2.65625 -0.953125q0.6875 0 1.3125 0.203125q0.640625 0.1875 1.078125 0.546875l-0.546875 1.203125q-0.703125 -0.59375 -1.765625 -0.59375zm15.803833 3.5624847q1.6875 0 3.046875 0.765625q1.359375 0.75 2.125 2.140625q0.765625 1.375 0.765625 3.140625q0 1.78125 -0.765625 3.171875q-0.765625 1.375 -2.125 2.140625q-1.34375 0.75 -3.046875 0.75q-1.4375 0 -2.609375 -0.59375q-1.171875 -0.609375 -1.921875 -1.765625l0 6.640625l-1.59375 0l0 -16.3125l1.53125 0l0 2.359375q0.734375 -1.171875 1.921875 -1.796875q1.1875 -0.640625 2.671875 -0.640625zm-0.109375 10.6875q1.25 0 2.265625 -0.578125q1.015625 -0.578125 1.59375 -1.640625q0.578125 -1.0625 0.578125 -2.421875q0 -1.359375 -0.578125 -2.40625q-0.578125 -1.0625 -1.59375 -1.65625q-1.015625 -0.59375 -2.265625 -0.59375q-1.265625 0 -2.28125 0.59375q-1.0 0.59375 -1.578125 1.65625q-0.578125 1.046875 -0.578125 2.40625q0 1.359375 0.578125 2.421875q0.578125 1.0625 1.578125 1.640625q1.015625 0.578125 2.28125 0.578125zm10.876526 -8.265625q0.5625 -1.203125 1.6875 -1.8125q1.125 -0.609375 2.78125 -0.609375l0 1.5625l-0.390625 -0.03125q-1.875 0 -2.953125 1.15625q-1.0625 1.15625 -1.0625 3.234375l0 6.078125l-1.59375 0l0 -11.921875l1.53125 0l0 2.34375zm12.118652 9.6875q-1.71875 0 -3.109375 -0.78125q-1.375 -0.78125 -2.171875 -2.15625q-0.78125 -1.390625 -0.78125 -3.125q0 -1.75 0.78125 -3.125q0.796875 -1.390625 2.171875 -2.15625q1.390625 -0.765625 3.109375 -0.765625q1.71875 0 3.09375 0.765625q1.390625 0.765625 2.171875 2.15625q0.78125 1.375 0.78125 3.125q0 1.734375 -0.78125 3.125q-0.78125 1.375 -2.171875 2.15625q-1.375 0.78125 -3.09375 0.78125zm0 -1.421875q1.265625 0 2.28125 -0.578125q1.015625 -0.578125 1.578125 -1.640625q0.5625 -1.0625 0.5625 -2.421875q0 -1.359375 -0.5625 -2.421875q-0.5625 -1.078125 -1.578125 -1.65625q-1.015625 -0.578125 -2.28125 -0.578125q-1.265625 0 -2.28125 0.578125q-1.0 0.578125 -1.578125 1.65625q-0.578125 1.0625 -0.578125 2.421875q0 1.359375 0.578125 2.421875q0.578125 1.0625 1.578125 1.640625q1.015625 0.578125 2.28125 0.578125zm20.22107 -15.499985l0 16.812485l-1.546875 0l0 -2.359375q-0.71875 1.203125 -1.921875 1.84375q-1.1875 0.625 -2.671875 0.625q-1.6875 0 -3.046875 -0.765625q-1.359375 -0.765625 -2.125 -2.140625q-0.765625 -1.390625 -0.765625 -3.15625q0 -1.765625 0.765625 -3.140625q0.765625 -1.390625 2.125 -2.140625q1.359375 -0.765625 3.046875 -0.765625q1.4375 0 2.609375 0.59375q1.171875 0.59375 1.921875 1.75l0 -7.1562347l1.609375 0zm-6.015625 15.499985q1.25 0 2.25 -0.578125q1.015625 -0.578125 1.59375 -1.640625q0.578125 -1.0625 0.578125 -2.421875q0 -1.359375 -0.578125 -2.421875q-0.578125 -1.078125 -1.59375 -1.65625q-1.0 -0.578125 -2.25 -0.578125q-1.265625 0 -2.28125 0.578125q-1.0 0.578125 -1.578125 1.65625q-0.578125 1.0625 -0.578125 2.421875q0 1.359375 0.578125 2.421875q0.578125 1.0625 1.578125 1.640625q1.015625 0.578125 2.28125 0.578125zm21.2359 -10.609375l0 11.921875l-1.546875 0l0 -2.171875q-0.625 1.078125 -1.734375 1.6875q-1.109375 0.59375 -2.546875 0.59375q-2.328125 0 -3.6875 -1.296875q-1.34375 -1.296875 -1.34375 -3.8125l0 -6.921875l1.609375 0l0 6.75q0 1.890625 0.921875 2.859375q0.9375 0.96875 2.65625 0.96875q1.890625 0 2.96875 -1.140625q1.09375 -1.140625 1.09375 -3.171875l0 -6.265625l1.609375 0zm9.450745 12.03125q-1.765625 0 -3.171875 -0.765625q-1.390625 -0.765625 -2.1875 -2.15625q-0.78125 -1.40625 -0.78125 -3.140625q0 -1.75 0.78125 -3.125q0.796875 -1.390625 2.1875 -2.15625q1.40625 -0.765625 3.171875 -0.765625q1.53125 0 2.734375 0.59375q1.21875 0.59375 1.921875 1.75l-1.203125 0.828125q-0.578125 -0.890625 -1.484375 -1.328125q-0.90625 -0.453125 -1.96875 -0.453125q-1.296875 0 -2.328125 0.578125q-1.03125 0.578125 -1.609375 1.65625q-0.578125 1.0625 -0.578125 2.421875q0 1.375 0.578125 2.4375q0.578125 1.046875 1.609375 1.625q1.03125 0.578125 2.328125 0.578125q1.0625 0 1.96875 -0.421875q0.90625 -0.4375 1.484375 -1.328125l1.203125 0.8125q-0.703125 1.15625 -1.921875 1.765625q-1.21875 0.59375 -2.734375 0.59375zm7.817932 -12.03125l1.59375 0l0 11.921875l-1.59375 0l0 -11.921875zm0.8125 -2.5937347q-0.5 0 -0.84375 -0.34375q-0.328125 -0.34375 -0.328125 -0.8125q0 -0.453125 0.328125 -0.796875q0.34375 -0.34375 0.84375 -0.34375q0.5 0 0.828125 0.328125q0.34375 0.328125 0.34375 0.78125q0 0.5 -0.34375 0.84375q-0.328125 0.34375 -0.828125 0.34375zm11.344482 2.5156097q2.25 0 3.5625 1.296875q1.328125 1.296875 1.328125 3.796875l0 6.90625l-1.609375 0l0 -6.75q0 -1.859375 -0.9375 -2.828125q-0.921875 -0.984375 -2.640625 -0.984375q-1.921875 0 -3.046875 1.15625q-1.125 1.140625 -1.125 3.15625l0 6.25l-1.59375 0l0 -11.921875l1.53125 0l0 2.203125q0.65625 -1.09375 1.828125 -1.6875q1.171875 -0.59375 2.703125 -0.59375zm20.352356 0.078125l0 10.46875q0 3.03125 -1.484375 4.5q-1.484375 1.46875 -4.484375 1.46875q-1.65625 0 -3.140625 -0.5q-1.46875 -0.484375 -2.40625 -1.34375l0.8125 -1.21875q0.859375 0.765625 2.09375 1.1875q1.234375 0.4375 2.59375 0.4375q2.265625 0 3.328125 -1.0625q1.078125 -1.046875 1.078125 -3.265625l0 -1.515625q-0.75 1.140625 -1.96875 1.734375q-1.203125 0.578125 -2.6875 0.578125q-1.671875 0 -3.046875 -0.734375q-1.359375 -0.734375 -2.140625 -2.0625q-0.78125 -1.328125 -0.78125 -3.0q0 -1.671875 0.78125 -2.984375q0.78125 -1.328125 2.140625 -2.046875q1.359375 -0.71875 3.046875 -0.71875q1.53125 0 2.75 0.609375q1.21875 0.609375 1.96875 1.765625l0 -2.296875l1.546875 0zm-6.09375 10.046875q1.28125 0 2.328125 -0.546875q1.046875 -0.5625 1.625 -1.5625q0.578125 -1.0 0.578125 -2.265625q0 -1.265625 -0.578125 -2.25q-0.578125 -1.0 -1.609375 -1.546875q-1.03125 -0.5625 -2.34375 -0.5625q-1.296875 0 -2.328125 0.546875q-1.03125 0.546875 -1.609375 1.546875q-0.578125 1.0 -0.578125 2.265625q0 1.265625 0.578125 2.265625q0.578125 1.0 1.609375 1.5625q1.03125 0.546875 2.328125 0.546875zm31.399963 -10.125q2.234375 0 3.515625 1.296875q1.28125 1.28125 1.28125 3.796875l0 6.90625l-1.609375 0l0 -6.75q0 -1.859375 -0.890625 -2.828125q-0.890625 -0.984375 -2.53125 -0.984375q-1.859375 0 -2.921875 1.15625q-1.0625 1.140625 -1.0625 3.15625l0 6.25l-1.609375 0l0 -6.75q0 -1.859375 -0.890625 -2.828125q-0.890625 -0.984375 -2.546875 -0.984375q-1.84375 0 -2.921875 1.15625q-1.078125 1.140625 -1.078125 3.15625l0 6.25l-1.59375 0l0 -11.921875l1.53125 0l0 2.1875q0.640625 -1.09375 1.765625 -1.671875q1.140625 -0.59375 2.609375 -0.59375q1.5 0 2.59375 0.640625q1.09375 0.625 1.640625 1.859375q0.65625 -1.171875 1.890625 -1.828125q1.234375 -0.671875 2.828125 -0.671875zm14.083557 12.109375q-1.71875 0 -3.109375 -0.78125q-1.375 -0.78125 -2.171875 -2.15625q-0.78125 -1.390625 -0.78125 -3.125q0 -1.75 0.78125 -3.125q0.796875 -1.390625 2.171875 -2.15625q1.390625 -0.765625 3.109375 -0.765625q1.71875 0 3.09375 0.765625q1.390625 0.765625 2.171875 2.15625q0.78125 1.375 0.78125 3.125q0 1.734375 -0.78125 3.125q-0.78125 1.375 -2.171875 2.15625q-1.375 0.78125 -3.09375 0.78125zm0 -1.421875q1.265625 0 2.28125 -0.578125q1.015625 -0.578125 1.578125 -1.640625q0.5625 -1.0625 0.5625 -2.421875q0 -1.359375 -0.5625 -2.421875q-0.5625 -1.078125 -1.578125 -1.65625q-1.015625 -0.578125 -2.28125 -0.578125q-1.265625 0 -2.28125 0.578125q-1.0 0.578125 -1.578125 1.65625q-0.578125 1.0625 -0.578125 2.421875q0 1.359375 0.578125 2.421875q0.578125 1.0625 1.578125 1.640625q1.015625 0.578125 2.28125 0.578125zm10.877319 -8.265625q0.5625 -1.203125 1.6875 -1.8125q1.125 -0.609375 2.78125 -0.609375l0 1.5625l-0.390625 -0.03125q-1.875 0 -2.953125 1.15625q-1.0625 1.15625 -1.0625 3.234375l0 6.078125l-1.59375 0l0 -11.921875l1.53125 0l0 2.34375zm17.634216 4.125l-9.96875 0q0.125 1.84375 1.421875 3.0q1.296875 1.140625 3.265625 1.140625q1.109375 0 2.03125 -0.390625q0.9375 -0.40625 1.609375 -1.171875l0.90625 1.046875q-0.796875 0.9375 -1.984375 1.4375q-1.1875 0.5 -2.609375 0.5q-1.84375 0 -3.265625 -0.78125q-1.40625 -0.78125 -2.203125 -2.15625q-0.78125 -1.390625 -0.78125 -3.125q0 -1.75 0.75 -3.125q0.765625 -1.390625 2.078125 -2.15625q1.328125 -0.765625 2.984375 -0.765625q1.65625 0 2.96875 0.765625q1.3125 0.765625 2.0625 2.140625q0.75 1.375 0.75 3.140625l-0.015625 0.5zm-5.765625 -5.171875q-1.71875 0 -2.890625 1.109375q-1.15625 1.09375 -1.3125 2.859375l8.4375 0q-0.15625 -1.765625 -1.328125 -2.859375q-1.15625 -1.109375 -2.90625 -1.109375zm32.4953 -1.296875l-4.515625 11.921875l-1.515625 0l-3.75 -9.765625l-3.765625 9.765625l-1.515625 0l-4.484375 -11.921875l1.53125 0l3.734375 10.125l3.828125 -10.125l1.390625 0l3.8125 10.125l3.78125 -10.125l1.46875 0zm2.43042 0l1.59375 0l0 11.921875l-1.59375 0l0 -11.921875zm0.8125 -2.5937347q-0.5 0 -0.84375 -0.34375q-0.328125 -0.34375 -0.328125 -0.8125q0 -0.453125 0.328125 -0.796875q0.34375 -0.34375 0.84375 -0.34375q0.5 0 0.828125 0.328125q0.34375 0.328125 0.34375 0.78125q0 0.5 -0.34375 0.84375q-0.328125 0.34375 -0.828125 0.34375zm11.547607 13.79686q-0.453125 0.40625 -1.125 0.625q-0.65625 0.203125 -1.390625 0.203125q-1.671875 0 -2.578125 -0.90625q-0.90625 -0.90625 -0.90625 -2.5625l0 -7.203125l-2.125 0l0 -1.359375l2.125 0l0 -2.5937347l1.609375 0l0 2.5937347l3.625 0l0 1.359375l-3.625 0l0 7.125q0 1.0625 0.53125 1.625q0.53125 0.546875 1.53125 0.546875q0.5 0 0.953125 -0.15625q0.46875 -0.15625 0.8125 -0.453125l0.5625 1.15625zm8.9953 -11.28125q2.25 0 3.5625 1.296875q1.328125 1.296875 1.328125 3.796875l0 6.90625l-1.609375 0l0 -6.75q0 -1.859375 -0.9375 -2.828125q-0.921875 -0.984375 -2.640625 -0.984375q-1.921875 0 -3.046875 1.15625q-1.125 1.140625 -1.125 3.15625l0 6.25l-1.59375 0l0 -16.812485l1.59375 0l0 6.9843597q0.671875 -1.046875 1.8125 -1.609375q1.15625 -0.5625 2.65625 -0.5625z" fill-rule="nonzero"/><path fill="#000000" fill-opacity="0.0" d="m776.2695 246.14375l5.935913 0l0 27.617905l-5.935913 0l0 -27.617905z" fill-rule="nonzero"/><path fill="#e3e16c" d="m506.52493 273.31497l219.58377 0l0 27.199982l-219.58377 0l0 -27.199982z" fill-rule="nonzero"/><path fill="#000000" fill-opacity="0.0" d="m506.52493 273.14374l219.58377 0l0 27.61792l-219.58377 0l0 -27.61792z" fill-rule="nonzero"/><path fill="#000000" d="m508.77493 278.26245l1.59375 0l0 16.8125l-1.59375 0l0 -16.8125zm16.469513 11.359375l-9.96875 0q0.125 1.84375 1.421875 3.0q1.296875 1.140625 3.265625 1.140625q1.109375 0 2.03125 -0.390625q0.9375 -0.40625 1.609375 -1.171875l0.90625 1.046875q-0.796875 0.9375 -1.984375 1.4375q-1.1875 0.5 -2.609375 0.5q-1.84375 0 -3.265625 -0.78125q-1.40625 -0.78125 -2.203125 -2.15625q-0.78125 -1.390625 -0.78125 -3.125q0 -1.75 0.75 -3.125q0.765625 -1.390625 2.078125 -2.15625q1.328125 -0.765625 2.984375 -0.765625q1.65625 0 2.96875 0.765625q1.3125 0.765625 2.0625 2.140625q0.75 1.375 0.75 3.140625l-0.015625 0.5zm-5.765625 -5.171875q-1.71875 0 -2.890625 1.109375q-1.15625 1.09375 -1.3125 2.859375l8.4375 0q-0.15625 -1.765625 -1.328125 -2.859375q-1.15625 -1.109375 -2.90625 -1.109375zm12.262451 10.734375q-1.453125 0 -2.78125 -0.40625q-1.3125 -0.421875 -2.0625 -1.0625l0.71875 -1.265625q0.75 0.59375 1.875 0.96875q1.140625 0.359375 2.359375 0.359375q1.640625 0 2.421875 -0.5q0.78125 -0.515625 0.78125 -1.4375q0 -0.65625 -0.4375 -1.03125q-0.421875 -0.375 -1.09375 -0.5625q-0.65625 -0.203125 -1.734375 -0.375q-1.453125 -0.28125 -2.34375 -0.5625q-0.875 -0.28125 -1.5 -0.953125q-0.625 -0.6875 -0.625 -1.890625q0 -1.5 1.25 -2.4375q1.25 -0.953125 3.46875 -0.953125q1.15625 0 2.3125 0.3125q1.15625 0.296875 1.90625 0.796875l-0.703125 1.28125q-1.484375 -1.015625 -3.515625 -1.015625q-1.546875 0 -2.328125 0.546875q-0.78125 0.546875 -0.78125 1.421875q0 0.6875 0.4375 1.09375q0.453125 0.40625 1.109375 0.59375q0.65625 0.1875 1.8125 0.40625q1.421875 0.265625 2.28125 0.546875q0.859375 0.265625 1.46875 0.921875q0.625 0.65625 0.625 1.8125q0 1.5625 -1.3125 2.484375q-1.296875 0.90625 -3.609375 0.90625zm11.078918 0q-1.453125 0 -2.78125 -0.40625q-1.3125 -0.421875 -2.0625 -1.0625l0.71875 -1.265625q0.75 0.59375 1.875 0.96875q1.140625 0.359375 2.359375 0.359375q1.640625 0 2.421875 -0.5q0.78125 -0.515625 0.78125 -1.4375q0 -0.65625 -0.4375 -1.03125q-0.421875 -0.375 -1.09375 -0.5625q-0.65625 -0.203125 -1.734375 -0.375q-1.453125 -0.28125 -2.34375 -0.5625q-0.875 -0.28125 -1.5 -0.953125q-0.625 -0.6875 -0.625 -1.890625q0 -1.5 1.25 -2.4375q1.25 -0.953125 3.46875 -0.953125q1.15625 0 2.3125 0.3125q1.15625 0.296875 1.90625 0.796875l-0.703125 1.28125q-1.484375 -1.015625 -3.515625 -1.015625q-1.546875 0 -2.328125 0.546875q-0.78125 0.546875 -0.78125 1.421875q0 0.6875 0.4375 1.09375q0.453125 0.40625 1.109375 0.59375q0.65625 0.1875 1.8125 0.40625q1.421875 0.265625 2.28125 0.546875q0.859375 0.265625 1.46875 0.921875q0.625 0.65625 0.625 1.8125q0 1.5625 -1.3125 2.484375q-1.296875 0.90625 -3.609375 0.90625zm8.047607 0q-0.5 0 -0.859375 -0.359375q-0.34375 -0.359375 -0.34375 -0.875q0 -0.53125 0.34375 -0.875q0.359375 -0.359375 0.859375 -0.359375q0.5 0 0.859375 0.359375q0.359375 0.34375 0.359375 0.875q0 0.515625 -0.359375 0.875q-0.359375 0.359375 -0.859375 0.359375zm17.84845 0.03125q-2.359375 0 -4.28125 -1.046875q-1.90625 -1.0625 -2.984375 -2.890625q-1.078125 -1.84375 -1.078125 -4.125q0 -2.296875 1.078125 -4.125q1.078125 -1.84375 2.984375 -2.890625q1.921875 -1.0625 4.28125 -1.0625q2.359375 0 4.25 1.046875q1.890625 1.046875 2.96875 2.890625q1.09375 1.84375 1.09375 4.140625q0 2.28125 -1.09375 4.125q-1.078125 1.84375 -2.96875 2.890625q-1.890625 1.046875 -4.25 1.046875zm0 -1.5q1.875 0 3.390625 -0.84375q1.53125 -0.859375 2.390625 -2.359375q0.859375 -1.515625 0.859375 -3.359375q0 -1.859375 -0.859375 -3.359375q-0.859375 -1.515625 -2.390625 -2.359375q-1.515625 -0.859375 -3.390625 -0.859375q-1.875 0 -3.40625 0.859375q-1.53125 0.84375 -2.40625 2.359375q-0.875 1.5 -0.875 3.359375q0 1.84375 0.875 3.359375q0.875 1.5 2.40625 2.359375q1.53125 0.84375 3.40625 0.84375zm22.477295 -10.5625l0 11.921875l-1.546875 0l0 -2.171875q-0.625 1.078125 -1.734375 1.6875q-1.109375 0.59375 -2.546875 0.59375q-2.328125 0 -3.6875 -1.296875q-1.34375 -1.296875 -1.34375 -3.8125l0 -6.921875l1.609375 0l0 6.75q0 1.890625 0.921875 2.859375q0.9375 0.96875 2.65625 0.96875q1.890625 0 2.96875 -1.140625q1.09375 -1.140625 1.09375 -3.171875l0 -6.265625l1.609375 0zm6.0444946 2.34375q0.5625 -1.203125 1.6875 -1.8125q1.125 -0.609375 2.78125 -0.609375l0 1.5625l-0.390625 -0.03125q-1.875 0 -2.953125 1.15625q-1.0625 1.15625 -1.0625 3.234375l0 6.078125l-1.59375 0l0 -11.921875l1.53125 0l0 2.34375zm17.646057 -2.421875q2.34375 0 3.578125 1.171875q1.25 1.15625 1.25 3.4375l0 7.390625l-1.53125 0l0 -1.859375q-0.546875 0.9375 -1.609375 1.453125q-1.046875 0.515625 -2.5 0.515625q-1.984375 0 -3.171875 -0.953125q-1.171875 -0.953125 -1.171875 -2.515625q0 -1.515625 1.09375 -2.4375q1.09375 -0.9375 3.5 -0.9375l3.78125 0l0 -0.71875q0 -1.546875 -0.859375 -2.34375q-0.859375 -0.8125 -2.515625 -0.8125q-1.125 0 -2.171875 0.375q-1.046875 0.375 -1.796875 1.03125l-0.71875 -1.203125q0.90625 -0.765625 2.171875 -1.171875q1.265625 -0.421875 2.671875 -0.421875zm-0.5625 10.84375q1.359375 0 2.328125 -0.625q0.984375 -0.625 1.453125 -1.796875l0 -1.953125l-3.734375 0q-3.0625 0 -3.0625 2.140625q0 1.03125 0.796875 1.640625q0.796875 0.59375 2.21875 0.59375zm20.850037 -10.765625l0 10.46875q0 3.03125 -1.484375 4.5q-1.484375 1.46875 -4.484375 1.46875q-1.65625 0 -3.140625 -0.5q-1.46875 -0.484375 -2.40625 -1.34375l0.8125 -1.21875q0.859375 0.765625 2.09375 1.1875q1.234375 0.4375 2.59375 0.4375q2.265625 0 3.328125 -1.0625q1.078125 -1.046875 1.078125 -3.265625l0 -1.515625q-0.75 1.140625 -1.96875 1.734375q-1.203125 0.578125 -2.6875 0.578125q-1.671875 0 -3.046875 -0.734375q-1.359375 -0.734375 -2.140625 -2.0625q-0.78125 -1.328125 -0.78125 -3.0q0 -1.671875 0.78125 -2.984375q0.78125 -1.328125 2.140625 -2.046875q1.359375 -0.71875 3.046875 -0.71875q1.53125 0 2.75 0.609375q1.21875 0.609375 1.96875 1.765625l0 -2.296875l1.546875 0zm-6.09375 10.046875q1.28125 0 2.328125 -0.546875q1.046875 -0.5625 1.625 -1.5625q0.578125 -1.0 0.578125 -2.265625q0 -1.265625 -0.578125 -2.25q-0.578125 -1.0 -1.609375 -1.546875q-1.03125 -0.5625 -2.34375 -0.5625q-1.296875 0 -2.328125 0.546875q-1.03125 0.546875 -1.609375 1.546875q-0.578125 1.0 -0.578125 2.265625q0 1.265625 0.578125 2.265625q0.578125 1.0 1.609375 1.5625q1.03125 0.546875 2.328125 0.546875zm12.135864 -7.703125q0.5625 -1.203125 1.6875 -1.8125q1.125 -0.609375 2.78125 -0.609375l0 1.5625l-0.390625 -0.03125q-1.875 0 -2.953125 1.15625q-1.0625 1.15625 -1.0625 3.234375l0 6.078125l-1.59375 0l0 -11.921875l1.53125 0l0 2.34375zm12.118652 9.6875q-1.71875 0 -3.109375 -0.78125q-1.375 -0.78125 -2.171875 -2.15625q-0.78125 -1.390625 -0.78125 -3.125q0 -1.75 0.78125 -3.125q0.796875 -1.390625 2.171875 -2.15625q1.390625 -0.765625 3.109375 -0.765625q1.71875 0 3.09375 0.765625q1.390625 0.765625 2.171875 2.15625q0.78125 1.375 0.78125 3.125q0 1.734375 -0.78125 3.125q-0.78125 1.375 -2.171875 2.15625q-1.375 0.78125 -3.09375 0.78125zm0 -1.421875q1.265625 0 2.28125 -0.578125q1.015625 -0.578125 1.578125 -1.640625q0.5625 -1.0625 0.5625 -2.421875q0 -1.359375 -0.5625 -2.421875q-0.5625 -1.078125 -1.578125 -1.65625q-1.015625 -0.578125 -2.28125 -0.578125q-1.265625 0 -2.28125 0.578125q-1.0 0.578125 -1.578125 1.65625q-0.578125 1.0625 -0.578125 2.421875q0 1.359375 0.578125 2.421875q0.578125 1.0625 1.578125 1.640625q1.015625 0.578125 2.28125 0.578125zm15.408569 -10.6875q2.25 0 3.5625 1.296875q1.328125 1.296875 1.328125 3.796875l0 6.90625l-1.609375 0l0 -6.75q0 -1.859375 -0.9375 -2.828125q-0.921875 -0.984375 -2.640625 -0.984375q-1.921875 0 -3.046875 1.15625q-1.125 1.140625 -1.125 3.15625l0 6.25l-1.59375 0l0 -11.921875l1.53125 0l0 2.203125q0.65625 -1.09375 1.828125 -1.6875q1.171875 -0.59375 2.703125 -0.59375zm14.18042 12.109375q-1.71875 0 -3.109375 -0.78125q-1.375 -0.78125 -2.171875 -2.15625q-0.78125 -1.390625 -0.78125 -3.125q0 -1.75 0.78125 -3.125q0.796875 -1.390625 2.171875 -2.15625q1.390625 -0.765625 3.109375 -0.765625q1.71875 0 3.09375 0.765625q1.390625 0.765625 2.171875 2.15625q0.78125 1.375 0.78125 3.125q0 1.734375 -0.78125 3.125q-0.78125 1.375 -2.171875 2.15625q-1.375 0.78125 -3.09375 0.78125zm0 -1.421875q1.265625 0 2.28125 -0.578125q1.015625 -0.578125 1.578125 -1.640625q0.5625 -1.0625 0.5625 -2.421875q0 -1.359375 -0.5625 -2.421875q-0.5625 -1.078125 -1.578125 -1.65625q-1.015625 -0.578125 -2.28125 -0.578125q-1.265625 0 -2.28125 0.578125q-1.0 0.578125 -1.578125 1.65625q-0.578125 1.0625 -0.578125 2.421875q0 1.359375 0.578125 2.421875q0.578125 1.0625 1.578125 1.640625q1.015625 0.578125 2.28125 0.578125zm24.205444 -10.6875q2.234375 0 3.515625 1.296875q1.28125 1.28125 1.28125 3.796875l0 6.90625l-1.609375 0l0 -6.75q0 -1.859375 -0.890625 -2.828125q-0.890625 -0.984375 -2.53125 -0.984375q-1.859375 0 -2.921875 1.15625q-1.0625 1.140625 -1.0625 3.15625l0 6.25l-1.609375 0l0 -6.75q0 -1.859375 -0.890625 -2.828125q-0.890625 -0.984375 -2.546875 -0.984375q-1.84375 0 -2.921875 1.15625q-1.078125 1.140625 -1.078125 3.15625l0 6.25l-1.59375 0l0 -11.921875l1.53125 0l0 2.1875q0.640625 -1.09375 1.765625 -1.671875q1.140625 -0.59375 2.609375 -0.59375q1.5 0 2.59375 0.640625q1.09375 0.625 1.640625 1.859375q0.65625 -1.171875 1.890625 -1.828125q1.234375 -0.671875 2.828125 -0.671875zm18.95221 0.078125l-5.953125 13.34375q-0.71875 1.6875 -1.671875 2.390625q-0.953125 0.703125 -2.296875 0.703125q-0.859375 0 -1.609375 -0.28125q-0.734375 -0.265625 -1.28125 -0.8125l0.75 -1.203125q0.90625 0.90625 2.171875 0.90625q0.8125 0 1.390625 -0.453125q0.578125 -0.453125 1.078125 -1.546875l0.515625 -1.140625l-5.328125 -11.90625l1.6875 0l4.484375 10.125l4.484375 -10.125l1.578125 0z" fill-rule="nonzero"/><path fill="#000000" fill-opacity="0.0" d="m726.1087 273.14374l5.935913 0l0 27.61792l-5.935913 0l0 -27.61792z" fill-rule="nonzero"/><path fill="#e3e16c" d="m506.52493 300.31497l301.84836 0l0 27.199982l-301.84836 0l0 -27.199982z" fill-rule="nonzero"/><path fill="#000000" fill-opacity="0.0" d="m506.52493 300.14374l301.84836 0l0 27.61792l-301.84836 0l0 -27.61792z" fill-rule="nonzero"/><path fill="#000000" d="m511.96243 322.18433q-1.453125 0 -2.78125 -0.40625q-1.3125 -0.421875 -2.0625 -1.0625l0.71875 -1.265625q0.75 0.59375 1.875 0.96875q1.140625 0.359375 2.3594055 0.359375q1.640625 0 2.421875 -0.5q0.78125 -0.515625 0.78125 -1.4375q0 -0.65625 -0.4375 -1.03125q-0.421875 -0.375 -1.09375 -0.5625q-0.65625 -0.203125 -1.734375 -0.375q-1.4531555 -0.28125 -2.3437805 -0.5625q-0.875 -0.28125 -1.5 -0.953125q-0.625 -0.6875 -0.625 -1.890625q0 -1.5 1.25 -2.4375q1.25 -0.953125 3.4687805 -0.953125q1.15625 0 2.3125 0.3125q1.15625 0.296875 1.90625 0.796875l-0.703125 1.28125q-1.484375 -1.015625 -3.515625 -1.015625q-1.5469055 0 -2.3281555 0.546875q-0.78125 0.546875 -0.78125 1.421875q0 0.6875 0.4375 1.09375q0.453125 0.40625 1.109375 0.59375q0.65625 0.1875 1.8125305 0.40625q1.421875 0.265625 2.28125 0.546875q0.859375 0.265625 1.46875 0.921875q0.625 0.65625 0.625 1.8125q0 1.5625 -1.3125 2.484375q-1.296875 0.90625 -3.6094055 0.90625zm12.750763 0q-1.71875 0 -3.109375 -0.78125q-1.375 -0.78125 -2.171875 -2.15625q-0.78125 -1.390625 -0.78125 -3.125q0 -1.75 0.78125 -3.125q0.796875 -1.390625 2.171875 -2.15625q1.390625 -0.765625 3.109375 -0.765625q1.71875 0 3.09375 0.765625q1.390625 0.765625 2.171875 2.15625q0.78125 1.375 0.78125 3.125q0 1.734375 -0.78125 3.125q-0.78125 1.375 -2.171875 2.15625q-1.375 0.78125 -3.09375 0.78125zm0 -1.421875q1.265625 0 2.28125 -0.578125q1.015625 -0.578125 1.578125 -1.640625q0.5625 -1.0625 0.5625 -2.421875q0 -1.359375 -0.5625 -2.421875q-0.5625 -1.078125 -1.578125 -1.65625q-1.015625 -0.578125 -2.28125 -0.578125q-1.265625 0 -2.28125 0.578125q-1.0 0.578125 -1.578125 1.65625q-0.578125 1.0625 -0.578125 2.421875q0 1.359375 0.578125 2.421875q0.578125 1.0625 1.578125 1.640625q1.015625 0.578125 2.28125 0.578125zm9.346069 -15.5l1.59375 0l0 16.8125l-1.59375 0l0 -16.8125zm16.828918 4.890625l0 11.921875l-1.546875 0l0 -2.171875q-0.625 1.078125 -1.734375 1.6875q-1.109375 0.59375 -2.546875 0.59375q-2.328125 0 -3.6875 -1.296875q-1.34375 -1.296875 -1.34375 -3.8125l0 -6.921875l1.609375 0l0 6.75q0 1.890625 0.921875 2.859375q0.9375 0.96875 2.65625 0.96875q1.890625 0 2.96875 -1.140625q1.09375 -1.140625 1.09375 -3.171875l0 -6.265625l1.609375 0zm10.77887 11.203125q-0.453125 0.40625 -1.125 0.625q-0.65625 0.203125 -1.390625 0.203125q-1.671875 0 -2.578125 -0.90625q-0.90625 -0.90625 -0.90625 -2.5625l0 -7.203125l-2.125 0l0 -1.359375l2.125 0l0 -2.59375l1.609375 0l0 2.59375l3.625 0l0 1.359375l-3.625 0l0 7.125q0 1.0625 0.53125 1.625q0.53125 0.546875 1.53125 0.546875q0.5 0 0.953125 -0.15625q0.46875 -0.15625 0.8125 -0.453125l0.5625 1.15625zm2.9328003 -11.203125l1.59375 0l0 11.921875l-1.59375 0l0 -11.921875zm0.8125 -2.59375q-0.5 0 -0.84375 -0.34375q-0.328125 -0.34375 -0.328125 -0.8125q0 -0.453125 0.328125 -0.796875q0.34375 -0.34375 0.84375 -0.34375q0.5 0 0.828125 0.328125q0.34375 0.328125 0.34375 0.78125q0 0.5 -0.34375 0.84375q-0.328125 0.34375 -0.828125 0.34375zm10.141357 14.625q-1.71875 0 -3.109375 -0.78125q-1.375 -0.78125 -2.171875 -2.15625q-0.78125 -1.390625 -0.78125 -3.125q0 -1.75 0.78125 -3.125q0.796875 -1.390625 2.171875 -2.15625q1.390625 -0.765625 3.109375 -0.765625q1.71875 0 3.09375 0.765625q1.390625 0.765625 2.171875 2.15625q0.78125 1.375 0.78125 3.125q0 1.734375 -0.78125 3.125q-0.78125 1.375 -2.171875 2.15625q-1.375 0.78125 -3.09375 0.78125zm0 -1.421875q1.265625 0 2.28125 -0.578125q1.015625 -0.578125 1.578125 -1.640625q0.5625 -1.0625 0.5625 -2.421875q0 -1.359375 -0.5625 -2.421875q-0.5625 -1.078125 -1.578125 -1.65625q-1.015625 -0.578125 -2.28125 -0.578125q-1.265625 0 -2.28125 0.578125q-1.0 0.578125 -1.578125 1.65625q-0.578125 1.0625 -0.578125 2.421875q0 1.359375 0.578125 2.421875q0.578125 1.0625 1.578125 1.640625q1.015625 0.578125 2.28125 0.578125zm15.408569 -10.6875q2.25 0 3.5625 1.296875q1.328125 1.296875 1.328125 3.796875l0 6.90625l-1.609375 0l0 -6.75q0 -1.859375 -0.9375 -2.828125q-0.921875 -0.984375 -2.640625 -0.984375q-1.921875 0 -3.046875 1.15625q-1.125 1.140625 -1.125 3.15625l0 6.25l-1.59375 0l0 -11.921875l1.53125 0l0 2.203125q0.65625 -1.09375 1.828125 -1.6875q1.171875 -0.59375 2.703125 -0.59375zm12.463257 12.109375q-1.453125 0 -2.78125 -0.40625q-1.3125 -0.421875 -2.0625 -1.0625l0.71875 -1.265625q0.75 0.59375 1.875 0.96875q1.140625 0.359375 2.359375 0.359375q1.640625 0 2.421875 -0.5q0.78125 -0.515625 0.78125 -1.4375q0 -0.65625 -0.4375 -1.03125q-0.421875 -0.375 -1.09375 -0.5625q-0.65625 -0.203125 -1.734375 -0.375q-1.453125 -0.28125 -2.34375 -0.5625q-0.875 -0.28125 -1.5 -0.953125q-0.625 -0.6875 -0.625 -1.890625q0 -1.5 1.25 -2.4375q1.25 -0.953125 3.46875 -0.953125q1.15625 0 2.3125 0.3125q1.15625 0.296875 1.90625 0.796875l-0.703125 1.28125q-1.484375 -1.015625 -3.515625 -1.015625q-1.546875 0 -2.328125 0.546875q-0.78125 0.546875 -0.78125 1.421875q0 0.6875 0.4375 1.09375q0.453125 0.40625 1.109375 0.59375q0.65625 0.1875 1.8125 0.40625q1.421875 0.265625 2.28125 0.546875q0.859375 0.265625 1.46875 0.921875q0.625 0.65625 0.625 1.8125q0 1.5625 -1.3125 2.484375q-1.296875 0.90625 -3.609375 0.90625zm19.889832 -12.109375q2.25 0 3.5625 1.296875q1.328125 1.296875 1.328125 3.796875l0 6.90625l-1.609375 0l0 -6.75q0 -1.859375 -0.9375 -2.828125q-0.921875 -0.984375 -2.640625 -0.984375q-1.921875 0 -3.046875 1.15625q-1.125 1.140625 -1.125 3.15625l0 6.25l-1.59375 0l0 -16.8125l1.59375 0l0 6.984375q0.671875 -1.046875 1.8125 -1.609375q1.15625 -0.5625 2.65625 -0.5625zm19.696045 6.546875l-9.96875 0q0.125 1.84375 1.421875 3.0q1.296875 1.140625 3.265625 1.140625q1.109375 0 2.03125 -0.390625q0.9375 -0.40625 1.609375 -1.171875l0.90625 1.046875q-0.796875 0.9375 -1.984375 1.4375q-1.1875 0.5 -2.609375 0.5q-1.84375 0 -3.265625 -0.78125q-1.40625 -0.78125 -2.203125 -2.15625q-0.78125 -1.390625 -0.78125 -3.125q0 -1.75 0.75 -3.125q0.765625 -1.390625 2.078125 -2.15625q1.328125 -0.765625 2.984375 -0.765625q1.65625 0 2.96875 0.765625q1.3125 0.765625 2.0625 2.140625q0.75 1.375 0.75 3.140625l-0.015625 0.5zm-5.765625 -5.171875q-1.71875 0 -2.890625 1.109375q-1.15625 1.09375 -1.3125 2.859375l8.4375 0q-0.15625 -1.765625 -1.328125 -2.859375q-1.15625 -1.109375 -2.90625 -1.109375zm9.074951 -6.1875l1.59375 0l0 16.8125l-1.59375 0l0 -16.8125zm12.219543 4.8125q1.6875 0 3.046875 0.765625q1.359375 0.75 2.125 2.140625q0.765625 1.375 0.765625 3.140625q0 1.78125 -0.765625 3.171875q-0.765625 1.375 -2.125 2.140625q-1.34375 0.75 -3.046875 0.75q-1.4375 0 -2.609375 -0.59375q-1.171875 -0.609375 -1.921875 -1.765625l0 6.640625l-1.59375 0l0 -16.3125l1.53125 0l0 2.359375q0.734375 -1.171875 1.921875 -1.796875q1.1875 -0.640625 2.671875 -0.640625zm-0.109375 10.6875q1.25 0 2.265625 -0.578125q1.015625 -0.578125 1.59375 -1.640625q0.578125 -1.0625 0.578125 -2.421875q0 -1.359375 -0.578125 -2.40625q-0.578125 -1.0625 -1.59375 -1.65625q-1.015625 -0.59375 -2.265625 -0.59375q-1.265625 0 -2.28125 0.59375q-1.0 0.59375 -1.578125 1.65625q-0.578125 1.046875 -0.578125 2.40625q0 1.359375 0.578125 2.421875q0.578125 1.0625 1.578125 1.640625q1.015625 0.578125 2.28125 0.578125zm21.546814 0.59375q-0.453125 0.40625 -1.125 0.625q-0.65625 0.203125 -1.390625 0.203125q-1.671875 0 -2.578125 -0.90625q-0.90625 -0.90625 -0.90625 -2.5625l0 -7.203125l-2.125 0l0 -1.359375l2.125 0l0 -2.59375l1.609375 0l0 2.59375l3.625 0l0 1.359375l-3.625 0l0 7.125q0 1.0625 0.53125 1.625q0.53125 0.546875 1.53125 0.546875q0.5 0 0.953125 -0.15625q0.46875 -0.15625 0.8125 -0.453125l0.5625 1.15625zm8.9953 -11.28125q2.25 0 3.5625 1.296875q1.328125 1.296875 1.328125 3.796875l0 6.90625l-1.609375 0l0 -6.75q0 -1.859375 -0.9375 -2.828125q-0.921875 -0.984375 -2.640625 -0.984375q-1.921875 0 -3.046875 1.15625q-1.125 1.140625 -1.125 3.15625l0 6.25l-1.59375 0l0 -16.8125l1.59375 0l0 6.984375q0.671875 -1.046875 1.8125 -1.609375q1.15625 -0.5625 2.65625 -0.5625zm19.696106 6.546875l-9.96875 0q0.125 1.84375 1.421875 3.0q1.296875 1.140625 3.265625 1.140625q1.109375 0 2.03125 -0.390625q0.9375 -0.40625 1.609375 -1.171875l0.90625 1.046875q-0.796875 0.9375 -1.984375 1.4375q-1.1875 0.5 -2.609375 0.5q-1.84375 0 -3.265625 -0.78125q-1.40625 -0.78125 -2.203125 -2.15625q-0.78125 -1.390625 -0.78125 -3.125q0 -1.75 0.75 -3.125q0.765625 -1.390625 2.078125 -2.15625q1.328125 -0.765625 2.984375 -0.765625q1.65625 0 2.96875 0.765625q1.3125 0.765625 2.0625 2.140625q0.75 1.375 0.75 3.140625l-0.015625 0.5zm-5.765625 -5.171875q-1.71875 0 -2.890625 1.109375q-1.15625 1.09375 -1.3125 2.859375l8.4375 0q-0.15625 -1.765625 -1.328125 -2.859375q-1.15625 -1.109375 -2.90625 -1.109375zm23.934326 -1.375q2.234375 0 3.515625 1.296875q1.28125 1.28125 1.28125 3.796875l0 6.90625l-1.609375 0l0 -6.75q0 -1.859375 -0.890625 -2.828125q-0.890625 -0.984375 -2.53125 -0.984375q-1.859375 0 -2.921875 1.15625q-1.0625 1.140625 -1.0625 3.15625l0 6.25l-1.609375 0l0 -6.75q0 -1.859375 -0.890625 -2.828125q-0.890625 -0.984375 -2.546875 -0.984375q-1.84375 0 -2.921875 1.15625q-1.078125 1.140625 -1.078125 3.15625l0 6.25l-1.59375 0l0 -11.921875l1.53125 0l0 2.1875q0.640625 -1.09375 1.765625 -1.671875q1.140625 -0.59375 2.609375 -0.59375q1.5 0 2.59375 0.640625q1.09375 0.625 1.640625 1.859375q0.65625 -1.171875 1.890625 -1.828125q1.234375 -0.671875 2.828125 -0.671875zm16.645996 2.421875q0.5625 -1.203125 1.6875 -1.8125q1.125 -0.609375 2.78125 -0.609375l0 1.5625l-0.390625 -0.03125q-1.875 0 -2.953125 1.15625q-1.0625 1.15625 -1.0625 3.234375l0 6.078125l-1.59375 0l0 -11.921875l1.53125 0l0 2.34375zm7.3725586 -2.34375l1.59375 0l0 11.921875l-1.59375 0l0 -11.921875zm0.8125 -2.59375q-0.5 0 -0.84375 -0.34375q-0.328125 -0.34375 -0.328125 -0.8125q0 -0.453125 0.328125 -0.796875q0.34375 -0.34375 0.84375 -0.34375q0.5 0 0.828125 0.328125q0.34375 0.328125 0.34375 0.78125q0 0.5 -0.34375 0.84375q-0.328125 0.34375 -0.828125 0.34375zm8.469543 14.625q-1.453125 0 -2.78125 -0.40625q-1.3125 -0.421875 -2.0625 -1.0625l0.71875 -1.265625q0.75 0.59375 1.875 0.96875q1.140625 0.359375 2.359375 0.359375q1.640625 0 2.421875 -0.5q0.78125 -0.515625 0.78125 -1.4375q0 -0.65625 -0.4375 -1.03125q-0.421875 -0.375 -1.09375 -0.5625q-0.65625 -0.203125 -1.734375 -0.375q-1.453125 -0.28125 -2.34375 -0.5625q-0.875 -0.28125 -1.5 -0.953125q-0.625 -0.6875 -0.625 -1.890625q0 -1.5 1.25 -2.4375q1.25 -0.953125 3.46875 -0.953125q1.15625 0 2.3125 0.3125q1.15625 0.296875 1.90625 0.796875l-0.703125 1.28125q-1.484375 -1.015625 -3.515625 -1.015625q-1.546875 0 -2.328125 0.546875q-0.78125 0.546875 -0.78125 1.421875q0 0.6875 0.4375 1.09375q0.453125 0.40625 1.109375 0.59375q0.65625 0.1875 1.8125 0.40625q1.421875 0.265625 2.28125 0.546875q0.859375 0.265625 1.46875 0.921875q0.625 0.65625 0.625 1.8125q0 1.5625 -1.3125 2.484375q-1.296875 0.90625 -3.609375 0.90625zm18.266418 -5.5625l-9.96875 0q0.125 1.84375 1.421875 3.0q1.296875 1.140625 3.265625 1.140625q1.109375 0 2.03125 -0.390625q0.9375 -0.40625 1.609375 -1.171875l0.90625 1.046875q-0.796875 0.9375 -1.984375 1.4375q-1.1875 0.5 -2.609375 0.5q-1.84375 0 -3.265625 -0.78125q-1.40625 -0.78125 -2.203125 -2.15625q-0.78125 -1.390625 -0.78125 -3.125q0 -1.75 0.75 -3.125q0.765625 -1.390625 2.078125 -2.15625q1.328125 -0.765625 2.984375 -0.765625q1.65625 0 2.96875 0.765625q1.3125 0.765625 2.0625 2.140625q0.75 1.375 0.75 3.140625l-0.015625 0.5zm-5.765625 -5.171875q-1.71875 0 -2.890625 1.109375q-1.15625 1.09375 -1.3125 2.859375l8.4375 0q-0.15625 -1.765625 -1.328125 -2.859375q-1.15625 -1.109375 -2.90625 -1.109375zm21.27649 9.90625q-0.453125 0.40625 -1.125 0.625q-0.65625 0.203125 -1.390625 0.203125q-1.671875 0 -2.578125 -0.90625q-0.90625 -0.90625 -0.90625 -2.5625l0 -7.203125l-2.125 0l0 -1.359375l2.125 0l0 -2.59375l1.609375 0l0 2.59375l3.625 0l0 1.359375l-3.625 0l0 7.125q0 1.0625 0.53125 1.625q0.53125 0.546875 1.53125 0.546875q0.5 0 0.953125 -0.15625q0.46875 -0.15625 0.8125 -0.453125l0.5625 1.15625zm7.361511 0.828125q-1.71875 0 -3.109375 -0.78125q-1.375 -0.78125 -2.171875 -2.15625q-0.78125 -1.390625 -0.78125 -3.125q0 -1.75 0.78125 -3.125q0.796875 -1.390625 2.171875 -2.15625q1.390625 -0.765625 3.109375 -0.765625q1.71875 0 3.09375 0.765625q1.390625 0.765625 2.171875 2.15625q0.78125 1.375 0.78125 3.125q0 1.734375 -0.78125 3.125q-0.78125 1.375 -2.171875 2.15625q-1.375 0.78125 -3.09375 0.78125zm0 -1.421875q1.265625 0 2.28125 -0.578125q1.015625 -0.578125 1.578125 -1.640625q0.5625 -1.0625 0.5625 -2.421875q0 -1.359375 -0.5625 -2.421875q-0.5625 -1.078125 -1.578125 -1.65625q-1.015625 -0.578125 -2.28125 -0.578125q-1.265625 0 -2.28125 0.578125q-1.0 0.578125 -1.578125 1.65625q-0.578125 1.0625 -0.578125 2.421875q0 1.359375 0.578125 2.421875q0.578125 1.0625 1.578125 1.640625q1.015625 0.578125 2.28125 0.578125z" fill-rule="nonzero"/><path fill="#000000" fill-opacity="0.0" d="m808.3733 300.14374l5.935913 0l0 27.61792l-5.935913 0l0 -27.61792z" fill-rule="nonzero"/><path fill="#e3e16c" d="m506.52493 327.31497l160.76834 0l0 27.199982l-160.76834 0l0 -27.199982z" fill-rule="nonzero"/><path fill="#000000" fill-opacity="0.0" d="m506.52493 327.14374l160.76834 0l0 27.61792l-160.76834 0l0 -27.61792z" fill-rule="nonzero"/><path fill="#000000" d="m515.0406 348.3562q-0.453125 0.40625 -1.125 0.625q-0.65625 0.203125 -1.390625 0.203125q-1.6719055 0 -2.5781555 -0.90625q-0.90625 -0.90625 -0.90625 -2.5625l0 -7.203125l-2.125 0l0 -1.359375l2.125 0l0 -2.59375l1.609375 0l0 2.59375l3.6250305 0l0 1.359375l-3.6250305 0l0 7.125q0 1.0625 0.53125 1.625q0.53125 0.546875 1.5312805 0.546875q0.5 0 0.953125 -0.15625q0.46875 -0.15625 0.8125 -0.453125l0.5625 1.15625zm8.9953 -11.28125q2.25 0 3.5625 1.296875q1.328125 1.296875 1.328125 3.796875l0 6.90625l-1.609375 0l0 -6.75q0 -1.859375 -0.9375 -2.828125q-0.921875 -0.984375 -2.640625 -0.984375q-1.921875 0 -3.046875 1.15625q-1.125 1.140625 -1.125 3.15625l0 6.25l-1.59375 0l0 -16.8125l1.59375 0l0 6.984375q0.671875 -1.046875 1.8125 -1.609375q1.15625 -0.5625 2.65625 -0.5625zm19.696045 6.546875l-9.96875 0q0.125 1.84375 1.421875 3.0q1.296875 1.140625 3.265625 1.140625q1.109375 0 2.03125 -0.390625q0.9375 -0.40625 1.609375 -1.171875l0.90625 1.046875q-0.796875 0.9375 -1.984375 1.4375q-1.1875 0.5 -2.609375 0.5q-1.84375 0 -3.265625 -0.78125q-1.40625 -0.78125 -2.203125 -2.15625q-0.78125 -1.390625 -0.78125 -3.125q0 -1.75 0.75 -3.125q0.765625 -1.390625 2.078125 -2.15625q1.328125 -0.765625 2.984375 -0.765625q1.65625 0 2.96875 0.765625q1.3125 0.765625 2.0625 2.140625q0.75 1.375 0.75 3.140625l-0.015625 0.5zm-5.765625 -5.171875q-1.71875 0 -2.890625 1.109375q-1.15625 1.09375 -1.3125 2.859375l8.4375 0q-0.15625 -1.765625 -1.328125 -2.859375q-1.15625 -1.109375 -2.90625 -1.109375zm19.948425 10.734375q-1.765625 0 -3.171875 -0.765625q-1.390625 -0.765625 -2.1875 -2.15625q-0.78125 -1.40625 -0.78125 -3.140625q0 -1.75 0.78125 -3.125q0.796875 -1.390625 2.1875 -2.15625q1.40625 -0.765625 3.171875 -0.765625q1.53125 0 2.734375 0.59375q1.21875 0.59375 1.921875 1.75l-1.203125 0.828125q-0.578125 -0.890625 -1.484375 -1.328125q-0.90625 -0.453125 -1.96875 -0.453125q-1.296875 0 -2.328125 0.578125q-1.03125 0.578125 -1.609375 1.65625q-0.578125 1.0625 -0.578125 2.421875q0 1.375 0.578125 2.4375q0.578125 1.046875 1.609375 1.625q1.03125 0.578125 2.328125 0.578125q1.0625 0 1.96875 -0.421875q0.90625 -0.4375 1.484375 -1.328125l1.203125 0.8125q-0.703125 1.15625 -1.921875 1.765625q-1.21875 0.59375 -2.734375 0.59375zm13.699097 -12.109375q2.25 0 3.5625 1.296875q1.328125 1.296875 1.328125 3.796875l0 6.90625l-1.609375 0l0 -6.75q0 -1.859375 -0.9375 -2.828125q-0.921875 -0.984375 -2.640625 -0.984375q-1.921875 0 -3.046875 1.15625q-1.125 1.140625 -1.125 3.15625l0 6.25l-1.59375 0l0 -16.8125l1.59375 0l0 6.984375q0.671875 -1.046875 1.8125 -1.609375q1.15625 -0.5625 2.65625 -0.5625zm13.432007 0q2.34375 0 3.578125 1.171875q1.25 1.15625 1.25 3.4375l0 7.390625l-1.53125 0l0 -1.859375q-0.546875 0.9375 -1.609375 1.453125q-1.046875 0.515625 -2.5 0.515625q-1.984375 0 -3.171875 -0.953125q-1.171875 -0.953125 -1.171875 -2.515625q0 -1.515625 1.09375 -2.4375q1.09375 -0.9375 3.5 -0.9375l3.78125 0l0 -0.71875q0 -1.546875 -0.859375 -2.34375q-0.859375 -0.8125 -2.515625 -0.8125q-1.125 0 -2.171875 0.375q-1.046875 0.375 -1.796875 1.03125l-0.71875 -1.203125q0.90625 -0.765625 2.171875 -1.171875q1.265625 -0.421875 2.671875 -0.421875zm-0.5625 10.84375q1.359375 0 2.328125 -0.625q0.984375 -0.625 1.453125 -1.796875l0 -1.953125l-3.734375 0q-3.0625 0 -3.0625 2.140625q0 1.03125 0.796875 1.640625q0.796875 0.59375 2.21875 0.59375zm9.773376 -15.65625l1.59375 0l0 16.8125l-1.59375 0l0 -16.8125zm6.0945435 0l1.59375 0l0 16.8125l-1.59375 0l0 -16.8125zm16.469482 11.359375l-9.96875 0q0.125 1.84375 1.421875 3.0q1.296875 1.140625 3.265625 1.140625q1.109375 0 2.03125 -0.390625q0.9375 -0.40625 1.609375 -1.171875l0.90625 1.046875q-0.796875 0.9375 -1.984375 1.4375q-1.1875 0.5 -2.609375 0.5q-1.84375 0 -3.265625 -0.78125q-1.40625 -0.78125 -2.203125 -2.15625q-0.78125 -1.390625 -0.78125 -3.125q0 -1.75 0.75 -3.125q0.765625 -1.390625 2.078125 -2.15625q1.328125 -0.765625 2.984375 -0.765625q1.65625 0 2.96875 0.765625q1.3125 0.765625 2.0625 2.140625q0.75 1.375 0.75 3.140625l-0.015625 0.5zm-5.765625 -5.171875q-1.71875 0 -2.890625 1.109375q-1.15625 1.09375 -1.3125 2.859375l8.4375 0q-0.15625 -1.765625 -1.328125 -2.859375q-1.15625 -1.109375 -2.90625 -1.109375zm15.137451 -1.375q2.25 0 3.5625 1.296875q1.328125 1.296875 1.328125 3.796875l0 6.90625l-1.609375 0l0 -6.75q0 -1.859375 -0.9375 -2.828125q-0.921875 -0.984375 -2.640625 -0.984375q-1.921875 0 -3.046875 1.15625q-1.125 1.140625 -1.125 3.15625l0 6.25l-1.59375 0l0 -11.921875l1.53125 0l0 2.203125q0.65625 -1.09375 1.828125 -1.6875q1.171875 -0.59375 2.703125 -0.59375zm20.352356 0.078125l0 10.46875q0 3.03125 -1.484375 4.5q-1.484375 1.46875 -4.484375 1.46875q-1.65625 0 -3.140625 -0.5q-1.46875 -0.484375 -2.40625 -1.34375l0.8125 -1.21875q0.859375 0.765625 2.09375 1.1875q1.234375 0.4375 2.59375 0.4375q2.265625 0 3.328125 -1.0625q1.078125 -1.046875 1.078125 -3.265625l0 -1.515625q-0.75 1.140625 -1.96875 1.734375q-1.203125 0.578125 -2.6875 0.578125q-1.671875 0 -3.046875 -0.734375q-1.359375 -0.734375 -2.140625 -2.0625q-0.78125 -1.328125 -0.78125 -3.0q0 -1.671875 0.78125 -2.984375q0.78125 -1.328125 2.140625 -2.046875q1.359375 -0.71875 3.046875 -0.71875q1.53125 0 2.75 0.609375q1.21875 0.609375 1.96875 1.765625l0 -2.296875l1.546875 0zm-6.09375 10.046875q1.28125 0 2.328125 -0.546875q1.046875 -0.5625 1.625 -1.5625q0.578125 -1.0 0.578125 -2.265625q0 -1.265625 -0.578125 -2.25q-0.578125 -1.0 -1.609375 -1.546875q-1.03125 -0.5625 -2.34375 -0.5625q-1.296875 0 -2.328125 0.546875q-1.03125 0.546875 -1.609375 1.546875q-0.578125 1.0 -0.578125 2.265625q0 1.265625 0.578125 2.265625q0.578125 1.0 1.609375 1.5625q1.03125 0.546875 2.328125 0.546875zm20.979675 -3.578125l-9.96875 0q0.125 1.84375 1.421875 3.0q1.296875 1.140625 3.265625 1.140625q1.109375 0 2.03125 -0.390625q0.9375 -0.40625 1.609375 -1.171875l0.90625 1.046875q-0.796875 0.9375 -1.984375 1.4375q-1.1875 0.5 -2.609375 0.5q-1.84375 0 -3.265625 -0.78125q-1.40625 -0.78125 -2.203125 -2.15625q-0.78125 -1.390625 -0.78125 -3.125q0 -1.75 0.75 -3.125q0.765625 -1.390625 2.078125 -2.15625q1.328125 -0.765625 2.984375 -0.765625q1.65625 0 2.96875 0.765625q1.3125 0.765625 2.0625 2.140625q0.75 1.375 0.75 3.140625l-0.015625 0.5zm-5.765625 -5.171875q-1.71875 0 -2.890625 1.109375q-1.15625 1.09375 -1.3125 2.859375l8.4375 0q-0.15625 -1.765625 -1.328125 -2.859375q-1.15625 -1.109375 -2.90625 -1.109375zm9.231201 10.734375q-0.5 0 -0.859375 -0.359375q-0.34375 -0.359375 -0.34375 -0.875q0 -0.53125 0.34375 -0.875q0.359375 -0.359375 0.859375 -0.359375q0.5 0 0.859375 0.359375q0.359375 0.34375 0.359375 0.875q0 0.515625 -0.359375 0.875q-0.359375 0.359375 -0.859375 0.359375z" fill-rule="nonzero"/><path fill="#010000" fill-opacity="0.0" d="m667.2933 327.14374l0 0l0 27.61792l0 0l0 -27.61792z" fill-rule="nonzero"/></g></svg>