<svg version="1.1" viewBox="0.0 0.0 960.0 540.0" fill="none" stroke="none" stroke-linecap="square" stroke-miterlimit="10" xmlns:xlink="http://www.w3.org/1999/xlink" xmlns="http://www.w3.org/2000/svg"><clipPath id="g75e3084146_0_76.0"><path d="m0 0l960.0 0l0 540.0l-960.0 0l0 -540.0z" clip-rule="nonzero"/></clipPath><g clip-path="url(#g75e3084146_0_76.0)"><path fill="#ffffff" d="m0 0l960.0 0l0 540.0l-960.0 0z" fill-rule="evenodd"/><path fill="#000000" fill-opacity="0.0" d="m130.66142 94.0l314.96063 0l0 352.0l-314.96063 0z" fill-rule="evenodd"/><path fill="#000000" d="m153.03642 126.0075l-13.140625 0l0 -7.75l35.78125 0l0 7.75l-13.140625 0l0 33.312508l-9.5 0l0 -33.312508zm46.280792 1.28125q5.859375 0 9.46875 3.5312576q3.609375 3.515625 3.609375 10.4375l0 18.0625l-9.15625 0l0 -16.65625q0 -3.75 -1.640625 -5.59375q-1.640625 -1.859375 -4.75 -1.859375q-3.453125 0 -5.515625 2.140625q-2.046875 2.140625 -2.046875 6.359375l0 15.609375l-9.15625 0l0 -43.515633l9.15625 0l0 15.250008q1.8125 -1.828125 4.390625 -2.796875q2.59375 -0.9687576 5.640625 -0.9687576zm52.61783 16.375008q0 0.171875 -0.1875 2.453125l-23.859375 0q0.640625 2.9375 3.046875 4.640625q2.40625 1.703125 5.984375 1.703125q2.453125 0 4.359375 -0.734375q1.90625 -0.734375 3.546875 -2.3125l4.875 5.265625q-4.453125 5.109375 -13.015625 5.109375q-5.34375 0 -9.453125 -2.078125q-4.109375 -2.09375 -6.34375 -5.78125q-2.21875 -3.703125 -2.21875 -8.390625q0 -4.625 2.203125 -8.34375q2.203125 -3.734375 6.03125 -5.8125q3.84375 -2.0937576 8.609375 -2.0937576q4.625 0 8.375 2.0000076q3.765625 2.0 5.90625 5.71875q2.140625 3.71875 2.140625 8.65625zm-16.375 -9.453125q-3.109375 0 -5.21875 1.765625q-2.109375 1.765625 -2.578125 4.8125l15.546875 0q-0.46875 -3.0 -2.59375 -4.78125q-2.109375 -1.796875 -5.15625 -1.796875z" fill-rule="nonzero"/><path fill="#000000" d="m175.2083 197.7575l-14.25 33.5q-2.171875 5.453125 -5.375 7.671875q-3.1875 2.234375 -7.703125 2.234375q-2.46875 0 -4.875 -0.765625q-2.40625 -0.75 -3.9375 -2.109375l3.34375 -6.5q1.0625 0.9375 2.4375 1.453125q1.375 0.53125 2.734375 0.53125q1.875 0 3.046875 -0.90625q1.171875 -0.90625 2.109375 -3.015625l0.125 -0.296875l-13.671875 -31.796875l9.4375 0l8.859375 21.421875l8.921875 -21.421875l8.796875 0zm3.748291 0l9.15625 0l0 31.5625l-9.15625 0l0 -31.5625zm4.578125 -4.390625q-2.53125 0 -4.109375 -1.46875q-1.578125 -1.46875 -1.578125 -3.640625q0 -2.171875 1.578125 -3.625q1.578125 -1.46875 4.109375 -1.46875q2.515625 0 4.09375 1.40625q1.59375 1.40625 1.59375 3.515625q0 2.28125 -1.59375 3.78125q-1.578125 1.5 -4.09375 1.5zm43.999268 20.296875q0 0.171875 -0.1875 2.453125l-23.859375 0q0.640625 2.9375 3.046875 4.640625q2.40625 1.703125 5.984375 1.703125q2.453125 0 4.359375 -0.734375q1.90625 -0.734375 3.546875 -2.3125l4.875 5.265625q-4.453125 5.109375 -13.015625 5.109375q-5.34375 0 -9.453125 -2.078125q-4.109375 -2.09375 -6.34375 -5.78125q-2.21875 -3.703125 -2.21875 -8.390625q0 -4.625 2.203125 -8.34375q2.203125 -3.734375 6.03125 -5.8125q3.84375 -2.09375 8.609375 -2.09375q4.625 0 8.375 2.0q3.765625 2.0 5.90625 5.71875q2.140625 3.71875 2.140625 8.65625zm-16.375 -9.453125q-3.109375 0 -5.21875 1.765625q-2.109375 1.765625 -2.578125 4.8125l15.546875 0q-0.46875 -3.0 -2.59375 -4.78125q-2.109375 -1.796875 -5.15625 -1.796875zm22.465195 -18.40625l9.15625 0l0 43.515625l-9.15625 0l0 -43.515625zm49.796143 0l0 43.515625l-8.734375 0l0 -3.640625q-3.40625 4.109375 -9.859375 4.109375q-4.453125 0 -8.0625 -1.984375q-3.609375 -2.0 -5.65625 -5.6875q-2.046875 -3.703125 -2.046875 -8.578125q0 -4.859375 2.046875 -8.546875q2.046875 -3.703125 5.65625 -5.703125q3.609375 -2.0 8.0625 -2.0q6.046875 0 9.453125 3.8125l0 -15.296875l9.140625 0zm-17.0 36.484375q3.453125 0 5.734375 -2.375q2.296875 -2.390625 2.296875 -6.375q0 -3.984375 -2.296875 -6.359375q-2.28125 -2.375 -5.734375 -2.375q-3.515625 0 -5.8125 2.375q-2.28125 2.375 -2.28125 6.359375q0 3.984375 2.28125 6.375q2.296875 2.375 5.8125 2.375zm36.074463 7.5q-3.9375 0 -7.6875 -0.96875q-3.75 -0.96875 -5.984375 -2.4375l3.046875 -6.5625q2.109375 1.34375 5.09375 2.203125q3.0 0.84375 5.875 0.84375q5.8125 0 5.8125 -2.875q0 -1.34375 -1.59375 -1.921875q-1.578125 -0.59375 -4.859375 -1.015625q-3.875 -0.578125 -6.40625 -1.34375q-2.515625 -0.765625 -4.359375 -2.6875q-1.84375 -1.9375 -1.84375 -5.515625q0 -3.0 1.71875 -5.3125q1.734375 -2.328125 5.046875 -3.609375q3.328125 -1.296875 7.84375 -1.296875q3.34375 0 6.65625 0.734375q3.3125 0.734375 5.484375 2.03125l-3.0625 6.5q-4.15625 -2.34375 -9.078125 -2.34375q-2.9375 0 -4.40625 0.828125q-1.46875 0.8125 -1.46875 2.109375q0 1.46875 1.578125 2.0625q1.59375 0.578125 5.046875 1.109375q3.875 0.640625 6.34375 1.375q2.46875 0.734375 4.28125 2.671875q1.8125 1.9375 1.8125 5.390625q0 2.9375 -1.765625 5.234375q-1.75 2.28125 -5.125 3.546875q-3.375 1.25 -8.0 1.25z" fill-rule="nonzero"/><path fill="#000000" d="m158.8958 299.78876q-4.984375 0 -8.953125 -2.078125q-3.953125 -2.09375 -6.1875 -5.78125q-2.21875 -3.703125 -2.21875 -8.390625q0 -4.6875 2.21875 -8.375q2.234375 -3.703125 6.1875 -5.78125q3.96875 -2.09375 8.953125 -2.09375q4.984375 0 8.90625 2.09375q3.9375 2.078125 6.171875 5.78125q2.234375 3.6875 2.234375 8.375q0 4.6875 -2.234375 8.390625q-2.234375 3.6875 -6.171875 5.78125q-3.921875 2.078125 -8.90625 2.078125zm0 -7.5q3.53125 0 5.78125 -2.375q2.265625 -2.390625 2.265625 -6.375q0 -3.984375 -2.265625 -6.359375q-2.25 -2.375 -5.78125 -2.375q-3.515625 0 -5.8125 2.375q-2.28125 2.375 -2.28125 6.359375q0 3.984375 2.28125 6.375q2.296875 2.375 5.8125 2.375zm55.201065 -24.53125l0 31.5625l-8.6875 0l0 -3.75q-1.8125 2.046875 -4.34375 3.140625q-2.515625 1.078125 -5.453125 1.078125q-6.203125 0 -9.84375 -3.578125q-3.640625 -3.578125 -3.640625 -10.609375l0 -17.84375l9.15625 0l0 16.484375q0 7.625 6.390625 7.625q3.28125 0 5.265625 -2.140625q2.0 -2.140625 2.0 -6.359375l0 -15.609375l9.15625 0zm17.249939 4.171875q1.640625 -2.296875 4.421875 -3.46875q2.78125 -1.171875 6.421875 -1.171875l0 8.453125q-1.515625 -0.125 -2.046875 -0.125q-3.9375 0 -6.171875 2.203125q-2.21875 2.203125 -2.21875 6.59375l0 14.90625l-9.15625 0l0 -31.5625l8.75 0l0 4.171875z" fill-rule="nonzero"/><path fill="#000000" d="m194.56767 337.7575l-11.4375 31.5625l-8.796875 0l-7.109375 -19.59375l-7.328125 19.59375l-8.796875 0l-11.375 -31.5625l8.625 0l7.4375 21.359375l7.75 -21.359375l7.734375 0l7.515625 21.359375l7.6875 -21.359375l8.09375 0zm18.408997 32.03125q-4.984375 0 -8.953125 -2.078125q-3.953125 -2.09375 -6.1875 -5.78125q-2.21875 -3.703125 -2.21875 -8.390625q0 -4.6875 2.21875 -8.375q2.234375 -3.703125 6.1875 -5.78125q3.96875 -2.09375 8.953125 -2.09375q4.984375 0 8.90625 2.09375q3.9375 2.078125 6.171875 5.78125q2.234375 3.6875 2.234375 8.375q0 4.6875 -2.234375 8.390625q-2.234375 3.6875 -6.171875 5.78125q-3.921875 2.078125 -8.90625 2.078125zm0 -7.5q3.53125 0 5.78125 -2.375q2.265625 -2.390625 2.265625 -6.375q0 -3.984375 -2.265625 -6.359375q-2.25 -2.375 -5.78125 -2.375q-3.515625 0 -5.8125 2.375q-2.28125 2.375 -2.28125 6.359375q0 3.984375 2.28125 6.375q2.296875 2.375 5.8125 2.375zm32.15419 -20.359375q1.640625 -2.296875 4.421875 -3.46875q2.78125 -1.171875 6.421875 -1.171875l0 8.453125q-1.515625 -0.125 -2.046875 -0.125q-3.9375 0 -6.171875 2.203125q-2.21875 2.203125 -2.21875 6.59375l0 14.90625l-9.15625 0l0 -31.5625l8.75 0l0 4.171875zm16.296143 -16.125l9.15625 0l0 43.515625l-9.15625 0l0 -43.515625zm49.796143 0l0 43.515625l-8.734375 0l0 -3.640625q-3.40625 4.109375 -9.859375 4.109375q-4.453125 0 -8.0625 -1.984375q-3.609375 -2.0 -5.65625 -5.6875q-2.046875 -3.703125 -2.046875 -8.578125q0 -4.859375 2.046875 -8.546875q2.046875 -3.703125 5.65625 -5.703125q3.609375 -2.0 8.0625 -2.0q6.046875 0 9.453125 3.8125l0 -15.296875l9.140625 0zm-17.0 36.484375q3.453125 0 5.734375 -2.375q2.296875 -2.390625 2.296875 -6.375q0 -3.984375 -2.296875 -6.359375q-2.28125 -2.375 -5.734375 -2.375q-3.515625 0 -5.8125 2.375q-2.28125 2.375 -2.28125 6.359375q0 3.984375 2.28125 6.375q2.296875 2.375 5.8125 2.375z" fill-rule="nonzero"/><path fill="#000000" d="m163.06767 407.28876q5.859375 0 9.46875 3.53125q3.609375 3.515625 3.609375 10.4375l0 18.0625l-9.15625 0l0 -16.65625q0 -3.75 -1.640625 -5.59375q-1.640625 -1.859375 -4.75 -1.859375q-3.453125 0 -5.515625 2.140625q-2.046875 2.140625 -2.046875 6.359375l0 15.609375l-9.15625 0l0 -31.5625l8.75 0l0 3.703125q1.8125 -2.0 4.5 -3.078125q2.703125 -1.09375 5.9375 -1.09375zm52.61783 16.375q0 0.171875 -0.1875 2.453125l-23.859375 0q0.640625 2.9375 3.046875 4.640625q2.40625 1.703125 5.984375 1.703125q2.453125 0 4.359375 -0.734375q1.90625 -0.734375 3.546875 -2.3125l4.875 5.265625q-4.453125 5.109375 -13.015625 5.109375q-5.34375 0 -9.453125 -2.078125q-4.109375 -2.09375 -6.34375 -5.78125q-2.21875 -3.703125 -2.21875 -8.390625q0 -4.625 2.203125 -8.34375q2.203125 -3.734375 6.03125 -5.8125q3.84375 -2.09375 8.609375 -2.09375q4.625 0 8.375 2.0q3.765625 2.0 5.90625 5.71875q2.140625 3.71875 2.140625 8.65625zm-16.375 -9.453125q-3.109375 0 -5.21875 1.765625q-2.109375 1.765625 -2.578125 4.8125l15.546875 0q-0.46875 -3.0 -2.59375 -4.78125q-2.109375 -1.796875 -5.15625 -1.796875zm53.38707 9.453125q0 0.171875 -0.1875 2.453125l-23.859375 0q0.640625 2.9375 3.046875 4.640625q2.40625 1.703125 5.984375 1.703125q2.453125 0 4.359375 -0.734375q1.90625 -0.734375 3.546875 -2.3125l4.875 5.265625q-4.453125 5.109375 -13.015625 5.109375q-5.34375 0 -9.453125 -2.078125q-4.109375 -2.09375 -6.34375 -5.78125q-2.21875 -3.703125 -2.21875 -8.390625q0 -4.625 2.203125 -8.34375q2.203125 -3.734375 6.03125 -5.8125q3.84375 -2.09375 8.609375 -2.09375q4.625 0 8.375 2.0q3.765625 2.0 5.90625 5.71875q2.140625 3.71875 2.140625 8.65625zm-16.375 -9.453125q-3.109375 0 -5.21875 1.765625q-2.109375 1.765625 -2.578125 4.8125l15.546875 0q-0.46875 -3.0 -2.59375 -4.78125q-2.109375 -1.796875 -5.15625 -1.796875zm54.605804 -18.40625l0 43.515625l-8.734375 0l0 -3.640625q-3.40625 4.109375 -9.859375 4.109375q-4.453125 0 -8.0625 -1.984375q-3.609375 -2.0 -5.65625 -5.6875q-2.046875 -3.703125 -2.046875 -8.578125q0 -4.859375 2.046875 -8.546875q2.046875 -3.703125 5.65625 -5.703125q3.609375 -2.0 8.0625 -2.0q6.046875 0 9.453125 3.8125l0 -15.296875l9.140625 0zm-17.0 36.484375q3.453125 0 5.734375 -2.375q2.296875 -2.390625 2.296875 -6.375q0 -3.984375 -2.296875 -6.359375q-2.28125 -2.375 -5.734375 -2.375q-3.515625 0 -5.8125 2.375q-2.28125 2.375 -2.28125 6.359375q0 3.984375 2.28125 6.375q2.296875 2.375 5.8125 2.375zm36.074493 7.5q-3.9375 0 -7.6875 -0.96875q-3.75 -0.96875 -5.984375 -2.4375l3.046875 -6.5625q2.109375 1.34375 5.09375 2.203125q3.0 0.84375 5.875 0.84375q5.8125 0 5.8125 -2.875q0 -1.34375 -1.59375 -1.921875q-1.578125 -0.59375 -4.859375 -1.015625q-3.875 -0.578125 -6.40625 -1.34375q-2.515625 -0.765625 -4.359375 -2.6875q-1.84375 -1.9375 -1.84375 -5.515625q0 -3.0 1.71875 -5.3125q1.734375 -2.328125 5.046875 -3.609375q3.328125 -1.296875 7.84375 -1.296875q3.34375 0 6.65625 0.734375q3.3125 0.734375 5.484375 2.03125l-3.0625 6.5q-4.15625 -2.34375 -9.078125 -2.34375q-2.9375 0 -4.40625 0.828125q-1.46875 0.8125 -1.46875 2.109375q0 1.46875 1.578125 2.0625q1.59375 0.578125 5.046875 1.109375q3.875 0.640625 6.34375 1.375q2.46875 0.734375 4.28125 2.671875q1.8125 1.9375 1.8125 5.390625q0 2.9375 -1.765625 5.234375q-1.75 2.28125 -5.125 3.546875q-3.375 1.25 -8.0 1.25zm23.990204 0q-2.40625 0 -4.046875 -1.640625q-1.640625 -1.640625 -1.640625 -4.109375q0 -2.515625 1.640625 -4.0625q1.640625 -1.5625 4.046875 -1.5625q2.40625 0 4.046875 1.5625q1.640625 1.546875 1.640625 4.0625q0 2.46875 -1.640625 4.109375q-1.640625 1.640625 -4.046875 1.640625z" fill-rule="nonzero"/><path fill="#000000" fill-opacity="0.0" d="m497.52493 210.31496l349.82675 0l0 119.37007l-349.82675 0z" fill-rule="evenodd"/><path fill="#e3e16c" d="m506.52493 219.31496l327.2391 0l0 28.800003l-327.2391 0l0 -28.800003z" fill-rule="nonzero"/><path fill="#000000" fill-opacity="0.0" d="m506.52493 219.12303l327.2391 0l0 29.25592l-327.2391 0l0 -29.25592z" fill-rule="nonzero"/><path fill="#000000" d="m511.04056 227.08934l0 6.609375l8.6875305 0l0 1.53125l-8.6875305 0l0 7.125l-1.78125 0l0 -16.796875l11.5156555 0l0 1.53125l-9.7344055 0zm16.969208 2.546875q2.46875 0 3.78125 1.234375q1.328125 1.234375 1.328125 3.65625l0 7.828125l-1.640625 0l0 -1.96875q-0.5625 0.984375 -1.6875 1.546875q-1.109375 0.546875 -2.65625 0.546875q-2.109375 0 -3.359375 -1.0q-1.25 -1.015625 -1.25 -2.671875q0 -1.609375 1.15625 -2.59375q1.171875 -0.984375 3.71875 -0.984375l4.015625 0l0 -0.765625q0 -1.640625 -0.921875 -2.484375q-0.90625 -0.859375 -2.65625 -0.859375q-1.203125 0 -2.3125 0.40625q-1.09375 0.390625 -1.890625 1.078125l-0.765625 -1.265625q0.953125 -0.8125 2.296875 -1.25q1.34375 -0.453125 2.84375 -0.453125zm-0.609375 11.5q1.4375 0 2.46875 -0.65625q1.046875 -0.671875 1.546875 -1.921875l0 -2.0625l-3.96875 0q-3.234375 0 -3.234375 2.265625q0 1.09375 0.84375 1.734375q0.84375 0.640625 2.34375 0.640625zm11.988098 -8.9375q0.59375 -1.265625 1.78125 -1.90625q1.1875 -0.65625 2.9375 -0.65625l0 1.65625l-0.40625 -0.03125q-1.984375 0 -3.125 1.234375q-1.125 1.21875 -1.125 3.421875l0 6.4375l-1.703125 0l0 -12.625l1.640625 0l0 2.46875zm23.54132 -2.5625q2.375 0 3.71875 1.375q1.359375 1.359375 1.359375 4.03125l0 7.3125l-1.703125 0l0 -7.15625q0 -1.96875 -0.953125 -3.0q-0.9375 -1.03125 -2.671875 -1.03125q-1.96875 0 -3.09375 1.21875q-1.125 1.203125 -1.125 3.34375l0 6.625l-1.703125 0l0 -7.15625q0 -1.96875 -0.953125 -3.0q-0.9375 -1.03125 -2.703125 -1.03125q-1.9375 0 -3.078125 1.21875q-1.140625 1.203125 -1.140625 3.34375l0 6.625l-1.703125 0l0 -12.625l1.640625 0l0 2.3125q0.671875 -1.15625 1.859375 -1.78125q1.203125 -0.625 2.765625 -0.625q1.578125 0 2.734375 0.671875q1.171875 0.671875 1.75 1.984375q0.703125 -1.234375 2.0 -1.9375q1.3125 -0.71875 3.0 -0.71875zm20.761963 6.9375l-10.5625 0q0.140625 1.96875 1.5 3.1875q1.375 1.203125 3.46875 1.203125q1.171875 0 2.15625 -0.421875q0.984375 -0.421875 1.703125 -1.234375l0.953125 1.109375q-0.828125 1.0 -2.09375 1.53125q-1.265625 0.53125 -2.765625 0.53125q-1.953125 0 -3.453125 -0.828125q-1.5 -0.828125 -2.34375 -2.296875q-0.828125 -1.46875 -0.828125 -3.3125q0 -1.84375 0.796875 -3.3125q0.8125 -1.46875 2.203125 -2.28125q1.40625 -0.8125 3.15625 -0.8125q1.765625 0 3.15625 0.8125q1.390625 0.8125 2.171875 2.265625q0.796875 1.453125 0.796875 3.328125l-0.015625 0.53125zm-6.109375 -5.46875q-1.8125 0 -3.0625 1.171875q-1.234375 1.15625 -1.390625 3.015625l8.953125 0q-0.171875 -1.859375 -1.40625 -3.015625q-1.234375 -1.171875 -3.09375 -1.171875zm11.245972 1.09375q0.59375 -1.265625 1.78125 -1.90625q1.1875 -0.65625 2.9375 -0.65625l0 1.65625l-0.40625 -0.03125q-1.984375 0 -3.125 1.234375q-1.125 1.21875 -1.125 3.421875l0 6.4375l-1.703125 0l0 -12.625l1.640625 0l0 2.46875zm11.277954 10.28125q-1.546875 0 -2.953125 -0.4375q-1.390625 -0.453125 -2.1875 -1.125l0.765625 -1.34375q0.796875 0.625 1.984375 1.015625q1.203125 0.390625 2.5 0.390625q1.734375 0 2.5625 -0.53125q0.828125 -0.546875 0.828125 -1.53125q0 -0.6875 -0.453125 -1.078125q-0.453125 -0.40625 -1.15625 -0.609375q-0.703125 -0.203125 -1.84375 -0.390625q-1.546875 -0.296875 -2.484375 -0.59375q-0.921875 -0.296875 -1.59375 -1.015625q-0.65625 -0.71875 -0.65625 -2.0q0 -1.578125 1.3125 -2.578125q1.328125 -1.015625 3.6875 -1.015625q1.21875 0 2.4375 0.328125q1.234375 0.3125 2.015625 0.84375l-0.734375 1.375q-1.5625 -1.078125 -3.71875 -1.078125q-1.640625 0 -2.46875 0.578125q-0.828125 0.5625 -0.828125 1.5q0 0.71875 0.46875 1.15625q0.46875 0.4375 1.15625 0.640625q0.703125 0.203125 1.9375 0.421875q1.5 0.28125 2.40625 0.578125q0.921875 0.28125 1.5625 0.984375q0.65625 0.6875 0.65625 1.90625q0 1.65625 -1.390625 2.640625q-1.375 0.96875 -3.8125 0.96875zm18.805176 -16.609375q-1.09375 0 -1.671875 0.609375q-0.5625 0.59375 -0.5625 1.765625l0 1.484375l3.890625 0l0 1.4375l-3.828125 0l0 11.1875l-1.71875 0l0 -11.1875l-2.25 0l0 -1.4375l2.25 0l0 -1.5625q0 -1.71875 1.0 -2.71875q1.0 -1.015625 2.828125 -1.015625q0.71875 0 1.390625 0.203125q0.671875 0.203125 1.125 0.578125l-0.578125 1.28125q-0.734375 -0.625 -1.875 -0.625zm8.145996 3.765625q2.46875 0 3.78125 1.234375q1.328125 1.234375 1.328125 3.65625l0 7.828125l-1.640625 0l0 -1.96875q-0.5625 0.984375 -1.6875 1.546875q-1.109375 0.546875 -2.65625 0.546875q-2.109375 0 -3.359375 -1.0q-1.25 -1.015625 -1.25 -2.671875q0 -1.609375 1.15625 -2.59375q1.171875 -0.984375 3.71875 -0.984375l4.015625 0l0 -0.765625q0 -1.640625 -0.921875 -2.484375q-0.90625 -0.859375 -2.65625 -0.859375q-1.203125 0 -2.3125 0.40625q-1.09375 0.390625 -1.890625 1.078125l-0.765625 -1.265625q0.953125 -0.8125 2.296875 -1.25q1.34375 -0.453125 2.84375 -0.453125zm-0.609375 11.5q1.4375 0 2.46875 -0.65625q1.046875 -0.671875 1.546875 -1.921875l0 -2.0625l-3.96875 0q-3.234375 0 -3.234375 2.265625q0 1.09375 0.84375 1.734375q0.84375 0.640625 2.34375 0.640625zm15.629822 1.34375q-1.875 0 -3.359375 -0.8125q-1.46875 -0.828125 -2.3125 -2.296875q-0.828125 -1.484375 -0.828125 -3.328125q0 -1.84375 0.828125 -3.3125q0.84375 -1.46875 2.3125 -2.28125q1.484375 -0.8125 3.359375 -0.8125q1.625 0 2.90625 0.640625q1.296875 0.625 2.03125 1.859375l-1.265625 0.859375q-0.625 -0.9375 -1.59375 -1.40625q-0.953125 -0.46875 -2.078125 -0.46875q-1.375 0 -2.46875 0.609375q-1.078125 0.609375 -1.703125 1.75q-0.609375 1.125 -0.609375 2.5625q0 1.46875 0.609375 2.59375q0.625 1.109375 1.703125 1.71875q1.09375 0.609375 2.46875 0.609375q1.125 0 2.078125 -0.453125q0.96875 -0.453125 1.59375 -1.390625l1.265625 0.859375q-0.734375 1.21875 -2.03125 1.859375q-1.296875 0.640625 -2.90625 0.640625zm19.061584 -5.90625l-10.5625 0q0.140625 1.96875 1.5 3.1875q1.375 1.203125 3.46875 1.203125q1.171875 0 2.15625 -0.421875q0.984375 -0.421875 1.703125 -1.234375l0.953125 1.109375q-0.828125 1.0 -2.09375 1.53125q-1.265625 0.53125 -2.765625 0.53125q-1.953125 0 -3.453125 -0.828125q-1.5 -0.828125 -2.34375 -2.296875q-0.828125 -1.46875 -0.828125 -3.3125q0 -1.84375 0.796875 -3.3125q0.8125 -1.46875 2.203125 -2.28125q1.40625 -0.8125 3.15625 -0.8125q1.765625 0 3.15625 0.8125q1.390625 0.8125 2.171875 2.265625q0.796875 1.453125 0.796875 3.328125l-0.015625 0.53125zm-6.109375 -5.46875q-1.8125 0 -3.0625 1.171875q-1.234375 1.15625 -1.390625 3.015625l8.953125 0q-0.171875 -1.859375 -1.40625 -3.015625q-1.234375 -1.171875 -3.09375 -1.171875zm22.54956 10.484375q-0.484375 0.421875 -1.203125 0.65625q-0.703125 0.234375 -1.46875 0.234375q-1.78125 0 -2.75 -0.953125q-0.953125 -0.96875 -0.953125 -2.71875l0 -7.640625l-2.25 0l0 -1.4375l2.25 0l0 -2.765625l1.71875 0l0 2.765625l3.828125 0l0 1.4375l-3.828125 0l0 7.546875q0 1.125 0.5625 1.71875q0.5625 0.578125 1.609375 0.578125q0.53125 0 1.015625 -0.171875q0.5 -0.171875 0.859375 -0.46875l0.609375 1.21875zm9.5252075 -11.953125q2.375 0 3.765625 1.390625q1.40625 1.375 1.40625 4.015625l0 7.3125l-1.703125 0l0 -7.15625q0 -1.96875 -0.984375 -3.0q-0.984375 -1.03125 -2.796875 -1.03125q-2.046875 0 -3.234375 1.21875q-1.1875 1.203125 -1.1875 3.34375l0 6.625l-1.703125 0l0 -17.8125l1.703125 0l0 7.390625q0.703125 -1.09375 1.921875 -1.6875q1.21875 -0.609375 2.8125 -0.609375zm20.85846 6.9375l-10.5625 0q0.140625 1.96875 1.5 3.1875q1.375 1.203125 3.46875 1.203125q1.171875 0 2.15625 -0.421875q0.984375 -0.421875 1.703125 -1.234375l0.953125 1.109375q-0.828125 1.0 -2.09375 1.53125q-1.265625 0.53125 -2.765625 0.53125q-1.953125 0 -3.453125 -0.828125q-1.5 -0.828125 -2.34375 -2.296875q-0.828125 -1.46875 -0.828125 -3.3125q0 -1.84375 0.796875 -3.3125q0.8125 -1.46875 2.203125 -2.28125q1.40625 -0.8125 3.15625 -0.8125q1.765625 0 3.15625 0.8125q1.390625 0.8125 2.171875 2.265625q0.796875 1.453125 0.796875 3.328125l-0.015625 0.53125zm-6.109375 -5.46875q-1.8125 0 -3.0625 1.171875q-1.234375 1.15625 -1.390625 3.015625l8.953125 0q-0.171875 -1.859375 -1.40625 -3.015625q-1.234375 -1.171875 -3.09375 -1.171875zm21.127686 11.375q-1.875 0 -3.359375 -0.8125q-1.46875 -0.828125 -2.3125 -2.296875q-0.828125 -1.484375 -0.828125 -3.328125q0 -1.84375 0.828125 -3.3125q0.84375 -1.46875 2.3125 -2.28125q1.484375 -0.8125 3.359375 -0.8125q1.625 0 2.90625 0.640625q1.296875 0.625 2.03125 1.859375l-1.265625 0.859375q-0.625 -0.9375 -1.59375 -1.40625q-0.953125 -0.46875 -2.078125 -0.46875q-1.375 0 -2.46875 0.609375q-1.078125 0.609375 -1.703125 1.75q-0.609375 1.125 -0.609375 2.5625q0 1.46875 0.609375 2.59375q0.625 1.109375 1.703125 1.71875q1.09375 0.609375 2.46875 0.609375q1.125 0 2.078125 -0.453125q0.96875 -0.453125 1.59375 -1.390625l1.265625 0.859375q-0.734375 1.21875 -2.03125 1.859375q-1.296875 0.640625 -2.90625 0.640625zm14.523132 -12.84375q2.375 0 3.765625 1.390625q1.40625 1.375 1.40625 4.015625l0 7.3125l-1.703125 0l0 -7.15625q0 -1.96875 -0.984375 -3.0q-0.984375 -1.03125 -2.796875 -1.03125q-2.046875 0 -3.234375 1.21875q-1.1875 1.203125 -1.1875 3.34375l0 6.625l-1.703125 0l0 -17.8125l1.703125 0l0 7.390625q0.703125 -1.09375 1.921875 -1.6875q1.21875 -0.609375 2.8125 -0.609375zm14.2323 0q2.46875 0 3.78125 1.234375q1.328125 1.234375 1.328125 3.65625l0 7.828125l-1.640625 0l0 -1.96875q-0.5625 0.984375 -1.6875 1.546875q-1.109375 0.546875 -2.65625 0.546875q-2.109375 0 -3.359375 -1.0q-1.25 -1.015625 -1.25 -2.671875q0 -1.609375 1.15625 -2.59375q1.171875 -0.984375 3.71875 -0.984375l4.015625 0l0 -0.765625q0 -1.640625 -0.921875 -2.484375q-0.90625 -0.859375 -2.65625 -0.859375q-1.203125 0 -2.3125 0.40625q-1.09375 0.390625 -1.890625 1.078125l-0.765625 -1.265625q0.953125 -0.8125 2.296875 -1.25q1.34375 -0.453125 2.84375 -0.453125zm-0.609375 11.5q1.4375 0 2.46875 -0.65625q1.046875 -0.671875 1.546875 -1.921875l0 -2.0625l-3.96875 0q-3.234375 0 -3.234375 2.265625q0 1.09375 0.84375 1.734375q0.84375 0.640625 2.34375 0.640625zm10.347473 -16.59375l1.703125 0l0 17.8125l-1.703125 0l0 -17.8125zm6.4559937 0l1.703125 0l0 17.8125l-1.703125 0l0 -17.8125zm17.455994 12.03125l-10.5625 0q0.140625 1.96875 1.5 3.1875q1.375 1.203125 3.46875 1.203125q1.171875 0 2.15625 -0.421875q0.984375 -0.421875 1.703125 -1.234375l0.953125 1.109375q-0.828125 1.0 -2.09375 1.53125q-1.265625 0.53125 -2.765625 0.53125q-1.953125 0 -3.453125 -0.828125q-1.5 -0.828125 -2.34375 -2.296875q-0.828125 -1.46875 -0.828125 -3.3125q0 -1.84375 0.796875 -3.3125q0.8125 -1.46875 2.203125 -2.28125q1.40625 -0.8125 3.15625 -0.8125q1.765625 0 3.15625 0.8125q1.390625 0.8125 2.171875 2.265625q0.796875 1.453125 0.796875 3.328125l-0.015625 0.53125zm-6.109375 -5.46875q-1.8125 0 -3.0625 1.171875q-1.234375 1.15625 -1.390625 3.015625l8.953125 0q-0.171875 -1.859375 -1.40625 -3.015625q-1.234375 -1.171875 -3.09375 -1.171875zm16.042847 -1.46875q2.375 0 3.765625 1.390625q1.40625 1.375 1.40625 4.015625l0 7.3125l-1.703125 0l0 -7.15625q0 -1.96875 -0.984375 -3.0q-0.984375 -1.03125 -2.796875 -1.03125q-2.046875 0 -3.234375 1.21875q-1.1875 1.203125 -1.1875 3.34375l0 6.625l-1.703125 0l0 -12.625l1.640625 0l0 2.328125q0.6875 -1.15625 1.921875 -1.78125q1.234375 -0.640625 2.875 -0.640625zm21.54596 0.09375l0 11.09375q0 3.21875 -1.578125 4.765625q-1.5625 1.546875 -4.734375 1.546875q-1.75 0 -3.328125 -0.515625q-1.5625 -0.515625 -2.546875 -1.4375l0.859375 -1.296875q0.90625 0.828125 2.21875 1.28125q1.3125 0.453125 2.75 0.453125q2.40625 0 3.53125 -1.125q1.125 -1.109375 1.125 -3.453125l0 -1.609375q-0.796875 1.1875 -2.078125 1.8125q-1.28125 0.625 -2.84375 0.625q-1.78125 0 -3.234375 -0.78125q-1.4375 -0.78125 -2.265625 -2.171875q-0.828125 -1.40625 -0.828125 -3.1875q0 -1.78125 0.828125 -3.171875q0.828125 -1.390625 2.265625 -2.15625q1.4375 -0.765625 3.234375 -0.765625q1.609375 0 2.90625 0.65625q1.296875 0.640625 2.09375 1.859375l0 -2.421875l1.625 0zm-6.453125 10.640625q1.359375 0 2.46875 -0.59375q1.109375 -0.59375 1.71875 -1.640625q0.609375 -1.0625 0.609375 -2.40625q0 -1.34375 -0.609375 -2.390625q-0.609375 -1.046875 -1.703125 -1.625q-1.09375 -0.59375 -2.484375 -0.59375q-1.375 0 -2.46875 0.578125q-1.078125 0.578125 -1.703125 1.640625q-0.609375 1.046875 -0.609375 2.390625q0 1.34375 0.609375 2.40625q0.625 1.046875 1.703125 1.640625q1.09375 0.59375 2.46875 0.59375zm22.229553 -3.796875l-10.5625 0q0.140625 1.96875 1.5 3.1875q1.375 1.203125 3.46875 1.203125q1.171875 0 2.15625 -0.421875q0.984375 -0.421875 1.703125 -1.234375l0.953125 1.109375q-0.828125 1.0 -2.09375 1.53125q-1.265625 0.53125 -2.765625 0.53125q-1.953125 0 -3.453125 -0.828125q-1.5 -0.828125 -2.34375 -2.296875q-0.828125 -1.46875 -0.828125 -3.3125q0 -1.84375 0.796875 -3.3125q0.8125 -1.46875 2.203125 -2.28125q1.40625 -0.8125 3.15625 -0.8125q1.765625 0 3.15625 0.8125q1.390625 0.8125 2.171875 2.265625q0.796875 1.453125 0.796875 3.328125l-0.015625 0.53125zm-6.109375 -5.46875q-1.8125 0 -3.0625 1.171875q-1.234375 1.15625 -1.390625 3.015625l8.953125 0q-0.171875 -1.859375 -1.40625 -3.015625q-1.234375 -1.171875 -3.09375 -1.171875z" fill-rule="nonzero"/><path fill="#000000" fill-opacity="0.0" d="m833.76404 219.12303l6.287964 0l0 29.25592l-6.287964 0l0 -29.25592z" fill-rule="nonzero"/><path fill="#e3e16c" d="m506.52493 248.31496l285.7432 0l0 28.800003l-285.7432 0l0 -28.800003z" fill-rule="nonzero"/><path fill="#000000" fill-opacity="0.0" d="m506.52493 248.12303l285.7432 0l0 29.255905l-285.7432 0l0 -29.255905z" fill-rule="nonzero"/><path fill="#000000" d="m514.0562 271.47995q-1.8125 0 -3.2812805 -0.828125q-1.46875 -0.828125 -2.3125 -2.296875q-0.828125 -1.46875 -0.828125 -3.3125q0 -1.84375 0.828125 -3.3125q0.84375 -1.46875 2.3125 -2.28125q1.4687805 -0.8125 3.2812805 -0.8125q1.828125 0 3.28125 0.8125q1.46875 0.8125 2.296875 2.28125q0.828125 1.46875 0.828125 3.3125q0 1.84375 -0.828125 3.3125q-0.828125 1.46875 -2.296875 2.296875q-1.453125 0.828125 -3.28125 0.828125zm0 -1.515625q1.34375 0 2.40625 -0.609375q1.078125 -0.609375 1.671875 -1.734375q0.609375 -1.140625 0.609375 -2.578125q0 -1.4375 -0.609375 -2.5625q-0.59375 -1.140625 -1.671875 -1.75q-1.0625 -0.609375 -2.40625 -0.609375q-1.34375 0 -2.4062805 0.609375q-1.0625 0.609375 -1.6875 1.75q-0.609375 1.125 -0.609375 2.5625q0 1.4375 0.609375 2.578125q0.625 1.125 1.6875 1.734375q1.0625305 0.609375 2.4062805 0.609375zm14.063538 -15.093735q-1.09375 0 -1.671875 0.609375q-0.5625 0.59373474 -0.5625 1.7656097l0 1.484375l3.890625 0l0 1.4375l-3.828125 0l0 11.1875l-1.71875 0l0 -11.1875l-2.25 0l0 -1.4375l2.25 0l0 -1.5625q0 -1.7187347 1.0 -2.7187347q1.0 -1.015625 2.828125 -1.015625q0.71875 0 1.390625 0.203125q0.671875 0.203125 1.125 0.578125l-0.578125 1.28125q-0.734375 -0.625 -1.875 -0.625zm16.752075 3.7656097q1.78125 0 3.21875 0.8125q1.4375 0.796875 2.25 2.265625q0.828125 1.453125 0.828125 3.328125q0 1.890625 -0.828125 3.359375q-0.8125 1.46875 -2.234375 2.28125q-1.421875 0.796875 -3.234375 0.796875q-1.53125 0 -2.765625 -0.640625q-1.234375 -0.640625 -2.03125 -1.859375l0 7.03125l-1.703125 0l0 -17.28125l1.640625 0l0 2.5q0.765625 -1.25 2.015625 -1.921875q1.265625 -0.671875 2.84375 -0.671875zm-0.109375 11.328125q1.3125 0 2.390625 -0.609375q1.078125 -0.609375 1.6875 -1.734375q0.625 -1.140625 0.625 -2.578125q0 -1.4375 -0.625 -2.546875q-0.609375 -1.125 -1.6875 -1.75q-1.078125 -0.625 -2.390625 -0.625q-1.34375 0 -2.421875 0.625q-1.0625 0.625 -1.671875 1.75q-0.609375 1.109375 -0.609375 2.546875q0 1.4375 0.609375 2.578125q0.609375 1.125 1.671875 1.734375q1.078125 0.609375 2.421875 0.609375zm11.521973 -8.765625q0.59375 -1.265625 1.78125 -1.90625q1.1875 -0.65625 2.9375 -0.65625l0 1.65625l-0.40625 -0.03125q-1.984375 0 -3.125 1.234375q-1.125 1.21875 -1.125 3.421875l0 6.4375l-1.703125 0l0 -12.625l1.640625 0l0 2.46875zm12.827637 10.28125q-1.8125 0 -3.28125 -0.828125q-1.46875 -0.828125 -2.3125 -2.296875q-0.828125 -1.46875 -0.828125 -3.3125q0 -1.84375 0.828125 -3.3125q0.84375 -1.46875 2.3125 -2.28125q1.46875 -0.8125 3.28125 -0.8125q1.828125 0 3.28125 0.8125q1.46875 0.8125 2.296875 2.28125q0.828125 1.46875 0.828125 3.3125q0 1.84375 -0.828125 3.3125q-0.828125 1.46875 -2.296875 2.296875q-1.453125 0.828125 -3.28125 0.828125zm0 -1.515625q1.34375 0 2.40625 -0.609375q1.078125 -0.609375 1.671875 -1.734375q0.609375 -1.140625 0.609375 -2.578125q0 -1.4375 -0.609375 -2.5625q-0.59375 -1.140625 -1.671875 -1.75q-1.0625 -0.609375 -2.40625 -0.609375q-1.34375 0 -2.40625 0.609375q-1.0625 0.609375 -1.6875 1.75q-0.609375 1.125 -0.609375 2.5625q0 1.4375 0.609375 2.578125q0.625 1.125 1.6875 1.734375q1.0625 0.609375 2.40625 0.609375zm21.407288 -16.42186l0 17.812485l-1.625 0l0 -2.5q-0.765625 1.28125 -2.03125 1.953125q-1.265625 0.671875 -2.84375 0.671875q-1.78125 0 -3.21875 -0.8125q-1.4375 -0.828125 -2.25 -2.28125q-0.8125 -1.46875 -0.8125 -3.34375q0 -1.875 0.8125 -3.328125q0.8125 -1.46875 2.25 -2.265625q1.4375 -0.8125 3.21875 -0.8125q1.53125 0 2.765625 0.640625q1.25 0.625 2.03125 1.859375l0 -7.5937347l1.703125 0zm-6.359375 16.42186q1.328125 0 2.390625 -0.609375q1.0625 -0.609375 1.671875 -1.734375q0.625 -1.140625 0.625 -2.578125q0 -1.4375 -0.625 -2.5625q-0.609375 -1.140625 -1.671875 -1.75q-1.0625 -0.609375 -2.390625 -0.609375q-1.34375 0 -2.40625 0.609375q-1.0625 0.609375 -1.6875 1.75q-0.609375 1.125 -0.609375 2.5625q0 1.4375 0.609375 2.578125q0.625 1.125 1.6875 1.734375q1.0625 0.609375 2.40625 0.609375zm22.490723 -11.234375l0 12.625l-1.625 0l0 -2.296875q-0.671875 1.140625 -1.859375 1.78125q-1.171875 0.640625 -2.6875 0.640625q-2.46875 0 -3.90625 -1.375q-1.421875 -1.390625 -1.421875 -4.046875l0 -7.328125l1.703125 0l0 7.15625q0 1.984375 0.984375 3.015625q0.984375 1.03125 2.8125 1.03125q2.0 0 3.140625 -1.203125q1.15625 -1.21875 1.15625 -3.375l0 -6.625l1.703125 0zm10.011353 12.75q-1.875 0 -3.359375 -0.8125q-1.46875 -0.828125 -2.3125 -2.296875q-0.828125 -1.484375 -0.828125 -3.328125q0 -1.84375 0.828125 -3.3125q0.84375 -1.46875 2.3125 -2.28125q1.484375 -0.8125 3.359375 -0.8125q1.625 0 2.90625 0.640625q1.296875 0.625 2.03125 1.859375l-1.265625 0.859375q-0.625 -0.9375 -1.59375 -1.40625q-0.953125 -0.46875 -2.078125 -0.46875q-1.375 0 -2.46875 0.609375q-1.078125 0.609375 -1.703125 1.75q-0.609375 1.125 -0.609375 2.5625q0 1.46875 0.609375 2.59375q0.625 1.109375 1.703125 1.71875q1.09375 0.609375 2.46875 0.609375q1.125 0 2.078125 -0.453125q0.96875 -0.453125 1.59375 -1.390625l1.265625 0.859375q-0.734375 1.21875 -2.03125 1.859375q-1.296875 0.640625 -2.90625 0.640625zm8.277588 -12.75l1.703125 0l0 12.625l-1.703125 0l0 -12.625zm0.859375 -2.7656097q-0.53125 0 -0.890625 -0.359375q-0.359375 -0.359375 -0.359375 -0.859375q0 -0.484375 0.359375 -0.84375q0.359375 -0.359375 0.890625 -0.359375q0.53125 0 0.890625 0.359375q0.359375 0.34375 0.359375 0.828125q0 0.515625 -0.359375 0.875q-0.359375 0.359375 -0.890625 0.359375zm12.034058 2.6718597q2.375 0 3.765625 1.390625q1.40625 1.375 1.40625 4.015625l0 7.3125l-1.703125 0l0 -7.15625q0 -1.96875 -0.984375 -3.0q-0.984375 -1.03125 -2.796875 -1.03125q-2.046875 0 -3.234375 1.21875q-1.1875 1.203125 -1.1875 3.34375l0 6.625l-1.703125 0l0 -12.625l1.640625 0l0 2.328125q0.6875 -1.15625 1.921875 -1.78125q1.234375 -0.640625 2.875 -0.640625zm21.54596 0.09375l0 11.09375q0 3.21875 -1.578125 4.765625q-1.5625 1.546875 -4.734375 1.546875q-1.75 0 -3.328125 -0.515625q-1.5625 -0.515625 -2.546875 -1.4375l0.859375 -1.296875q0.90625 0.828125 2.21875 1.28125q1.3125 0.453125 2.75 0.453125q2.40625 0 3.53125 -1.125q1.125 -1.109375 1.125 -3.453125l0 -1.609375q-0.796875 1.1875 -2.078125 1.8125q-1.28125 0.625 -2.84375 0.625q-1.78125 0 -3.234375 -0.78125q-1.4375 -0.78125 -2.265625 -2.171875q-0.828125 -1.40625 -0.828125 -3.1875q0 -1.78125 0.828125 -3.171875q0.828125 -1.390625 2.265625 -2.15625q1.4375 -0.765625 3.234375 -0.765625q1.609375 0 2.90625 0.65625q1.296875 0.640625 2.09375 1.859375l0 -2.421875l1.625 0zm-6.453125 10.640625q1.359375 0 2.46875 -0.59375q1.109375 -0.59375 1.71875 -1.640625q0.609375 -1.0625 0.609375 -2.40625q0 -1.34375 -0.609375 -2.390625q-0.609375 -1.046875 -1.703125 -1.625q-1.09375 -0.59375 -2.484375 -0.59375q-1.375 0 -2.46875 0.578125q-1.078125 0.578125 -1.703125 1.640625q-0.609375 1.046875 -0.609375 2.390625q0 1.34375 0.609375 2.40625q0.625 1.046875 1.703125 1.640625q1.09375 0.59375 2.46875 0.59375zm33.26758 -10.734375q2.375 0 3.71875 1.375q1.359375 1.359375 1.359375 4.03125l0 7.3125l-1.703125 0l0 -7.15625q0 -1.96875 -0.953125 -3.0q-0.9375 -1.03125 -2.671875 -1.03125q-1.96875 0 -3.09375 1.21875q-1.125 1.203125 -1.125 3.34375l0 6.625l-1.703125 0l0 -7.15625q0 -1.96875 -0.953125 -3.0q-0.9375 -1.03125 -2.703125 -1.03125q-1.9375 0 -3.078125 1.21875q-1.140625 1.203125 -1.140625 3.34375l0 6.625l-1.703125 0l0 -12.625l1.640625 0l0 2.3125q0.671875 -1.15625 1.859375 -1.78125q1.203125 -0.625 2.765625 -0.625q1.578125 0 2.734375 0.671875q1.171875 0.671875 1.75 1.984375q0.703125 -1.234375 2.0 -1.9375q1.3125 -0.71875 3.0 -0.71875zm14.918213 12.84375q-1.8125 0 -3.28125 -0.828125q-1.46875 -0.828125 -2.3125 -2.296875q-0.828125 -1.46875 -0.828125 -3.3125q0 -1.84375 0.828125 -3.3125q0.84375 -1.46875 2.3125 -2.28125q1.46875 -0.8125 3.28125 -0.8125q1.828125 0 3.28125 0.8125q1.46875 0.8125 2.296875 2.28125q0.828125 1.46875 0.828125 3.3125q0 1.84375 -0.828125 3.3125q-0.828125 1.46875 -2.296875 2.296875q-1.453125 0.828125 -3.28125 0.828125zm0 -1.515625q1.34375 0 2.40625 -0.609375q1.078125 -0.609375 1.671875 -1.734375q0.609375 -1.140625 0.609375 -2.578125q0 -1.4375 -0.609375 -2.5625q-0.59375 -1.140625 -1.671875 -1.75q-1.0625 -0.609375 -2.40625 -0.609375q-1.34375 0 -2.40625 0.609375q-1.0625 0.609375 -1.6875 1.75q-0.609375 1.125 -0.609375 2.5625q0 1.4375 0.609375 2.578125q0.625 1.125 1.6875 1.734375q1.0625 0.609375 2.40625 0.609375zm11.532288 -8.765625q0.59375 -1.265625 1.78125 -1.90625q1.1875 -0.65625 2.9375 -0.65625l0 1.65625l-0.40625 -0.03125q-1.984375 0 -3.125 1.234375q-1.125 1.21875 -1.125 3.421875l0 6.4375l-1.703125 0l0 -12.625l1.640625 0l0 2.46875zm18.671387 4.375l-10.5625 0q0.140625 1.96875 1.5 3.1875q1.375 1.203125 3.46875 1.203125q1.171875 0 2.15625 -0.421875q0.984375 -0.421875 1.703125 -1.234375l0.953125 1.109375q-0.828125 1.0 -2.09375 1.53125q-1.265625 0.53125 -2.765625 0.53125q-1.953125 0 -3.453125 -0.828125q-1.5 -0.828125 -2.34375 -2.296875q-0.828125 -1.46875 -0.828125 -3.3125q0 -1.84375 0.796875 -3.3125q0.8125 -1.46875 2.203125 -2.28125q1.40625 -0.8125 3.15625 -0.8125q1.765625 0 3.15625 0.8125q1.390625 0.8125 2.171875 2.265625q0.796875 1.453125 0.796875 3.328125l-0.015625 0.53125zm-6.109375 -5.46875q-1.8125 0 -3.0625 1.171875q-1.234375 1.15625 -1.390625 3.015625l8.953125 0q-0.171875 -1.859375 -1.40625 -3.015625q-1.234375 -1.171875 -3.09375 -1.171875zm34.42456 -1.375l-4.78125 12.625l-1.609375 0l-3.984375 -10.34375l-3.984375 10.34375l-1.609375 0l-4.75 -12.625l1.640625 0l3.953125 10.734375l4.0625 -10.734375l1.453125 0l4.046875 10.734375l4.0 -10.734375l1.5625 0zm2.5646973 0l1.703125 0l0 12.625l-1.703125 0l0 -12.625zm0.859375 -2.7656097q-0.53125 0 -0.890625 -0.359375q-0.359375 -0.359375 -0.359375 -0.859375q0 -0.484375 0.359375 -0.84375q0.359375 -0.359375 0.890625 -0.359375q0.53125 0 0.890625 0.359375q0.359375 0.34375 0.359375 0.828125q0 0.515625 -0.359375 0.875q-0.359375 0.359375 -0.890625 0.359375zm12.252869 14.624985q-0.484375 0.421875 -1.203125 0.65625q-0.703125 0.234375 -1.46875 0.234375q-1.78125 0 -2.75 -0.953125q-0.953125 -0.96875 -0.953125 -2.71875l0 -7.640625l-2.25 0l0 -1.4375l2.25 0l0 -2.7656097l1.71875 0l0 2.7656097l3.828125 0l0 1.4375l-3.828125 0l0 7.546875q0 1.125 0.5625 1.71875q0.5625 0.578125 1.609375 0.578125q0.53125 0 1.015625 -0.171875q0.5 -0.171875 0.859375 -0.46875l0.609375 1.21875zm9.5252075 -11.953125q2.375 0 3.765625 1.390625q1.40625 1.375 1.40625 4.015625l0 7.3125l-1.703125 0l0 -7.15625q0 -1.96875 -0.984375 -3.0q-0.984375 -1.03125 -2.796875 -1.03125q-2.046875 0 -3.234375 1.21875q-1.1875 1.203125 -1.1875 3.34375l0 6.625l-1.703125 0l0 -17.812485l1.703125 0l0 7.3906097q0.703125 -1.09375 1.921875 -1.6875q1.21875 -0.609375 2.8125 -0.609375z" fill-rule="nonzero"/><path fill="#000000" fill-opacity="0.0" d="m792.2681 248.12303l6.288025 0l0 29.255905l-6.288025 0l0 -29.255905z" fill-rule="nonzero"/><path fill="#e3e16c" d="m506.52493 277.31497l232.60733 0l0 28.799988l-232.60733 0l0 -28.799988z" fill-rule="nonzero"/><path fill="#000000" fill-opacity="0.0" d="m506.52493 277.12302l232.60733 0l0 29.25592l-232.60733 0l0 -29.25592z" fill-rule="nonzero"/><path fill="#000000" d="m508.89993 282.54245l1.703125 0l0 17.8125l-1.703125 0l0 -17.8125zm17.455963 12.03125l-10.5625 0q0.140625 1.96875 1.5 3.1875q1.375 1.203125 3.46875 1.203125q1.171875 0 2.15625 -0.421875q0.984375 -0.421875 1.703125 -1.234375l0.953125 1.109375q-0.828125 1.0 -2.09375 1.53125q-1.265625 0.53125 -2.765625 0.53125q-1.953125 0 -3.453125 -0.828125q-1.5 -0.828125 -2.34375 -2.296875q-0.828125 -1.46875 -0.828125 -3.3125q0 -1.84375 0.796875 -3.3125q0.8125 -1.46875 2.203125 -2.28125q1.40625 -0.8125 3.15625 -0.8125q1.765625 0 3.15625 0.8125q1.390625 0.8125 2.171875 2.265625q0.796875 1.453125 0.796875 3.328125l-0.015625 0.53125zm-6.109375 -5.46875q-1.8125 0 -3.0625 1.171875q-1.234375 1.15625 -1.390625 3.015625l8.953125 0q-0.171875 -1.859375 -1.40625 -3.015625q-1.234375 -1.171875 -3.09375 -1.171875zm12.995972 11.375q-1.546875 0 -2.953125 -0.4375q-1.390625 -0.453125 -2.1875 -1.125l0.765625 -1.34375q0.796875 0.625 1.984375 1.015625q1.203125 0.390625 2.5 0.390625q1.734375 0 2.5625 -0.53125q0.828125 -0.546875 0.828125 -1.53125q0 -0.6875 -0.453125 -1.078125q-0.453125 -0.40625 -1.15625 -0.609375q-0.703125 -0.203125 -1.84375 -0.390625q-1.546875 -0.296875 -2.484375 -0.59375q-0.921875 -0.296875 -1.59375 -1.015625q-0.65625 -0.71875 -0.65625 -2.0q0 -1.578125 1.3125 -2.578125q1.328125 -1.015625 3.6875 -1.015625q1.21875 0 2.4375 0.328125q1.234375 0.3125 2.015625 0.84375l-0.734375 1.375q-1.5625 -1.078125 -3.71875 -1.078125q-1.640625 0 -2.46875 0.578125q-0.828125 0.5625 -0.828125 1.5q0 0.71875 0.46875 1.15625q0.46875 0.4375 1.15625 0.640625q0.703125 0.203125 1.9375 0.421875q1.5 0.28125 2.40625 0.578125q0.921875 0.28125 1.5625 0.984375q0.65625 0.6875 0.65625 1.90625q0 1.65625 -1.390625 2.640625q-1.375 0.96875 -3.8125 0.96875zm11.735962 0q-1.546875 0 -2.953125 -0.4375q-1.390625 -0.453125 -2.1875 -1.125l0.765625 -1.34375q0.796875 0.625 1.984375 1.015625q1.203125 0.390625 2.5 0.390625q1.734375 0 2.5625 -0.53125q0.828125 -0.546875 0.828125 -1.53125q0 -0.6875 -0.453125 -1.078125q-0.453125 -0.40625 -1.15625 -0.609375q-0.703125 -0.203125 -1.84375 -0.390625q-1.546875 -0.296875 -2.484375 -0.59375q-0.921875 -0.296875 -1.59375 -1.015625q-0.65625 -0.71875 -0.65625 -2.0q0 -1.578125 1.3125 -2.578125q1.328125 -1.015625 3.6875 -1.015625q1.21875 0 2.4375 0.328125q1.234375 0.3125 2.015625 0.84375l-0.734375 1.375q-1.5625 -1.078125 -3.71875 -1.078125q-1.640625 0 -2.46875 0.578125q-0.828125 0.5625 -0.828125 1.5q0 0.71875 0.46875 1.15625q0.46875 0.4375 1.15625 0.640625q0.703125 0.203125 1.9375 0.421875q1.5 0.28125 2.40625 0.578125q0.921875 0.28125 1.5625 0.984375q0.65625 0.6875 0.65625 1.90625q0 1.65625 -1.390625 2.640625q-1.375 0.96875 -3.8125 0.96875zm8.517212 0q-0.53125 0 -0.90625 -0.375q-0.375 -0.390625 -0.375 -0.953125q0 -0.546875 0.375 -0.921875q0.375 -0.375 0.90625 -0.375q0.53125 0 0.90625 0.375q0.390625 0.375 0.390625 0.921875q0 0.5625 -0.390625 0.953125q-0.375 0.375 -0.90625 0.375zm18.907227 0.015625q-2.5 0 -4.53125 -1.109375q-2.015625 -1.125 -3.15625 -3.0625q-1.140625 -1.9375 -1.140625 -4.375q0 -2.421875 1.140625 -4.359375q1.140625 -1.953125 3.15625 -3.0625q2.03125 -1.109375 4.53125 -1.109375q2.5 0 4.5 1.109375q2.0 1.09375 3.15625 3.046875q1.15625 1.953125 1.15625 4.375q0 2.4375 -1.15625 4.390625q-1.15625 1.953125 -3.15625 3.0625q-2.0 1.09375 -4.5 1.09375zm0 -1.578125q2.0 0 3.59375 -0.890625q1.609375 -0.90625 2.515625 -2.5q0.921875 -1.609375 0.921875 -3.578125q0 -1.96875 -0.921875 -3.5625q-0.90625 -1.59375 -2.515625 -2.484375q-1.59375 -0.90625 -3.59375 -0.90625q-1.984375 0 -3.609375 0.90625q-1.625 0.890625 -2.546875 2.484375q-0.921875 1.59375 -0.921875 3.5625q0 1.96875 0.921875 3.578125q0.921875 1.59375 2.546875 2.5q1.625 0.890625 3.609375 0.890625zm23.8078 -11.1875l0 12.625l-1.625 0l0 -2.296875q-0.671875 1.140625 -1.859375 1.78125q-1.171875 0.640625 -2.6875 0.640625q-2.46875 0 -3.90625 -1.375q-1.421875 -1.390625 -1.421875 -4.046875l0 -7.328125l1.703125 0l0 7.15625q0 1.984375 0.984375 3.015625q0.984375 1.03125 2.8125 1.03125q2.0 0 3.140625 -1.203125q1.15625 -1.21875 1.15625 -3.375l0 -6.625l1.703125 0zm6.4176025 2.46875q0.59375 -1.265625 1.78125 -1.90625q1.1875 -0.65625 2.9375 -0.65625l0 1.65625l-0.40625 -0.03125q-1.984375 0 -3.125 1.234375q-1.125 1.21875 -1.125 3.421875l0 6.4375l-1.703125 0l0 -12.625l1.640625 0l0 2.46875zm18.693176 -2.5625q2.46875 0 3.78125 1.234375q1.328125 1.234375 1.328125 3.65625l0 7.828125l-1.640625 0l0 -1.96875q-0.5625 0.984375 -1.6875 1.546875q-1.109375 0.546875 -2.65625 0.546875q-2.109375 0 -3.359375 -1.0q-1.25 -1.015625 -1.25 -2.671875q0 -1.609375 1.15625 -2.59375q1.171875 -0.984375 3.71875 -0.984375l4.015625 0l0 -0.765625q0 -1.640625 -0.921875 -2.484375q-0.90625 -0.859375 -2.65625 -0.859375q-1.203125 0 -2.3125 0.40625q-1.09375 0.390625 -1.890625 1.078125l-0.765625 -1.265625q0.953125 -0.8125 2.296875 -1.25q1.34375 -0.453125 2.84375 -0.453125zm-0.609375 11.5q1.4375 0 2.46875 -0.65625q1.046875 -0.671875 1.546875 -1.921875l0 -2.0625l-3.96875 0q-3.234375 0 -3.234375 2.265625q0 1.09375 0.84375 1.734375q0.84375 0.640625 2.34375 0.640625zm22.082947 -11.40625l0 11.09375q0 3.21875 -1.578125 4.765625q-1.5625 1.546875 -4.734375 1.546875q-1.75 0 -3.328125 -0.515625q-1.5625 -0.515625 -2.546875 -1.4375l0.859375 -1.296875q0.90625 0.828125 2.21875 1.28125q1.3125 0.453125 2.75 0.453125q2.40625 0 3.53125 -1.125q1.125 -1.109375 1.125 -3.453125l0 -1.609375q-0.796875 1.1875 -2.078125 1.8125q-1.28125 0.625 -2.84375 0.625q-1.78125 0 -3.234375 -0.78125q-1.4375 -0.78125 -2.265625 -2.171875q-0.828125 -1.40625 -0.828125 -3.1875q0 -1.78125 0.828125 -3.171875q0.828125 -1.390625 2.265625 -2.15625q1.4375 -0.765625 3.234375 -0.765625q1.609375 0 2.90625 0.65625q1.296875 0.640625 2.09375 1.859375l0 -2.421875l1.625 0zm-6.453125 10.640625q1.359375 0 2.46875 -0.59375q1.109375 -0.59375 1.71875 -1.640625q0.609375 -1.0625 0.609375 -2.40625q0 -1.34375 -0.609375 -2.390625q-0.609375 -1.046875 -1.703125 -1.625q-1.09375 -0.59375 -2.484375 -0.59375q-1.375 0 -2.46875 0.578125q-1.078125 0.578125 -1.703125 1.640625q-0.609375 1.046875 -0.609375 2.390625q0 1.34375 0.609375 2.40625q0.625 1.046875 1.703125 1.640625q1.09375 0.59375 2.46875 0.59375zm12.870239 -8.171875q0.59375 -1.265625 1.78125 -1.90625q1.1875 -0.65625 2.9375 -0.65625l0 1.65625l-0.40625 -0.03125q-1.984375 0 -3.125 1.234375q-1.125 1.21875 -1.125 3.421875l0 6.4375l-1.703125 0l0 -12.625l1.640625 0l0 2.46875zm12.827576 10.28125q-1.8125 0 -3.28125 -0.828125q-1.46875 -0.828125 -2.3125 -2.296875q-0.828125 -1.46875 -0.828125 -3.3125q0 -1.84375 0.828125 -3.3125q0.84375 -1.46875 2.3125 -2.28125q1.46875 -0.8125 3.28125 -0.8125q1.828125 0 3.28125 0.8125q1.46875 0.8125 2.296875 2.28125q0.828125 1.46875 0.828125 3.3125q0 1.84375 -0.828125 3.3125q-0.828125 1.46875 -2.296875 2.296875q-1.453125 0.828125 -3.28125 0.828125zm0 -1.515625q1.34375 0 2.40625 -0.609375q1.078125 -0.609375 1.671875 -1.734375q0.609375 -1.140625 0.609375 -2.578125q0 -1.4375 -0.609375 -2.5625q-0.59375 -1.140625 -1.671875 -1.75q-1.0625 -0.609375 -2.40625 -0.609375q-1.34375 0 -2.40625 0.609375q-1.0625 0.609375 -1.6875 1.75q-0.609375 1.125 -0.609375 2.5625q0 1.4375 0.609375 2.578125q0.625 1.125 1.6875 1.734375q1.0625 0.609375 2.40625 0.609375zm16.329224 -11.328125q2.375 0 3.765625 1.390625q1.40625 1.375 1.40625 4.015625l0 7.3125l-1.703125 0l0 -7.15625q0 -1.96875 -0.984375 -3.0q-0.984375 -1.03125 -2.796875 -1.03125q-2.046875 0 -3.234375 1.21875q-1.1875 1.203125 -1.1875 3.34375l0 6.625l-1.703125 0l0 -12.625l1.640625 0l0 2.328125q0.6875 -1.15625 1.921875 -1.78125q1.234375 -0.640625 2.875 -0.640625zm15.014709 12.84375q-1.8125 0 -3.28125 -0.828125q-1.46875 -0.828125 -2.3125 -2.296875q-0.828125 -1.46875 -0.828125 -3.3125q0 -1.84375 0.828125 -3.3125q0.84375 -1.46875 2.3125 -2.28125q1.46875 -0.8125 3.28125 -0.8125q1.828125 0 3.28125 0.8125q1.46875 0.8125 2.296875 2.28125q0.828125 1.46875 0.828125 3.3125q0 1.84375 -0.828125 3.3125q-0.828125 1.46875 -2.296875 2.296875q-1.453125 0.828125 -3.28125 0.828125zm0 -1.515625q1.34375 0 2.40625 -0.609375q1.078125 -0.609375 1.671875 -1.734375q0.609375 -1.140625 0.609375 -2.578125q0 -1.4375 -0.609375 -2.5625q-0.59375 -1.140625 -1.671875 -1.75q-1.0625 -0.609375 -2.40625 -0.609375q-1.34375 0 -2.40625 0.609375q-1.0625 0.609375 -1.6875 1.75q-0.609375 1.125 -0.609375 2.5625q0 1.4375 0.609375 2.578125q0.625 1.125 1.6875 1.734375q1.0625 0.609375 2.40625 0.609375zm25.641724 -11.328125q2.375 0 3.71875 1.375q1.359375 1.359375 1.359375 4.03125l0 7.3125l-1.703125 0l0 -7.15625q0 -1.96875 -0.953125 -3.0q-0.9375 -1.03125 -2.671875 -1.03125q-1.96875 0 -3.09375 1.21875q-1.125 1.203125 -1.125 3.34375l0 6.625l-1.703125 0l0 -7.15625q0 -1.96875 -0.953125 -3.0q-0.9375 -1.03125 -2.703125 -1.03125q-1.9375 0 -3.078125 1.21875q-1.140625 1.203125 -1.140625 3.34375l0 6.625l-1.703125 0l0 -12.625l1.640625 0l0 2.3125q0.671875 -1.15625 1.859375 -1.78125q1.203125 -0.625 2.765625 -0.625q1.578125 0 2.734375 0.671875q1.171875 0.671875 1.75 1.984375q0.703125 -1.234375 2.0 -1.9375q1.3125 -0.71875 3.0 -0.71875zm20.083313 0.09375l-6.3125 14.140625q-0.765625 1.765625 -1.78125 2.515625q-1.0 0.75 -2.421875 0.75q-0.90625 0 -1.703125 -0.296875q-0.796875 -0.28125 -1.359375 -0.859375l0.78125 -1.265625q0.96875 0.953125 2.3125 0.953125q0.859375 0 1.46875 -0.484375q0.609375 -0.46875 1.140625 -1.625l0.546875 -1.234375l-5.625 -12.59375l1.765625 0l4.75 10.734375l4.75 -10.734375l1.6875 0z" fill-rule="nonzero"/><path fill="#000000" fill-opacity="0.0" d="m739.13226 277.12302l6.287964 0l0 29.25592l-6.287964 0l0 -29.25592z" fill-rule="nonzero"/><path fill="#e3e16c" d="m506.52493 306.31497l319.75113 0l0 28.799988l-319.75113 0l0 -28.799988z" fill-rule="nonzero"/><path fill="#000000" fill-opacity="0.0" d="m506.52493 306.12302l319.75113 0l0 29.25592l-319.75113 0l0 -29.25592z" fill-rule="nonzero"/><path fill="#000000" d="m512.2906 329.47995q-1.5469055 0 -2.9531555 -0.4375q-1.390625 -0.453125 -2.1875 -1.125l0.765625 -1.34375q0.796875 0.625 1.984375 1.015625q1.203125 0.390625 2.5000305 0.390625q1.734375 0 2.5625 -0.53125q0.828125 -0.546875 0.828125 -1.53125q0 -0.6875 -0.453125 -1.078125q-0.453125 -0.40625 -1.15625 -0.609375q-0.703125 -0.203125 -1.84375 -0.390625q-1.5469055 -0.296875 -2.4844055 -0.59375q-0.921875 -0.296875 -1.59375 -1.015625q-0.65625 -0.71875 -0.65625 -2.0q0 -1.578125 1.3125 -2.578125q1.328125 -1.015625 3.6875305 -1.015625q1.21875 0 2.4375 0.328125q1.234375 0.3125 2.015625 0.84375l-0.734375 1.375q-1.5625 -1.078125 -3.71875 -1.078125q-1.6406555 0 -2.4687805 0.578125q-0.828125 0.5625 -0.828125 1.5q0 0.71875 0.46875 1.15625q0.46875 0.4375 1.15625 0.640625q0.703125 0.203125 1.9375305 0.421875q1.5 0.28125 2.40625 0.578125q0.921875 0.28125 1.5625 0.984375q0.65625 0.6875 0.65625 1.90625q0 1.65625 -1.390625 2.640625q-1.375 0.96875 -3.8125 0.96875zm13.501587 0q-1.8125 0 -3.28125 -0.828125q-1.46875 -0.828125 -2.3125 -2.296875q-0.828125 -1.46875 -0.828125 -3.3125q0 -1.84375 0.828125 -3.3125q0.84375 -1.46875 2.3125 -2.28125q1.46875 -0.8125 3.28125 -0.8125q1.828125 0 3.28125 0.8125q1.46875 0.8125 2.296875 2.28125q0.828125 1.46875 0.828125 3.3125q0 1.84375 -0.828125 3.3125q-0.828125 1.46875 -2.296875 2.296875q-1.453125 0.828125 -3.28125 0.828125zm0 -1.515625q1.34375 0 2.40625 -0.609375q1.078125 -0.609375 1.671875 -1.734375q0.609375 -1.140625 0.609375 -2.578125q0 -1.4375 -0.609375 -2.5625q-0.59375 -1.140625 -1.671875 -1.75q-1.0625 -0.609375 -2.40625 -0.609375q-1.34375 0 -2.40625 0.609375q-1.0625 0.609375 -1.6875 1.75q-0.609375 1.125 -0.609375 2.5625q0 1.4375 0.609375 2.578125q0.625 1.125 1.6875 1.734375q1.0625 0.609375 2.40625 0.609375zm9.891663 -16.421875l1.703125 0l0 17.8125l-1.703125 0l0 -17.8125zm17.830994 5.1875l0 12.625l-1.625 0l0 -2.296875q-0.671875 1.140625 -1.859375 1.78125q-1.171875 0.640625 -2.6875 0.640625q-2.46875 0 -3.90625 -1.375q-1.421875 -1.390625 -1.421875 -4.046875l0 -7.328125l1.703125 0l0 7.15625q0 1.984375 0.984375 3.015625q0.984375 1.03125 2.8125 1.03125q2.0 0 3.140625 -1.203125q1.15625 -1.21875 1.15625 -3.375l0 -6.625l1.703125 0zm11.433228 11.859375q-0.484375 0.421875 -1.203125 0.65625q-0.703125 0.234375 -1.46875 0.234375q-1.78125 0 -2.75 -0.953125q-0.953125 -0.96875 -0.953125 -2.71875l0 -7.640625l-2.25 0l0 -1.4375l2.25 0l0 -2.765625l1.71875 0l0 2.765625l3.828125 0l0 1.4375l-3.828125 0l0 7.546875q0 1.125 0.5625 1.71875q0.5625 0.578125 1.609375 0.578125q0.53125 0 1.015625 -0.171875q0.5 -0.171875 0.859375 -0.46875l0.609375 1.21875zm3.0877075 -11.859375l1.703125 0l0 12.625l-1.703125 0l0 -12.625zm0.859375 -2.765625q-0.53125 0 -0.890625 -0.359375q-0.359375 -0.359375 -0.359375 -0.859375q0 -0.484375 0.359375 -0.84375q0.359375 -0.359375 0.890625 -0.359375q0.53125 0 0.890625 0.359375q0.359375 0.34375 0.359375 0.828125q0 0.515625 -0.359375 0.875q-0.359375 0.359375 -0.890625 0.359375zm10.752869 15.515625q-1.8125 0 -3.28125 -0.828125q-1.46875 -0.828125 -2.3125 -2.296875q-0.828125 -1.46875 -0.828125 -3.3125q0 -1.84375 0.828125 -3.3125q0.84375 -1.46875 2.3125 -2.28125q1.46875 -0.8125 3.28125 -0.8125q1.828125 0 3.28125 0.8125q1.46875 0.8125 2.296875 2.28125q0.828125 1.46875 0.828125 3.3125q0 1.84375 -0.828125 3.3125q-0.828125 1.46875 -2.296875 2.296875q-1.453125 0.828125 -3.28125 0.828125zm0 -1.515625q1.34375 0 2.40625 -0.609375q1.078125 -0.609375 1.671875 -1.734375q0.609375 -1.140625 0.609375 -2.578125q0 -1.4375 -0.609375 -2.5625q-0.59375 -1.140625 -1.671875 -1.75q-1.0625 -0.609375 -2.40625 -0.609375q-1.34375 0 -2.40625 0.609375q-1.0625 0.609375 -1.6875 1.75q-0.609375 1.125 -0.609375 2.5625q0 1.4375 0.609375 2.578125q0.625 1.125 1.6875 1.734375q1.0625 0.609375 2.40625 0.609375zm16.329163 -11.328125q2.375 0 3.765625 1.390625q1.40625 1.375 1.40625 4.015625l0 7.3125l-1.703125 0l0 -7.15625q0 -1.96875 -0.984375 -3.0q-0.984375 -1.03125 -2.796875 -1.03125q-2.046875 0 -3.234375 1.21875q-1.1875 1.203125 -1.1875 3.34375l0 6.625l-1.703125 0l0 -12.625l1.640625 0l0 2.328125q0.6875 -1.15625 1.921875 -1.78125q1.234375 -0.640625 2.875 -0.640625zm13.201111 12.84375q-1.546875 0 -2.953125 -0.4375q-1.390625 -0.453125 -2.1875 -1.125l0.765625 -1.34375q0.796875 0.625 1.984375 1.015625q1.203125 0.390625 2.5 0.390625q1.734375 0 2.5625 -0.53125q0.828125 -0.546875 0.828125 -1.53125q0 -0.6875 -0.453125 -1.078125q-0.453125 -0.40625 -1.15625 -0.609375q-0.703125 -0.203125 -1.84375 -0.390625q-1.546875 -0.296875 -2.484375 -0.59375q-0.921875 -0.296875 -1.59375 -1.015625q-0.65625 -0.71875 -0.65625 -2.0q0 -1.578125 1.3125 -2.578125q1.328125 -1.015625 3.6875 -1.015625q1.21875 0 2.4375 0.328125q1.234375 0.3125 2.015625 0.84375l-0.734375 1.375q-1.5625 -1.078125 -3.71875 -1.078125q-1.640625 0 -2.46875 0.578125q-0.828125 0.5625 -0.828125 1.5q0 0.71875 0.46875 1.15625q0.46875 0.4375 1.15625 0.640625q0.703125 0.203125 1.9375 0.421875q1.5 0.28125 2.40625 0.578125q0.921875 0.28125 1.5625 0.984375q0.65625 0.6875 0.65625 1.90625q0 1.65625 -1.390625 2.640625q-1.375 0.96875 -3.8125 0.96875zm21.0708 -12.84375q2.375 0 3.765625 1.390625q1.40625 1.375 1.40625 4.015625l0 7.3125l-1.703125 0l0 -7.15625q0 -1.96875 -0.984375 -3.0q-0.984375 -1.03125 -2.796875 -1.03125q-2.046875 0 -3.234375 1.21875q-1.1875 1.203125 -1.1875 3.34375l0 6.625l-1.703125 0l0 -17.8125l1.703125 0l0 7.390625q0.703125 -1.09375 1.921875 -1.6875q1.21875 -0.609375 2.8125 -0.609375zm20.85846 6.9375l-10.5625 0q0.140625 1.96875 1.5 3.1875q1.375 1.203125 3.46875 1.203125q1.171875 0 2.15625 -0.421875q0.984375 -0.421875 1.703125 -1.234375l0.953125 1.109375q-0.828125 1.0 -2.09375 1.53125q-1.265625 0.53125 -2.765625 0.53125q-1.953125 0 -3.453125 -0.828125q-1.5 -0.828125 -2.34375 -2.296875q-0.828125 -1.46875 -0.828125 -3.3125q0 -1.84375 0.796875 -3.3125q0.8125 -1.46875 2.203125 -2.28125q1.40625 -0.8125 3.15625 -0.8125q1.765625 0 3.15625 0.8125q1.390625 0.8125 2.171875 2.265625q0.796875 1.453125 0.796875 3.328125l-0.015625 0.53125zm-6.109375 -5.46875q-1.8125 0 -3.0625 1.171875q-1.234375 1.15625 -1.390625 3.015625l8.953125 0q-0.171875 -1.859375 -1.40625 -3.015625q-1.234375 -1.171875 -3.09375 -1.171875zm9.605347 -6.5625l1.703125 0l0 17.8125l-1.703125 0l0 -17.8125zm12.955994 5.09375q1.78125 0 3.21875 0.8125q1.4375 0.796875 2.25 2.265625q0.828125 1.453125 0.828125 3.328125q0 1.890625 -0.828125 3.359375q-0.8125 1.46875 -2.234375 2.28125q-1.421875 0.796875 -3.234375 0.796875q-1.53125 0 -2.765625 -0.640625q-1.234375 -0.640625 -2.03125 -1.859375l0 7.03125l-1.703125 0l0 -17.28125l1.640625 0l0 2.5q0.765625 -1.25 2.015625 -1.921875q1.265625 -0.671875 2.84375 -0.671875zm-0.109375 11.328125q1.3125 0 2.390625 -0.609375q1.078125 -0.609375 1.6875 -1.734375q0.625 -1.140625 0.625 -2.578125q0 -1.4375 -0.625 -2.546875q-0.609375 -1.125 -1.6875 -1.75q-1.078125 -0.625 -2.390625 -0.625q-1.34375 0 -2.421875 0.625q-1.0625 0.625 -1.671875 1.75q-0.609375 1.109375 -0.609375 2.546875q0 1.4375 0.609375 2.578125q0.609375 1.125 1.671875 1.734375q1.078125 0.609375 2.421875 0.609375zm22.825562 0.625q-0.484375 0.421875 -1.203125 0.65625q-0.703125 0.234375 -1.46875 0.234375q-1.78125 0 -2.75 -0.953125q-0.953125 -0.96875 -0.953125 -2.71875l0 -7.640625l-2.25 0l0 -1.4375l2.25 0l0 -2.765625l1.71875 0l0 2.765625l3.828125 0l0 1.4375l-3.828125 0l0 7.546875q0 1.125 0.5625 1.71875q0.5625 0.578125 1.609375 0.578125q0.53125 0 1.015625 -0.171875q0.5 -0.171875 0.859375 -0.46875l0.609375 1.21875zm9.5252075 -11.953125q2.375 0 3.765625 1.390625q1.40625 1.375 1.40625 4.015625l0 7.3125l-1.703125 0l0 -7.15625q0 -1.96875 -0.984375 -3.0q-0.984375 -1.03125 -2.796875 -1.03125q-2.046875 0 -3.234375 1.21875q-1.1875 1.203125 -1.1875 3.34375l0 6.625l-1.703125 0l0 -17.8125l1.703125 0l0 7.390625q0.703125 -1.09375 1.921875 -1.6875q1.21875 -0.609375 2.8125 -0.609375zm20.85846 6.9375l-10.5625 0q0.140625 1.96875 1.5 3.1875q1.375 1.203125 3.46875 1.203125q1.171875 0 2.15625 -0.421875q0.984375 -0.421875 1.703125 -1.234375l0.953125 1.109375q-0.828125 1.0 -2.09375 1.53125q-1.265625 0.53125 -2.765625 0.53125q-1.953125 0 -3.453125 -0.828125q-1.5 -0.828125 -2.34375 -2.296875q-0.828125 -1.46875 -0.828125 -3.3125q0 -1.84375 0.796875 -3.3125q0.8125 -1.46875 2.203125 -2.28125q1.40625 -0.8125 3.15625 -0.8125q1.765625 0 3.15625 0.8125q1.390625 0.8125 2.171875 2.265625q0.796875 1.453125 0.796875 3.328125l-0.015625 0.53125zm-6.109375 -5.46875q-1.8125 0 -3.0625 1.171875q-1.234375 1.15625 -1.390625 3.015625l8.953125 0q-0.171875 -1.859375 -1.40625 -3.015625q-1.234375 -1.171875 -3.09375 -1.171875zm25.355347 -1.46875q2.375 0 3.71875 1.375q1.359375 1.359375 1.359375 4.03125l0 7.3125l-1.703125 0l0 -7.15625q0 -1.96875 -0.953125 -3.0q-0.9375 -1.03125 -2.671875 -1.03125q-1.96875 0 -3.09375 1.21875q-1.125 1.203125 -1.125 3.34375l0 6.625l-1.703125 0l0 -7.15625q0 -1.96875 -0.953125 -3.0q-0.9375 -1.03125 -2.703125 -1.03125q-1.9375 0 -3.078125 1.21875q-1.140625 1.203125 -1.140625 3.34375l0 6.625l-1.703125 0l0 -12.625l1.640625 0l0 2.3125q0.671875 -1.15625 1.859375 -1.78125q1.203125 -0.625 2.765625 -0.625q1.578125 0 2.734375 0.671875q1.171875 0.671875 1.75 1.984375q0.703125 -1.234375 2.0 -1.9375q1.3125 -0.71875 3.0 -0.71875zm17.642517 2.5625q0.59375 -1.265625 1.78125 -1.90625q1.1875 -0.65625 2.9375 -0.65625l0 1.65625l-0.40625 -0.03125q-1.984375 0 -3.125 1.234375q-1.125 1.21875 -1.125 3.421875l0 6.4375l-1.703125 0l0 -12.625l1.640625 0l0 2.46875zm7.791382 -2.46875l1.703125 0l0 12.625l-1.703125 0l0 -12.625zm0.859375 -2.765625q-0.53125 0 -0.890625 -0.359375q-0.359375 -0.359375 -0.359375 -0.859375q0 -0.484375 0.359375 -0.84375q0.359375 -0.359375 0.890625 -0.359375q0.53125 0 0.890625 0.359375q0.359375 0.34375 0.359375 0.828125q0 0.515625 -0.359375 0.875q-0.359375 0.359375 -0.890625 0.359375zm8.987244 15.515625q-1.546875 0 -2.953125 -0.4375q-1.390625 -0.453125 -2.1875 -1.125l0.765625 -1.34375q0.796875 0.625 1.984375 1.015625q1.203125 0.390625 2.5 0.390625q1.734375 0 2.5625 -0.53125q0.828125 -0.546875 0.828125 -1.53125q0 -0.6875 -0.453125 -1.078125q-0.453125 -0.40625 -1.15625 -0.609375q-0.703125 -0.203125 -1.84375 -0.390625q-1.546875 -0.296875 -2.484375 -0.59375q-0.921875 -0.296875 -1.59375 -1.015625q-0.65625 -0.71875 -0.65625 -2.0q0 -1.578125 1.3125 -2.578125q1.328125 -1.015625 3.6875 -1.015625q1.21875 0 2.4375 0.328125q1.234375 0.3125 2.015625 0.84375l-0.734375 1.375q-1.5625 -1.078125 -3.71875 -1.078125q-1.640625 0 -2.46875 0.578125q-0.828125 0.5625 -0.828125 1.5q0 0.71875 0.46875 1.15625q0.46875 0.4375 1.15625 0.640625q0.703125 0.203125 1.9375 0.421875q1.5 0.28125 2.40625 0.578125q0.921875 0.28125 1.5625 0.984375q0.65625 0.6875 0.65625 1.90625q0 1.65625 -1.390625 2.640625q-1.375 0.96875 -3.8125 0.96875zm19.345337 -5.90625l-10.5625 0q0.140625 1.96875 1.5 3.1875q1.375 1.203125 3.46875 1.203125q1.171875 0 2.15625 -0.421875q0.984375 -0.421875 1.703125 -1.234375l0.953125 1.109375q-0.828125 1.0 -2.09375 1.53125q-1.265625 0.53125 -2.765625 0.53125q-1.953125 0 -3.453125 -0.828125q-1.5 -0.828125 -2.34375 -2.296875q-0.828125 -1.46875 -0.828125 -3.3125q0 -1.84375 0.796875 -3.3125q0.8125 -1.46875 2.203125 -2.28125q1.40625 -0.8125 3.15625 -0.8125q1.765625 0 3.15625 0.8125q1.390625 0.8125 2.171875 2.265625q0.796875 1.453125 0.796875 3.328125l-0.015625 0.53125zm-6.109375 -5.46875q-1.8125 0 -3.0625 1.171875q-1.234375 1.15625 -1.390625 3.015625l8.953125 0q-0.171875 -1.859375 -1.40625 -3.015625q-1.234375 -1.171875 -3.09375 -1.171875zm22.54956 10.484375q-0.484375 0.421875 -1.203125 0.65625q-0.703125 0.234375 -1.46875 0.234375q-1.78125 0 -2.75 -0.953125q-0.953125 -0.96875 -0.953125 -2.71875l0 -7.640625l-2.25 0l0 -1.4375l2.25 0l0 -2.765625l1.71875 0l0 2.765625l3.828125 0l0 1.4375l-3.828125 0l0 7.546875q0 1.125 0.5625 1.71875q0.5625 0.578125 1.609375 0.578125q0.53125 0 1.015625 -0.171875q0.5 -0.171875 0.859375 -0.46875l0.609375 1.21875zm7.787964 0.890625q-1.8125 0 -3.28125 -0.828125q-1.46875 -0.828125 -2.3125 -2.296875q-0.828125 -1.46875 -0.828125 -3.3125q0 -1.84375 0.828125 -3.3125q0.84375 -1.46875 2.3125 -2.28125q1.46875 -0.8125 3.28125 -0.8125q1.828125 0 3.28125 0.8125q1.46875 0.8125 2.296875 2.28125q0.828125 1.46875 0.828125 3.3125q0 1.84375 -0.828125 3.3125q-0.828125 1.46875 -2.296875 2.296875q-1.453125 0.828125 -3.28125 0.828125zm0 -1.515625q1.34375 0 2.40625 -0.609375q1.078125 -0.609375 1.671875 -1.734375q0.609375 -1.140625 0.609375 -2.578125q0 -1.4375 -0.609375 -2.5625q-0.59375 -1.140625 -1.671875 -1.75q-1.0625 -0.609375 -2.40625 -0.609375q-1.34375 0 -2.40625 0.609375q-1.0625 0.609375 -1.6875 1.75q-0.609375 1.125 -0.609375 2.5625q0 1.4375 0.609375 2.578125q0.625 1.125 1.6875 1.734375q1.0625 0.609375 2.40625 0.609375z" fill-rule="nonzero"/><path fill="#000000" fill-opacity="0.0" d="m826.27606 306.12302l6.287964 0l0 29.25592l-6.287964 0l0 -29.25592z" fill-rule="nonzero"/><path fill="#e3e16c" d="m506.52493 335.31494l170.3035 0l0 28.800018l-170.3035 0l0 -28.800018z" fill-rule="nonzero"/><path fill="#000000" fill-opacity="0.0" d="m506.52493 335.12302l170.3035 0l0 29.25592l-170.3035 0l0 -29.25592z" fill-rule="nonzero"/><path fill="#000000" d="m515.5562 357.58932q-0.484375 0.421875 -1.203125 0.65625q-0.703125 0.234375 -1.46875 0.234375q-1.7812805 0 -2.7500305 -0.953125q-0.953125 -0.96875 -0.953125 -2.71875l0 -7.640625l-2.25 0l0 -1.4375l2.25 0l0 -2.765625l1.71875 0l0 2.765625l3.8281555 0l0 1.4375l-3.8281555 0l0 7.546875q0 1.125 0.5625 1.71875q0.5625305 0.578125 1.6094055 0.578125q0.53125 0 1.015625 -0.171875q0.5 -0.171875 0.859375 -0.46875l0.609375 1.21875zm9.5252075 -11.953125q2.375 0 3.765625 1.390625q1.40625 1.375 1.40625 4.015625l0 7.3125l-1.703125 0l0 -7.15625q0 -1.96875 -0.984375 -3.0q-0.984375 -1.03125 -2.796875 -1.03125q-2.046875 0 -3.234375 1.21875q-1.1875 1.203125 -1.1875 3.34375l0 6.625l-1.703125 0l0 -17.8125l1.703125 0l0 7.390625q0.703125 -1.09375 1.921875 -1.6875q1.21875 -0.609375 2.8125 -0.609375zm20.85846 6.9375l-10.5625 0q0.140625 1.96875 1.5 3.1875q1.375 1.203125 3.46875 1.203125q1.171875 0 2.15625 -0.421875q0.984375 -0.421875 1.703125 -1.234375l0.953125 1.109375q-0.828125 1.0 -2.09375 1.53125q-1.265625 0.53125 -2.765625 0.53125q-1.953125 0 -3.453125 -0.828125q-1.5 -0.828125 -2.34375 -2.296875q-0.828125 -1.46875 -0.828125 -3.3125q0 -1.84375 0.796875 -3.3125q0.8125 -1.46875 2.203125 -2.28125q1.40625 -0.8125 3.15625 -0.8125q1.765625 0 3.15625 0.8125q1.390625 0.8125 2.171875 2.265625q0.796875 1.453125 0.796875 3.328125l-0.015625 0.53125zm-6.109375 -5.46875q-1.8125 0 -3.0625 1.171875q-1.234375 1.15625 -1.390625 3.015625l8.953125 0q-0.171875 -1.859375 -1.40625 -3.015625q-1.234375 -1.171875 -3.09375 -1.171875zm21.127686 11.375q-1.875 0 -3.359375 -0.8125q-1.46875 -0.828125 -2.3125 -2.296875q-0.828125 -1.484375 -0.828125 -3.328125q0 -1.84375 0.828125 -3.3125q0.84375 -1.46875 2.3125 -2.28125q1.484375 -0.8125 3.359375 -0.8125q1.625 0 2.90625 0.640625q1.296875 0.625 2.03125 1.859375l-1.265625 0.859375q-0.625 -0.9375 -1.59375 -1.40625q-0.953125 -0.46875 -2.078125 -0.46875q-1.375 0 -2.46875 0.609375q-1.078125 0.609375 -1.703125 1.75q-0.609375 1.125 -0.609375 2.5625q0 1.46875 0.609375 2.59375q0.625 1.109375 1.703125 1.71875q1.09375 0.609375 2.46875 0.609375q1.125 0 2.078125 -0.453125q0.96875 -0.453125 1.59375 -1.390625l1.265625 0.859375q-0.734375 1.21875 -2.03125 1.859375q-1.296875 0.640625 -2.90625 0.640625zm14.523071 -12.84375q2.375 0 3.765625 1.390625q1.40625 1.375 1.40625 4.015625l0 7.3125l-1.703125 0l0 -7.15625q0 -1.96875 -0.984375 -3.0q-0.984375 -1.03125 -2.796875 -1.03125q-2.046875 0 -3.234375 1.21875q-1.1875 1.203125 -1.1875 3.34375l0 6.625l-1.703125 0l0 -17.8125l1.703125 0l0 7.390625q0.703125 -1.09375 1.921875 -1.6875q1.21875 -0.609375 2.8125 -0.609375zm14.232361 0q2.46875 0 3.78125 1.234375q1.328125 1.234375 1.328125 3.65625l0 7.828125l-1.640625 0l0 -1.96875q-0.5625 0.984375 -1.6875 1.546875q-1.109375 0.546875 -2.65625 0.546875q-2.109375 0 -3.359375 -1.0q-1.25 -1.015625 -1.25 -2.671875q0 -1.609375 1.15625 -2.59375q1.171875 -0.984375 3.71875 -0.984375l4.015625 0l0 -0.765625q0 -1.640625 -0.921875 -2.484375q-0.90625 -0.859375 -2.65625 -0.859375q-1.203125 0 -2.3125 0.40625q-1.09375 0.390625 -1.890625 1.078125l-0.765625 -1.265625q0.953125 -0.8125 2.296875 -1.25q1.34375 -0.453125 2.84375 -0.453125zm-0.609375 11.5q1.4375 0 2.46875 -0.65625q1.046875 -0.671875 1.546875 -1.921875l0 -2.0625l-3.96875 0q-3.234375 0 -3.234375 2.265625q0 1.09375 0.84375 1.734375q0.84375 0.640625 2.34375 0.640625zm10.347412 -16.59375l1.703125 0l0 17.8125l-1.703125 0l0 -17.8125zm6.4559937 0l1.703125 0l0 17.8125l-1.703125 0l0 -17.8125zm17.455994 12.03125l-10.5625 0q0.140625 1.96875 1.5 3.1875q1.375 1.203125 3.46875 1.203125q1.171875 0 2.15625 -0.421875q0.984375 -0.421875 1.703125 -1.234375l0.953125 1.109375q-0.828125 1.0 -2.09375 1.53125q-1.265625 0.53125 -2.765625 0.53125q-1.953125 0 -3.453125 -0.828125q-1.5 -0.828125 -2.34375 -2.296875q-0.828125 -1.46875 -0.828125 -3.3125q0 -1.84375 0.796875 -3.3125q0.8125 -1.46875 2.203125 -2.28125q1.40625 -0.8125 3.15625 -0.8125q1.765625 0 3.15625 0.8125q1.390625 0.8125 2.171875 2.265625q0.796875 1.453125 0.796875 3.328125l-0.015625 0.53125zm-6.109375 -5.46875q-1.8125 0 -3.0625 1.171875q-1.234375 1.15625 -1.390625 3.015625l8.953125 0q-0.171875 -1.859375 -1.40625 -3.015625q-1.234375 -1.171875 -3.09375 -1.171875zm16.042847 -1.46875q2.375 0 3.765625 1.390625q1.40625 1.375 1.40625 4.015625l0 7.3125l-1.703125 0l0 -7.15625q0 -1.96875 -0.984375 -3.0q-0.984375 -1.03125 -2.796875 -1.03125q-2.046875 0 -3.234375 1.21875q-1.1875 1.203125 -1.1875 3.34375l0 6.625l-1.703125 0l0 -12.625l1.640625 0l0 2.328125q0.6875 -1.15625 1.921875 -1.78125q1.234375 -0.640625 2.875 -0.640625zm21.54596 0.09375l0 11.09375q0 3.21875 -1.578125 4.765625q-1.5625 1.546875 -4.734375 1.546875q-1.75 0 -3.328125 -0.515625q-1.5625 -0.515625 -2.546875 -1.4375l0.859375 -1.296875q0.90625 0.828125 2.21875 1.28125q1.3125 0.453125 2.75 0.453125q2.40625 0 3.53125 -1.125q1.125 -1.109375 1.125 -3.453125l0 -1.609375q-0.796875 1.1875 -2.078125 1.8125q-1.28125 0.625 -2.84375 0.625q-1.78125 0 -3.234375 -0.78125q-1.4375 -0.78125 -2.265625 -2.171875q-0.828125 -1.40625 -0.828125 -3.1875q0 -1.78125 0.828125 -3.171875q0.828125 -1.390625 2.265625 -2.15625q1.4375 -0.765625 3.234375 -0.765625q1.609375 0 2.90625 0.65625q1.296875 0.640625 2.09375 1.859375l0 -2.421875l1.625 0zm-6.453125 10.640625q1.359375 0 2.46875 -0.59375q1.109375 -0.59375 1.71875 -1.640625q0.609375 -1.0625 0.609375 -2.40625q0 -1.34375 -0.609375 -2.390625q-0.609375 -1.046875 -1.703125 -1.625q-1.09375 -0.59375 -2.484375 -0.59375q-1.375 0 -2.46875 0.578125q-1.078125 0.578125 -1.703125 1.640625q-0.609375 1.046875 -0.609375 2.390625q0 1.34375 0.609375 2.40625q0.625 1.046875 1.703125 1.640625q1.09375 0.59375 2.46875 0.59375zm22.229553 -3.796875l-10.5625 0q0.140625 1.96875 1.5 3.1875q1.375 1.203125 3.46875 1.203125q1.171875 0 2.15625 -0.421875q0.984375 -0.421875 1.703125 -1.234375l0.953125 1.109375q-0.828125 1.0 -2.09375 1.53125q-1.265625 0.53125 -2.765625 0.53125q-1.953125 0 -3.453125 -0.828125q-1.5 -0.828125 -2.34375 -2.296875q-0.828125 -1.46875 -0.828125 -3.3125q0 -1.84375 0.796875 -3.3125q0.8125 -1.46875 2.203125 -2.28125q1.40625 -0.8125 3.15625 -0.8125q1.765625 0 3.15625 0.8125q1.390625 0.8125 2.171875 2.265625q0.796875 1.453125 0.796875 3.328125l-0.015625 0.53125zm-6.109375 -5.46875q-1.8125 0 -3.0625 1.171875q-1.234375 1.15625 -1.390625 3.015625l8.953125 0q-0.171875 -1.859375 -1.40625 -3.015625q-1.234375 -1.171875 -3.09375 -1.171875zm9.777222 11.375q-0.53125 0 -0.90625 -0.375q-0.375 -0.390625 -0.375 -0.953125q0 -0.546875 0.375 -0.921875q0.375 -0.375 0.90625 -0.375q0.53125 0 0.90625 0.375q0.390625 0.375 0.390625 0.921875q0 0.5625 -0.390625 0.953125q-0.375 0.375 -0.90625 0.375z" fill-rule="nonzero"/><path fill="#010000" fill-opacity="0.0" d="m676.8284 335.12302l0 0l0 29.25592l0 0l0 -29.25592z" fill-rule="nonzero"/></g></svg>