<svg version="1.1" viewBox="0.0 0.0 960.0 540.0" fill="none" stroke="none" stroke-linecap="square" stroke-miterlimit="10" xmlns:xlink="http://www.w3.org/1999/xlink" xmlns="http://www.w3.org/2000/svg"><clipPath id="g7abd9f9cc0_0_43.0"><path d="m0 0l960.0 0l0 540.0l-960.0 0l0 -540.0z" clip-rule="nonzero"/></clipPath><g clip-path="url(#g7abd9f9cc0_0_43.0)"><path fill="#000000" fill-opacity="0.0" d="m0 0l960.0 0l0 540.0l-960.0 0z" fill-rule="evenodd"/><path fill="#000000" fill-opacity="0.0" d="m121.43307 100.438324l717.1339 0l0 52.913376l-717.1339 0z" fill-rule="evenodd"/><path fill="#000000" d="m131.93307 113.5952l2.078125 0l0 11.203125l-2.078125 0l0 -11.203125zm15.697754 2.5625q1.625 0 2.5625 0.9375q0.9375 0.9375 0.9375 2.8125l0 4.890625l-2.0 0l0 -4.640625q0 -1.125 -0.5 -1.6875q-0.484375 -0.5625 -1.40625 -0.5625q-1.015625 0 -1.625 0.671875q-0.609375 0.65625 -0.609375 1.875l0 4.34375l-2.0 0l0 -4.640625q0 -1.125 -0.5 -1.6875q-0.484375 -0.5625 -1.421875 -0.5625q-1.015625 0 -1.625 0.65625q-0.59375 0.65625 -0.59375 1.890625l0 4.34375l-2.0 0l0 -8.546875l1.90625 0l0 1.09375q0.484375 -0.578125 1.203125 -0.875q0.71875 -0.3125 1.59375 -0.3125q0.953125 0 1.703125 0.359375q0.75 0.359375 1.171875 1.0625q0.53125 -0.671875 1.359375 -1.046875q0.84375 -0.375 1.84375 -0.375zm10.801163 0q1.25 0 2.234375 0.546875q0.984375 0.546875 1.546875 1.546875q0.5625 0.984375 0.5625 2.28125q0 1.296875 -0.5625 2.296875q-0.5625 1.0 -1.546875 1.546875q-0.984375 0.53125 -2.234375 0.53125q-1.734375 0 -2.734375 -1.15625l0 4.15625l-2.0 0l0 -11.65625l1.90625 0l0 1.125q0.5 -0.609375 1.21875 -0.90625q0.734375 -0.3125 1.609375 -0.3125zm-0.21875 7.046875q1.09375 0 1.8125 -0.734375q0.71875 -0.75 0.71875 -1.9375q0 -1.203125 -0.71875 -1.9375q-0.71875 -0.734375 -1.8125 -0.734375q-0.71875 0 -1.296875 0.328125q-0.578125 0.328125 -0.921875 0.9375q-0.328125 0.59375 -0.328125 1.40625q0 0.796875 0.328125 1.40625q0.34375 0.609375 0.921875 0.9375q0.578125 0.328125 1.296875 0.328125zm9.614029 -7.046875q1.890625 0 2.890625 0.90625q1.0 0.90625 1.0 2.71875l0 5.015625l-1.890625 0l0 -1.046875q-0.375 0.5625 -1.0625 0.859375q-0.671875 0.296875 -1.625 0.296875q-0.96875 0 -1.6875 -0.328125q-0.71875 -0.328125 -1.109375 -0.90625q-0.390625 -0.59375 -0.390625 -1.328125q0 -1.140625 0.859375 -1.828125q0.859375 -0.703125 2.6875 -0.703125l2.21875 0l0 -0.140625q0 -0.890625 -0.546875 -1.359375q-0.53125 -0.484375 -1.578125 -0.484375q-0.734375 0 -1.4375 0.21875q-0.6875 0.21875 -1.15625 0.625l-0.796875 -1.453125q0.671875 -0.515625 1.609375 -0.78125q0.953125 -0.28125 2.015625 -0.28125zm-0.28125 7.296875q0.765625 0 1.34375 -0.34375q0.578125 -0.34375 0.828125 -0.984375l0 -0.984375l-2.0625 0q-1.734375 0 -1.734375 1.125q0 0.546875 0.421875 0.875q0.4375 0.3125 1.203125 0.3125zm10.729523 1.453125q-1.328125 0 -2.390625 -0.5625q-1.046875 -0.5625 -1.640625 -1.5625q-0.59375 -1.0 -0.59375 -2.25q0 -1.265625 0.59375 -2.25q0.59375 -1.0 1.640625 -1.5625q1.046875 -0.5625 2.390625 -0.5625q1.265625 0 2.21875 0.515625q0.953125 0.515625 1.421875 1.46875l-1.53125 0.890625q-0.375 -0.59375 -0.921875 -0.875q-0.546875 -0.296875 -1.203125 -0.296875q-1.125 0 -1.859375 0.734375q-0.734375 0.71875 -0.734375 1.9375q0 1.203125 0.71875 1.9375q0.734375 0.734375 1.875 0.734375q0.65625 0 1.203125 -0.296875q0.546875 -0.296875 0.921875 -0.890625l1.53125 0.890625q-0.484375 0.96875 -1.4375 1.484375q-0.953125 0.515625 -2.203125 0.515625zm10.62677 -0.578125q-0.359375 0.296875 -0.859375 0.4375q-0.5 0.140625 -1.0625 0.140625q-1.40625 0 -2.1875 -0.734375q-0.765625 -0.734375 -0.765625 -2.140625l0 -4.109375l-1.40625 0l0 -1.609375l1.40625 0l0 -1.953125l2.0 0l0 1.953125l2.296875 0l0 1.609375l-2.296875 0l0 4.0625q0 0.625 0.296875 0.953125q0.3125 0.328125 0.890625 0.328125q0.671875 0 1.125 -0.359375l0.5625 1.421875zm5.6219025 -4.8125l4.40625 0l0 1.671875l-4.40625 0l0 -1.671875zm11.201035 -5.921875l2.078125 0l0 11.203125l-2.078125 0l0 -11.203125zm9.760254 2.5625q1.625 0 2.59375 0.953125q0.984375 0.9375 0.984375 2.796875l0 4.890625l-2.0 0l0 -4.640625q0 -1.125 -0.53125 -1.6875q-0.53125 -0.5625 -1.5 -0.5625q-1.109375 0 -1.75 0.671875q-0.640625 0.65625 -0.640625 1.90625l0 4.3125l-2.0 0l0 -8.546875l1.90625 0l0 1.109375q0.5 -0.59375 1.25 -0.890625q0.75 -0.3125 1.6875 -0.3125zm10.118149 8.75q-1.328125 0 -2.390625 -0.5625q-1.046875 -0.5625 -1.640625 -1.5625q-0.59375 -1.0 -0.59375 -2.25q0 -1.265625 0.59375 -2.25q0.59375 -1.0 1.640625 -1.5625q1.046875 -0.5625 2.390625 -0.5625q1.265625 0 2.21875 0.515625q0.953125 0.515625 1.421875 1.46875l-1.53125 0.890625q-0.375 -0.59375 -0.921875 -0.875q-0.546875 -0.296875 -1.203125 -0.296875q-1.125 0 -1.859375 0.734375q-0.734375 0.71875 -0.734375 1.9375q0 1.203125 0.71875 1.9375q0.734375 0.734375 1.875 0.734375q0.65625 0 1.203125 -0.296875q0.546875 -0.296875 0.921875 -0.890625l1.53125 0.890625q-0.484375 0.96875 -1.4375 1.484375q-0.953125 0.515625 -2.203125 0.515625zm7.2803955 -7.40625q0.859375 -1.34375 3.03125 -1.34375l0 1.90625q-0.25 -0.046875 -0.453125 -0.046875q-1.171875 0 -1.828125 0.6875q-0.65625 0.671875 -0.65625 1.953125l0 4.140625l-2.0 0l0 -8.546875l1.90625 0l0 1.25zm12.685013 3.078125q0 0.203125 -0.03125 0.59375l-6.703125 0q0.171875 0.9375 0.90625 1.5q0.75 0.546875 1.859375 0.546875q1.40625 0 2.328125 -0.9375l1.0625 1.234375q-0.578125 0.6875 -1.453125 1.046875q-0.875 0.34375 -1.984375 0.34375q-1.40625 0 -2.484375 -0.5625q-1.0625 -0.5625 -1.65625 -1.5625q-0.578125 -1.0 -0.578125 -2.25q0 -1.25 0.5625 -2.25q0.578125 -1.0 1.578125 -1.5625q1.015625 -0.5625 2.28125 -0.5625q1.234375 0 2.21875 0.5625q0.984375 0.546875 1.53125 1.546875q0.5625 1.0 0.5625 2.3125zm-4.3125 -2.828125q-0.96875 0 -1.640625 0.578125q-0.65625 0.5625 -0.796875 1.515625l4.84375 0q-0.125 -0.9375 -0.78125 -1.515625q-0.65625 -0.578125 -1.625 -0.578125zm9.258896 -1.59375q1.890625 0 2.890625 0.90625q1.0 0.90625 1.0 2.71875l0 5.015625l-1.890625 0l0 -1.046875q-0.375 0.5625 -1.0625 0.859375q-0.671875 0.296875 -1.625 0.296875q-0.96875 0 -1.6875 -0.328125q-0.71875 -0.328125 -1.109375 -0.90625q-0.390625 -0.59375 -0.390625 -1.328125q0 -1.140625 0.859375 -1.828125q0.859375 -0.703125 2.6875 -0.703125l2.21875 0l0 -0.140625q0 -0.890625 -0.546875 -1.359375q-0.53125 -0.484375 -1.578125 -0.484375q-0.734375 0 -1.4375 0.21875q-0.6875 0.21875 -1.15625 0.625l-0.796875 -1.453125q0.671875 -0.515625 1.609375 -0.78125q0.953125 -0.28125 2.015625 -0.28125zm-0.28125 7.296875q0.765625 0 1.34375 -0.34375q0.578125 -0.34375 0.828125 -0.984375l0 -0.984375l-2.0625 0q-1.734375 0 -1.734375 1.125q0 0.546875 0.421875 0.875q0.4375 0.3125 1.203125 0.3125zm9.368271 1.453125q-1.046875 0 -2.046875 -0.265625q-0.984375 -0.28125 -1.5625 -0.6875l0.765625 -1.53125q0.578125 0.390625 1.375 0.625q0.8125 0.234375 1.59375 0.234375q1.796875 0 1.796875 -0.953125q0 -0.4375 -0.46875 -0.609375q-0.453125 -0.1875 -1.453125 -0.34375q-1.0625 -0.15625 -1.734375 -0.359375q-0.65625 -0.21875 -1.140625 -0.734375q-0.484375 -0.53125 -0.484375 -1.453125q0 -1.21875 1.015625 -1.9375q1.015625 -0.734375 2.75 -0.734375q0.875 0 1.75 0.203125q0.875 0.203125 1.4375 0.53125l-0.765625 1.515625q-1.078125 -0.640625 -2.4375 -0.640625q-0.890625 0 -1.34375 0.265625q-0.453125 0.265625 -0.453125 0.703125q0 0.484375 0.484375 0.6875q0.484375 0.1875 1.515625 0.359375q1.015625 0.171875 1.671875 0.375q0.65625 0.203125 1.125 0.703125q0.484375 0.5 0.484375 1.40625q0 1.203125 -1.046875 1.921875q-1.03125 0.71875 -2.828125 0.71875zm13.630646 -4.328125q0 0.203125 -0.03125 0.59375l-6.703125 0q0.171875 0.9375 0.90625 1.5q0.75 0.546875 1.859375 0.546875q1.40625 0 2.328125 -0.9375l1.0625 1.234375q-0.578125 0.6875 -1.453125 1.046875q-0.875 0.34375 -1.984375 0.34375q-1.40625 0 -2.484375 -0.5625q-1.0625 -0.5625 -1.65625 -1.5625q-0.578125 -1.0 -0.578125 -2.25q0 -1.25 0.5625 -2.25q0.578125 -1.0 1.578125 -1.5625q1.015625 -0.5625 2.28125 -0.5625q1.234375 0 2.21875 0.5625q0.984375 0.546875 1.53125 1.546875q0.5625 1.0 0.5625 2.3125zm-4.3125 -2.828125q-0.96875 0 -1.640625 0.578125q-0.65625 0.5625 -0.796875 1.515625l4.84375 0q-0.125 -0.9375 -0.78125 -1.515625q-0.65625 -0.578125 -1.625 -0.578125zm10.649292 -1.5l2.0 0l0 8.546875l-2.0 0l0 -8.546875zm1.015625 -1.40625q-0.546875 0 -0.921875 -0.34375q-0.359375 -0.34375 -0.359375 -0.859375q0 -0.5 0.359375 -0.84375q0.375 -0.359375 0.921875 -0.359375q0.546875 0 0.90625 0.328125q0.375 0.328125 0.375 0.828125q0 0.53125 -0.359375 0.890625q-0.359375 0.359375 -0.921875 0.359375zm8.452118 1.3125q1.625 0 2.59375 0.953125q0.984375 0.9375 0.984375 2.796875l0 4.890625l-2.0 0l0 -4.640625q0 -1.125 -0.53125 -1.6875q-0.53125 -0.5625 -1.5 -0.5625q-1.109375 0 -1.75 0.671875q-0.640625 0.65625 -0.640625 1.90625l0 4.3125l-2.0 0l0 -8.546875l1.90625 0l0 1.109375q0.5 -0.59375 1.25 -0.890625q0.75 -0.3125 1.6875 -0.3125zm10.532288 0.09375l2.0 0l0 8.546875l-2.0 0l0 -8.546875zm1.015625 -1.40625q-0.546875 0 -0.921875 -0.34375q-0.359375 -0.34375 -0.359375 -0.859375q0 -0.5 0.359375 -0.84375q0.375 -0.359375 0.921875 -0.359375q0.546875 0 0.90625 0.328125q0.375 0.328125 0.375 0.828125q0 0.53125 -0.359375 0.890625q-0.359375 0.359375 -0.921875 0.359375zm8.452148 1.3125q1.625 0 2.59375 0.953125q0.984375 0.9375 0.984375 2.796875l0 4.890625l-2.0 0l0 -4.640625q0 -1.125 -0.53125 -1.6875q-0.53125 -0.5625 -1.5 -0.5625q-1.109375 0 -1.75 0.671875q-0.640625 0.65625 -0.640625 1.90625l0 4.3125l-2.0 0l0 -8.546875l1.90625 0l0 1.109375q0.5 -0.59375 1.25 -0.890625q0.75 -0.3125 1.6875 -0.3125zm10.118134 8.75q-1.328125 0 -2.390625 -0.5625q-1.046875 -0.5625 -1.640625 -1.5625q-0.59375 -1.0 -0.59375 -2.25q0 -1.265625 0.59375 -2.25q0.59375 -1.0 1.640625 -1.5625q1.046875 -0.5625 2.390625 -0.5625q1.265625 0 2.21875 0.515625q0.953125 0.515625 1.421875 1.46875l-1.53125 0.890625q-0.375 -0.59375 -0.921875 -0.875q-0.546875 -0.296875 -1.203125 -0.296875q-1.125 0 -1.859375 0.734375q-0.734375 0.71875 -0.734375 1.9375q0 1.203125 0.71875 1.9375q0.734375 0.734375 1.875 0.734375q0.65625 0 1.203125 -0.296875q0.546875 -0.296875 0.921875 -0.890625l1.53125 0.890625q-0.484375 0.96875 -1.4375 1.484375q-0.953125 0.515625 -2.203125 0.515625zm9.089905 0q-1.296875 0 -2.34375 -0.5625q-1.03125 -0.5625 -1.625 -1.5625q-0.578125 -1.0 -0.578125 -2.25q0 -1.265625 0.578125 -2.25q0.59375 -1.0 1.625 -1.5625q1.046875 -0.5625 2.34375 -0.5625q1.3125 0 2.34375 0.5625q1.046875 0.5625 1.625 1.5625q0.59375 0.984375 0.59375 2.25q0 1.25 -0.59375 2.25q-0.578125 1.0 -1.625 1.5625q-1.03125 0.5625 -2.34375 0.5625zm0 -1.703125q1.09375 0 1.8125 -0.734375q0.734375 -0.75 0.734375 -1.9375q0 -1.203125 -0.734375 -1.9375q-0.71875 -0.734375 -1.8125 -0.734375q-1.109375 0 -1.828125 0.734375q-0.703125 0.734375 -0.703125 1.9375q0 1.1875 0.703125 1.9375q0.71875 0.734375 1.828125 0.734375zm17.257507 -7.046875q1.625 0 2.5625 0.9375q0.9375 0.9375 0.9375 2.8125l0 4.890625l-2.0 0l0 -4.640625q0 -1.125 -0.5 -1.6875q-0.484375 -0.5625 -1.40625 -0.5625q-1.015625 0 -1.625 0.671875q-0.609375 0.65625 -0.609375 1.875l0 4.34375l-2.0 0l0 -4.640625q0 -1.125 -0.5 -1.6875q-0.484375 -0.5625 -1.421875 -0.5625q-1.015625 0 -1.625 0.65625q-0.59375 0.65625 -0.59375 1.890625l0 4.34375l-2.0 0l0 -8.546875l1.90625 0l0 1.09375q0.484375 -0.578125 1.203125 -0.875q0.71875 -0.3125 1.59375 -0.3125q0.953125 0 1.703125 0.359375q0.75 0.359375 1.171875 1.0625q0.53125 -0.671875 1.359375 -1.046875q0.84375 -0.375 1.84375 -0.375zm14.17804 4.421875q0 0.203125 -0.03125 0.59375l-6.703125 0q0.171875 0.9375 0.90625 1.5q0.75 0.546875 1.859375 0.546875q1.40625 0 2.328125 -0.9375l1.0625 1.234375q-0.578125 0.6875 -1.453125 1.046875q-0.875 0.34375 -1.984375 0.34375q-1.40625 0 -2.484375 -0.5625q-1.0625 -0.5625 -1.65625 -1.5625q-0.578125 -1.0 -0.578125 -2.25q0 -1.25 0.5625 -2.25q0.578125 -1.0 1.578125 -1.5625q1.015625 -0.5625 2.28125 -0.5625q1.234375 0 2.21875 0.5625q0.984375 0.546875 1.53125 1.546875q0.5625 1.0 0.5625 2.3125zm-4.3125 -2.828125q-0.96875 0 -1.640625 0.578125q-0.65625 0.5625 -0.796875 1.515625l4.84375 0q-0.125 -0.9375 -0.78125 -1.515625q-0.65625 -0.578125 -1.625 -0.578125zm15.383667 -1.59375q1.25 0 2.234375 0.546875q0.984375 0.546875 1.546875 1.546875q0.5625 0.984375 0.5625 2.28125q0 1.296875 -0.5625 2.296875q-0.5625 1.0 -1.546875 1.546875q-0.984375 0.53125 -2.234375 0.53125q-0.875 0 -1.609375 -0.296875q-0.71875 -0.3125 -1.21875 -0.921875l0 1.109375l-1.90625 0l0 -11.875l2.0 0l0 4.375q0.515625 -0.5625 1.203125 -0.84375q0.703125 -0.296875 1.53125 -0.296875zm-0.21875 7.046875q1.09375 0 1.8125 -0.734375q0.71875 -0.75 0.71875 -1.9375q0 -1.203125 -0.71875 -1.9375q-0.71875 -0.734375 -1.8125 -0.734375q-0.71875 0 -1.296875 0.328125q-0.578125 0.328125 -0.921875 0.9375q-0.328125 0.59375 -0.328125 1.40625q0 0.796875 0.328125 1.40625q0.34375 0.609375 0.921875 0.9375q0.578125 0.328125 1.296875 0.328125zm14.220398 -6.953125l-4.0 9.234375q-0.5625 1.390625 -1.359375 1.953125q-0.796875 0.578125 -1.9375 0.578125q-0.640625 0 -1.265625 -0.21875q-0.625 -0.203125 -1.015625 -0.5625l0.796875 -1.484375q0.28125 0.28125 0.671875 0.4375q0.390625 0.15625 0.796875 0.15625q0.53125 0 0.875 -0.265625q0.34375 -0.265625 0.625 -0.90625l0.140625 -0.34375l-3.71875 -8.578125l2.078125 0l2.6875 6.328125l2.703125 -6.328125l1.921875 0zm14.1484375 0l0 7.25q0 4.515625 -4.609375 4.515625q-1.234375 0 -2.34375 -0.3125q-1.09375 -0.3125 -1.8125 -0.90625l0.890625 -1.5q0.5625 0.453125 1.40625 0.734375q0.859375 0.28125 1.75 0.28125q1.40625 0 2.0625 -0.640625q0.65625 -0.640625 0.65625 -1.953125l0 -0.4375q-0.515625 0.5625 -1.25 0.84375q-0.734375 0.28125 -1.625 0.28125q-1.203125 0 -2.1875 -0.515625q-0.984375 -0.515625 -1.5625 -1.453125q-0.5625 -0.953125 -0.5625 -2.171875q0 -1.21875 0.5625 -2.140625q0.578125 -0.9375 1.5625 -1.453125q0.984375 -0.515625 2.1875 -0.515625q0.9375 0 1.6875 0.3125q0.765625 0.296875 1.28125 0.921875l0 -1.140625l1.90625 0zm-4.5625 6.46875q1.140625 0 1.859375 -0.671875q0.734375 -0.6875 0.734375 -1.78125q0 -1.0625 -0.734375 -1.734375q-0.71875 -0.671875 -1.859375 -0.671875q-1.15625 0 -1.890625 0.671875q-0.71875 0.671875 -0.71875 1.734375q0 1.09375 0.71875 1.78125q0.734375 0.671875 1.890625 0.671875zm9.088379 -5.21875q0.859375 -1.34375 3.03125 -1.34375l0 1.90625q-0.25 -0.046875 -0.453125 -0.046875q-1.171875 0 -1.828125 0.6875q-0.65625 0.671875 -0.65625 1.953125l0 4.140625l-2.0 0l0 -8.546875l1.90625 0l0 1.25zm8.497498 7.40625q-1.296875 0 -2.34375 -0.5625q-1.03125 -0.5625 -1.625 -1.5625q-0.578125 -1.0 -0.578125 -2.25q0 -1.265625 0.578125 -2.25q0.59375 -1.0 1.625 -1.5625q1.046875 -0.5625 2.34375 -0.5625q1.3125 0 2.34375 0.5625q1.046875 0.5625 1.625 1.5625q0.59375 0.984375 0.59375 2.25q0 1.25 -0.59375 2.25q-0.578125 1.0 -1.625 1.5625q-1.03125 0.5625 -2.34375 0.5625zm0 -1.703125q1.09375 0 1.8125 -0.734375q0.734375 -0.75 0.734375 -1.9375q0 -1.203125 -0.734375 -1.9375q-0.71875 -0.734375 -1.8125 -0.734375q-1.109375 0 -1.828125 0.734375q-0.703125 0.734375 -0.703125 1.9375q0 1.1875 0.703125 1.9375q0.71875 0.734375 1.828125 0.734375zm19.564392 -6.953125l-3.15625 8.546875l-1.921875 0l-2.203125 -5.890625l-2.234375 5.890625l-1.921875 0l-3.140625 -8.546875l1.890625 0l2.25 6.3125l2.359375 -6.3125l1.671875 0l2.3125 6.34375l2.3125 -6.34375l1.78125 0zm1.3759155 0l2.0 0l0 8.546875l-2.0 0l0 -8.546875zm1.015625 -1.40625q-0.546875 0 -0.921875 -0.34375q-0.359375 -0.34375 -0.359375 -0.859375q0 -0.5 0.359375 -0.84375q0.375 -0.359375 0.921875 -0.359375q0.546875 0 0.90625 0.328125q0.375 0.328125 0.375 0.828125q0 0.53125 -0.359375 0.890625q-0.359375 0.359375 -0.921875 0.359375zm8.452148 1.3125q1.625 0 2.59375 0.953125q0.984375 0.9375 0.984375 2.796875l0 4.890625l-2.0 0l0 -4.640625q0 -1.125 -0.53125 -1.6875q-0.53125 -0.5625 -1.5 -0.5625q-1.109375 0 -1.75 0.671875q-0.640625 0.65625 -0.640625 1.90625l0 4.3125l-2.0 0l0 -8.546875l1.90625 0l0 1.109375q0.5 -0.59375 1.25 -0.890625q0.75 -0.3125 1.6875 -0.3125zm14.680664 0.09375l0 7.25q0 4.515625 -4.609375 4.515625q-1.234375 0 -2.34375 -0.3125q-1.09375 -0.3125 -1.8125 -0.90625l0.890625 -1.5q0.5625 0.453125 1.40625 0.734375q0.859375 0.28125 1.75 0.28125q1.40625 0 2.0625 -0.640625q0.65625 -0.640625 0.65625 -1.953125l0 -0.4375q-0.515625 0.5625 -1.25 0.84375q-0.734375 0.28125 -1.625 0.28125q-1.203125 0 -2.1875 -0.515625q-0.984375 -0.515625 -1.5625 -1.453125q-0.5625 -0.953125 -0.5625 -2.171875q0 -1.21875 0.5625 -2.140625q0.578125 -0.9375 1.5625 -1.453125q0.984375 -0.515625 2.1875 -0.515625q0.9375 0 1.6875 0.3125q0.765625 0.296875 1.28125 0.921875l0 -1.140625l1.90625 0zm-4.5625 6.46875q1.140625 0 1.859375 -0.671875q0.734375 -0.6875 0.734375 -1.78125q0 -1.0625 -0.734375 -1.734375q-0.71875 -0.671875 -1.859375 -0.671875q-1.15625 0 -1.890625 0.671875q-0.71875 0.671875 -0.71875 1.734375q0 1.09375 0.71875 1.78125q0.734375 0.671875 1.890625 0.671875zm22.379395 -6.5625q1.625 0 2.5625 0.9375q0.9375 0.9375 0.9375 2.8125l0 4.890625l-2.0 0l0 -4.640625q0 -1.125 -0.5 -1.6875q-0.484375 -0.5625 -1.40625 -0.5625q-1.015625 0 -1.625 0.671875q-0.609375 0.65625 -0.609375 1.875l0 4.34375l-2.0 0l0 -4.640625q0 -1.125 -0.5 -1.6875q-0.484375 -0.5625 -1.421875 -0.5625q-1.015625 0 -1.625 0.65625q-0.59375 0.65625 -0.59375 1.890625l0 4.34375l-2.0 0l0 -8.546875l1.90625 0l0 1.09375q0.484375 -0.578125 1.203125 -0.875q0.71875 -0.3125 1.59375 -0.3125q0.953125 0 1.703125 0.359375q0.75 0.359375 1.171875 1.0625q0.53125 -0.671875 1.359375 -1.046875q0.84375 -0.375 1.84375 -0.375zm9.99054 8.75q-1.296875 0 -2.34375 -0.5625q-1.03125 -0.5625 -1.625 -1.5625q-0.578125 -1.0 -0.578125 -2.25q0 -1.265625 0.578125 -2.25q0.59375 -1.0 1.625 -1.5625q1.046875 -0.5625 2.34375 -0.5625q1.3125 0 2.34375 0.5625q1.046875 0.5625 1.625 1.5625q0.59375 0.984375 0.59375 2.25q0 1.25 -0.59375 2.25q-0.578125 1.0 -1.625 1.5625q-1.03125 0.5625 -2.34375 0.5625zm0 -1.703125q1.09375 0 1.8125 -0.734375q0.734375 -0.75 0.734375 -1.9375q0 -1.203125 -0.734375 -1.9375q-0.71875 -0.734375 -1.8125 -0.734375q-1.109375 0 -1.828125 0.734375q-0.703125 0.734375 -0.703125 1.9375q0 1.1875 0.703125 1.9375q0.71875 0.734375 1.828125 0.734375zm8.382507 -5.703125q0.859375 -1.34375 3.03125 -1.34375l0 1.90625q-0.25 -0.046875 -0.453125 -0.046875q-1.171875 0 -1.828125 0.6875q-0.65625 0.671875 -0.65625 1.953125l0 4.140625l-2.0 0l0 -8.546875l1.90625 0l0 1.25zm12.684998 3.078125q0 0.203125 -0.03125 0.59375l-6.703125 0q0.171875 0.9375 0.90625 1.5q0.75 0.546875 1.859375 0.546875q1.40625 0 2.328125 -0.9375l1.0625 1.234375q-0.578125 0.6875 -1.453125 1.046875q-0.875 0.34375 -1.984375 0.34375q-1.40625 0 -2.484375 -0.5625q-1.0625 -0.5625 -1.65625 -1.5625q-0.578125 -1.0 -0.578125 -2.25q0 -1.25 0.5625 -2.25q0.578125 -1.0 1.578125 -1.5625q1.015625 -0.5625 2.28125 -0.5625q1.234375 0 2.21875 0.5625q0.984375 0.546875 1.53125 1.546875q0.5625 1.0 0.5625 2.3125zm-4.3125 -2.828125q-0.96875 0 -1.640625 0.578125q-0.65625 0.5625 -0.796875 1.515625l4.84375 0q-0.125 -0.9375 -0.78125 -1.515625q-0.65625 -0.578125 -1.625 -0.578125zm23.977386 -1.5l-3.15625 8.546875l-1.921875 0l-2.203125 -5.890625l-2.234375 5.890625l-1.921875 0l-3.1405945 -8.546875l1.8905945 0l2.25 6.3125l2.359375 -6.3125l1.671875 0l2.3125 6.34375l2.3125 -6.34375l1.78125 0zm1.3759155 0l2.0 0l0 8.546875l-2.0 0l0 -8.546875zm1.015625 -1.40625q-0.546875 0 -0.921875 -0.34375q-0.359375 -0.34375 -0.359375 -0.859375q0 -0.5 0.359375 -0.84375q0.375 -0.359375 0.921875 -0.359375q0.546875 0 0.90625 0.328125q0.375 0.328125 0.375 0.828125q0 0.53125 -0.359375 0.890625q-0.359375 0.359375 -0.921875 0.359375zm8.749023 9.484375q-0.359375 0.296875 -0.859375 0.4375q-0.5 0.140625 -1.0625 0.140625q-1.40625 0 -2.1875 -0.734375q-0.765625 -0.734375 -0.765625 -2.140625l0 -4.109375l-1.40625 0l0 -1.609375l1.40625 0l0 -1.953125l2.0 0l0 1.953125l2.296875 0l0 1.609375l-2.296875 0l0 4.0625q0 0.625 0.296875 0.953125q0.3125 0.328125 0.890625 0.328125q0.671875 0 1.125 -0.359375l0.5625 1.421875zm6.4871216 -8.171875q1.625 0 2.59375 0.953125q0.984375 0.9375 0.984375 2.796875l0 4.890625l-2.0 0l0 -4.640625q0 -1.125 -0.53125 -1.6875q-0.53125 -0.5625 -1.5 -0.5625q-1.109375 0 -1.75 0.671875q-0.640625 0.65625 -0.640625 1.90625l0 4.3125l-2.0 0l0 -11.875l2.0 0l0 4.328125q0.5 -0.53125 1.21875 -0.8125q0.734375 -0.28125 1.625 -0.28125zm10.532288 -3.234375l2.0 0l0 11.875l-2.0 0l0 -11.875zm12.655273 7.65625q0 0.203125 -0.03125 0.59375l-6.703125 0q0.171875 0.9375 0.90625 1.5q0.75 0.546875 1.859375 0.546875q1.40625 0 2.328125 -0.9375l1.0625 1.234375q-0.578125 0.6875 -1.453125 1.046875q-0.875 0.34375 -1.984375 0.34375q-1.40625 0 -2.484375 -0.5625q-1.0625 -0.5625 -1.65625 -1.5625q-0.578125 -1.0 -0.578125 -2.25q0 -1.25 0.5625 -2.25q0.578125 -1.0 1.578125 -1.5625q1.015625 -0.5625 2.28125 -0.5625q1.234375 0 2.21875 0.5625q0.984375 0.546875 1.53125 1.546875q0.5625 1.0 0.5625 2.3125zm-4.3125 -2.828125q-0.96875 0 -1.640625 0.578125q-0.65625 0.5625 -0.796875 1.515625l4.84375 0q-0.125 -0.9375 -0.78125 -1.515625q-0.65625 -0.578125 -1.625 -0.578125zm8.873901 7.15625q-1.046875 0 -2.046875 -0.265625q-0.984375 -0.28125 -1.5625 -0.6875l0.765625 -1.53125q0.578125 0.390625 1.375 0.625q0.8125 0.234375 1.59375 0.234375q1.796875 0 1.796875 -0.953125q0 -0.4375 -0.46875 -0.609375q-0.453125 -0.1875 -1.453125 -0.34375q-1.0625 -0.15625 -1.734375 -0.359375q-0.65625 -0.21875 -1.140625 -0.734375q-0.484375 -0.53125 -0.484375 -1.453125q0 -1.21875 1.015625 -1.9375q1.015625 -0.734375 2.75 -0.734375q0.875 0 1.75 0.203125q0.875 0.203125 1.4375 0.53125l-0.765625 1.515625q-1.078125 -0.640625 -2.4375 -0.640625q-0.890625 0 -1.34375 0.265625q-0.453125 0.265625 -0.453125 0.703125q0 0.484375 0.484375 0.6875q0.484375 0.1875 1.515625 0.359375q1.015625 0.171875 1.671875 0.375q0.65625 0.203125 1.125 0.703125q0.484375 0.5 0.484375 1.40625q0 1.203125 -1.046875 1.921875q-1.03125 0.71875 -2.828125 0.71875zm8.240051 0q-1.046875 0 -2.046875 -0.265625q-0.984375 -0.28125 -1.5625 -0.6875l0.765625 -1.53125q0.578125 0.390625 1.375 0.625q0.8125 0.234375 1.59375 0.234375q1.796875 0 1.796875 -0.953125q0 -0.4375 -0.46875 -0.609375q-0.453125 -0.1875 -1.453125 -0.34375q-1.0625 -0.15625 -1.734375 -0.359375q-0.65625 -0.21875 -1.140625 -0.734375q-0.484375 -0.53125 -0.484375 -1.453125q0 -1.21875 1.015625 -1.9375q1.015625 -0.734375 2.75 -0.734375q0.875 0 1.75 0.203125q0.875 0.203125 1.4375 0.53125l-0.765625 1.515625q-1.078125 -0.640625 -2.4375 -0.640625q-0.890625 0 -1.34375 0.265625q-0.453125 0.265625 -0.453125 0.703125q0 0.484375 0.484375 0.6875q0.484375 0.1875 1.515625 0.359375q1.015625 0.171875 1.671875 0.375q0.65625 0.203125 1.125 0.703125q0.484375 0.5 0.484375 1.40625q0 1.203125 -1.046875 1.921875q-1.03125 0.71875 -2.828125 0.71875zm13.281006 -8.75q1.890625 0 2.890625 0.90625q1.0 0.90625 1.0 2.71875l0 5.015625l-1.890625 0l0 -1.046875q-0.375 0.5625 -1.0625 0.859375q-0.671875 0.296875 -1.625 0.296875q-0.96875 0 -1.6875 -0.328125q-0.71875 -0.328125 -1.109375 -0.90625q-0.390625 -0.59375 -0.390625 -1.328125q0 -1.140625 0.859375 -1.828125q0.859375 -0.703125 2.6875 -0.703125l2.21875 0l0 -0.140625q0 -0.890625 -0.546875 -1.359375q-0.53125 -0.484375 -1.578125 -0.484375q-0.734375 0 -1.4375 0.21875q-0.6875 0.21875 -1.15625 0.625l-0.796875 -1.453125q0.671875 -0.515625 1.609375 -0.78125q0.953125 -0.28125 2.015625 -0.28125zm-0.28125 7.296875q0.765625 0 1.34375 -0.34375q0.578125 -0.34375 0.828125 -0.984375l0 -0.984375l-2.0625 0q-1.734375 0 -1.734375 1.125q0 0.546875 0.421875 0.875q0.4375 0.3125 1.203125 0.3125zm11.571411 -7.296875q1.625 0 2.59375 0.953125q0.984375 0.9375 0.984375 2.796875l0 4.890625l-2.0 0l0 -4.640625q0 -1.125 -0.53125 -1.6875q-0.53125 -0.5625 -1.5 -0.5625q-1.109375 0 -1.75 0.671875q-0.640625 0.65625 -0.640625 1.90625l0 4.3125l-2.0 0l0 -8.546875l1.90625 0l0 1.109375q0.5 -0.59375 1.25 -0.890625q0.75 -0.3125 1.6875 -0.3125zm14.571289 -3.234375l0 11.875l-1.921875 0l0 -1.109375q-0.5 0.609375 -1.234375 0.921875q-0.71875 0.296875 -1.609375 0.296875q-1.21875 0 -2.203125 -0.53125q-0.984375 -0.546875 -1.546875 -1.546875q-0.5625 -1.0 -0.5625 -2.296875q0 -1.296875 0.5625 -2.28125q0.5625 -1.0 1.546875 -1.546875q0.984375 -0.546875 2.203125 -0.546875q0.859375 0 1.5625 0.296875q0.703125 0.28125 1.203125 0.859375l0 -4.390625l2.0 0zm-4.515625 10.28125q0.71875 0 1.296875 -0.328125q0.578125 -0.328125 0.90625 -0.9375q0.34375 -0.609375 0.34375 -1.40625q0 -0.8125 -0.34375 -1.40625q-0.328125 -0.609375 -0.90625 -0.9375q-0.578125 -0.328125 -1.296875 -0.328125q-0.71875 0 -1.296875 0.328125q-0.578125 0.328125 -0.921875 0.9375q-0.328125 0.59375 -0.328125 1.40625q0 0.796875 0.328125 1.40625q0.34375 0.609375 0.921875 0.9375q0.578125 0.328125 1.296875 0.328125zm16.392395 -7.046875q1.625 0 2.59375 0.953125q0.984375 0.9375 0.984375 2.796875l0 4.890625l-2.0 0l0 -4.640625q0 -1.125 -0.53125 -1.6875q-0.53125 -0.5625 -1.5 -0.5625q-1.109375 0 -1.75 0.671875q-0.640625 0.65625 -0.640625 1.90625l0 4.3125l-2.0 0l0 -11.875l2.0 0l0 4.328125q0.5 -0.53125 1.21875 -0.8125q0.734375 -0.28125 1.625 -0.28125zm6.116272 0.09375l2.0 0l0 8.546875l-2.0 0l0 -8.546875zm1.015625 -1.40625q-0.546875 0 -0.921875 -0.34375q-0.359375 -0.34375 -0.359375 -0.859375q0 -0.5 0.359375 -0.84375q0.375 -0.359375 0.921875 -0.359375q0.546875 0 0.90625 0.328125q0.375 0.328125 0.375 0.828125q0 0.53125 -0.359375 0.890625q-0.359375 0.359375 -0.921875 0.359375zm12.092773 1.40625l0 7.25q0 4.515625 -4.609375 4.515625q-1.234375 0 -2.34375 -0.3125q-1.09375 -0.3125 -1.8125 -0.90625l0.890625 -1.5q0.5625 0.453125 1.40625 0.734375q0.859375 0.28125 1.75 0.28125q1.40625 0 2.0625 -0.640625q0.65625 -0.640625 0.65625 -1.953125l0 -0.4375q-0.515625 0.5625 -1.25 0.84375q-0.734375 0.28125 -1.625 0.28125q-1.203125 0 -2.1875 -0.515625q-0.984375 -0.515625 -1.5625 -1.453125q-0.5625 -0.953125 -0.5625 -2.171875q0 -1.21875 0.5625 -2.140625q0.578125 -0.9375 1.5625 -1.453125q0.984375 -0.515625 2.1875 -0.515625q0.9375 0 1.6875 0.3125q0.765625 0.296875 1.28125 0.921875l0 -1.140625l1.90625 0zm-4.5625 6.46875q1.140625 0 1.859375 -0.671875q0.734375 -0.6875 0.734375 -1.78125q0 -1.0625 -0.734375 -1.734375q-0.71875 -0.671875 -1.859375 -0.671875q-1.15625 0 -1.890625 0.671875q-0.71875 0.671875 -0.71875 1.734375q0 1.09375 0.71875 1.78125q0.734375 0.671875 1.890625 0.671875zm12.025879 -6.5625q1.625 0 2.59375 0.953125q0.984375 0.9375 0.984375 2.796875l0 4.890625l-2.0 0l0 -4.640625q0 -1.125 -0.53125 -1.6875q-0.53125 -0.5625 -1.5 -0.5625q-1.109375 0 -1.75 0.671875q-0.640625 0.65625 -0.640625 1.90625l0 4.3125l-2.0 0l0 -11.875l2.0 0l0 4.328125q0.5 -0.53125 1.21875 -0.8125q0.734375 -0.28125 1.625 -0.28125zm14.227539 4.421875q0 0.203125 -0.03125 0.59375l-6.703125 0q0.171875 0.9375 0.90625 1.5q0.75 0.546875 1.859375 0.546875q1.40625 0 2.328125 -0.9375l1.0625 1.234375q-0.578125 0.6875 -1.453125 1.046875q-0.875 0.34375 -1.984375 0.34375q-1.40625 0 -2.484375 -0.5625q-1.0625 -0.5625 -1.65625 -1.5625q-0.578125 -1.0 -0.578125 -2.25q0 -1.25 0.5625 -2.25q0.578125 -1.0 1.578125 -1.5625q1.015625 -0.5625 2.28125 -0.5625q1.234375 0 2.21875 0.5625q0.984375 0.546875 1.53125 1.546875q0.5625 1.0 0.5625 2.3125zm-4.3125 -2.828125q-0.96875 0 -1.640625 0.578125q-0.65625 0.5625 -0.796875 1.515625l4.84375 0q-0.125 -0.9375 -0.78125 -1.515625q-0.65625 -0.578125 -1.625 -0.578125zm8.139526 -0.25q0.859375 -1.34375 3.03125 -1.34375l0 1.90625q-0.25 -0.046875 -0.453125 -0.046875q-1.171875 0 -1.828125 0.6875q-0.65625 0.671875 -0.65625 1.953125l0 4.140625l-2.0 0l0 -8.546875l1.90625 0l0 1.25zm13.964172 -1.34375q1.25 0 2.234375 0.546875q0.984375 0.546875 1.546875 1.546875q0.5625 0.984375 0.5625 2.28125q0 1.296875 -0.5625 2.296875q-0.5625 1.0 -1.546875 1.546875q-0.984375 0.53125 -2.234375 0.53125q-1.734375 0 -2.734375 -1.15625l0 4.15625l-2.0 0l0 -11.65625l1.90625 0l0 1.125q0.5 -0.609375 1.21875 -0.90625q0.734375 -0.3125 1.609375 -0.3125zm-0.21875 7.046875q1.09375 0 1.8125 -0.734375q0.71875 -0.75 0.71875 -1.9375q0 -1.203125 -0.71875 -1.9375q-0.71875 -0.734375 -1.8125 -0.734375q-0.71875 0 -1.296875 0.328125q-0.578125 0.328125 -0.921875 0.9375q-0.328125 0.59375 -0.328125 1.40625q0 0.796875 0.328125 1.40625q0.34375 0.609375 0.921875 0.9375q0.578125 0.328125 1.296875 0.328125zm8.366638 -5.703125q0.859375 -1.34375 3.03125 -1.34375l0 1.90625q-0.25 -0.046875 -0.453125 -0.046875q-1.171875 0 -1.828125 0.6875q-0.65625 0.671875 -0.65625 1.953125l0 4.140625l-2.0 0l0 -8.546875l1.90625 0l0 1.25zm4.7337646 -1.25l2.0 0l0 8.546875l-2.0 0l0 -8.546875zm1.015625 -1.40625q-0.546875 0 -0.921875 -0.34375q-0.359375 -0.34375 -0.359375 -0.859375q0 -0.5 0.359375 -0.84375q0.375 -0.359375 0.921875 -0.359375q0.546875 0 0.90625 0.328125q0.375 0.328125 0.375 0.828125q0 0.53125 -0.359375 0.890625q-0.359375 0.359375 -0.921875 0.359375zm7.5302734 10.0625q-1.328125 0 -2.390625 -0.5625q-1.046875 -0.5625 -1.640625 -1.5625q-0.59375 -1.0 -0.59375 -2.25q0 -1.265625 0.59375 -2.25q0.59375 -1.0 1.640625 -1.5625q1.046875 -0.5625 2.390625 -0.5625q1.265625 0 2.21875 0.515625q0.953125 0.515625 1.421875 1.46875l-1.53125 0.890625q-0.375 -0.59375 -0.921875 -0.875q-0.546875 -0.296875 -1.203125 -0.296875q-1.125 0 -1.859375 0.734375q-0.734375 0.71875 -0.734375 1.9375q0 1.203125 0.71875 1.9375q0.734375 0.734375 1.875 0.734375q0.65625 0 1.203125 -0.296875q0.546875 -0.296875 0.921875 -0.890625l1.53125 0.890625q-0.484375 0.96875 -1.4375 1.484375q-0.953125 0.515625 -2.203125 0.515625zm13.277405 -4.328125q0 0.203125 -0.03125 0.59375l-6.703125 0q0.171875 0.9375 0.90625 1.5q0.75 0.546875 1.859375 0.546875q1.40625 0 2.328125 -0.9375l1.0625 1.234375q-0.578125 0.6875 -1.453125 1.046875q-0.875 0.34375 -1.984375 0.34375q-1.40625 0 -2.484375 -0.5625q-1.0625 -0.5625 -1.65625 -1.5625q-0.578125 -1.0 -0.578125 -2.25q0 -1.25 0.5625 -2.25q0.578125 -1.0 1.578125 -1.5625q1.015625 -0.5625 2.28125 -0.5625q1.234375 0 2.21875 0.5625q0.984375 0.546875 1.53125 1.546875q0.5625 1.0 0.5625 2.3125zm-4.3125 -2.828125q-0.96875 0 -1.640625 0.578125q-0.65625 0.5625 -0.796875 1.515625l4.84375 0q-0.125 -0.9375 -0.78125 -1.515625q-0.65625 -0.578125 -1.625 -0.578125zm12.555542 -0.25q0.859375 -1.34375 3.03125 -1.34375l0 1.90625q-0.25 -0.046875 -0.453125 -0.046875q-1.171875 0 -1.828125 0.6875q-0.65625 0.671875 -0.65625 1.953125l0 4.140625l-2.0 0l0 -8.546875l1.90625 0l0 1.25zm12.684998 3.078125q0 0.203125 -0.03125 0.59375l-6.703125 0q0.171875 0.9375 0.90625 1.5q0.75 0.546875 1.859375 0.546875q1.40625 0 2.328125 -0.9375l1.0625 1.234375q-0.578125 0.6875 -1.453125 1.046875q-0.875 0.34375 -1.984375 0.34375q-1.40625 0 -2.484375 -0.5625q-1.0625 -0.5625 -1.65625 -1.5625q-0.578125 -1.0 -0.578125 -2.25q0 -1.25 0.5625 -2.25q0.578125 -1.0 1.578125 -1.5625q1.015625 -0.5625 2.28125 -0.5625q1.234375 0 2.21875 0.5625q0.984375 0.546875 1.53125 1.546875q0.5625 1.0 0.5625 2.3125zm-4.3125 -2.828125q-0.96875 0 -1.640625 0.578125q-0.65625 0.5625 -0.796875 1.515625l4.84375 0q-0.125 -0.9375 -0.78125 -1.515625q-0.65625 -0.578125 -1.625 -0.578125zm9.258911 -1.59375q1.890625 0 2.890625 0.90625q1.0 0.90625 1.0 2.71875l0 5.015625l-1.890625 0l0 -1.046875q-0.375 0.5625 -1.0625 0.859375q-0.671875 0.296875 -1.625 0.296875q-0.96875 0 -1.6875 -0.328125q-0.71875 -0.328125 -1.109375 -0.90625q-0.390625 -0.59375 -0.390625 -1.328125q0 -1.140625 0.859375 -1.828125q0.859375 -0.703125 2.6875 -0.703125l2.21875 0l0 -0.140625q0 -0.890625 -0.546875 -1.359375q-0.53125 -0.484375 -1.578125 -0.484375q-0.734375 0 -1.4375 0.21875q-0.6875 0.21875 -1.15625 0.625l-0.796875 -1.453125q0.671875 -0.515625 1.609375 -0.78125q0.953125 -0.28125 2.015625 -0.28125zm-0.28125 7.296875q0.765625 0 1.34375 -0.34375q0.578125 -0.34375 0.828125 -0.984375l0 -0.984375l-2.0625 0q-1.734375 0 -1.734375 1.125q0 0.546875 0.421875 0.875q0.4375 0.3125 1.203125 0.3125zm6.727661 -10.53125l2.0 0l0 11.875l-2.0 0l0 -11.875zm4.6240234 3.328125l2.0 0l0 8.546875l-2.0 0l0 -8.546875zm1.015625 -1.40625q-0.546875 0 -0.921875 -0.34375q-0.359375 -0.34375 -0.359375 -0.859375q0 -0.5 0.359375 -0.84375q0.375 -0.359375 0.921875 -0.359375q0.546875 0 0.90625 0.328125q0.375 0.328125 0.375 0.828125q0 0.53125 -0.359375 0.890625q-0.359375 0.359375 -0.921875 0.359375zm10.280273 8.359375l0 1.59375l-7.375 0l0 -1.265625l4.6875 -5.671875l-4.59375 0l0 -1.609375l7.15625 0l0 1.265625l-4.703125 5.6875l4.828125 0zm5.105774 -7.046875q1.890625 0 2.890625 0.90625q1.0 0.90625 1.0 2.71875l0 5.015625l-1.890625 0l0 -1.046875q-0.375 0.5625 -1.0625 0.859375q-0.671875 0.296875 -1.625 0.296875q-0.96875 0 -1.6875 -0.328125q-0.71875 -0.328125 -1.109375 -0.90625q-0.390625 -0.59375 -0.390625 -1.328125q0 -1.140625 0.859375 -1.828125q0.859375 -0.703125 2.6875 -0.703125l2.21875 0l0 -0.140625q0 -0.890625 -0.546875 -1.359375q-0.53125 -0.484375 -1.578125 -0.484375q-0.734375 0 -1.4375 0.21875q-0.6875 0.21875 -1.15625 0.625l-0.796875 -1.453125q0.671875 -0.515625 1.609375 -0.78125q0.953125 -0.28125 2.015625 -0.28125zm-0.28125 7.296875q0.765625 0 1.34375 -0.34375q0.578125 -0.34375 0.828125 -0.984375l0 -0.984375l-2.0625 0q-1.734375 0 -1.734375 1.125q0 0.546875 0.421875 0.875q0.4375 0.3125 1.203125 0.3125zm11.868286 0.875q-0.359375 0.296875 -0.859375 0.4375q-0.5 0.140625 -1.0625 0.140625q-1.40625 0 -2.1875 -0.734375q-0.765625 -0.734375 -0.765625 -2.140625l0 -4.109375l-1.40625 0l0 -1.609375l1.40625 0l0 -1.953125l2.0 0l0 1.953125l2.296875 0l0 1.609375l-2.296875 0l0 4.0625q0 0.625 0.296875 0.953125q0.3125 0.328125 0.890625 0.328125q0.671875 0 1.125 -0.359375l0.5625 1.421875zm1.6433716 -8.078125l2.0 0l0 8.546875l-2.0 0l0 -8.546875zm1.015625 -1.40625q-0.546875 0 -0.921875 -0.34375q-0.359375 -0.34375 -0.359375 -0.859375q0 -0.5 0.359375 -0.84375q0.375 -0.359375 0.921875 -0.359375q0.546875 0 0.90625 0.328125q0.375 0.328125 0.375 0.828125q0 0.53125 -0.359375 0.890625q-0.359375 0.359375 -0.921875 0.359375zm7.4521484 10.0625q-1.296875 0 -2.34375 -0.5625q-1.03125 -0.5625 -1.625 -1.5625q-0.578125 -1.0 -0.578125 -2.25q0 -1.265625 0.578125 -2.25q0.59375 -1.0 1.625 -1.5625q1.046875 -0.5625 2.34375 -0.5625q1.3125 0 2.34375 0.5625q1.046875 0.5625 1.625 1.5625q0.59375 0.984375 0.59375 2.25q0 1.25 -0.59375 2.25q-0.578125 1.0 -1.625 1.5625q-1.03125 0.5625 -2.34375 0.5625zm0 -1.703125q1.09375 0 1.8125 -0.734375q0.734375 -0.75 0.734375 -1.9375q0 -1.203125 -0.734375 -1.9375q-0.71875 -0.734375 -1.8125 -0.734375q-1.109375 0 -1.828125 0.734375q-0.703125 0.734375 -0.703125 1.9375q0 1.1875 0.703125 1.9375q0.71875 0.734375 1.828125 0.734375zm11.320007 -7.046875q1.625 0 2.59375 0.953125q0.984375 0.9375 0.984375 2.796875l0 4.890625l-2.0 0l0 -4.640625q0 -1.125 -0.53125 -1.6875q-0.53125 -0.5625 -1.5 -0.5625q-1.109375 0 -1.75 0.671875q-0.640625 0.65625 -0.640625 1.90625l0 4.3125l-2.0 0l0 -8.546875l1.90625 0l0 1.109375q0.5 -0.59375 1.25 -0.890625q0.75 -0.3125 1.6875 -0.3125zm6.756897 8.75q-0.546875 0 -0.9375 -0.375q-0.375 -0.375 -0.375 -0.953125q0 -0.59375 0.375 -0.953125q0.375 -0.375 0.9375 -0.375q0.5625 0 0.9375 0.375q0.375 0.359375 0.375 0.953125q0 0.578125 -0.390625 0.953125q-0.375 0.375 -0.921875 0.375z" fill-rule="nonzero"/><path fill="#000000" fill-opacity="0.0" d="m90.0693 292.39645l0 0c0 -41.016937 33.250786 -74.267715 74.26771 -74.267715l0 0c19.697021 0 38.58731 7.8246 52.515213 21.752502c13.927902 13.927902 21.752502 32.81819 21.752502 52.515213l0 0c0 41.016907 -33.25078 74.2677 -74.267715 74.2677l0 0c-41.016922 0 -74.26771 -33.250793 -74.26771 -74.2677z" fill-rule="evenodd"/><path stroke="#1b511a" stroke-width="2.0" stroke-linejoin="round" stroke-linecap="butt" d="m90.0693 292.39645l0 0c0 -41.016937 33.250786 -74.267715 74.26771 -74.267715l0 0c19.697021 0 38.58731 7.8246 52.515213 21.752502c13.927902 13.927902 21.752502 32.81819 21.752502 52.515213l0 0c0 41.016907 -33.25078 74.2677 -74.267715 74.2677l0 0c-41.016922 0 -74.26771 -33.250793 -74.26771 -74.2677z" fill-rule="evenodd"/><path fill="#000000" d="m146.31079 303.31207l0 3.484375l-20.109367 0l0 -2.71875l11.390617 -11.0q2.078125 -2.0 2.796875 -3.453125q0.734375 -1.46875 0.734375 -2.953125q0 -2.1875 -1.546875 -3.40625q-1.546875 -1.234375 -4.421875 -1.234375q-4.640625 0 -7.1562424 3.046875l-2.71875 -2.359375q1.640625 -2.0 4.2968674 -3.109375q2.65625 -1.125 5.9375 -1.125q4.40625 0 7.0 2.09375q2.609375 2.09375 2.609375 5.703125q0 2.234375 -0.96875 4.234375q-0.953125 2.0 -3.640625 4.5625l-8.5625 8.234375l14.359375 0zm11.288101 -13.359375q6.0 0 8.8125 2.265625q2.828125 2.265625 2.828125 6.171875q0 2.484375 -1.1875 4.46875q-1.171875 1.984375 -3.5625 3.125q-2.375 1.125 -5.859375 1.125q-2.953125 0 -5.71875 -0.890625q-2.75 -0.90625 -4.546875 -2.5l1.828125 -3.15625q1.4375 1.359375 3.671875 2.1875q2.25 0.8125 4.734375 0.8125q3.15625 0 4.890625 -1.34375q1.75 -1.34375 1.75 -3.65625q0 -2.53125 -1.921875 -3.828125q-1.921875 -1.296875 -6.5625 -1.296875l-6.359375 0l1.484375 -14.640625l15.796875 0l0 3.484375l-12.4375 0l-0.765625 7.671875l3.125 0zm20.638107 3.890625q-2.921875 0 -4.71875 -2.125q-1.796875 -2.125 -1.796875 -5.515625q0 -3.40625 1.796875 -5.515625q1.796875 -2.125 4.71875 -2.125q2.921875 0 4.703125 2.09375q1.78125 2.09375 1.78125 5.546875q0 3.4375 -1.78125 5.546875q-1.78125 2.09375 -4.703125 2.09375zm16.875 -15.046875l3.078125 0l-19.109375 28.0l-3.078125 0l19.109375 -28.0zm-16.875 12.765625q1.84375 0 2.875 -1.421875q1.046875 -1.421875 1.046875 -3.9375q0 -2.53125 -1.046875 -3.9375q-1.03125 -1.421875 -2.875 -1.421875q-1.796875 0 -2.859375 1.4375q-1.0625 1.4375 -1.0625 3.921875q0 2.46875 1.0625 3.921875q1.0625 1.4375 2.859375 1.4375zm17.71875 15.46875q-2.921875 0 -4.703125 -2.09375q-1.78125 -2.09375 -1.78125 -5.546875q0 -3.4375 1.78125 -5.53125q1.78125 -2.109375 4.703125 -2.109375q2.921875 0 4.71875 2.125q1.796875 2.125 1.796875 5.515625q0 3.40625 -1.796875 5.53125q-1.796875 2.109375 -4.71875 2.109375zm0 -2.28125q1.796875 0 2.859375 -1.4375q1.0625 -1.4375 1.0625 -3.921875q0 -2.46875 -1.0625 -3.90625q-1.0625 -1.453125 -2.859375 -1.453125q-1.84375 0 -2.890625 1.421875q-1.03125 1.421875 -1.03125 3.9375q0 2.53125 1.03125 3.953125q1.046875 1.40625 2.890625 1.40625z" fill-rule="nonzero"/><path fill="#000000" fill-opacity="0.0" d="m90.06693 371.64304l148.53543 0l0 69.51181l-148.53543 0z" fill-rule="evenodd"/><path fill="#000000" d="m129.08876 384.11493l1.328125 0l0 9.328125l-1.328125 0l0 -9.328125zm7.7098236 2.203125q1.34375 0 2.140625 0.78125q0.796875 0.765625 0.796875 2.28125l0 4.0625l-1.28125 0l0 -3.921875q0 -1.015625 -0.5 -1.53125q-0.484375 -0.53125 -1.40625 -0.53125q-1.046875 0 -1.640625 0.609375q-0.59375 0.609375 -0.59375 1.734375l0 3.640625l-1.28125 0l0 -7.0625l1.21875 0l0 1.0625q0.390625 -0.546875 1.046875 -0.828125q0.65625 -0.296875 1.5 -0.296875zm8.428909 7.203125q-1.078125 0 -1.9375 -0.46875q-0.84375 -0.46875 -1.328125 -1.28125q-0.46875 -0.828125 -0.46875 -1.859375q0 -1.046875 0.46875 -1.859375q0.484375 -0.8125 1.328125 -1.265625q0.859375 -0.46875 1.9375 -0.46875q0.953125 0 1.703125 0.390625q0.75 0.375 1.171875 1.109375l-0.96875 0.625q-0.34375 -0.5 -0.84375 -0.75q-0.484375 -0.265625 -1.078125 -0.265625q-0.703125 0 -1.25 0.3125q-0.546875 0.3125 -0.859375 0.875q-0.3125 0.5625 -0.3125 1.296875q0 0.75 0.3125 1.3125q0.3125 0.5625 0.859375 0.875q0.546875 0.296875 1.25 0.296875q0.59375 0 1.078125 -0.25q0.5 -0.25 0.84375 -0.75l0.96875 0.609375q-0.421875 0.734375 -1.171875 1.125q-0.75 0.390625 -1.703125 0.390625zm5.7509613 -5.953125q0.328125 -0.609375 0.984375 -0.921875q0.65625 -0.328125 1.59375 -0.328125l0 1.234375q-0.109375 -0.015625 -0.296875 -0.015625q-1.046875 0 -1.640625 0.625q-0.578125 0.609375 -0.578125 1.765625l0 3.515625l-1.28125 0l0 -7.0625l1.21875 0l0 1.1875zm10.460754 2.390625q0 0.140625 -0.015625 0.375l-5.734375 0q0.109375 0.9375 0.8125 1.5q0.703125 0.5625 1.734375 0.5625q1.28125 0 2.046875 -0.84375l0.703125 0.828125q-0.484375 0.5625 -1.203125 0.859375q-0.703125 0.28125 -1.578125 0.28125q-1.125 0 -2.0 -0.453125q-0.859375 -0.46875 -1.328125 -1.296875q-0.46875 -0.828125 -0.46875 -1.859375q0 -1.03125 0.453125 -1.84375q0.46875 -0.828125 1.265625 -1.28125q0.8125 -0.46875 1.828125 -0.46875q1.015625 0 1.796875 0.46875q0.796875 0.453125 1.234375 1.28125q0.453125 0.8125 0.453125 1.890625zm-3.484375 -2.5625q-0.921875 0 -1.546875 0.5625q-0.609375 0.546875 -0.71875 1.453125l4.53125 0q-0.109375 -0.890625 -0.734375 -1.453125q-0.609375 -0.5625 -1.53125 -0.5625zm7.628662 -1.078125q1.46875 0 2.25 0.71875q0.78125 0.71875 0.78125 2.140625l0 4.265625l-1.21875 0l0 -0.9375q-0.3125 0.5 -0.90625 0.765625q-0.59375 0.25 -1.40625 0.25q-1.1875 0 -1.90625 -0.5625q-0.703125 -0.578125 -0.703125 -1.515625q0 -0.9375 0.671875 -1.5q0.6875 -0.5625 2.15625 -0.5625l2.03125 0l0 -0.25q0 -0.828125 -0.484375 -1.265625q-0.46875 -0.453125 -1.40625 -0.453125q-0.625 0 -1.234375 0.21875q-0.59375 0.203125 -1.0 0.546875l-0.546875 -0.953125q0.546875 -0.4375 1.3125 -0.671875q0.765625 -0.234375 1.609375 -0.234375zm-0.296875 6.21875q0.734375 0 1.265625 -0.328125q0.546875 -0.328125 0.78125 -0.921875l0 -0.984375l-1.96875 0q-1.625 0 -1.625 1.09375q0 0.53125 0.40625 0.84375q0.421875 0.296875 1.140625 0.296875zm7.7201843 0.984375q-0.859375 0 -1.671875 -0.234375q-0.796875 -0.234375 -1.25 -0.59375l0.546875 -1.015625q0.453125 0.34375 1.125 0.546875q0.671875 0.1875 1.34375 0.1875q1.6875 0 1.6875 -0.953125q0 -0.328125 -0.234375 -0.5q-0.21875 -0.1875 -0.5625 -0.28125q-0.34375 -0.09375 -0.96875 -0.1875q-0.84375 -0.140625 -1.390625 -0.3125q-0.546875 -0.171875 -0.9375 -0.578125q-0.375 -0.421875 -0.375 -1.171875q0 -0.953125 0.796875 -1.53125q0.796875 -0.578125 2.140625 -0.578125q0.71875 0 1.421875 0.171875q0.703125 0.171875 1.15625 0.46875l-0.546875 1.0q-0.859375 -0.546875 -2.03125 -0.546875q-0.8125 0 -1.25 0.265625q-0.421875 0.265625 -0.421875 0.703125q0 0.34375 0.234375 0.546875q0.25 0.203125 0.59375 0.296875q0.359375 0.09375 1.0 0.203125q0.84375 0.15625 1.375 0.328125q0.53125 0.15625 0.90625 0.5625q0.375 0.390625 0.375 1.109375q0 0.96875 -0.828125 1.53125q-0.8125 0.5625 -2.234375 0.5625zm11.036743 -3.5625q0 0.140625 -0.015625 0.375l-5.734375 0q0.109375 0.9375 0.8125 1.5q0.703125 0.5625 1.734375 0.5625q1.28125 0 2.046875 -0.84375l0.703125 0.828125q-0.484375 0.5625 -1.203125 0.859375q-0.703125 0.28125 -1.578125 0.28125q-1.125 0 -2.0 -0.453125q-0.859375 -0.46875 -1.328125 -1.296875q-0.46875 -0.828125 -0.46875 -1.859375q0 -1.03125 0.453125 -1.84375q0.46875 -0.828125 1.265625 -1.28125q0.8125 -0.46875 1.828125 -0.46875q1.015625 0 1.796875 0.46875q0.796875 0.453125 1.234375 1.28125q0.453125 0.8125 0.453125 1.890625zm-3.484375 -2.5625q-0.921875 0 -1.546875 0.5625q-0.609375 0.546875 -0.71875 1.453125l4.53125 0q-0.109375 -0.890625 -0.734375 -1.453125q-0.609375 -0.5625 -1.53125 -0.5625zm8.85141 -1.015625l1.28125 0l0 7.0625l-1.28125 0l0 -7.0625zm0.625 -1.359375q-0.375 0 -0.625 -0.234375q-0.234375 -0.25 -0.234375 -0.59375q0 -0.34375 0.234375 -0.59375q0.25 -0.25 0.625 -0.25q0.375 0 0.625 0.234375q0.25 0.234375 0.25 0.578125q0 0.359375 -0.25 0.609375q-0.25 0.25 -0.625 0.25zm6.8591614 1.296875q1.34375 0 2.140625 0.78125q0.796875 0.765625 0.796875 2.28125l0 4.0625l-1.28125 0l0 -3.921875q0 -1.015625 -0.5 -1.53125q-0.484375 -0.53125 -1.40625 -0.53125q-1.046875 0 -1.640625 0.609375q-0.59375 0.609375 -0.59375 1.734375l0 3.640625l-1.28125 0l0 -7.0625l1.21875 0l0 1.0625q0.390625 -0.546875 1.046875 -0.828125q0.65625 -0.296875 1.5 -0.296875z" fill-rule="nonzero"/><path fill="#000000" d="m154.22366 402.38055l-3.4375 7.765625q-0.453125 1.078125 -1.0625 1.515625q-0.59375 0.453125 -1.453125 0.453125q-0.515625 0 -1.0 -0.171875q-0.484375 -0.171875 -0.8125 -0.484375l0.546875 -0.96875q0.546875 0.53125 1.265625 0.53125q0.46875 0 0.78125 -0.25q0.3125 -0.25 0.5625 -0.84375l0.234375 -0.5l-3.125 -7.046875l1.34375 0l2.453125 5.65625l2.4375 -5.65625l1.265625 0zm1.2003937 0l1.28125 0l0 7.0625l-1.28125 0l0 -7.0625zm0.625 -1.359375q-0.375 0 -0.625 -0.234375q-0.234375 -0.25 -0.234375 -0.59375q0 -0.34375 0.234375 -0.59375q0.25 -0.25 0.625 -0.25q0.375 0 0.625 0.234375q0.25 0.234375 0.25 0.578125q0 0.359375 -0.25 0.609375q-0.25 0.25 -0.625 0.25zm9.468536 4.9375q0 0.140625 -0.015625 0.375l-5.734375 0q0.109375 0.9375 0.8125 1.5q0.703125 0.5625 1.734375 0.5625q1.28125 0 2.046875 -0.84375l0.703125 0.828125q-0.484375 0.5625 -1.203125 0.859375q-0.703125 0.28125 -1.578125 0.28125q-1.125 0 -2.0 -0.453125q-0.859375 -0.46875 -1.328125 -1.296875q-0.46875 -0.828125 -0.46875 -1.859375q0 -1.03125 0.453125 -1.84375q0.46875 -0.828125 1.265625 -1.28125q0.8125 -0.46875 1.828125 -0.46875q1.015625 0 1.796875 0.46875q0.796875 0.453125 1.234375 1.28125q0.453125 0.8125 0.453125 1.890625zm-3.484375 -2.5625q-0.921875 0 -1.546875 0.5625q-0.609375 0.546875 -0.71875 1.453125l4.53125 0q-0.109375 -0.890625 -0.734375 -1.453125q-0.609375 -0.5625 -1.53125 -0.5625zm5.266159 -3.84375l1.28125 0l0 9.890625l-1.28125 0l0 -9.890625zm10.374786 0l0 9.890625l-1.21875 0l0 -1.125q-0.4375 0.59375 -1.09375 0.90625q-0.640625 0.296875 -1.4375 0.296875q-1.015625 0 -1.828125 -0.453125q-0.8125 -0.453125 -1.28125 -1.265625q-0.453125 -0.828125 -0.453125 -1.890625q0 -1.0625 0.453125 -1.875q0.46875 -0.8125 1.28125 -1.265625q0.8125 -0.453125 1.828125 -0.453125q0.765625 0 1.40625 0.28125q0.640625 0.28125 1.0625 0.84375l0 -3.890625l1.28125 0zm-3.640625 8.84375q0.671875 0 1.21875 -0.3125q0.546875 -0.3125 0.84375 -0.875q0.3125 -0.5625 0.3125 -1.296875q0 -0.734375 -0.3125 -1.296875q-0.296875 -0.5625 -0.84375 -0.875q-0.546875 -0.3125 -1.21875 -0.3125q-0.671875 0 -1.21875 0.3125q-0.53125 0.3125 -0.84375 0.875q-0.3125 0.5625 -0.3125 1.296875q0 0.734375 0.3125 1.296875q0.3125 0.5625 0.84375 0.875q0.546875 0.3125 1.21875 0.3125zm6.371002 1.125q-0.375 0 -0.640625 -0.25q-0.265625 -0.265625 -0.265625 -0.671875q0 -0.375 0.265625 -0.640625q0.265625 -0.265625 0.640625 -0.265625q0.375 0 0.625 0.265625q0.265625 0.25 0.265625 0.640625q0 0.40625 -0.265625 0.671875q-0.265625 0.25 -0.625 0.25z" fill-rule="nonzero"/><path fill="#000000" fill-opacity="0.0" d="m721.3963 371.64304l148.53546 0l0 69.51181l-148.53546 0z" fill-rule="evenodd"/><path fill="#000000" d="m757.45935 384.11493l3.921875 0q1.484375 0 2.625 0.59375q1.15625 0.578125 1.78125 1.640625q0.640625 1.0625 0.640625 2.421875q0 1.375 -0.640625 2.4375q-0.625 1.0625 -1.78125 1.65625q-1.140625 0.578125 -2.625 0.578125l-3.921875 0l0 -9.328125zm3.84375 8.171875q1.140625 0 2.0 -0.4375q0.859375 -0.453125 1.3125 -1.234375q0.46875 -0.796875 0.46875 -1.84375q0 -1.03125 -0.46875 -1.828125q-0.453125 -0.796875 -1.3125 -1.234375q-0.859375 -0.4375 -2.0 -0.4375l-2.515625 0l0 7.015625l2.515625 0zm13.352722 -2.328125q0 0.140625 -0.015625 0.375l-5.734375 0q0.109375 0.9375 0.8125 1.5q0.703125 0.5625 1.734375 0.5625q1.28125 0 2.046875 -0.84375l0.703125 0.828125q-0.484375 0.5625 -1.203125 0.859375q-0.703125 0.28125 -1.578125 0.28125q-1.125 0 -2.0 -0.453125q-0.859375 -0.46875 -1.328125 -1.296875q-0.46875 -0.828125 -0.46875 -1.859375q0 -1.03125 0.453125 -1.84375q0.46875 -0.828125 1.265625 -1.28125q0.8125 -0.46875 1.828125 -0.46875q1.015625 0 1.796875 0.46875q0.796875 0.453125 1.234375 1.28125q0.453125 0.8125 0.453125 1.890625zm-3.484375 -2.5625q-0.921875 0 -1.546875 0.5625q-0.609375 0.546875 -0.71875 1.453125l4.53125 0q-0.109375 -0.890625 -0.734375 -1.453125q-0.609375 -0.5625 -1.53125 -0.5625zm8.344299 6.125q-1.078125 0 -1.9375 -0.46875q-0.84375 -0.46875 -1.328125 -1.28125q-0.46875 -0.828125 -0.46875 -1.859375q0 -1.046875 0.46875 -1.859375q0.484375 -0.8125 1.328125 -1.265625q0.859375 -0.46875 1.9375 -0.46875q0.953125 0 1.703125 0.390625q0.75 0.375 1.171875 1.109375l-0.96875 0.625q-0.34375 -0.5 -0.84375 -0.75q-0.484375 -0.265625 -1.078125 -0.265625q-0.703125 0 -1.25 0.3125q-0.546875 0.3125 -0.859375 0.875q-0.3125 0.5625 -0.3125 1.296875q0 0.75 0.3125 1.3125q0.3125 0.5625 0.859375 0.875q0.546875 0.296875 1.25 0.296875q0.59375 0 1.078125 -0.25q0.5 -0.25 0.84375 -0.75l0.96875 0.609375q-0.421875 0.734375 -1.171875 1.125q-0.75 0.390625 -1.703125 0.390625zm5.7509155 -5.953125q0.328125 -0.609375 0.984375 -0.921875q0.65625 -0.328125 1.59375 -0.328125l0 1.234375q-0.109375 -0.015625 -0.296875 -0.015625q-1.046875 0 -1.640625 0.625q-0.578125 0.609375 -0.578125 1.765625l0 3.515625l-1.28125 0l0 -7.0625l1.21875 0l0 1.1875zm10.460754 2.390625q0 0.140625 -0.015625 0.375l-5.734375 0q0.109375 0.9375 0.8125 1.5q0.703125 0.5625 1.734375 0.5625q1.28125 0 2.046875 -0.84375l0.703125 0.828125q-0.484375 0.5625 -1.203125 0.859375q-0.703125 0.28125 -1.578125 0.28125q-1.125 0 -2.0 -0.453125q-0.859375 -0.46875 -1.328125 -1.296875q-0.46875 -0.828125 -0.46875 -1.859375q0 -1.03125 0.453125 -1.84375q0.46875 -0.828125 1.265625 -1.28125q0.8125 -0.46875 1.828125 -0.46875q1.015625 0 1.796875 0.46875q0.796875 0.453125 1.234375 1.28125q0.453125 0.8125 0.453125 1.890625zm-3.484375 -2.5625q-0.921875 0 -1.546875 0.5625q-0.609375 0.546875 -0.71875 1.453125l4.53125 0q-0.109375 -0.890625 -0.734375 -1.453125q-0.609375 -0.5625 -1.53125 -0.5625zm7.628662 -1.078125q1.46875 0 2.25 0.71875q0.78125 0.71875 0.78125 2.140625l0 4.265625l-1.21875 0l0 -0.9375q-0.3125 0.5 -0.90625 0.765625q-0.59375 0.25 -1.40625 0.25q-1.1875 0 -1.90625 -0.5625q-0.703125 -0.578125 -0.703125 -1.515625q0 -0.9375 0.671875 -1.5q0.6875 -0.5625 2.15625 -0.5625l2.03125 0l0 -0.25q0 -0.828125 -0.484375 -1.265625q-0.46875 -0.453125 -1.40625 -0.453125q-0.625 0 -1.234375 0.21875q-0.59375 0.203125 -1.0 0.546875l-0.546875 -0.953125q0.546875 -0.4375 1.3125 -0.671875q0.765625 -0.234375 1.609375 -0.234375zm-0.296875 6.21875q0.734375 0 1.265625 -0.328125q0.546875 -0.328125 0.78125 -0.921875l0 -0.984375l-1.96875 0q-1.625 0 -1.625 1.09375q0 0.53125 0.40625 0.84375q0.421875 0.296875 1.140625 0.296875zm7.720215 0.984375q-0.859375 0 -1.671875 -0.234375q-0.796875 -0.234375 -1.25 -0.59375l0.546875 -1.015625q0.453125 0.34375 1.125 0.546875q0.671875 0.1875 1.34375 0.1875q1.6875 0 1.6875 -0.953125q0 -0.328125 -0.234375 -0.5q-0.21875 -0.1875 -0.5625 -0.28125q-0.34375 -0.09375 -0.96875 -0.1875q-0.84375 -0.140625 -1.390625 -0.3125q-0.546875 -0.171875 -0.9375 -0.578125q-0.375 -0.421875 -0.375 -1.171875q0 -0.953125 0.796875 -1.53125q0.796875 -0.578125 2.140625 -0.578125q0.71875 0 1.421875 0.171875q0.703125 0.171875 1.15625 0.46875l-0.546875 1.0q-0.859375 -0.546875 -2.03125 -0.546875q-0.8125 0 -1.25 0.265625q-0.421875 0.265625 -0.421875 0.703125q0 0.34375 0.234375 0.546875q0.25 0.203125 0.59375 0.296875q0.359375 0.09375 1.0 0.203125q0.84375 0.15625 1.375 0.328125q0.53125 0.15625 0.90625 0.5625q0.375 0.390625 0.375 1.109375q0 0.96875 -0.828125 1.53125q-0.8125 0.5625 -2.234375 0.5625zm11.036743 -3.5625q0 0.140625 -0.015625 0.375l-5.734375 0q0.109375 0.9375 0.8125 1.5q0.703125 0.5625 1.734375 0.5625q1.28125 0 2.046875 -0.84375l0.703125 0.828125q-0.484375 0.5625 -1.203125 0.859375q-0.703125 0.28125 -1.578125 0.28125q-1.125 0 -2.0 -0.453125q-0.859375 -0.46875 -1.328125 -1.296875q-0.46875 -0.828125 -0.46875 -1.859375q0 -1.03125 0.453125 -1.84375q0.46875 -0.828125 1.265625 -1.28125q0.8125 -0.46875 1.828125 -0.46875q1.015625 0 1.796875 0.46875q0.796875 0.453125 1.234375 1.28125q0.453125 0.8125 0.453125 1.890625zm-3.484375 -2.5625q-0.921875 0 -1.546875 0.5625q-0.609375 0.546875 -0.71875 1.453125l4.53125 0q-0.109375 -0.890625 -0.734375 -1.453125q-0.609375 -0.5625 -1.53125 -0.5625zm8.851379 -1.015625l1.28125 0l0 7.0625l-1.28125 0l0 -7.0625zm0.625 -1.359375q-0.375 0 -0.625 -0.234375q-0.234375 -0.25 -0.234375 -0.59375q0 -0.34375 0.234375 -0.59375q0.25 -0.25 0.625 -0.25q0.375 0 0.625 0.234375q0.25 0.234375 0.25 0.578125q0 0.359375 -0.25 0.609375q-0.25 0.25 -0.625 0.25zm6.859192 1.296875q1.34375 0 2.140625 0.78125q0.796875 0.765625 0.796875 2.28125l0 4.0625l-1.28125 0l0 -3.921875q0 -1.015625 -0.5 -1.53125q-0.484375 -0.53125 -1.40625 -0.53125q-1.046875 0 -1.640625 0.609375q-0.59375 0.609375 -0.59375 1.734375l0 3.640625l-1.28125 0l0 -7.0625l1.21875 0l0 1.0625q0.390625 -0.546875 1.046875 -0.828125q0.65625 -0.296875 1.5 -0.296875z" fill-rule="nonzero"/><path fill="#000000" d="m754.29956 402.38055l1.28125 0l0 7.0625l-1.28125 0l0 -7.0625zm0.625 -1.359375q-0.375 0 -0.625 -0.234375q-0.234375 -0.25 -0.234375 -0.59375q0 -0.34375 0.234375 -0.59375q0.25 -0.25 0.625 -0.25q0.375 0 0.625 0.234375q0.25 0.234375 0.25 0.578125q0 0.359375 -0.25 0.609375q-0.25 0.25 -0.625 0.25zm6.859192 1.296875q1.34375 0 2.140625 0.78125q0.796875 0.765625 0.796875 2.28125l0 4.0625l-1.28125 0l0 -3.921875q0 -1.015625 -0.5 -1.53125q-0.484375 -0.53125 -1.40625 -0.53125q-1.046875 0 -1.640625 0.609375q-0.59375 0.609375 -0.59375 1.734375l0 3.640625l-1.28125 0l0 -7.0625l1.21875 0l0 1.0625q0.390625 -0.546875 1.046875 -0.828125q0.65625 -0.296875 1.5 -0.296875zm9.045166 0q1.03125 0 1.84375 0.453125q0.8125 0.453125 1.265625 1.265625q0.46875 0.8125 0.46875 1.875q0 1.0625 -0.46875 1.890625q-0.453125 0.8125 -1.265625 1.265625q-0.8125 0.453125 -1.84375 0.453125q-0.75 0 -1.390625 -0.28125q-0.625 -0.296875 -1.0625 -0.859375l0 3.640625l-1.28125 0l0 -9.640625l1.21875 0l0 1.125q0.421875 -0.59375 1.078125 -0.890625q0.65625 -0.296875 1.4375 -0.296875zm-0.109375 6.078125q0.6875 0 1.21875 -0.3125q0.546875 -0.3125 0.859375 -0.875q0.3125 -0.5625 0.3125 -1.296875q0 -0.734375 -0.3125 -1.296875q-0.3125 -0.5625 -0.859375 -0.875q-0.53125 -0.3125 -1.21875 -0.3125q-0.65625 0 -1.203125 0.3125q-0.53125 0.3125 -0.84375 0.875q-0.3125 0.5625 -0.3125 1.296875q0 0.734375 0.296875 1.296875q0.3125 0.5625 0.859375 0.875q0.546875 0.3125 1.203125 0.3125zm12.042847 -6.015625l0 7.0625l-1.21875 0l0 -1.0625q-0.375 0.546875 -1.015625 0.84375q-0.625 0.296875 -1.375 0.296875q-1.421875 0 -2.234375 -0.78125q-0.8125 -0.78125 -0.8125 -2.296875l0 -4.0625l1.28125 0l0 3.921875q0 1.015625 0.484375 1.546875q0.5 0.53125 1.421875 0.53125q1.015625 0 1.59375 -0.609375q0.59375 -0.625 0.59375 -1.734375l0 -3.65625l1.28125 0zm6.4137573 6.65625q-0.28125 0.234375 -0.703125 0.359375q-0.40625 0.125 -0.84375 0.125q-1.0625 0 -1.65625 -0.5625q-0.578125 -0.578125 -0.578125 -1.640625l0 -3.890625l-1.203125 0l0 -1.046875l1.203125 0l0 -1.546875l1.265625 0l0 1.546875l2.03125 0l0 1.046875l-2.03125 0l0 3.828125q0 0.578125 0.28125 0.890625q0.296875 0.296875 0.828125 0.296875q0.59375 0 1.0 -0.328125l0.40625 0.921875zm7.1499634 0.484375q-0.859375 0 -1.671875 -0.234375q-0.796875 -0.234375 -1.25 -0.59375l0.546875 -1.015625q0.453125 0.34375 1.125 0.546875q0.671875 0.1875 1.34375 0.1875q1.6875 0 1.6875 -0.953125q0 -0.328125 -0.234375 -0.5q-0.21875 -0.1875 -0.5625 -0.28125q-0.34375 -0.09375 -0.96875 -0.1875q-0.84375 -0.140625 -1.390625 -0.3125q-0.546875 -0.171875 -0.9375 -0.578125q-0.375 -0.421875 -0.375 -1.171875q0 -0.953125 0.796875 -1.53125q0.796875 -0.578125 2.140625 -0.578125q0.71875 0 1.421875 0.171875q0.703125 0.171875 1.15625 0.46875l-0.546875 1.0q-0.859375 -0.546875 -2.03125 -0.546875q-0.8125 0 -1.25 0.265625q-0.421875 0.265625 -0.421875 0.703125q0 0.34375 0.234375 0.546875q0.25 0.203125 0.59375 0.296875q0.359375 0.09375 1.0 0.203125q0.84375 0.15625 1.375 0.328125q0.53125 0.15625 0.90625 0.5625q0.375 0.390625 0.375 1.109375q0 0.96875 -0.828125 1.53125q-0.8125 0.5625 -2.234375 0.5625zm8.396118 -7.203125q1.03125 0 1.84375 0.453125q0.8125 0.453125 1.265625 1.265625q0.46875 0.8125 0.46875 1.875q0 1.0625 -0.46875 1.890625q-0.453125 0.8125 -1.265625 1.265625q-0.8125 0.453125 -1.84375 0.453125q-0.75 0 -1.390625 -0.28125q-0.625 -0.296875 -1.0625 -0.859375l0 3.640625l-1.28125 0l0 -9.640625l1.21875 0l0 1.125q0.421875 -0.59375 1.078125 -0.890625q0.65625 -0.296875 1.4375 -0.296875zm-0.109375 6.078125q0.6875 0 1.21875 -0.3125q0.546875 -0.3125 0.859375 -0.875q0.3125 -0.5625 0.3125 -1.296875q0 -0.734375 -0.3125 -1.296875q-0.3125 -0.5625 -0.859375 -0.875q-0.53125 -0.3125 -1.21875 -0.3125q-0.65625 0 -1.203125 0.3125q-0.53125 0.3125 -0.84375 0.875q-0.3125 0.5625 -0.3125 1.296875q0 0.734375 0.296875 1.296875q0.3125 0.5625 0.859375 0.875q0.546875 0.3125 1.203125 0.3125zm11.839722 -2.4375q0 0.140625 -0.015625 0.375l-5.734375 0q0.109375 0.9375 0.8125 1.5q0.703125 0.5625 1.734375 0.5625q1.28125 0 2.046875 -0.84375l0.703125 0.828125q-0.484375 0.5625 -1.203125 0.859375q-0.703125 0.28125 -1.578125 0.28125q-1.125 0 -2.0 -0.453125q-0.859375 -0.46875 -1.328125 -1.296875q-0.46875 -0.828125 -0.46875 -1.859375q0 -1.03125 0.453125 -1.84375q0.46875 -0.828125 1.265625 -1.28125q0.8125 -0.46875 1.828125 -0.46875q1.015625 0 1.796875 0.46875q0.796875 0.453125 1.234375 1.28125q0.453125 0.8125 0.453125 1.890625zm-3.484375 -2.5625q-0.921875 0 -1.546875 0.5625q-0.609375 0.546875 -0.71875 1.453125l4.53125 0q-0.109375 -0.890625 -0.734375 -1.453125q-0.609375 -0.5625 -1.53125 -0.5625zm9.031799 -1.078125q1.34375 0 2.140625 0.78125q0.796875 0.765625 0.796875 2.28125l0 4.0625l-1.28125 0l0 -3.921875q0 -1.015625 -0.5 -1.53125q-0.484375 -0.53125 -1.40625 -0.53125q-1.046875 0 -1.640625 0.609375q-0.59375 0.609375 -0.59375 1.734375l0 3.640625l-1.28125 0l0 -7.0625l1.21875 0l0 1.0625q0.390625 -0.546875 1.046875 -0.828125q0.65625 -0.296875 1.5 -0.296875zm12.007019 -2.765625l0 9.890625l-1.21875 0l0 -1.125q-0.4375 0.59375 -1.09375 0.90625q-0.640625 0.296875 -1.4375 0.296875q-1.015625 0 -1.828125 -0.453125q-0.8125 -0.453125 -1.28125 -1.265625q-0.453125 -0.828125 -0.453125 -1.890625q0 -1.0625 0.453125 -1.875q0.46875 -0.8125 1.28125 -1.265625q0.8125 -0.453125 1.828125 -0.453125q0.765625 0 1.40625 0.28125q0.640625 0.28125 1.0625 0.84375l0 -3.890625l1.28125 0zm-3.640625 8.84375q0.671875 0 1.21875 -0.3125q0.546875 -0.3125 0.84375 -0.875q0.3125 -0.5625 0.3125 -1.296875q0 -0.734375 -0.3125 -1.296875q-0.296875 -0.5625 -0.84375 -0.875q-0.546875 -0.3125 -1.21875 -0.3125q-0.671875 0 -1.21875 0.3125q-0.53125 0.3125 -0.84375 0.875q-0.3125 0.5625 -0.3125 1.296875q0 0.734375 0.3125 1.296875q0.3125 0.5625 0.84375 0.875q0.546875 0.3125 1.21875 0.3125zm6.3710327 1.125q-0.375 0 -0.640625 -0.25q-0.265625 -0.265625 -0.265625 -0.671875q0 -0.375 0.265625 -0.640625q0.265625 -0.265625 0.640625 -0.265625q0.375 0 0.625 0.265625q0.265625 0.25 0.265625 0.640625q0 0.40625 -0.265625 0.671875q-0.265625 0.25 -0.625 0.25z" fill-rule="nonzero"/><path fill="#000000" fill-opacity="0.0" d="m721.3969 292.39514l0 0c0 -41.016937 33.250793 -74.267715 74.26776 -74.267715l0 0c19.697021 0 38.58728 7.8246 52.515198 21.752502c13.9279175 13.927902 21.752502 32.81819 21.752502 52.515213l0 0c0 41.016907 -33.250793 74.2677 -74.2677 74.2677l0 0c-41.016968 0 -74.26776 -33.250793 -74.26776 -74.2677z" fill-rule="evenodd"/><path stroke="#1b511a" stroke-width="2.0" stroke-linejoin="round" stroke-linecap="butt" d="m721.3969 292.39514l0 0c0 -41.016937 33.250793 -74.267715 74.26776 -74.267715l0 0c19.697021 0 38.58728 7.8246 52.515198 21.752502c13.9279175 13.927902 21.752502 32.81819 21.752502 52.515213l0 0c0 41.016907 -33.250793 74.2677 -74.2677 74.2677l0 0c-41.016968 0 -74.26776 -33.250793 -74.26776 -74.2677z" fill-rule="evenodd"/><path fill="#000000" d="m777.6384 303.31076l0 3.484375l-20.109375 0l0 -2.71875l11.390625 -11.0q2.078125 -2.0 2.796875 -3.453125q0.734375 -1.46875 0.734375 -2.953125q0 -2.1875 -1.546875 -3.40625q-1.546875 -1.234375 -4.421875 -1.234375q-4.640625 0 -7.15625 3.046875l-2.71875 -2.359375q1.640625 -2.0 4.296875 -3.109375q2.65625 -1.125 5.9375 -1.125q4.40625 0 7.0 2.09375q2.609375 2.09375 2.609375 5.703125q0 2.234375 -0.96875 4.234375q-0.953125 2.0 -3.640625 4.5625l-8.5625 8.234375l14.359375 0zm11.288086 -13.359375q6.0 0 8.8125 2.265625q2.828125 2.265625 2.828125 6.171875q0 2.484375 -1.1875 4.46875q-1.171875 1.984375 -3.5625 3.125q-2.375 1.125 -5.859375 1.125q-2.953125 0 -5.71875 -0.890625q-2.75 -0.90625 -4.546875 -2.5l1.828125 -3.15625q1.4375 1.359375 3.671875 2.1875q2.25 0.8125 4.734375 0.8125q3.15625 0 4.890625 -1.34375q1.75 -1.34375 1.75 -3.65625q0 -2.53125 -1.921875 -3.828125q-1.921875 -1.296875 -6.5625 -1.296875l-6.359375 0l1.484375 -14.640625l15.796875 0l0 3.484375l-12.4375 0l-0.765625 7.671875l3.125 0zm20.638123 3.890625q-2.921875 0 -4.71875 -2.125q-1.796875 -2.125 -1.796875 -5.515625q0 -3.40625 1.796875 -5.515625q1.796875 -2.125 4.71875 -2.125q2.921875 0 4.703125 2.09375q1.78125 2.09375 1.78125 5.546875q0 3.4375 -1.78125 5.546875q-1.78125 2.09375 -4.703125 2.09375zm16.875 -15.046875l3.078125 0l-19.109375 28.0l-3.078125 0l19.109375 -28.0zm-16.875 12.765625q1.84375 0 2.875 -1.421875q1.046875 -1.421875 1.046875 -3.9375q0 -2.53125 -1.046875 -3.9375q-1.03125 -1.421875 -2.875 -1.421875q-1.796875 0 -2.859375 1.4375q-1.0625 1.4375 -1.0625 3.921875q0 2.46875 1.0625 3.921875q1.0625 1.4375 2.859375 1.4375zm17.71875 15.46875q-2.921875 0 -4.703125 -2.09375q-1.78125 -2.09375 -1.78125 -5.546875q0 -3.4375 1.78125 -5.53125q1.78125 -2.109375 4.703125 -2.109375q2.921875 0 4.71875 2.125q1.796875 2.125 1.796875 5.515625q0 3.40625 -1.796875 5.53125q-1.796875 2.109375 -4.71875 2.109375zm0 -2.28125q1.796875 0 2.859375 -1.4375q1.0625 -1.4375 1.0625 -3.921875q0 -2.46875 -1.0625 -3.90625q-1.0625 -1.453125 -2.859375 -1.453125q-1.84375 0 -2.890625 1.421875q-1.03125 1.421875 -1.03125 3.9375q0 2.53125 1.03125 3.953125q1.046875 1.40625 2.890625 1.40625z" fill-rule="nonzero"/><path fill="#000000" fill-opacity="0.0" d="m306.28583 292.39645l0 0c0 -41.016937 33.250793 -74.267715 74.26773 -74.267715l0 0c19.697021 0 38.58731 7.8246 52.515198 21.752502c13.927887 13.927902 21.752502 32.81819 21.752502 52.515213l0 0c0 41.016907 -33.250793 74.2677 -74.2677 74.2677l0 0c-41.016937 0 -74.26773 -33.250793 -74.26773 -74.2677z" fill-rule="evenodd"/><path stroke="#1b511a" stroke-width="2.0" stroke-linejoin="round" stroke-linecap="butt" d="m306.28583 292.39645l0 0c0 -41.016937 33.250793 -74.267715 74.26773 -74.267715l0 0c19.697021 0 38.58731 7.8246 52.515198 21.752502c13.927887 13.927902 21.752502 32.81819 21.752502 52.515213l0 0c0 41.016907 -33.250793 74.2677 -74.2677 74.2677l0 0c-41.016937 0 -74.26773 -33.250793 -74.26773 -74.2677z" fill-rule="evenodd"/><path fill="#000000" d="m360.52734 303.31207l0 3.484375l-20.109375 0l0 -2.71875l11.390625 -11.0q2.078125 -2.0 2.796875 -3.453125q0.734375 -1.46875 0.734375 -2.953125q0 -2.1875 -1.546875 -3.40625q-1.546875 -1.234375 -4.421875 -1.234375q-4.640625 0 -7.15625 3.046875l-2.71875 -2.359375q1.640625 -2.0 4.296875 -3.109375q2.65625 -1.125 5.9375 -1.125q4.40625 0 7.0 2.09375q2.609375 2.09375 2.609375 5.703125q0 2.234375 -0.96875 4.234375q-0.953125 2.0 -3.640625 4.5625l-8.5625 8.234375l14.359375 0zm14.605591 3.796875q-3.3125 0 -5.90625 -1.6875q-2.578125 -1.703125 -4.0625 -4.9375q-1.46875 -3.25 -1.46875 -7.6875q0 -4.4375 1.46875 -7.671875q1.484375 -3.25 4.0625 -4.9375q2.59375 -1.703125 5.90625 -1.703125q3.28125 0 5.859375 1.703125q2.578125 1.6875 4.0625 4.9375q1.484375 3.234375 1.484375 7.671875q0 4.4375 -1.484375 7.6875q-1.484375 3.234375 -4.0625 4.9375q-2.578125 1.6875 -5.859375 1.6875zm0 -3.546875q3.359375 0 5.375 -2.765625q2.03125 -2.765625 2.03125 -8.0q0 -5.234375 -2.03125 -8.0q-2.015625 -2.765625 -5.375 -2.765625q-3.40625 0 -5.421875 2.765625q-2.015625 2.765625 -2.015625 8.0q0 5.234375 2.015625 8.0q2.015625 2.765625 5.421875 2.765625zm21.320618 -9.71875q-2.921875 0 -4.71875 -2.125q-1.796875 -2.125 -1.796875 -5.515625q0 -3.40625 1.796875 -5.515625q1.796875 -2.125 4.71875 -2.125q2.921875 0 4.703125 2.09375q1.78125 2.09375 1.78125 5.546875q0 3.4375 -1.78125 5.546875q-1.78125 2.09375 -4.703125 2.09375zm16.875 -15.046875l3.078125 0l-19.109375 28.0l-3.078125 0l19.109375 -28.0zm-16.875 12.765625q1.84375 0 2.875 -1.421875q1.046875 -1.421875 1.046875 -3.9375q0 -2.53125 -1.046875 -3.9375q-1.03125 -1.421875 -2.875 -1.421875q-1.796875 0 -2.859375 1.4375q-1.0625 1.4375 -1.0625 3.921875q0 2.46875 1.0625 3.921875q1.0625 1.4375 2.859375 1.4375zm17.71875 15.46875q-2.921875 0 -4.703125 -2.09375q-1.78125 -2.09375 -1.78125 -5.546875q0 -3.4375 1.78125 -5.53125q1.78125 -2.109375 4.703125 -2.109375q2.921875 0 4.71875 2.125q1.796875 2.125 1.796875 5.515625q0 3.40625 -1.796875 5.53125q-1.796875 2.109375 -4.71875 2.109375zm0 -2.28125q1.796875 0 2.859375 -1.4375q1.0625 -1.4375 1.0625 -3.921875q0 -2.46875 -1.0625 -3.90625q-1.0625 -1.453125 -2.859375 -1.453125q-1.84375 0 -2.890625 1.421875q-1.03125 1.421875 -1.03125 3.9375q0 2.53125 1.03125 3.953125q1.046875 1.40625 2.890625 1.40625z" fill-rule="nonzero"/><path fill="#000000" fill-opacity="0.0" d="m306.28607 371.64304l148.53546 0l0 69.51181l-148.53546 0z" fill-rule="evenodd"/><path fill="#000000" d="m345.30792 384.11493l1.328125 0l0 9.328125l-1.328125 0l0 -9.328125zm7.7098083 2.203125q1.34375 0 2.140625 0.78125q0.796875 0.765625 0.796875 2.28125l0 4.0625l-1.28125 0l0 -3.921875q0 -1.015625 -0.5 -1.53125q-0.484375 -0.53125 -1.40625 -0.53125q-1.046875 0 -1.640625 0.609375q-0.59375 0.609375 -0.59375 1.734375l0 3.640625l-1.28125 0l0 -7.0625l1.21875 0l0 1.0625q0.390625 -0.546875 1.046875 -0.828125q0.65625 -0.296875 1.5 -0.296875zm8.428925 7.203125q-1.078125 0 -1.9375 -0.46875q-0.84375 -0.46875 -1.328125 -1.28125q-0.46875 -0.828125 -0.46875 -1.859375q0 -1.046875 0.46875 -1.859375q0.484375 -0.8125 1.328125 -1.265625q0.859375 -0.46875 1.9375 -0.46875q0.953125 0 1.703125 0.390625q0.75 0.375 1.171875 1.109375l-0.96875 0.625q-0.34375 -0.5 -0.84375 -0.75q-0.484375 -0.265625 -1.078125 -0.265625q-0.703125 0 -1.25 0.3125q-0.546875 0.3125 -0.859375 0.875q-0.3125 0.5625 -0.3125 1.296875q0 0.75 0.3125 1.3125q0.3125 0.5625 0.859375 0.875q0.546875 0.296875 1.25 0.296875q0.59375 0 1.078125 -0.25q0.5 -0.25 0.84375 -0.75l0.96875 0.609375q-0.421875 0.734375 -1.171875 1.125q-0.75 0.390625 -1.703125 0.390625zm5.750946 -5.953125q0.328125 -0.609375 0.984375 -0.921875q0.65625 -0.328125 1.59375 -0.328125l0 1.234375q-0.109375 -0.015625 -0.296875 -0.015625q-1.046875 0 -1.640625 0.625q-0.578125 0.609375 -0.578125 1.765625l0 3.515625l-1.28125 0l0 -7.0625l1.21875 0l0 1.1875zm10.460754 2.390625q0 0.140625 -0.015625 0.375l-5.734375 0q0.109375 0.9375 0.8125 1.5q0.703125 0.5625 1.734375 0.5625q1.28125 0 2.046875 -0.84375l0.703125 0.828125q-0.484375 0.5625 -1.203125 0.859375q-0.703125 0.28125 -1.578125 0.28125q-1.125 0 -2.0 -0.453125q-0.859375 -0.46875 -1.328125 -1.296875q-0.46875 -0.828125 -0.46875 -1.859375q0 -1.03125 0.453125 -1.84375q0.46875 -0.828125 1.265625 -1.28125q0.8125 -0.46875 1.828125 -0.46875q1.015625 0 1.796875 0.46875q0.796875 0.453125 1.234375 1.28125q0.453125 0.8125 0.453125 1.890625zm-3.484375 -2.5625q-0.921875 0 -1.546875 0.5625q-0.609375 0.546875 -0.71875 1.453125l4.53125 0q-0.109375 -0.890625 -0.734375 -1.453125q-0.609375 -0.5625 -1.53125 -0.5625zm7.628662 -1.078125q1.46875 0 2.25 0.71875q0.78125 0.71875 0.78125 2.140625l0 4.265625l-1.21875 0l0 -0.9375q-0.3125 0.5 -0.90625 0.765625q-0.59375 0.25 -1.40625 0.25q-1.1875 0 -1.90625 -0.5625q-0.703125 -0.578125 -0.703125 -1.515625q0 -0.9375 0.671875 -1.5q0.6875 -0.5625 2.15625 -0.5625l2.03125 0l0 -0.25q0 -0.828125 -0.484375 -1.265625q-0.46875 -0.453125 -1.40625 -0.453125q-0.625 0 -1.234375 0.21875q-0.59375 0.203125 -1.0 0.546875l-0.546875 -0.953125q0.546875 -0.4375 1.3125 -0.671875q0.765625 -0.234375 1.609375 -0.234375zm-0.296875 6.21875q0.734375 0 1.265625 -0.328125q0.546875 -0.328125 0.78125 -0.921875l0 -0.984375l-1.96875 0q-1.625 0 -1.625 1.09375q0 0.53125 0.40625 0.84375q0.421875 0.296875 1.140625 0.296875zm7.7201843 0.984375q-0.859375 0 -1.671875 -0.234375q-0.796875 -0.234375 -1.25 -0.59375l0.546875 -1.015625q0.453125 0.34375 1.125 0.546875q0.671875 0.1875 1.34375 0.1875q1.6875 0 1.6875 -0.953125q0 -0.328125 -0.234375 -0.5q-0.21875 -0.1875 -0.5625 -0.28125q-0.34375 -0.09375 -0.96875 -0.1875q-0.84375 -0.140625 -1.390625 -0.3125q-0.546875 -0.171875 -0.9375 -0.578125q-0.375 -0.421875 -0.375 -1.171875q0 -0.953125 0.796875 -1.53125q0.796875 -0.578125 2.140625 -0.578125q0.71875 0 1.421875 0.171875q0.703125 0.171875 1.15625 0.46875l-0.546875 1.0q-0.859375 -0.546875 -2.03125 -0.546875q-0.8125 0 -1.25 0.265625q-0.421875 0.265625 -0.421875 0.703125q0 0.34375 0.234375 0.546875q0.25 0.203125 0.59375 0.296875q0.359375 0.09375 1.0 0.203125q0.84375 0.15625 1.375 0.328125q0.53125 0.15625 0.90625 0.5625q0.375 0.390625 0.375 1.109375q0 0.96875 -0.828125 1.53125q-0.8125 0.5625 -2.234375 0.5625zm11.036743 -3.5625q0 0.140625 -0.015625 0.375l-5.734375 0q0.109375 0.9375 0.8125 1.5q0.703125 0.5625 1.734375 0.5625q1.28125 0 2.046875 -0.84375l0.703125 0.828125q-0.484375 0.5625 -1.203125 0.859375q-0.703125 0.28125 -1.578125 0.28125q-1.125 0 -2.0 -0.453125q-0.859375 -0.46875 -1.328125 -1.296875q-0.46875 -0.828125 -0.46875 -1.859375q0 -1.03125 0.453125 -1.84375q0.46875 -0.828125 1.265625 -1.28125q0.8125 -0.46875 1.828125 -0.46875q1.015625 0 1.796875 0.46875q0.796875 0.453125 1.234375 1.28125q0.453125 0.8125 0.453125 1.890625zm-3.484375 -2.5625q-0.921875 0 -1.546875 0.5625q-0.609375 0.546875 -0.71875 1.453125l4.53125 0q-0.109375 -0.890625 -0.734375 -1.453125q-0.609375 -0.5625 -1.53125 -0.5625zm8.85141 -1.015625l1.28125 0l0 7.0625l-1.28125 0l0 -7.0625zm0.625 -1.359375q-0.375 0 -0.625 -0.234375q-0.234375 -0.25 -0.234375 -0.59375q0 -0.34375 0.234375 -0.59375q0.25 -0.25 0.625 -0.25q0.375 0 0.625 0.234375q0.25 0.234375 0.25 0.578125q0 0.359375 -0.25 0.609375q-0.25 0.25 -0.625 0.25zm6.8591614 1.296875q1.34375 0 2.140625 0.78125q0.796875 0.765625 0.796875 2.28125l0 4.0625l-1.28125 0l0 -3.921875q0 -1.015625 -0.5 -1.53125q-0.484375 -0.53125 -1.40625 -0.53125q-1.046875 0 -1.640625 0.609375q-0.59375 0.609375 -0.59375 1.734375l0 3.640625l-1.28125 0l0 -7.0625l1.21875 0l0 1.0625q0.390625 -0.546875 1.046875 -0.828125q0.65625 -0.296875 1.5 -0.296875z" fill-rule="nonzero"/><path fill="#000000" d="m330.10223 402.31805q1.03125 0 1.84375 0.453125q0.8125 0.453125 1.265625 1.265625q0.46875 0.8125 0.46875 1.875q0 1.0625 -0.46875 1.890625q-0.453125 0.8125 -1.265625 1.265625q-0.8125 0.453125 -1.84375 0.453125q-0.75 0 -1.390625 -0.28125q-0.625 -0.296875 -1.0625 -0.859375l0 3.640625l-1.28125 0l0 -9.640625l1.21875 0l0 1.125q0.421875 -0.59375 1.078125 -0.890625q0.65625 -0.296875 1.4375 -0.296875zm-0.109375 6.078125q0.6875 0 1.21875 -0.3125q0.546875 -0.3125 0.859375 -0.875q0.3125 -0.5625 0.3125 -1.296875q0 -0.734375 -0.3125 -1.296875q-0.3125 -0.5625 -0.859375 -0.875q-0.53125 -0.3125 -1.21875 -0.3125q-0.65625 0 -1.203125 0.3125q-0.53125 0.3125 -0.84375 0.875q-0.3125 0.5625 -0.3125 1.296875q0 0.734375 0.296875 1.296875q0.3125 0.5625 0.859375 0.875q0.546875 0.3125 1.203125 0.3125zm6.683502 -4.828125q0.328125 -0.609375 0.984375 -0.921875q0.65625 -0.328125 1.59375 -0.328125l0 1.234375q-0.109375 -0.015625 -0.296875 -0.015625q-1.046875 0 -1.640625 0.625q-0.578125 0.609375 -0.578125 1.765625l0 3.515625l-1.28125 0l0 -7.0625l1.21875 0l0 1.1875zm4.152405 -1.1875l1.28125 0l0 7.0625l-1.28125 0l0 -7.0625zm0.625 -1.359375q-0.375 0 -0.625 -0.234375q-0.234375 -0.25 -0.234375 -0.59375q0 -0.34375 0.234375 -0.59375q0.25 -0.25 0.625 -0.25q0.375 0 0.625 0.234375q0.25 0.234375 0.25 0.578125q0 0.359375 -0.25 0.609375q-0.25 0.25 -0.625 0.25zm6.1716614 8.5q-1.078125 0 -1.9375 -0.46875q-0.84375 -0.46875 -1.328125 -1.28125q-0.46875 -0.828125 -0.46875 -1.859375q0 -1.046875 0.46875 -1.859375q0.484375 -0.8125 1.328125 -1.265625q0.859375 -0.46875 1.9375 -0.46875q0.953125 0 1.703125 0.390625q0.75 0.375 1.171875 1.109375l-0.96875 0.625q-0.34375 -0.5 -0.84375 -0.75q-0.484375 -0.265625 -1.078125 -0.265625q-0.703125 0 -1.25 0.3125q-0.546875 0.3125 -0.859375 0.875q-0.3125 0.5625 -0.3125 1.296875q0 0.75 0.3125 1.3125q0.3125 0.5625 0.859375 0.875q0.546875 0.296875 1.25 0.296875q0.59375 0 1.078125 -0.25q0.5 -0.25 0.84375 -0.75l0.96875 0.609375q-0.421875 0.734375 -1.171875 1.125q-0.75 0.390625 -1.703125 0.390625zm10.800537 -3.5625q0 0.140625 -0.015625 0.375l-5.734375 0q0.109375 0.9375 0.8125 1.5q0.703125 0.5625 1.734375 0.5625q1.28125 0 2.046875 -0.84375l0.703125 0.828125q-0.484375 0.5625 -1.203125 0.859375q-0.703125 0.28125 -1.578125 0.28125q-1.125 0 -2.0 -0.453125q-0.859375 -0.46875 -1.328125 -1.296875q-0.46875 -0.828125 -0.46875 -1.859375q0 -1.03125 0.453125 -1.84375q0.46875 -0.828125 1.265625 -1.28125q0.8125 -0.46875 1.828125 -0.46875q1.015625 0 1.796875 0.46875q0.796875 0.453125 1.234375 1.28125q0.453125 0.8125 0.453125 1.890625zm-3.484375 -2.5625q-0.921875 0 -1.546875 0.5625q-0.609375 0.546875 -0.71875 1.453125l4.53125 0q-0.109375 -0.890625 -0.734375 -1.453125q-0.609375 -0.5625 -1.53125 -0.5625zm10.07016 0.171875q0.328125 -0.609375 0.984375 -0.921875q0.65625 -0.328125 1.59375 -0.328125l0 1.234375q-0.109375 -0.015625 -0.296875 -0.015625q-1.046875 0 -1.640625 0.625q-0.578125 0.609375 -0.578125 1.765625l0 3.515625l-1.28125 0l0 -7.0625l1.21875 0l0 1.1875zm10.460754 2.390625q0 0.140625 -0.015625 0.375l-5.734375 0q0.109375 0.9375 0.8125 1.5q0.703125 0.5625 1.734375 0.5625q1.28125 0 2.046875 -0.84375l0.703125 0.828125q-0.484375 0.5625 -1.203125 0.859375q-0.703125 0.28125 -1.578125 0.28125q-1.125 0 -2.0 -0.453125q-0.859375 -0.46875 -1.328125 -1.296875q-0.46875 -0.828125 -0.46875 -1.859375q0 -1.03125 0.453125 -1.84375q0.46875 -0.828125 1.265625 -1.28125q0.8125 -0.46875 1.828125 -0.46875q1.015625 0 1.796875 0.46875q0.796875 0.453125 1.234375 1.28125q0.453125 0.8125 0.453125 1.890625zm-3.484375 -2.5625q-0.921875 0 -1.546875 0.5625q-0.609375 0.546875 -0.71875 1.453125l4.53125 0q-0.109375 -0.890625 -0.734375 -1.453125q-0.609375 -0.5625 -1.53125 -0.5625zm7.628662 -1.078125q1.46875 0 2.25 0.71875q0.78125 0.71875 0.78125 2.140625l0 4.265625l-1.21875 0l0 -0.9375q-0.3125 0.5 -0.90625 0.765625q-0.59375 0.25 -1.40625 0.25q-1.1875 0 -1.90625 -0.5625q-0.703125 -0.578125 -0.703125 -1.515625q0 -0.9375 0.671875 -1.5q0.6875 -0.5625 2.15625 -0.5625l2.03125 0l0 -0.25q0 -0.828125 -0.484375 -1.265625q-0.46875 -0.453125 -1.40625 -0.453125q-0.625 0 -1.234375 0.21875q-0.59375 0.203125 -1.0 0.546875l-0.546875 -0.953125q0.546875 -0.4375 1.3125 -0.671875q0.765625 -0.234375 1.609375 -0.234375zm-0.296875 6.21875q0.734375 0 1.265625 -0.328125q0.546875 -0.328125 0.78125 -0.921875l0 -0.984375l-1.96875 0q-1.625 0 -1.625 1.09375q0 0.53125 0.40625 0.84375q0.421875 0.296875 1.140625 0.296875zm5.7045593 -8.984375l1.28125 0l0 9.890625l-1.28125 0l0 -9.890625zm3.7185364 2.828125l1.28125 0l0 7.0625l-1.28125 0l0 -7.0625zm0.625 -1.359375q-0.375 0 -0.625 -0.234375q-0.234375 -0.25 -0.234375 -0.59375q0 -0.34375 0.234375 -0.59375q0.25 -0.25 0.625 -0.25q0.375 0 0.625 0.234375q0.25 0.234375 0.25 0.578125q0 0.359375 -0.25 0.609375q-0.25 0.25 -0.625 0.25zm8.327911 7.375l0 1.046875l-5.921875 0l0 -0.828125l4.171875 -5.1875l-4.09375 0l0 -1.046875l5.734375 0l0 0.84375l-4.171875 5.171875l4.28125 0zm4.272064 -6.078125q1.46875 0 2.25 0.71875q0.78125 0.71875 0.78125 2.140625l0 4.265625l-1.21875 0l0 -0.9375q-0.3125 0.5 -0.90625 0.765625q-0.59375 0.25 -1.40625 0.25q-1.1875 0 -1.90625 -0.5625q-0.703125 -0.578125 -0.703125 -1.515625q0 -0.9375 0.671875 -1.5q0.6875 -0.5625 2.15625 -0.5625l2.03125 0l0 -0.25q0 -0.828125 -0.484375 -1.265625q-0.46875 -0.453125 -1.40625 -0.453125q-0.625 0 -1.234375 0.21875q-0.59375 0.203125 -1.0 0.546875l-0.546875 -0.953125q0.546875 -0.4375 1.3125 -0.671875q0.765625 -0.234375 1.609375 -0.234375zm-0.296875 6.21875q0.734375 0 1.265625 -0.328125q0.546875 -0.328125 0.78125 -0.921875l0 -0.984375l-1.96875 0q-1.625 0 -1.625 1.09375q0 0.53125 0.40625 0.84375q0.421875 0.296875 1.140625 0.296875zm9.673309 0.5q-0.28125 0.234375 -0.703125 0.359375q-0.40625 0.125 -0.84375 0.125q-1.0625 0 -1.65625 -0.5625q-0.578125 -0.578125 -0.578125 -1.640625l0 -3.890625l-1.203125 0l0 -1.046875l1.203125 0l0 -1.546875l1.265625 0l0 1.546875l2.03125 0l0 1.046875l-2.03125 0l0 3.828125q0 0.578125 0.28125 0.890625q0.296875 0.296875 0.828125 0.296875q0.59375 0 1.0 -0.328125l0.40625 0.921875zm1.5490723 -6.65625l1.28125 0l0 7.0625l-1.28125 0l0 -7.0625zm0.625 -1.359375q-0.375 0 -0.625 -0.234375q-0.234375 -0.25 -0.234375 -0.59375q0 -0.34375 0.234375 -0.59375q0.25 -0.25 0.625 -0.25q0.375 0 0.625 0.234375q0.25 0.234375 0.25 0.578125q0 0.359375 -0.25 0.609375q-0.25 0.25 -0.625 0.25zm6.1091614 8.5q-1.046875 0 -1.890625 -0.46875q-0.84375 -0.46875 -1.3125 -1.28125q-0.46875 -0.828125 -0.46875 -1.859375q0 -1.046875 0.46875 -1.859375q0.46875 -0.8125 1.3125 -1.265625q0.84375 -0.46875 1.890625 -0.46875q1.0625 0 1.890625 0.46875q0.828125 0.453125 1.296875 1.265625q0.484375 0.8125 0.484375 1.859375q0 1.03125 -0.484375 1.859375q-0.46875 0.8125 -1.296875 1.28125q-0.828125 0.46875 -1.890625 0.46875zm0 -1.125q0.6875 0 1.21875 -0.3125q0.546875 -0.3125 0.84375 -0.875q0.3125 -0.5625 0.3125 -1.296875q0 -0.734375 -0.3125 -1.296875q-0.296875 -0.5625 -0.84375 -0.875q-0.53125 -0.3125 -1.21875 -0.3125q-0.671875 0 -1.21875 0.3125q-0.53125 0.3125 -0.84375 0.875q-0.3125 0.5625 -0.3125 1.296875q0 0.734375 0.3125 1.296875q0.3125 0.5625 0.84375 0.875q0.546875 0.3125 1.21875 0.3125zm9.213318 -6.078125q1.34375 0 2.140625 0.78125q0.796875 0.765625 0.796875 2.28125l0 4.0625l-1.28125 0l0 -3.921875q0 -1.015625 -0.5 -1.53125q-0.484375 -0.53125 -1.40625 -0.53125q-1.046875 0 -1.640625 0.609375q-0.59375 0.609375 -0.59375 1.734375l0 3.640625l-1.28125 0l0 -7.0625l1.21875 0l0 1.0625q0.390625 -0.546875 1.046875 -0.828125q0.65625 -0.296875 1.5 -0.296875zm5.607666 7.203125q-0.375 0 -0.640625 -0.25q-0.265625 -0.265625 -0.265625 -0.671875q0 -0.375 0.265625 -0.640625q0.265625 -0.265625 0.640625 -0.265625q0.375 0 0.625 0.265625q0.265625 0.25 0.265625 0.640625q0 0.40625 -0.265625 0.671875q-0.265625 0.25 -0.625 0.25z" fill-rule="nonzero"/><path fill="#000000" fill-opacity="0.0" d="m522.5063 292.39645l0 0c0 -41.016937 33.250793 -74.267715 74.26776 -74.267715l0 0c19.697021 0 38.58728 7.8246 52.515198 21.752502c13.927856 13.927902 21.752502 32.81819 21.752502 52.515213l0 0c0 41.016907 -33.250793 74.2677 -74.2677 74.2677l0 0c-41.016968 0 -74.26776 -33.250793 -74.26776 -74.2677z" fill-rule="evenodd"/><path stroke="#1b511a" stroke-width="2.0" stroke-linejoin="round" stroke-linecap="butt" d="m522.5063 292.39645l0 0c0 -41.016937 33.250793 -74.267715 74.26776 -74.267715l0 0c19.697021 0 38.58728 7.8246 52.515198 21.752502c13.927856 13.927902 21.752502 32.81819 21.752502 52.515213l0 0c0 41.016907 -33.250793 74.2677 -74.2677 74.2677l0 0c-41.016968 0 -74.26776 -33.250793 -74.26776 -74.2677z" fill-rule="evenodd"/><path fill="#000000" d="m581.5953 299.92145l-5.328125 0l0 6.875l-3.875 0l0 -6.875l-15.5625 0l0 -2.8125l14.328125 -18.3125l4.3125 0l-13.71875 17.6875l10.765625 0l0 -6.09375l3.75 0l0 6.09375l5.328125 0l0 3.4375zm10.28064 -9.96875q6.0 0 8.8125 2.265625q2.828125 2.265625 2.828125 6.171875q0 2.484375 -1.1875 4.46875q-1.171875 1.984375 -3.5625 3.125q-2.375 1.125 -5.859375 1.125q-2.953125 0 -5.71875 -0.890625q-2.75 -0.90625 -4.546875 -2.5l1.828125 -3.15625q1.4375 1.359375 3.671875 2.1875q2.25 0.8125 4.734375 0.8125q3.15625 0 4.890625 -1.34375q1.75 -1.34375 1.75 -3.65625q0 -2.53125 -1.921875 -3.828125q-1.921875 -1.296875 -6.5625 -1.296875l-6.359375 0l1.484375 -14.640625l15.796875 0l0 3.484375l-12.4375 0l-0.765625 7.671875l3.125 0zm20.638123 3.890625q-2.921875 0 -4.71875 -2.125q-1.796875 -2.125 -1.796875 -5.515625q0 -3.40625 1.796875 -5.515625q1.796875 -2.125 4.71875 -2.125q2.921875 0 4.703125 2.09375q1.78125 2.09375 1.78125 5.546875q0 3.4375 -1.78125 5.546875q-1.78125 2.09375 -4.703125 2.09375zm16.875 -15.046875l3.078125 0l-19.109375 28.0l-3.078125 0l19.109375 -28.0zm-16.875 12.765625q1.84375 0 2.875 -1.421875q1.046875 -1.421875 1.046875 -3.9375q0 -2.53125 -1.046875 -3.9375q-1.03125 -1.421875 -2.875 -1.421875q-1.796875 0 -2.859375 1.4375q-1.0625 1.4375 -1.0625 3.921875q0 2.46875 1.0625 3.921875q1.0625 1.4375 2.859375 1.4375zm17.71875 15.46875q-2.921875 0 -4.703125 -2.09375q-1.78125 -2.09375 -1.78125 -5.546875q0 -3.4375 1.78125 -5.53125q1.78125 -2.109375 4.703125 -2.109375q2.921875 0 4.71875 2.125q1.796875 2.125 1.796875 5.515625q0 3.40625 -1.796875 5.53125q-1.796875 2.109375 -4.71875 2.109375zm0 -2.28125q1.796875 0 2.859375 -1.4375q1.0625 -1.4375 1.0625 -3.921875q0 -2.46875 -1.0625 -3.90625q-1.0625 -1.453125 -2.859375 -1.453125q-1.84375 0 -2.890625 1.421875q-1.03125 1.421875 -1.03125 3.9375q0 2.53125 1.03125 3.953125q1.046875 1.40625 2.890625 1.40625z" fill-rule="nonzero"/><path fill="#000000" fill-opacity="0.0" d="m521.0551 371.64304l148.53546 0l0 69.51181l-148.53546 0z" fill-rule="evenodd"/><path fill="#000000" d="m560.07697 384.11493l1.328125 0l0 9.328125l-1.328125 0l0 -9.328125zm7.709778 2.203125q1.34375 0 2.140625 0.78125q0.796875 0.765625 0.796875 2.28125l0 4.0625l-1.28125 0l0 -3.921875q0 -1.015625 -0.5 -1.53125q-0.484375 -0.53125 -1.40625 -0.53125q-1.046875 0 -1.640625 0.609375q-0.59375 0.609375 -0.59375 1.734375l0 3.640625l-1.28125 0l0 -7.0625l1.21875 0l0 1.0625q0.390625 -0.546875 1.046875 -0.828125q0.65625 -0.296875 1.5 -0.296875zm8.428955 7.203125q-1.078125 0 -1.9375 -0.46875q-0.84375 -0.46875 -1.328125 -1.28125q-0.46875 -0.828125 -0.46875 -1.859375q0 -1.046875 0.46875 -1.859375q0.484375 -0.8125 1.328125 -1.265625q0.859375 -0.46875 1.9375 -0.46875q0.953125 0 1.703125 0.390625q0.75 0.375 1.171875 1.109375l-0.96875 0.625q-0.34375 -0.5 -0.84375 -0.75q-0.484375 -0.265625 -1.078125 -0.265625q-0.703125 0 -1.25 0.3125q-0.546875 0.3125 -0.859375 0.875q-0.3125 0.5625 -0.3125 1.296875q0 0.75 0.3125 1.3125q0.3125 0.5625 0.859375 0.875q0.546875 0.296875 1.25 0.296875q0.59375 0 1.078125 -0.25q0.5 -0.25 0.84375 -0.75l0.96875 0.609375q-0.421875 0.734375 -1.171875 1.125q-0.75 0.390625 -1.703125 0.390625zm5.7509155 -5.953125q0.328125 -0.609375 0.984375 -0.921875q0.65625 -0.328125 1.59375 -0.328125l0 1.234375q-0.109375 -0.015625 -0.296875 -0.015625q-1.046875 0 -1.640625 0.625q-0.578125 0.609375 -0.578125 1.765625l0 3.515625l-1.28125 0l0 -7.0625l1.21875 0l0 1.1875zm10.460754 2.390625q0 0.140625 -0.015625 0.375l-5.734375 0q0.109375 0.9375 0.8125 1.5q0.703125 0.5625 1.734375 0.5625q1.28125 0 2.046875 -0.84375l0.703125 0.828125q-0.484375 0.5625 -1.203125 0.859375q-0.703125 0.28125 -1.578125 0.28125q-1.125 0 -2.0 -0.453125q-0.859375 -0.46875 -1.328125 -1.296875q-0.46875 -0.828125 -0.46875 -1.859375q0 -1.03125 0.453125 -1.84375q0.46875 -0.828125 1.265625 -1.28125q0.8125 -0.46875 1.828125 -0.46875q1.015625 0 1.796875 0.46875q0.796875 0.453125 1.234375 1.28125q0.453125 0.8125 0.453125 1.890625zm-3.484375 -2.5625q-0.921875 0 -1.546875 0.5625q-0.609375 0.546875 -0.71875 1.453125l4.53125 0q-0.109375 -0.890625 -0.734375 -1.453125q-0.609375 -0.5625 -1.53125 -0.5625zm7.628662 -1.078125q1.46875 0 2.25 0.71875q0.78125 0.71875 0.78125 2.140625l0 4.265625l-1.21875 0l0 -0.9375q-0.3125 0.5 -0.90625 0.765625q-0.59375 0.25 -1.40625 0.25q-1.1875 0 -1.90625 -0.5625q-0.703125 -0.578125 -0.703125 -1.515625q0 -0.9375 0.671875 -1.5q0.6875 -0.5625 2.15625 -0.5625l2.03125 0l0 -0.25q0 -0.828125 -0.484375 -1.265625q-0.46875 -0.453125 -1.40625 -0.453125q-0.625 0 -1.234375 0.21875q-0.59375 0.203125 -1.0 0.546875l-0.546875 -0.953125q0.546875 -0.4375 1.3125 -0.671875q0.765625 -0.234375 1.609375 -0.234375zm-0.296875 6.21875q0.734375 0 1.265625 -0.328125q0.546875 -0.328125 0.78125 -0.921875l0 -0.984375l-1.96875 0q-1.625 0 -1.625 1.09375q0 0.53125 0.40625 0.84375q0.421875 0.296875 1.140625 0.296875zm7.720215 0.984375q-0.859375 0 -1.671875 -0.234375q-0.796875 -0.234375 -1.25 -0.59375l0.546875 -1.015625q0.453125 0.34375 1.125 0.546875q0.671875 0.1875 1.34375 0.1875q1.6875 0 1.6875 -0.953125q0 -0.328125 -0.234375 -0.5q-0.21875 -0.1875 -0.5625 -0.28125q-0.34375 -0.09375 -0.96875 -0.1875q-0.84375 -0.140625 -1.390625 -0.3125q-0.546875 -0.171875 -0.9375 -0.578125q-0.375 -0.421875 -0.375 -1.171875q0 -0.953125 0.796875 -1.53125q0.796875 -0.578125 2.140625 -0.578125q0.71875 0 1.421875 0.171875q0.703125 0.171875 1.15625 0.46875l-0.546875 1.0q-0.859375 -0.546875 -2.03125 -0.546875q-0.8125 0 -1.25 0.265625q-0.421875 0.265625 -0.421875 0.703125q0 0.34375 0.234375 0.546875q0.25 0.203125 0.59375 0.296875q0.359375 0.09375 1.0 0.203125q0.84375 0.15625 1.375 0.328125q0.53125 0.15625 0.90625 0.5625q0.375 0.390625 0.375 1.109375q0 0.96875 -0.828125 1.53125q-0.8125 0.5625 -2.234375 0.5625zm11.036743 -3.5625q0 0.140625 -0.015625 0.375l-5.734375 0q0.109375 0.9375 0.8125 1.5q0.703125 0.5625 1.734375 0.5625q1.28125 0 2.046875 -0.84375l0.703125 0.828125q-0.484375 0.5625 -1.203125 0.859375q-0.703125 0.28125 -1.578125 0.28125q-1.125 0 -2.0 -0.453125q-0.859375 -0.46875 -1.328125 -1.296875q-0.46875 -0.828125 -0.46875 -1.859375q0 -1.03125 0.453125 -1.84375q0.46875 -0.828125 1.265625 -1.28125q0.8125 -0.46875 1.828125 -0.46875q1.015625 0 1.796875 0.46875q0.796875 0.453125 1.234375 1.28125q0.453125 0.8125 0.453125 1.890625zm-3.484375 -2.5625q-0.921875 0 -1.546875 0.5625q-0.609375 0.546875 -0.71875 1.453125l4.53125 0q-0.109375 -0.890625 -0.734375 -1.453125q-0.609375 -0.5625 -1.53125 -0.5625zm8.851379 -1.015625l1.28125 0l0 7.0625l-1.28125 0l0 -7.0625zm0.625 -1.359375q-0.375 0 -0.625 -0.234375q-0.234375 -0.25 -0.234375 -0.59375q0 -0.34375 0.234375 -0.59375q0.25 -0.25 0.625 -0.25q0.375 0 0.625 0.234375q0.25 0.234375 0.25 0.578125q0 0.359375 -0.25 0.609375q-0.25 0.25 -0.625 0.25zm6.859192 1.296875q1.34375 0 2.140625 0.78125q0.796875 0.765625 0.796875 2.28125l0 4.0625l-1.28125 0l0 -3.921875q0 -1.015625 -0.5 -1.53125q-0.484375 -0.53125 -1.40625 -0.53125q-1.046875 0 -1.640625 0.609375q-0.59375 0.609375 -0.59375 1.734375l0 3.640625l-1.28125 0l0 -7.0625l1.21875 0l0 1.0625q0.390625 -0.546875 1.046875 -0.828125q0.65625 -0.296875 1.5 -0.296875z" fill-rule="nonzero"/><path fill="#000000" d="m569.4856 402.38055l1.28125 0l0 7.0625l-1.28125 0l0 -7.0625zm0.625 -1.359375q-0.375 0 -0.625 -0.234375q-0.234375 -0.25 -0.234375 -0.59375q0 -0.34375 0.234375 -0.59375q0.25 -0.25 0.625 -0.25q0.375 0 0.625 0.234375q0.25 0.234375 0.25 0.578125q0 0.359375 -0.25 0.609375q-0.25 0.25 -0.625 0.25zm6.859192 1.296875q1.34375 0 2.140625 0.78125q0.796875 0.765625 0.796875 2.28125l0 4.0625l-1.28125 0l0 -3.921875q0 -1.015625 -0.5 -1.53125q-0.484375 -0.53125 -1.40625 -0.53125q-1.046875 0 -1.640625 0.609375q-0.59375 0.609375 -0.59375 1.734375l0 3.640625l-1.28125 0l0 -7.0625l1.21875 0l0 1.0625q0.390625 -0.546875 1.046875 -0.828125q0.65625 -0.296875 1.5 -0.296875zm8.428894 7.203125q-1.078125 0 -1.9375 -0.46875q-0.84375 -0.46875 -1.328125 -1.28125q-0.46875 -0.828125 -0.46875 -1.859375q0 -1.046875 0.46875 -1.859375q0.484375 -0.8125 1.328125 -1.265625q0.859375 -0.46875 1.9375 -0.46875q0.953125 0 1.703125 0.390625q0.75 0.375 1.171875 1.109375l-0.96875 0.625q-0.34375 -0.5 -0.84375 -0.75q-0.484375 -0.265625 -1.078125 -0.265625q-0.703125 0 -1.25 0.3125q-0.546875 0.3125 -0.859375 0.875q-0.3125 0.5625 -0.3125 1.296875q0 0.75 0.3125 1.3125q0.3125 0.5625 0.859375 0.875q0.546875 0.296875 1.25 0.296875q0.59375 0 1.078125 -0.25q0.5 -0.25 0.84375 -0.75l0.96875 0.609375q-0.421875 0.734375 -1.171875 1.125q-0.75 0.390625 -1.703125 0.390625zm7.441162 0q-1.046875 0 -1.890625 -0.46875q-0.84375 -0.46875 -1.3125 -1.28125q-0.46875 -0.828125 -0.46875 -1.859375q0 -1.046875 0.46875 -1.859375q0.46875 -0.8125 1.3125 -1.265625q0.84375 -0.46875 1.890625 -0.46875q1.0625 0 1.890625 0.46875q0.828125 0.453125 1.296875 1.265625q0.484375 0.8125 0.484375 1.859375q0 1.03125 -0.484375 1.859375q-0.46875 0.8125 -1.296875 1.28125q-0.828125 0.46875 -1.890625 0.46875zm0 -1.125q0.6875 0 1.21875 -0.3125q0.546875 -0.3125 0.84375 -0.875q0.3125 -0.5625 0.3125 -1.296875q0 -0.734375 -0.3125 -1.296875q-0.296875 -0.5625 -0.84375 -0.875q-0.53125 -0.3125 -1.21875 -0.3125q-0.671875 0 -1.21875 0.3125q-0.53125 0.3125 -0.84375 0.875q-0.3125 0.5625 -0.3125 1.296875q0 0.734375 0.3125 1.296875q0.3125 0.5625 0.84375 0.875q0.546875 0.3125 1.21875 0.3125zm14.275818 -6.078125q1.328125 0 2.109375 0.78125q0.78125 0.765625 0.78125 2.28125l0 4.0625l-1.28125 0l0 -3.921875q0 -1.015625 -0.46875 -1.53125q-0.46875 -0.53125 -1.34375 -0.53125q-0.984375 0 -1.5625 0.609375q-0.5625 0.609375 -0.5625 1.734375l0 3.640625l-1.28125 0l0 -3.921875q0 -1.015625 -0.484375 -1.53125q-0.46875 -0.53125 -1.34375 -0.53125q-0.96875 0 -1.546875 0.609375q-0.5625 0.609375 -0.5625 1.734375l0 3.640625l-1.28125 0l0 -7.0625l1.21875 0l0 1.046875q0.390625 -0.546875 1.015625 -0.828125q0.625 -0.28125 1.421875 -0.28125q0.828125 0 1.46875 0.328125q0.640625 0.328125 0.984375 0.96875q0.40625 -0.609375 1.109375 -0.953125q0.71875 -0.34375 1.609375 -0.34375zm11.674622 3.640625q0 0.140625 -0.015625 0.375l-5.734375 0q0.109375 0.9375 0.8125 1.5q0.703125 0.5625 1.734375 0.5625q1.28125 0 2.046875 -0.84375l0.703125 0.828125q-0.484375 0.5625 -1.203125 0.859375q-0.703125 0.28125 -1.578125 0.28125q-1.125 0 -2.0 -0.453125q-0.859375 -0.46875 -1.328125 -1.296875q-0.46875 -0.828125 -0.46875 -1.859375q0 -1.03125 0.453125 -1.84375q0.46875 -0.828125 1.265625 -1.28125q0.8125 -0.46875 1.828125 -0.46875q1.015625 0 1.796875 0.46875q0.796875 0.453125 1.234375 1.28125q0.453125 0.8125 0.453125 1.890625zm-3.484375 -2.5625q-0.921875 0 -1.546875 0.5625q-0.609375 0.546875 -0.71875 1.453125l4.53125 0q-0.109375 -0.890625 -0.734375 -1.453125q-0.609375 -0.5625 -1.53125 -0.5625zm5.5630493 6.125q-0.375 0 -0.640625 -0.25q-0.265625 -0.265625 -0.265625 -0.671875q0 -0.375 0.265625 -0.640625q0.265625 -0.265625 0.640625 -0.265625q0.375 0 0.625 0.265625q0.265625 0.25 0.265625 0.640625q0 0.40625 -0.265625 0.671875q-0.265625 0.25 -0.625 0.25z" fill-rule="nonzero"/><path fill="#000000" fill-opacity="0.0" d="m259.713 288.322l8.6562195 0l0 -8.6562195l8.148682 0l0 8.6562195l8.6562195 0l0 8.148651l-8.6562195 0l0 8.6562195l-8.148682 0l0 -8.6562195l-8.6562195 0z" fill-rule="evenodd"/><path stroke="#1b511a" stroke-width="2.0" stroke-linejoin="round" stroke-linecap="butt" d="m259.713 288.322l8.6562195 0l0 -8.6562195l8.148682 0l0 8.6562195l8.6562195 0l0 8.148651l-8.6562195 0l0 8.6562195l-8.148682 0l0 -8.6562195l-8.6562195 0z" fill-rule="evenodd"/><path fill="#000000" fill-opacity="0.0" d="m475.93243 282.21066l25.46109 0l0 8.148651l-25.46109 0zm0 12.222992l25.46109 0l0 8.148651l-25.46109 0z" fill-rule="evenodd"/><path stroke="#1b511a" stroke-width="2.0" stroke-linejoin="round" stroke-linecap="butt" d="m475.93243 282.21066l25.46109 0l0 8.148651l-25.46109 0zm0 12.222992l25.46109 0l0 8.148651l-25.46109 0z" fill-rule="evenodd"/></g></svg>